<svg xmlns="http://www.w3.org/2000/svg" xmlns:xlink="http://www.w3.org/1999/xlink" width="32" height="32" viewBox="0 0 32 32"><defs><linearGradient id="a" x1="6" y1="16.25" x2="26" y2="16.25" gradientUnits="userSpaceOnUse"><stop offset="0" stop-color="#333"/><stop offset="1" stop-color="#bfbfbf"/></linearGradient></defs><title>cone</title><path d="M7.33,21.74a7.74,7.74,0,0,1,1.58-.92,19.59,19.59,0,0,1,14.14,0,6.68,6.68,0,0,1,2.15,1.42" fill="none" stroke="#5c6062" stroke-linejoin="round" stroke-width="1.25" stroke-dasharray="2.45 1.47"/><path d="M26,23c0,1.4-.6,2-2.58,3-3.89,1.92-10.69,2-14.61.1C6.79,25.14,6,24.41,6,23L16,5Z" opacity="0.75" fill="url(#a)"/><polyline points="6 23 6 22.99 7.89 19.59 16 5 24.14 19.66 26 23" fill="none" stroke="#5c6062" stroke-miterlimit="10"/><path d="M26,23c0,1.15-1,2.3-2.91,3.18A19.59,19.59,0,0,1,9,26.18C7,25.31,6,24.16,6,23" fill="none" stroke="#5c6062" stroke-linecap="round" stroke-miterlimit="10"/></svg>