<svg xmlns="http://www.w3.org/2000/svg" xmlns:xlink="http://www.w3.org/1999/xlink" width="32" height="32" viewBox="0 0 32 32"><defs><linearGradient id="a" x1="4" y1="16" x2="28" y2="16" gradientUnits="userSpaceOnUse"><stop offset="0" stop-color="#333"/><stop offset="1" stop-color="#bfbfbf"/></linearGradient></defs><title>sphere</title><path d="M4.6,16c0-1.16,1.1-2.31,3.33-3.21a25.42,25.42,0,0,1,16.17,0c2.23.89,3.36,2.05,3.38,3.21" fill="none" stroke="#5c6062" stroke-linecap="round" stroke-linejoin="round" stroke-dasharray="2.5 1.5"/><circle cx="16" cy="16" r="12" opacity="0.75" fill="url(#a)"/><path d="M16,4.91A11.09,11.09,0,1,1,4.91,16,11.1,11.1,0,0,1,16,4.91M16,4A12,12,0,1,0,28,16,12,12,0,0,0,16,4Z" fill="#5c6062"/><path d="M27.47,16c0,1.16-1.09,2.31-3.32,3.21A25.45,25.45,0,0,1,8,19.2C5.73,18.31,4.61,17.15,4.6,16" fill="none" stroke="#5c6062" stroke-miterlimit="10"/></svg>