<svg xmlns="http://www.w3.org/2000/svg" xmlns:xlink="http://www.w3.org/1999/xlink" width="32" height="32" viewBox="0 0 32 32"><defs><linearGradient id="a" x1="8.11" y1="6.65" x2="23.87" y2="6.65" gradientUnits="userSpaceOnUse"><stop offset="0" stop-color="#bfbfbf"/><stop offset="1" stop-color="#333"/></linearGradient><linearGradient id="b" x1="8.02" y1="18.13" x2="23.98" y2="18.13" gradientUnits="userSpaceOnUse"><stop offset="0" stop-color="#333"/><stop offset="1" stop-color="#bfbfbf"/></linearGradient></defs><g opacity="0.75"><path d="M23.84,6.63l0,0a3.32,3.32,0,0,1-2.13,2.92,13.6,13.6,0,0,1-11.27,0C8.9,8.77,8.11,7.69,8.11,6.63a5.06,5.06,0,0,1,2.51-2.89,12.34,12.34,0,0,1,11.09.12A4,4,0,0,1,23.84,6.63Z" fill="url(#a)"/></g><path d="M23.77,6.87,24,24.61v.07c.09,1.25-.68,2.43-2.32,3.38a12.37,12.37,0,0,1-11.27,0C8.74,27.11,8,25.9,8,24.65v0L8.18,6.84c0,1.18.64,1.8,2.2,2.7a12.37,12.37,0,0,0,11.27,0C23.2,8.64,23.77,8.06,23.77,6.87Z" opacity="0.75" fill="url(#b)"/><path d="M16,3.22a10.58,10.58,0,0,1,5.24,1.25,3.49,3.49,0,0,1,2,3.42v17h0c0,1-.32,1.75-1.92,2.68A10.59,10.59,0,0,1,16,28.81a10.69,10.69,0,0,1-5.24-1.25c-1.3-.75-2-1.74-1.95-2.71V7a3.18,3.18,0,0,1,1.91-2.57A10.58,10.58,0,0,1,16,3.22m0-.8a11.43,11.43,0,0,0-5.64,1.36A4,4,0,0,0,8,7V24.79C8,26,8.74,27.3,10.38,28.25A11.54,11.54,0,0,0,16,29.61a11.47,11.47,0,0,0,5.63-1.36C23.29,27.3,24,26.36,24,24.88v-17a4.26,4.26,0,0,0-2.35-4.11A11.43,11.43,0,0,0,16,2.42Z" fill="#5c6062"/><path d="M23.57,7.06c0,1-.68,1.89-2.16,2.62a13.9,13.9,0,0,1-10.78,0C9.13,9,8.44,8,8.43,7.06" fill="none" stroke="#5c6062" stroke-miterlimit="10" stroke-width="0.8"/><path d="M23.47,12.53a13.5,13.5,0,0,1-11.69,2.53,7,7,0,0,1-3.19-1.78" fill="none" stroke="#5c6062" stroke-linecap="round" stroke-miterlimit="10"/><path d="M23.47,15.69a13.53,13.53,0,0,1-11.69,2.53,7.09,7.09,0,0,1-3.19-1.78" fill="none" stroke="#5c6062" stroke-linecap="round" stroke-miterlimit="10"/><path d="M23.47,18.84a13.53,13.53,0,0,1-11.69,2.54,7.12,7.12,0,0,1-3.19-1.79" fill="none" stroke="#5c6062" stroke-linecap="round" stroke-miterlimit="10"/><path d="M23.47,22a13.5,13.5,0,0,1-11.69,2.53,7,7,0,0,1-3.19-1.78" fill="none" stroke="#5c6062" stroke-linecap="round" stroke-miterlimit="10"/></svg>