<svg width="16" height="16" viewBox="0 0 16 16" fill="none" xmlns="http://www.w3.org/2000/svg">
<path fill-rule="evenodd" clip-rule="evenodd" d="M16 13.7144C16 14.0299 15.7442 14.2858 15.4286 14.2858H0.571429C0.255837 14.2858 0 14.0299 0 13.7144V4.00007C0 3.68448 0.255837 3.42864 0.571429 3.42864H4.26286L5.24 1.9715C5.34513 1.81185 5.52313 1.71534 5.71429 1.71436H10.2857C10.4769 1.71534 10.6549 1.81185 10.76 1.9715L11.7371 3.42864H15.4286C15.7442 3.42864 16 3.68448 16 4.00007V13.7144ZM1.14286 13.1429H14.8571V4.5715H11.4286C11.2374 4.57051 11.0594 4.474 10.9543 4.31436L9.97714 2.85721H6.02286L5.04571 4.31436C4.94058 4.474 4.76258 4.57051 4.57143 4.5715H1.14286V13.1429ZM8 12.0001C6.10645 12.0001 4.57143 10.465 4.57143 8.5715C4.57143 6.67795 6.10645 5.14293 8 5.14293C9.89355 5.14293 11.4286 6.67795 11.4286 8.5715C11.4286 10.465 9.89355 12.0001 8 12.0001ZM8 6.28578C6.73764 6.28578 5.71429 7.30913 5.71429 8.5715C5.71429 9.83386 6.73764 10.8572 8 10.8572C9.26237 10.8572 10.2857 9.83386 10.2857 8.5715C10.2857 7.30913 9.26237 6.28578 8 6.28578Z" fill="white"/>
</svg>
