<svg viewBox="0 0 16 16" xmlns="http://www.w3.org/2000/svg">
<path d="M11.65 5.05C11.8433 4.8567 11.8433 4.5433 11.65 4.35C11.4567 4.1567 11.1433 4.1567 10.95 4.35L8.70711 6.59289C8.31658 6.98342 7.68342 6.98342 7.29289 6.59289L5.05 4.35C4.8567 4.1567 4.5433 4.1567 4.35 4.35C4.1567 4.5433 4.1567 4.8567 4.35 5.05L6.59289 7.29289C6.98342 7.68342 6.98342 8.31658 6.59289 8.70711L4.35 10.95C4.1567 11.1433 4.1567 11.4567 4.35 11.65C4.5433 11.8433 4.8567 11.8433 5.05 11.65L7.29289 9.40711C7.68342 9.01658 8.31658 9.01658 8.70711 9.40711L10.95 11.65C11.1433 11.8433 11.4567 11.8433 11.65 11.65C11.8433 11.4567 11.8433 11.1433 11.65 10.95L9.40711 8.70711C9.01658 8.31658 9.01658 7.68342 9.40711 7.29289L11.65 5.05Z" />
</svg>
