<svg viewBox="0 0 12 12" fill="currentColor" xmlns="http://www.w3.org/2000/svg">
<path fill-rule="evenodd" clip-rule="evenodd" d="M11.475 1.575C11.7649 1.28505 11.7649 0.81495 11.475 0.525C11.1851 0.235051 10.715 0.235051 10.425 0.525L6.70711 4.24289C6.31658 4.63342 5.68342 4.63342 5.29289 4.24289L1.575 0.525C1.28505 0.235051 0.81495 0.235051 0.525 0.525C0.235051 0.81495 0.235051 1.28505 0.525 1.575L4.24289 5.29289C4.63342 5.68342 4.63342 6.31658 4.24289 6.70711L0.525 10.425C0.235051 10.7149 0.235051 11.1851 0.525 11.475C0.81495 11.7649 1.28505 11.7649 1.575 11.475L5.29289 7.75711C5.68342 7.36658 6.31658 7.36658 6.70711 7.75711L10.425 11.475C10.7149 11.7649 11.1851 11.7649 11.475 11.475C11.7649 11.1851 11.7649 10.715 11.475 10.425L7.75711 6.70711C7.36658 6.31658 7.36658 5.68342 7.75711 5.29289L11.475 1.575Z" fill="currentColor"/>
</svg>
