<svg width="14" height="14" viewBox="0 0 14 14" fill="none" xmlns="http://www.w3.org/2000/svg">
<path d="M0.480392 0.480392C0.745705 0.215079 1.17586 0.215079 1.44118 0.480392L4.5451 3.58431C4.67096 3.71018 4.88618 3.62127 4.88652 3.44328L4.88908 2.11787C4.88981 1.74393 5.19315 1.44118 5.56709 1.44118C5.94154 1.44118 6.2451 1.74473 6.2451 2.11918V5.2451C6.2451 5.79738 5.79738 6.2451 5.2451 6.2451H2.11918C1.74473 6.2451 1.44118 5.94154 1.44118 5.56709C1.44118 5.19315 1.74393 4.88981 2.11787 4.88908L3.44328 4.88652C3.62127 4.88618 3.71018 4.67096 3.58431 4.5451L0.480392 1.44118C0.215079 1.17586 0.215079 0.745705 0.480392 0.480392Z" fill="#2B2C46"/>
<path d="M2.11918 7.7549C1.74473 7.7549 1.44118 8.05846 1.44118 8.43291C1.44118 8.80685 1.74393 9.11019 2.11787 9.11092L3.44328 9.11348C3.62127 9.11383 3.71018 9.32904 3.58431 9.4549L0.480392 12.5588C0.215079 12.8241 0.215079 13.2543 0.480392 13.5196C0.745705 13.7849 1.17586 13.7849 1.44118 13.5196L4.5451 10.4157C4.67096 10.2898 4.88618 10.3787 4.88652 10.5567L4.88908 11.8821C4.88981 12.2561 5.19315 12.5588 5.56709 12.5588C5.94154 12.5588 6.2451 12.2553 6.2451 11.8808V8.7549C6.2451 8.20262 5.79738 7.7549 5.2451 7.7549H2.11918Z" fill="#2B2C46"/>
<path d="M13.5196 0.480392C13.2543 0.215079 12.8241 0.215079 12.5588 0.480392L9.4549 3.58431C9.32904 3.71018 9.11383 3.62127 9.11348 3.44328L9.11092 2.11787C9.11019 1.74393 8.80685 1.44118 8.43291 1.44118C8.05846 1.44118 7.7549 1.74473 7.7549 2.11918V5.2451C7.7549 5.79738 8.20262 6.2451 8.7549 6.2451H11.8808C12.2553 6.2451 12.5588 5.94154 12.5588 5.56709C12.5588 5.19315 12.2561 4.88981 11.8821 4.88908L10.5567 4.88652C10.3787 4.88618 10.2898 4.67096 10.4157 4.5451L13.5196 1.44118C13.7849 1.17586 13.7849 0.745705 13.5196 0.480392Z" fill="#2B2C46"/>
<path d="M13.5196 13.5196C13.2543 13.7849 12.8241 13.7849 12.5588 13.5196L9.4549 10.4157C9.32904 10.2898 9.11383 10.3787 9.11348 10.5567L9.11092 11.8821C9.11019 12.2561 8.80685 12.5588 8.43291 12.5588C8.05846 12.5588 7.7549 12.2553 7.7549 11.8808V8.7549C7.7549 8.20262 8.20262 7.7549 8.7549 7.7549H11.8808C12.2553 7.7549 12.5588 8.05846 12.5588 8.43291C12.5588 8.80685 12.2561 9.11019 11.8821 9.11092L10.5567 9.11348C10.3787 9.11383 10.2898 9.32904 10.4157 9.4549L13.5196 12.5588C13.7849 12.8241 13.7849 13.2543 13.5196 13.5196Z" fill="#2B2C46"/>
</svg>
