<svg width="16" height="16" viewBox="0 0 16 16" fill="none" xmlns="http://www.w3.org/2000/svg">
<path fill-rule="evenodd" clip-rule="evenodd" d="M0.710142 5.53825C1.10221 5.53825 1.42028 5.22014 1.42028 4.82804V2.69216C1.42028 1.99087 1.99071 1.4204 2.69193 1.4204H4.87323C5.26529 1.4204 5.58337 1.1023 5.58337 0.710201C5.58337 0.318104 5.26529 0 4.87323 0H2.69193C1.20757 0 0 1.20767 0 2.69216V4.82804C0 5.22014 0.318078 5.53825 0.710142 5.53825ZM11.1268 0H13.3081C14.7925 0 16 1.20767 16 2.69216V4.82804C16 5.22014 15.682 5.53825 15.2899 5.53825C14.8978 5.53825 14.5798 5.22014 14.5798 4.82804V2.69216C14.5798 1.99087 14.0093 1.4204 13.3081 1.4204H11.1268C10.7347 1.4204 10.4167 1.1023 10.4167 0.710201C10.4167 0.318104 10.7347 0 11.1268 0ZM14.5798 11.1716C14.5798 10.7795 14.8978 10.4614 15.2899 10.4614C15.682 10.4614 16 10.7795 16 11.1716V13.3078C16 14.7923 14.7925 16 13.3081 16H11.1268C10.7347 16 10.4167 15.6819 10.4167 15.2898C10.4167 14.8977 10.7347 14.5796 11.1268 14.5796H13.3081C14.0093 14.5796 14.5798 14.0091 14.5798 13.3078V11.1716ZM2.69193 14.5796H4.87323C5.26529 14.5796 5.58337 14.8977 5.58337 15.2898C5.58337 15.6819 5.26529 16 4.87323 16H2.69193C1.20757 16 0 14.7923 0 13.3078V11.1716C0 10.7792 0.318078 10.4614 0.710142 10.4614C1.10221 10.4614 1.42028 10.7795 1.42028 11.1716V13.3078C1.42028 14.0091 1.99071 14.5796 2.69193 14.5796Z" fill="#2B2C46"/>
</svg>
