<svg width="335" height="143" viewBox="0 0 335 143" fill="none" xmlns="http://www.w3.org/2000/svg">
<path fill-rule="evenodd" clip-rule="evenodd" d="M133.278 25.6784C135.088 25.6784 136.556 24.21 136.556 22.3999V12.5401C136.556 9.30275 139.19 6.66928 142.427 6.66928H152.496C154.306 6.66928 155.774 5.20083 155.774 3.39079C155.774 1.58076 154.306 0.112305 152.496 0.112305H142.427C135.574 0.112305 130 5.68726 130 12.5401V22.3999C130 24.21 131.468 25.6784 133.278 25.6784ZM181.371 0.112305H191.44C198.292 0.112305 203.867 5.68726 203.867 12.5401V22.3999C203.867 24.21 202.399 25.6784 200.589 25.6784C198.779 25.6784 197.31 24.21 197.31 22.3999V12.5401C197.31 9.30275 194.677 6.66928 191.44 6.66928H181.371C179.561 6.66928 178.093 5.20083 178.093 3.39079C178.093 1.58076 179.561 0.112305 181.371 0.112305ZM197.31 51.6834C197.31 49.8733 198.779 48.4049 200.589 48.4049C202.399 48.4049 203.867 49.8733 203.867 51.6834V61.5448C203.867 68.3976 198.292 73.9725 191.44 73.9725H181.371C179.561 73.9725 178.093 72.5041 178.093 70.694C178.093 68.884 179.561 67.4156 181.371 67.4156H191.44C194.677 67.4156 197.31 64.7821 197.31 61.5448V51.6834ZM142.427 67.4156H152.496C154.306 67.4156 155.774 68.884 155.774 70.694C155.774 72.5041 154.306 73.9725 152.496 73.9725H142.427C135.574 73.9725 130 68.3976 130 61.5448V51.6834C130 49.8718 131.468 48.4049 133.278 48.4049C135.088 48.4049 136.556 49.8733 136.556 51.6834V61.5448C136.556 64.7821 139.19 67.4156 142.427 67.4156ZM185.516 59.3961C186.524 59.3961 187.471 59.0042 188.183 58.2921C189.653 56.8221 189.653 54.4295 188.183 52.9596L182.706 47.4822C184.762 44.3959 185.841 40.8155 185.841 37.0475C185.841 31.9986 183.876 27.2517 180.306 23.6819C176.737 20.1122 171.99 18.1466 166.942 18.1466C161.893 18.1466 157.147 20.1122 153.577 23.6819C150.008 27.2517 148.043 31.9986 148.043 37.0475C148.043 42.0963 150.008 46.8433 153.577 50.413C157.147 53.9827 161.893 55.9483 166.942 55.9483C170.71 55.9483 174.29 54.8687 177.374 52.8132L182.851 58.2905C183.563 59.0026 184.51 59.3945 185.518 59.3945L185.516 59.3961ZM175.173 44.864C175.098 44.928 175.026 44.9951 174.958 45.0622C174.889 45.1308 174.822 45.204 174.756 45.2803C172.634 47.2977 169.862 48.4063 166.94 48.4063C160.677 48.4063 155.583 43.3101 155.583 37.0475C155.583 30.7848 160.678 25.6887 166.94 25.6887C173.203 25.6887 178.298 30.7848 178.298 37.0475C178.298 39.9691 177.188 42.7414 175.173 44.864ZM37.4482 133.86V109.327H44.5618V133.86H37.4482ZM41.005 105.907C39.6978 105.907 38.6338 105.527 37.813 104.767C36.9922 104.007 36.5818 103.065 36.5818 101.94C36.5818 100.815 36.9922 99.8727 37.813 99.1127C38.6338 98.3527 39.6978 97.9727 41.005 97.9727C42.3122 97.9727 43.3762 98.3375 44.197 99.0671C45.0178 99.7663 45.4282 100.678 45.4282 101.803C45.4282 102.989 45.0178 103.977 44.197 104.767C43.4066 105.527 42.3426 105.907 41.005 105.907ZM135.462 133.86V100.025H142.575V133.86H135.462ZM269.084 109.92V133.86H272.322V109.92H269.084ZM269.039 103.946C269.495 104.402 270.057 104.63 270.726 104.63C271.425 104.63 271.987 104.402 272.413 103.946C272.869 103.49 273.097 102.928 273.097 102.259C273.097 101.621 272.869 101.089 272.413 100.663C271.957 100.237 271.395 100.025 270.726 100.025C270.057 100.025 269.495 100.253 269.039 100.709C268.583 101.134 268.354 101.666 268.354 102.305C268.354 102.943 268.583 103.49 269.039 103.946ZM293.551 109.692C295.497 109.692 297.199 110.072 298.658 110.832C300.148 111.561 301.303 112.686 302.124 114.206C302.975 115.726 303.401 117.641 303.401 119.952V133.86H300.163V120.271C300.163 117.748 299.525 115.848 298.248 114.571C297.002 113.264 295.238 112.61 292.958 112.61C291.256 112.61 289.766 112.96 288.49 113.659C287.243 114.328 286.27 115.316 285.571 116.623C284.902 117.9 284.568 119.45 284.568 121.274V133.86H281.33V109.92H284.431V114.276C285.186 113.005 286.235 111.978 287.578 111.197C289.25 110.193 291.241 109.692 293.551 109.692ZM322.36 142.934C320.171 142.934 318.074 142.615 316.067 141.977C314.061 141.338 312.435 140.426 311.188 139.241L312.83 136.778C313.955 137.781 315.338 138.572 316.979 139.15C318.651 139.757 320.415 140.061 322.269 140.061C325.309 140.061 327.543 139.347 328.972 137.918C330.401 136.52 331.115 134.331 331.115 131.352V128.337C330.171 129.718 328.97 130.799 327.513 131.58C325.811 132.492 323.895 132.948 321.767 132.948C319.487 132.948 317.435 132.461 315.611 131.489C313.787 130.485 312.343 129.102 311.279 127.339C310.246 125.576 309.729 123.554 309.729 121.274C309.729 118.994 310.246 116.988 311.279 115.255C312.343 113.492 313.787 112.124 315.611 111.151C317.435 110.178 319.487 109.692 321.767 109.692C323.895 109.692 325.811 110.133 327.513 111.014C329.041 111.806 330.287 112.94 331.252 114.417V109.92H334.353V130.941C334.353 135.076 333.335 138.101 331.298 140.016C329.291 141.961 326.312 142.934 322.36 142.934ZM322.087 130.075C323.85 130.075 325.415 129.71 326.783 128.981C328.151 128.221 329.231 127.187 330.021 125.88C330.811 124.542 331.207 123.007 331.207 121.274C331.207 119.541 330.811 118.021 330.021 116.714C329.231 115.407 328.151 114.389 326.783 113.659C325.415 112.899 323.85 112.519 322.087 112.519C320.354 112.519 318.788 112.899 317.39 113.659C316.022 114.389 314.943 115.407 314.152 116.714C313.392 118.021 313.012 119.541 313.012 121.274C313.012 123.007 313.392 124.542 314.152 125.88C314.943 127.187 316.022 128.221 317.39 128.981C318.788 129.71 320.354 130.075 322.087 130.075ZM250.489 109.692C252.435 109.692 254.137 110.072 255.597 110.832C257.086 111.561 258.241 112.686 259.062 114.206C259.913 115.726 260.339 117.641 260.339 119.952V133.86H257.101V120.271C257.101 117.748 256.463 115.848 255.186 114.571C253.94 113.264 252.177 112.61 249.897 112.61C248.194 112.61 246.705 112.96 245.428 113.659C244.181 114.328 243.209 115.316 242.509 116.623C241.841 117.9 241.506 119.45 241.506 121.274V133.86H238.269V109.92H241.369V114.276C242.124 113.005 243.173 111.978 244.516 111.197C246.188 110.193 248.179 109.692 250.489 109.692ZM210.974 141.977C212.98 142.615 215.078 142.934 217.266 142.934C221.218 142.934 224.198 141.961 226.204 140.016C228.241 138.101 229.259 135.076 229.259 130.941V109.92H226.158V114.417C225.194 112.94 223.947 111.806 222.419 111.014C220.717 110.133 218.802 109.692 216.674 109.692C214.394 109.692 212.342 110.178 210.518 111.151C208.694 112.124 207.25 113.492 206.186 115.255C205.152 116.988 204.635 118.994 204.635 121.274C204.635 123.554 205.152 125.576 206.186 127.339C207.25 129.102 208.694 130.485 210.518 131.489C212.342 132.461 214.394 132.948 216.674 132.948C218.802 132.948 220.717 132.492 222.419 131.58C223.876 130.799 225.077 129.718 226.022 128.337V131.352C226.022 134.331 225.307 136.52 223.878 137.918C222.45 139.347 220.215 140.061 217.175 140.061C215.321 140.061 213.558 139.757 211.886 139.15C210.244 138.572 208.861 137.781 207.736 136.778L206.094 139.241C207.341 140.426 208.967 141.338 210.974 141.977ZM221.69 128.981C220.322 129.71 218.756 130.075 216.993 130.075C215.26 130.075 213.694 129.71 212.296 128.981C210.928 128.221 209.849 127.187 209.058 125.88C208.298 124.542 207.918 123.007 207.918 121.274C207.918 119.541 208.298 118.021 209.058 116.714C209.849 115.407 210.928 114.389 212.296 113.659C213.694 112.899 215.26 112.519 216.993 112.519C218.756 112.519 220.322 112.899 221.69 113.659C223.058 114.389 224.137 115.407 224.927 116.714C225.718 118.021 226.113 119.541 226.113 121.274C226.113 123.007 225.718 124.542 224.927 125.88C224.137 127.187 223.058 128.221 221.69 128.981ZM188.222 134.088C185.987 134.088 183.965 133.604 182.157 132.637L179.193 137.097H177.004L180.64 131.639C179.431 130.704 178.432 129.559 177.642 128.205C176.578 126.351 176.046 124.238 176.046 121.867C176.046 119.465 176.578 117.353 177.642 115.529C178.706 113.705 180.15 112.276 181.974 111.242C183.798 110.209 185.881 109.692 188.222 109.692C190.503 109.692 192.53 110.17 194.305 111.126L197.205 106.773H199.348L195.818 112.084C197.06 113.009 198.069 114.157 198.846 115.529C199.91 117.353 200.442 119.465 200.442 121.867C200.442 124.238 199.91 126.351 198.846 128.205C197.813 130.029 196.369 131.473 194.514 132.537C192.66 133.571 190.562 134.088 188.222 134.088ZM188.222 131.215C186.596 131.215 185.128 130.856 183.819 130.137L194.13 114.624C194.866 115.262 195.481 116.035 195.974 116.942C196.764 118.341 197.159 119.982 197.159 121.867C197.159 123.721 196.764 125.363 195.974 126.792C195.214 128.19 194.165 129.285 192.827 130.075C191.49 130.835 189.954 131.215 188.222 131.215ZM192.654 113.605L182.344 129.081C181.625 128.44 181.015 127.677 180.515 126.792C179.725 125.363 179.33 123.721 179.33 121.867C179.33 119.982 179.725 118.341 180.515 116.942C181.306 115.544 182.37 114.465 183.707 113.705C185.045 112.914 186.565 112.519 188.267 112.519C189.896 112.519 191.359 112.881 192.654 113.605ZM153.053 132.993C155.242 133.753 157.522 134.133 159.893 134.133C162.629 134.133 164.864 133.738 166.596 132.948C168.36 132.127 169.667 131.063 170.518 129.756C171.369 128.418 171.795 126.974 171.795 125.424C171.795 123.752 171.43 122.399 170.7 121.365C170.001 120.332 169.059 119.511 167.873 118.903C166.718 118.265 165.441 117.748 164.043 117.353C162.675 116.957 161.292 116.593 159.893 116.258C158.495 115.924 157.203 115.544 156.017 115.118C154.862 114.693 153.92 114.1 153.19 113.34C152.491 112.58 152.141 111.577 152.141 110.33C152.141 109.236 152.43 108.263 153.008 107.412C153.616 106.53 154.543 105.831 155.789 105.314C157.036 104.797 158.616 104.539 160.532 104.539C161.96 104.539 163.435 104.752 164.955 105.177C166.505 105.603 167.964 106.272 169.332 107.184L170.472 104.493C169.196 103.612 167.676 102.928 165.912 102.441C164.149 101.925 162.371 101.666 160.577 101.666C157.872 101.666 155.652 102.077 153.92 102.897C152.187 103.688 150.895 104.752 150.044 106.089C149.223 107.397 148.812 108.841 148.812 110.421C148.812 112.124 149.162 113.507 149.861 114.571C150.591 115.605 151.533 116.441 152.688 117.079C153.874 117.717 155.166 118.234 156.564 118.629C157.963 118.994 159.361 119.344 160.76 119.678C162.158 120.013 163.435 120.408 164.59 120.864C165.745 121.289 166.672 121.882 167.372 122.642C168.101 123.402 168.466 124.405 168.466 125.652C168.466 126.685 168.162 127.628 167.554 128.479C166.976 129.33 166.049 130.014 164.772 130.531C163.526 131.017 161.9 131.261 159.893 131.261C157.796 131.261 155.789 130.896 153.874 130.166C151.989 129.406 150.484 128.479 149.36 127.385L148.037 129.984C149.223 131.2 150.895 132.203 153.053 132.993ZM111.482 132.583C113.61 133.677 116.073 134.225 118.87 134.225C121.089 134.225 123.05 133.89 124.752 133.221C126.454 132.522 127.868 131.534 128.993 130.257L125.208 126.153C124.387 126.944 123.475 127.537 122.472 127.932C121.499 128.327 120.359 128.525 119.052 128.525C117.593 128.525 116.316 128.266 115.222 127.749C114.158 127.202 113.322 126.427 112.714 125.424C112.399 124.861 112.17 124.253 112.027 123.6H130.589C130.619 123.296 130.65 122.977 130.68 122.642C130.71 122.277 130.726 121.958 130.726 121.685C130.726 119.04 130.163 116.775 129.038 114.89C127.914 112.975 126.378 111.516 124.433 110.513C122.518 109.479 120.359 108.962 117.958 108.962C115.465 108.962 113.23 109.509 111.254 110.604C109.278 111.668 107.713 113.157 106.558 115.073C105.433 116.957 104.87 119.131 104.87 121.593C104.87 124.025 105.448 126.199 106.603 128.114C107.758 129.999 109.385 131.489 111.482 132.583ZM124.026 119.45H111.945C112.063 118.69 112.289 118.006 112.622 117.398C113.139 116.425 113.854 115.681 114.766 115.164C115.708 114.617 116.787 114.343 118.003 114.343C119.219 114.343 120.283 114.617 121.195 115.164C122.107 115.681 122.822 116.41 123.338 117.353C123.681 117.978 123.911 118.677 124.026 119.45ZM85.7402 134.225C83.7034 134.225 81.8794 133.829 80.2682 133.039C78.6874 132.249 77.4562 131.048 76.5746 129.437C75.693 127.795 75.2522 125.713 75.2522 123.189V109.327H82.3658V122.141C82.3658 124.177 82.7914 125.682 83.6426 126.655C84.5242 127.597 85.7554 128.069 87.3362 128.069C88.4306 128.069 89.4034 127.841 90.2546 127.385C91.1058 126.898 91.7746 126.169 92.261 125.196C92.7474 124.193 92.9906 122.946 92.9906 121.457V109.327H100.104V133.86H93.3554V130.985C92.6844 131.779 91.8788 132.433 90.9386 132.948C89.3578 133.799 87.625 134.225 85.7402 134.225ZM53.3527 133.495C55.2983 133.981 57.3199 134.225 59.4175 134.225C61.8799 134.225 63.9623 133.89 65.6647 133.221C67.3975 132.553 68.7199 131.641 69.6319 130.485C70.5439 129.3 70.9999 127.947 70.9999 126.427C70.9999 125.029 70.7263 123.904 70.1791 123.053C69.6319 122.171 68.9175 121.487 68.0359 121.001C67.1847 120.484 66.2271 120.089 65.1631 119.815C64.0991 119.541 63.0351 119.344 61.9711 119.222C60.9375 119.07 59.9799 118.903 59.0983 118.721C58.2167 118.538 57.5023 118.295 56.9551 117.991C56.4383 117.687 56.1799 117.231 56.1799 116.623C56.1799 115.954 56.5447 115.407 57.2743 114.981C58.0039 114.556 59.1591 114.343 60.7399 114.343C61.8647 114.343 63.0199 114.48 64.2055 114.753C65.4215 114.997 66.6223 115.468 67.8079 116.167L70.1791 111.105C69.0239 110.406 67.5799 109.874 65.8471 109.509C64.1143 109.145 62.4119 108.962 60.7399 108.962C58.3687 108.962 56.3319 109.312 54.6295 110.011C52.9271 110.68 51.6199 111.607 50.7079 112.793C49.8263 113.978 49.3855 115.346 49.3855 116.897C49.3855 118.295 49.6439 119.435 50.1607 120.317C50.7079 121.198 51.4223 121.897 52.3039 122.414C53.1855 122.931 54.1583 123.326 55.2223 123.6C56.2863 123.843 57.3351 124.041 58.3687 124.193C59.4327 124.345 60.4055 124.497 61.2871 124.649C62.1687 124.801 62.8679 125.029 63.3847 125.333C63.9319 125.606 64.2055 126.032 64.2055 126.609C64.2055 127.309 63.8559 127.856 63.1567 128.251C62.4879 128.646 61.3327 128.844 59.6911 128.844C58.2015 128.844 56.6815 128.631 55.1311 128.205C53.6111 127.749 52.2887 127.172 51.1639 126.473L48.7927 131.58C49.9175 132.34 51.4375 132.978 53.3527 133.495ZM0 101.94L13.7712 133.86H21.0672L34.884 101.94H27.5424L17.6877 124.738L7.98 101.94H0Z" fill="#3E36DC"/>
</svg>
