<svg width="329" height="135" viewBox="0 0 329 135" fill="none" xmlns="http://www.w3.org/2000/svg">
<path fill-rule="evenodd" clip-rule="evenodd" d="M130.278 25.5661C132.088 25.5661 133.556 24.0977 133.556 22.2876V12.4278C133.556 9.19044 136.19 6.55698 139.427 6.55698H149.496C151.306 6.55698 152.774 5.08852 152.774 3.27849C152.774 1.46846 151.306 0 149.496 0H139.427C132.574 0 127 5.57496 127 12.4278V22.2876C127 24.0977 128.468 25.5661 130.278 25.5661ZM178.371 0H188.44C195.292 0 200.867 5.57496 200.867 12.4278V22.2876C200.867 24.0977 199.399 25.5661 197.589 25.5661C195.779 25.5661 194.31 24.0977 194.31 22.2876V12.4278C194.31 9.19044 191.677 6.55698 188.44 6.55698H178.371C176.561 6.55698 175.093 5.08852 175.093 3.27849C175.093 1.46846 176.561 0 178.371 0ZM194.31 51.5711C194.31 49.761 195.779 48.2926 197.589 48.2926C199.399 48.2926 200.867 49.761 200.867 51.5711V61.4325C200.867 68.2853 195.292 73.8602 188.44 73.8602H178.371C176.561 73.8602 175.093 72.3918 175.093 70.5817C175.093 68.7717 176.561 67.3033 178.371 67.3033H188.44C191.677 67.3033 194.31 64.6698 194.31 61.4325V51.5711ZM139.427 67.3033H149.496C151.306 67.3033 152.774 68.7717 152.774 70.5817C152.774 72.3918 151.306 73.8602 149.496 73.8602H139.427C132.574 73.8602 127 68.2853 127 61.4325V51.5711C127 49.7595 128.468 48.2926 130.278 48.2926C132.088 48.2926 133.556 49.761 133.556 51.5711V61.4325C133.556 64.6698 136.19 67.3033 139.427 67.3033ZM182.516 59.2838C183.524 59.2838 184.471 58.8919 185.183 58.1797C186.653 56.7098 186.653 54.3172 185.183 52.8473L179.706 47.3699C181.762 44.2836 182.841 40.7031 182.841 36.9352C182.841 31.8863 180.876 27.1394 177.306 23.5696C173.737 19.9999 168.99 18.0343 163.942 18.0343C158.893 18.0343 154.147 19.9999 150.577 23.5696C147.008 27.1394 145.043 31.8863 145.043 36.9352C145.043 41.984 147.008 46.731 150.577 50.3007C154.147 53.8704 158.893 55.836 163.942 55.836C167.71 55.836 171.29 54.7564 174.374 52.7009L179.851 58.1782C180.563 58.8903 181.51 59.2822 182.518 59.2822L182.516 59.2838ZM172.173 44.7517C172.098 44.8157 172.026 44.8828 171.958 44.9499C171.889 45.0185 171.822 45.0917 171.756 45.168C169.634 47.1854 166.862 48.294 163.94 48.294C157.677 48.294 152.583 43.1978 152.583 36.9352C152.583 30.6725 157.678 25.5764 163.94 25.5764C170.203 25.5764 175.298 30.6725 175.298 36.9352C175.298 39.8568 174.188 42.6291 172.173 44.7517ZM41.0496 105.934C38.4048 105.934 36.6264 104.202 36.6264 101.967C36.6264 99.7328 38.4048 98 41.0496 98C43.6944 98 45.4728 99.6416 45.4728 101.83C45.4728 104.202 43.6944 105.934 41.0496 105.934ZM37.4928 133.887V109.354H44.6064V133.887H37.4928ZM27.5424 101.967H34.884L21.0672 133.887H13.7712L0 101.967H7.98L17.6928 124.767L27.5424 101.967ZM48.8372 131.607C51.1172 133.112 55.3124 134.252 59.462 134.252C66.8036 134.252 71.0444 131.014 71.0444 126.454C71.0444 120.626 65.6582 119.787 61.3801 119.12C58.5618 118.681 56.2244 118.316 56.2244 116.65C56.2244 115.374 57.5924 114.37 60.7844 114.37C63.0188 114.37 65.4356 114.826 67.8524 116.194L70.2236 111.133C67.898 109.765 64.1588 108.99 60.7844 108.99C53.6252 108.99 49.43 112.273 49.43 116.924C49.43 122.903 54.9417 123.709 59.2426 124.339C61.9941 124.741 64.25 125.071 64.25 126.637C64.25 128.005 63.0188 128.871 59.7356 128.871C56.726 128.871 53.3972 127.914 51.2084 126.5L48.8372 131.607ZM93.035 109.354H100.149V133.887H93.3998V130.969C91.5302 133.112 88.7942 134.252 85.7846 134.252C79.6286 134.252 75.2966 130.786 75.2966 123.217V109.354H82.4102V122.168C82.4102 126.272 84.2342 128.096 87.3806 128.096C90.6638 128.096 93.035 125.998 93.035 121.484V109.354ZM130.681 123.072C130.724 122.602 130.77 122.1 130.77 121.712C130.77 113.823 125.207 108.99 118.002 108.99C110.524 108.99 104.915 114.279 104.915 121.621C104.915 128.917 110.433 134.252 118.914 134.252C123.337 134.252 126.757 132.884 129.037 130.285L125.253 126.181C123.565 127.777 121.696 128.552 119.097 128.552C115.357 128.552 112.758 126.682 112.074 123.627H130.633C130.647 123.454 130.664 123.266 130.681 123.072ZM111.983 119.478C112.485 116.331 114.81 114.37 118.048 114.37C121.24 114.37 123.565 116.377 124.067 119.478H111.983ZM135.506 133.887V100.052H142.62V133.887H135.506ZM149.222 100.052V133.887H156.335V100.052H149.222ZM186.969 121.712C186.969 122.1 186.923 122.602 186.88 123.072L186.88 123.075C186.869 123.196 186.858 123.315 186.848 123.43C186.842 123.497 186.837 123.563 186.832 123.627H168.273C168.957 126.682 171.556 128.552 175.295 128.552C177.894 128.552 179.764 127.777 181.451 126.181L185.236 130.285C182.956 132.884 179.536 134.252 175.113 134.252C166.631 134.252 161.113 128.917 161.113 121.621C161.113 114.279 166.722 108.99 174.201 108.99C181.405 108.99 186.969 113.823 186.969 121.712ZM174.246 114.37C171.009 114.37 168.683 116.331 168.181 119.478H180.265C179.764 116.377 177.438 114.37 174.246 114.37ZM190.565 130.011C192.936 132.474 197.633 134.161 202.421 134.161C210.583 134.161 214.322 130.148 214.322 125.451C214.322 119.225 208.688 117.849 203.453 116.571C198.911 115.461 194.669 114.425 194.669 110.358C194.669 107.166 197.268 104.566 203.105 104.566C205.932 104.566 209.124 105.433 211.86 107.211L213 104.521C210.446 102.742 206.707 101.694 203.105 101.694C194.988 101.694 191.34 105.752 191.34 110.449C191.34 116.795 197.015 118.178 202.265 119.457C206.787 120.558 210.993 121.583 210.993 125.634C210.993 128.78 208.394 131.288 202.421 131.288C198.225 131.288 194.167 129.646 191.887 127.412L190.565 130.011ZM239.367 109.902H242.605V133.887H239.504V129.51C237.817 132.428 234.716 134.115 230.886 134.115C224.775 134.115 220.762 130.695 220.762 123.81V109.902H224V123.49C224 128.598 226.645 131.197 231.205 131.197C236.221 131.197 239.367 127.959 239.367 122.487V109.902ZM249.256 121.894C249.256 129.054 254.454 134.115 261.613 134.115C265.672 134.115 269.092 132.474 271.007 129.373L268.59 127.731C266.948 130.148 264.395 131.242 261.613 131.242C256.369 131.242 252.539 127.549 252.539 121.894C252.539 116.286 256.369 112.546 261.613 112.546C264.395 112.546 266.948 113.686 268.59 116.103L271.007 114.462C269.092 111.315 265.672 109.719 261.613 109.719C254.454 109.719 249.256 114.735 249.256 121.894ZM289.232 109.719C295.068 109.719 299.081 113.094 299.081 119.979V133.887H295.844V120.298C295.844 115.237 293.199 112.638 288.639 112.638C283.486 112.638 280.248 115.83 280.248 121.302V133.887H277.011V100.052H280.248V114.097C282.027 111.315 285.173 109.719 289.232 109.719ZM328.87 122.325C328.881 122.168 328.89 122.021 328.89 121.894C328.89 114.69 324.011 109.719 317.262 109.719C310.514 109.719 305.543 114.781 305.543 121.894C305.543 129.008 310.65 134.115 318.129 134.115C321.914 134.115 325.242 132.747 327.386 130.194L325.562 128.096C323.738 130.194 321.138 131.242 318.22 131.242C312.976 131.242 309.146 127.914 308.781 122.898H328.845C328.845 122.702 328.858 122.507 328.87 122.326V122.325V122.325ZM308.781 120.481C309.191 115.784 312.611 112.501 317.262 112.501C321.959 112.501 325.379 115.784 325.79 120.481H308.781Z" />
</svg>
