<svg width="30px" height="27px" viewBox="0 0 30 27" version="1.1" xmlns="http://www.w3.org/2000/svg" xmlns:xlink="http://www.w3.org/1999/xlink">
    <g transform="translate(-1185.000000, -523.000000)" stroke="none" stroke-width="1" fill="#000000" fill-opacity="0.26" fill-rule="nonzero">
        <path d="M1201,536.585786 L1201,529 C1201,528.447715 1200.55228,528 1200,528 C1199.44772,528 1199,528.447715 1199,529 L1199,536.585786 L1196.70711,534.292893 C1196.31658,533.902369 1195.68342,533.902369 1195.29289,534.292893 C1194.90237,534.683418 1194.90237,535.316582 1195.29289,535.707107 L1200,540.414214 L1204.70711,535.707107 C1205.09763,535.316582 1205.09763,534.683418 1204.70711,534.292893 C1204.31658,533.902369 1203.68342,533.902369 1203.29289,534.292893 L1201,536.585786 Z M1206,548 C1206.55228,548 1207,548.447715 1207,549 C1207,549.552285 1206.55228,550 1206,550 L1194,550 C1193.44772,550 1193,549.552285 1193,549 C1193,548.447715 1193.44772,548 1194,548 L1206,548 Z M1187,523 L1213,523 C1214.10457,523 1215,523.895431 1215,525 L1215,542 C1215,543.104569 1214.10457,544 1213,544 L1187,544 C1185.89543,544 1185,543.104569 1185,542 L1185,525 C1185,523.895431 1185.89543,523 1187,523 Z"></path>
    </g>
</svg>
