<svg width="341" height="135" viewBox="0 0 341 135" fill="none" xmlns="http://www.w3.org/2000/svg">
<path fill-rule="evenodd" clip-rule="evenodd" d="M136.278 26.2067C138.088 26.2067 139.556 24.7383 139.556 22.9283V13.0684C139.556 9.83107 142.19 7.1976 145.427 7.1976H155.496C157.306 7.1976 158.774 5.72915 158.774 3.91911C158.774 2.10908 157.306 0.640625 155.496 0.640625H145.427C138.574 0.640625 133 6.21558 133 13.0684V22.9283C133 24.7383 134.468 26.2067 136.278 26.2067ZM184.371 0.640625H194.44C201.292 0.640625 206.867 6.21558 206.867 13.0684V22.9283C206.867 24.7383 205.399 26.2067 203.589 26.2067C201.779 26.2067 200.31 24.7383 200.31 22.9283V13.0684C200.31 9.83107 197.677 7.1976 194.44 7.1976H184.371C182.561 7.1976 181.093 5.72915 181.093 3.91911C181.093 2.10908 182.561 0.640625 184.371 0.640625ZM200.31 52.2117C200.31 50.4017 201.779 48.9332 203.589 48.9332C205.399 48.9332 206.867 50.4017 206.867 52.2117V62.0731C206.867 68.9259 201.292 74.5009 194.44 74.5009H184.371C182.561 74.5009 181.093 73.0324 181.093 71.2224C181.093 69.4123 182.561 67.9439 184.371 67.9439H194.44C197.677 67.9439 200.31 65.3104 200.31 62.0731V52.2117ZM145.427 67.9439H155.496C157.306 67.9439 158.774 69.4123 158.774 71.2224C158.774 73.0324 157.306 74.5009 155.496 74.5009H145.427C138.574 74.5009 133 68.9259 133 62.0731V52.2117C133 50.4001 134.468 48.9332 136.278 48.9332C138.088 48.9332 139.556 50.4017 139.556 52.2117V62.0731C139.556 65.3104 142.19 67.9439 145.427 67.9439ZM188.516 59.9244C189.524 59.9244 190.471 59.5325 191.183 58.8204C192.653 57.3504 192.653 54.9579 191.183 53.4879L185.706 48.0105C187.762 44.9242 188.841 41.3438 188.841 37.5758C188.841 32.5269 186.876 27.78 183.306 24.2103C179.737 20.6405 174.99 18.675 169.942 18.675C164.893 18.675 160.147 20.6405 156.577 24.2103C153.008 27.78 151.043 32.5269 151.043 37.5758C151.043 42.6247 153.008 47.3716 156.577 50.9413C160.147 54.5111 164.893 56.4766 169.942 56.4766C173.71 56.4766 177.29 55.397 180.374 53.3415L185.851 58.8188C186.563 59.531 187.51 59.9229 188.518 59.9229L188.516 59.9244ZM178.173 45.3923C178.098 45.4564 178.026 45.5235 177.958 45.5905C177.889 45.6592 177.822 45.7324 177.756 45.8086C175.634 47.826 172.862 48.9346 169.94 48.9346C163.677 48.9346 158.583 43.8385 158.583 37.5758C158.583 31.3131 163.678 26.217 169.94 26.217C176.203 26.217 181.298 31.3131 181.298 37.5758C181.298 40.4975 180.188 43.2697 178.173 45.3923ZM37.4482 134.388V109.855H44.5618V134.388H37.4482ZM41.005 106.435C39.6978 106.435 38.6338 106.055 37.813 105.295C36.9922 104.535 36.5818 103.593 36.5818 102.468C36.5818 101.343 36.9922 100.401 37.813 99.6409C38.6338 98.8809 39.6978 98.5009 41.005 98.5009C42.3122 98.5009 43.3762 98.8657 44.197 99.5953C45.0178 100.294 45.4282 101.206 45.4282 102.331C45.4282 103.517 45.0178 104.505 44.197 105.295C43.4066 106.055 42.3426 106.435 41.005 106.435ZM135.462 134.388V100.553H142.575V134.388H135.462ZM267.557 127.554V134.388H264.319V100.553H267.557V123.497L281.875 110.448H285.843L275.621 120.227L286.846 134.388H282.879L273.208 122.332L267.557 127.554ZM300.94 134.616C298.447 134.616 296.258 134.099 294.373 133.066C292.488 132.002 291.014 130.558 289.95 128.734C288.886 126.879 288.354 124.766 288.354 122.395C288.354 120.024 288.856 117.926 289.859 116.102C290.892 114.278 292.291 112.85 294.054 111.816C295.848 110.752 297.854 110.22 300.073 110.22C302.323 110.22 304.314 110.737 306.047 111.77C307.81 112.774 309.193 114.202 310.196 116.057C311.2 117.881 311.701 119.994 311.701 122.395C311.701 122.547 311.686 122.714 311.656 122.897V123.398H291.531C291.638 124.871 292.023 126.193 292.686 127.366C293.507 128.734 294.632 129.813 296.06 130.603C297.52 131.363 299.176 131.743 301.031 131.743C302.49 131.743 303.843 131.485 305.089 130.968C306.366 130.451 307.46 129.661 308.372 128.597L310.196 130.694C309.132 131.971 307.795 132.944 306.184 133.613C304.603 134.282 302.855 134.616 300.94 134.616ZM292.595 117.334C292.013 118.424 291.663 119.64 291.545 120.982H308.606C308.489 119.635 308.123 118.419 307.506 117.334C306.776 115.966 305.773 114.902 304.496 114.142C303.22 113.382 301.745 113.002 300.073 113.002C298.432 113.002 296.957 113.382 295.65 114.142C294.343 114.902 293.324 115.966 292.595 117.334ZM330.512 110.22C332.458 110.22 334.16 110.6 335.619 111.36C337.109 112.09 338.264 113.214 339.085 114.734C339.936 116.254 340.362 118.17 340.362 120.48V134.388H337.124V120.799C337.124 118.276 336.486 116.376 335.209 115.099C333.962 113.792 332.199 113.138 329.919 113.138C328.217 113.138 326.727 113.488 325.45 114.187C324.204 114.856 323.231 115.844 322.532 117.151C321.863 118.428 321.529 119.978 321.529 121.802V134.388H318.291V110.448H321.392V114.805C322.147 113.533 323.195 112.506 324.538 111.725C326.21 110.722 328.202 110.22 330.512 110.22ZM246.968 134.616C244.475 134.616 242.286 134.099 240.401 133.066C238.516 132.002 237.042 130.558 235.978 128.734C234.914 126.879 234.382 124.766 234.382 122.395C234.382 120.024 234.884 117.926 235.887 116.102C236.92 114.278 238.319 112.85 240.082 111.816C241.876 110.752 243.882 110.22 246.101 110.22C248.351 110.22 250.342 110.737 252.075 111.77C253.838 112.774 255.221 114.202 256.224 116.057C257.228 117.881 257.729 119.994 257.729 122.395C257.729 122.547 257.714 122.714 257.684 122.897V123.398H237.559C237.666 124.871 238.051 126.193 238.714 127.366C239.535 128.734 240.66 129.813 242.088 130.603C243.548 131.363 245.204 131.743 247.059 131.743C248.518 131.743 249.871 131.485 251.117 130.968C252.394 130.451 253.488 129.661 254.4 128.597L256.224 130.694C255.16 131.971 253.823 132.944 252.212 133.613C250.631 134.282 248.883 134.616 246.968 134.616ZM254.634 120.982H237.574C237.692 119.64 238.041 118.424 238.623 117.334C239.352 115.966 240.371 114.902 241.678 114.142C242.985 113.382 244.46 113.002 246.101 113.002C247.773 113.002 249.248 113.382 250.524 114.142C251.801 114.902 252.804 115.966 253.534 117.334C254.151 118.419 254.518 119.635 254.634 120.982ZM211.721 133.066C213.576 134.099 215.658 134.616 217.968 134.616C220.309 134.616 222.407 134.099 224.261 133.066C226.116 132.002 227.56 130.558 228.593 128.734C229.657 126.879 230.189 124.766 230.189 122.395C230.189 119.994 229.657 117.881 228.593 116.057C227.56 114.233 226.116 112.804 224.261 111.77C222.437 110.737 220.34 110.22 217.968 110.22C215.628 110.22 213.545 110.737 211.721 111.77C209.897 112.804 208.453 114.233 207.389 116.057C206.325 117.881 205.793 119.994 205.793 122.395C205.793 124.766 206.325 126.879 207.389 128.734C208.453 130.558 209.897 132.002 211.721 133.066ZM222.574 130.603C221.236 131.363 219.701 131.743 217.968 131.743C216.296 131.743 214.792 131.363 213.454 130.603C212.116 129.813 211.052 128.718 210.262 127.32C209.472 125.891 209.076 124.25 209.076 122.395C209.076 120.51 209.472 118.869 210.262 117.47C211.052 116.072 212.116 114.993 213.454 114.233C214.792 113.442 216.312 113.047 218.014 113.047C219.716 113.047 221.236 113.442 222.574 114.233C223.912 114.993 224.96 116.072 225.72 117.47C226.511 118.869 226.906 120.51 226.906 122.395C226.906 124.25 226.511 125.891 225.72 127.32C224.96 128.718 223.912 129.813 222.574 130.603ZM176.713 134.388V132.062L197.862 105.386H177.032V102.468H202.34V104.794L181.235 131.47H202.888V134.388H176.713ZM153.965 133.111C156.093 134.206 158.556 134.753 161.352 134.753C163.572 134.753 165.532 134.418 167.235 133.75C168.937 133.05 170.351 132.062 171.476 130.786L167.691 126.682C166.87 127.472 165.958 128.065 164.955 128.46C163.982 128.855 162.842 129.053 161.535 129.053C160.076 129.053 158.799 128.794 157.704 128.278C156.64 127.73 155.804 126.955 155.196 125.952C154.882 125.389 154.653 124.781 154.51 124.128H173.072C173.102 123.824 173.132 123.505 173.163 123.17C173.193 122.806 173.208 122.486 173.208 122.213C173.208 119.568 172.646 117.303 171.521 115.418C170.396 113.503 168.861 112.044 166.916 111.041C165 110.007 162.842 109.49 160.44 109.49C157.948 109.49 155.713 110.038 153.737 111.132C151.761 112.196 150.196 113.686 149.04 115.601C147.916 117.486 147.353 119.659 147.353 122.122C147.353 124.554 147.931 126.727 149.086 128.642C150.241 130.527 151.868 132.017 153.965 133.111ZM154.428 119.978H166.509C166.393 119.206 166.164 118.506 165.821 117.881C165.304 116.938 164.59 116.209 163.678 115.692C162.766 115.145 161.702 114.871 160.486 114.871C159.27 114.871 158.191 115.145 157.248 115.692C156.336 116.209 155.622 116.954 155.105 117.926C154.772 118.535 154.546 119.219 154.428 119.978ZM111.482 133.111C113.61 134.206 116.073 134.753 118.87 134.753C121.089 134.753 123.05 134.418 124.752 133.75C126.454 133.05 127.868 132.062 128.993 130.786L125.208 126.682C124.387 127.472 123.475 128.065 122.472 128.46C121.499 128.855 120.359 129.053 119.052 129.053C117.593 129.053 116.316 128.794 115.222 128.278C114.158 127.73 113.322 126.955 112.714 125.952C112.399 125.389 112.17 124.781 112.027 124.128H130.589C130.619 123.824 130.65 123.505 130.68 123.17C130.71 122.806 130.726 122.486 130.726 122.213C130.726 119.568 130.163 117.303 129.038 115.418C127.914 113.503 126.378 112.044 124.433 111.041C122.518 110.007 120.359 109.49 117.958 109.49C115.465 109.49 113.23 110.038 111.254 111.132C109.278 112.196 107.713 113.686 106.558 115.601C105.433 117.486 104.87 119.659 104.87 122.122C104.87 124.554 105.448 126.727 106.603 128.642C107.758 130.527 109.385 132.017 111.482 133.111ZM111.945 119.978C112.063 119.219 112.289 118.535 112.622 117.926C113.139 116.954 113.854 116.209 114.766 115.692C115.708 115.145 116.787 114.871 118.003 114.871C119.219 114.871 120.283 115.145 121.195 115.692C122.107 116.209 122.822 116.938 123.338 117.881C123.681 118.506 123.911 119.206 124.026 119.978H111.945ZM85.7402 134.753C83.7034 134.753 81.8794 134.358 80.2682 133.567C78.6874 132.777 77.4562 131.576 76.5746 129.965C75.693 128.323 75.2522 126.241 75.2522 123.718V109.855H82.3658V122.669C82.3658 124.706 82.7914 126.21 83.6426 127.183C84.5242 128.126 85.7554 128.597 87.3362 128.597C88.4306 128.597 89.4034 128.369 90.2546 127.913C91.1058 127.426 91.7746 126.697 92.261 125.724C92.7474 124.721 92.9906 123.474 92.9906 121.985V109.855H100.104V134.388H93.3554V131.514C92.6844 132.307 91.8788 132.962 90.9386 133.476C89.3578 134.327 87.625 134.753 85.7402 134.753ZM53.3527 134.023C55.2983 134.51 57.3199 134.753 59.4175 134.753C61.8799 134.753 63.9623 134.418 65.6647 133.75C67.3975 133.081 68.7199 132.169 69.6319 131.014C70.5439 129.828 70.9999 128.475 70.9999 126.955C70.9999 125.557 70.7263 124.432 70.1791 123.581C69.6319 122.699 68.9175 122.015 68.0359 121.529C67.1847 121.012 66.2271 120.617 65.1631 120.343C64.0991 120.07 63.0351 119.872 61.9711 119.75C60.9375 119.598 59.9799 119.431 59.0983 119.249C58.2167 119.066 57.5023 118.823 56.9551 118.519C56.4383 118.215 56.1799 117.759 56.1799 117.151C56.1799 116.482 56.5447 115.935 57.2743 115.51C58.0039 115.084 59.1591 114.871 60.7399 114.871C61.8647 114.871 63.0199 115.008 64.2055 115.282C65.4215 115.525 66.6223 115.996 67.8079 116.695L70.1791 111.634C69.0239 110.934 67.5799 110.402 65.8471 110.038C64.1143 109.673 62.4119 109.49 60.7399 109.49C58.3687 109.49 56.3319 109.84 54.6295 110.539C52.9271 111.208 51.6199 112.135 50.7079 113.321C49.8263 114.506 49.3855 115.874 49.3855 117.425C49.3855 118.823 49.6439 119.963 50.1607 120.845C50.7079 121.726 51.4223 122.426 52.3039 122.942C53.1855 123.459 54.1583 123.854 55.2223 124.128C56.2863 124.371 57.3351 124.569 58.3687 124.721C59.4327 124.873 60.4055 125.025 61.2871 125.177C62.1687 125.329 62.8679 125.557 63.3847 125.861C63.9319 126.134 64.2055 126.56 64.2055 127.138C64.2055 127.837 63.8559 128.384 63.1567 128.779C62.4879 129.174 61.3327 129.372 59.6911 129.372C58.2015 129.372 56.6815 129.159 55.1311 128.734C53.6111 128.278 52.2887 127.7 51.1639 127.001L48.7927 132.108C49.9175 132.868 51.4375 133.506 53.3527 134.023ZM0 102.468L13.7712 134.388H21.0672L34.884 102.468H27.5424L17.6877 125.266L7.98 102.468H0Z" fill="#3E36DC"/>
</svg>
