<svg viewBox="0 0 18 18" fill="currentColor" xmlns="http://www.w3.org/2000/svg">
<path d="M10.5 18H7.5C7.10218 18 6.72064 17.842 6.43934 17.5607C6.15804 17.2794 6 16.8978 6 16.5V10.8075L0.4425 5.25C0.160809 4.96999 0.00167459 4.58968 0 4.1925V1.5C0 1.10218 0.158035 0.720644 0.43934 0.43934C0.720644 0.158035 1.10218 0 1.5 0H16.5C16.8978 0 17.2794 0.158035 17.5607 0.43934C17.842 0.720644 18 1.10218 18 1.5V4.1925C17.9983 4.58968 17.8392 4.96999 17.5575 5.25L12 10.8075V16.5C12 16.8978 11.842 17.2794 11.5607 17.5607C11.2794 17.842 10.8978 18 10.5 18ZM1.5 1.5V4.1925L7.5 10.1925V16.5H10.5V10.1925L16.5 4.1925V1.5H1.5Z" fill="currentColor"/>
</svg>
