<svg width="427" height="135" viewBox="0 0 427 135" fill="none" xmlns="http://www.w3.org/2000/svg">
<path fill-rule="evenodd" clip-rule="evenodd" d="M179.278 25.5661C181.088 25.5661 182.556 24.0977 182.556 22.2876V12.4278C182.556 9.19044 185.19 6.55698 188.427 6.55698H198.496C200.306 6.55698 201.774 5.08852 201.774 3.27849C201.774 1.46846 200.306 0 198.496 0H188.427C181.574 0 176 5.57496 176 12.4278V22.2876C176 24.0977 177.468 25.5661 179.278 25.5661ZM227.371 0H237.44C244.292 0 249.867 5.57496 249.867 12.4278V22.2876C249.867 24.0977 248.399 25.5661 246.589 25.5661C244.779 25.5661 243.31 24.0977 243.31 22.2876V12.4278C243.31 9.19044 240.677 6.55698 237.44 6.55698H227.371C225.561 6.55698 224.093 5.08852 224.093 3.27849C224.093 1.46846 225.561 0 227.371 0ZM243.31 51.5711C243.31 49.761 244.779 48.2926 246.589 48.2926C248.399 48.2926 249.867 49.761 249.867 51.5711V61.4325C249.867 68.2853 244.292 73.8602 237.44 73.8602H227.371C225.561 73.8602 224.093 72.3918 224.093 70.5817C224.093 68.7717 225.561 67.3033 227.371 67.3033H237.44C240.677 67.3033 243.31 64.6698 243.31 61.4325V51.5711ZM188.427 67.3033H198.496C200.306 67.3033 201.774 68.7717 201.774 70.5817C201.774 72.3918 200.306 73.8602 198.496 73.8602H188.427C181.574 73.8602 176 68.2853 176 61.4325V51.5711C176 49.7595 177.468 48.2926 179.278 48.2926C181.088 48.2926 182.556 49.761 182.556 51.5711V61.4325C182.556 64.6698 185.19 67.3033 188.427 67.3033ZM231.516 59.2838C232.524 59.2838 233.471 58.8919 234.183 58.1797C235.653 56.7098 235.653 54.3172 234.183 52.8473L228.706 47.3699C230.762 44.2836 231.841 40.7031 231.841 36.9352C231.841 31.8863 229.876 27.1394 226.306 23.5696C222.737 19.9999 217.99 18.0343 212.942 18.0343C207.893 18.0343 203.147 19.9999 199.577 23.5696C196.008 27.1394 194.043 31.8863 194.043 36.9352C194.043 41.984 196.008 46.731 199.577 50.3007C203.147 53.8704 207.893 55.836 212.942 55.836C216.71 55.836 220.29 54.7564 223.374 52.7009L228.851 58.1782C229.563 58.8903 230.51 59.2822 231.518 59.2822L231.516 59.2838ZM221.173 44.7517C221.098 44.8157 221.026 44.8828 220.958 44.9499C220.889 45.0185 220.822 45.0917 220.756 45.168C218.634 47.1854 215.862 48.294 212.94 48.294C206.677 48.294 201.583 43.1978 201.583 36.9352C201.583 30.6725 206.678 25.5764 212.94 25.5764C219.203 25.5764 224.298 30.6725 224.298 36.9352C224.298 39.8568 223.188 42.6291 221.173 44.7517ZM277.385 109.215V133.748H284.498V109.215H277.385ZM277.75 104.655C278.57 105.415 279.634 105.795 280.941 105.795C282.279 105.795 283.343 105.415 284.134 104.655C284.954 103.864 285.365 102.876 285.365 101.691C285.365 100.566 284.954 99.654 284.134 98.9548C283.313 98.2252 282.249 97.8604 280.941 97.8604C279.634 97.8604 278.57 98.2403 277.75 99.0004C276.929 99.7604 276.518 100.703 276.518 101.828C276.518 102.952 276.929 103.895 277.75 104.655ZM375.398 99.9124V133.748H382.512V99.9124H375.398ZM389.114 133.748V99.9124H396.227V133.748H389.114ZM415.004 134.112C412.208 134.112 409.745 133.565 407.617 132.471C405.52 131.376 403.893 129.887 402.738 128.002C401.583 126.087 401.005 123.913 401.005 121.481C401.005 119.019 401.568 116.845 402.692 114.96C403.848 113.045 405.413 111.556 407.389 110.492C409.365 109.397 411.6 108.85 414.092 108.85C416.494 108.85 418.652 109.367 420.568 110.4C422.513 111.404 424.048 112.863 425.173 114.778C426.298 116.663 426.86 118.928 426.86 121.572C426.86 121.846 426.845 122.165 426.815 122.53C426.784 122.864 426.754 123.184 426.724 123.488H408.162C408.305 124.141 408.534 124.749 408.848 125.312C409.456 126.315 410.292 127.09 411.356 127.637C412.451 128.154 413.728 128.412 415.187 128.412C416.494 128.412 417.634 128.215 418.607 127.82C419.61 127.424 420.522 126.832 421.343 126.041L425.128 130.145C424.003 131.422 422.589 132.41 420.887 133.109C419.184 133.778 417.224 134.112 415.004 134.112ZM408.757 117.286C408.424 117.894 408.198 118.578 408.079 119.338H420.161C420.045 118.565 419.816 117.866 419.473 117.24C418.956 116.298 418.242 115.568 417.33 115.052C416.418 114.504 415.354 114.231 414.138 114.231C412.922 114.231 411.843 114.504 410.9 115.052C409.988 115.568 409.274 116.313 408.757 117.286ZM358.806 134.112C356.009 134.112 353.547 133.565 351.419 132.471C349.321 131.376 347.695 129.887 346.54 128.002C345.384 126.087 344.807 123.913 344.807 121.481C344.807 119.019 345.369 116.845 346.494 114.96C347.649 113.045 349.215 111.556 351.191 110.492C353.167 109.397 355.401 108.85 357.894 108.85C360.296 108.85 362.454 109.367 364.369 110.4C366.315 111.404 367.85 112.863 368.975 114.778C370.1 116.663 370.662 118.928 370.662 121.572C370.662 121.846 370.647 122.165 370.616 122.53C370.586 122.864 370.556 123.184 370.525 123.488H351.963C352.107 124.141 352.336 124.749 352.65 125.312C353.258 126.315 354.094 127.09 355.158 127.637C356.252 128.154 357.529 128.412 358.988 128.412C360.296 128.412 361.436 128.215 362.408 127.82C363.412 127.424 364.324 126.832 365.145 126.041L368.929 130.145C367.805 131.422 366.391 132.41 364.688 133.109C362.986 133.778 361.025 134.112 358.806 134.112ZM352.559 117.286C352.225 117.894 352 118.578 351.881 119.338H363.962C363.847 118.565 363.618 117.866 363.275 117.24C362.758 116.298 362.044 115.568 361.132 115.052C360.22 114.504 359.156 114.231 357.94 114.231C356.724 114.231 355.645 114.504 354.702 115.052C353.79 115.568 353.076 116.313 352.559 117.286ZM320.204 132.927C321.816 133.717 323.64 134.112 325.676 134.112C327.561 134.112 329.294 133.687 330.875 132.836C331.815 132.321 332.621 131.667 333.292 130.873V133.748H340.04V109.215H332.927V121.344C332.927 122.834 332.684 124.08 332.197 125.084C331.711 126.056 331.042 126.786 330.191 127.272C329.34 127.728 328.367 127.956 327.272 127.956C325.692 127.956 324.46 127.485 323.579 126.543C322.728 125.57 322.302 124.065 322.302 122.028V109.215H315.188V123.077C315.188 125.6 315.629 127.683 316.511 129.324C317.392 130.936 318.624 132.136 320.204 132.927ZM299.354 134.112C297.256 134.112 295.235 133.869 293.289 133.383C291.374 132.866 289.854 132.228 288.729 131.468L291.1 126.36C292.225 127.06 293.548 127.637 295.068 128.093C296.618 128.519 298.138 128.732 299.628 128.732C301.269 128.732 302.424 128.534 303.093 128.139C303.792 127.744 304.142 127.196 304.142 126.497C304.142 125.92 303.868 125.494 303.321 125.22C302.804 124.916 302.105 124.688 301.224 124.536C300.342 124.384 299.369 124.232 298.305 124.08C297.272 123.928 296.223 123.731 295.159 123.488C294.095 123.214 293.122 122.819 292.24 122.302C291.359 121.785 290.644 121.086 290.097 120.204C289.58 119.323 289.322 118.183 289.322 116.784C289.322 115.234 289.763 113.866 290.644 112.68C291.556 111.495 292.864 110.568 294.566 109.899C296.268 109.2 298.305 108.85 300.676 108.85C302.348 108.85 304.051 109.032 305.784 109.397C307.516 109.762 308.96 110.294 310.116 110.993L307.744 116.055C306.559 115.356 305.358 114.884 304.142 114.641C302.956 114.368 301.801 114.231 300.676 114.231C299.096 114.231 297.94 114.444 297.211 114.869C296.481 115.295 296.116 115.842 296.116 116.511C296.116 117.119 296.375 117.575 296.892 117.879C297.439 118.183 298.153 118.426 299.035 118.608C299.916 118.791 300.874 118.958 301.908 119.11C302.972 119.232 304.036 119.429 305.1 119.703C306.164 119.976 307.121 120.372 307.972 120.888C308.854 121.375 309.568 122.059 310.116 122.94C310.663 123.792 310.936 124.916 310.936 126.315C310.936 127.835 310.48 129.188 309.568 130.373C308.656 131.528 307.334 132.44 305.601 133.109C303.899 133.778 301.816 134.112 299.354 134.112ZM253.708 133.748L239.937 101.828H247.917L257.624 124.626L267.479 101.828H274.82L261.004 133.748H253.708ZM220.943 132.425C222.828 133.459 225.017 133.976 227.51 133.976C229.425 133.976 231.173 133.641 232.754 132.972C234.365 132.304 235.702 131.331 236.766 130.054L234.942 127.956C234.03 129.02 232.936 129.811 231.659 130.328C230.413 130.844 229.06 131.103 227.601 131.103C225.746 131.103 224.09 130.723 222.63 129.963C221.202 129.172 220.077 128.093 219.256 126.725C218.593 125.552 218.208 124.23 218.101 122.758H238.226V122.256C238.256 122.074 238.271 121.907 238.271 121.755C238.271 119.353 237.77 117.24 236.766 115.416C235.763 113.562 234.38 112.133 232.617 111.13C230.884 110.096 228.893 109.58 226.643 109.58C224.424 109.58 222.418 110.112 220.624 111.176C218.861 112.209 217.462 113.638 216.429 115.462C215.426 117.286 214.924 119.384 214.924 121.755C214.924 124.126 215.456 126.239 216.52 128.093C217.584 129.917 219.058 131.361 220.943 132.425ZM235.176 120.341H218.116C218.234 119 218.583 117.784 219.165 116.693C219.894 115.325 220.913 114.261 222.22 113.501C223.527 112.741 225.002 112.361 226.643 112.361C228.315 112.361 229.79 112.741 231.066 113.501C232.343 114.261 233.346 115.325 234.076 116.693C234.693 117.779 235.06 118.995 235.176 120.341ZM198.746 109.58C200.692 109.58 202.394 109.96 203.853 110.72C205.343 111.449 206.498 112.574 207.319 114.094C208.17 115.614 208.596 117.529 208.596 119.84V133.748H205.358V120.159C205.358 117.636 204.72 115.736 203.443 114.459C202.197 113.152 200.433 112.498 198.153 112.498C196.451 112.498 194.961 112.848 193.685 113.547C192.438 114.216 191.465 115.204 190.766 116.511C190.097 117.788 189.763 119.338 189.763 121.162V133.748H186.525V99.9124H189.763V113.941C190.506 112.772 191.509 111.82 192.773 111.084C194.445 110.081 196.436 109.58 198.746 109.58ZM164.744 132.425C166.629 133.459 168.757 133.976 171.128 133.976C173.165 133.976 175.004 133.58 176.645 132.79C178.287 131.969 179.579 130.784 180.521 129.233L178.105 127.592C177.284 128.777 176.265 129.659 175.049 130.236C173.833 130.814 172.511 131.103 171.082 131.103C169.38 131.103 167.845 130.723 166.477 129.963C165.109 129.172 164.029 128.078 163.239 126.68C162.449 125.281 162.053 123.64 162.053 121.755C162.053 119.87 162.449 118.228 163.239 116.83C164.029 115.432 165.109 114.352 166.477 113.592C167.845 112.802 169.38 112.407 171.082 112.407C172.511 112.407 173.833 112.696 175.049 113.273C176.265 113.851 177.284 114.748 178.105 115.964L180.521 114.322C179.579 112.741 178.287 111.556 176.645 110.765C175.004 109.975 173.165 109.58 171.128 109.58C168.757 109.58 166.629 110.096 164.744 111.13C162.889 112.164 161.43 113.592 160.366 115.416C159.302 117.24 158.77 119.353 158.77 121.755C158.77 124.126 159.302 126.239 160.366 128.093C161.43 129.917 162.889 131.361 164.744 132.425ZM143.464 133.748V109.808H146.564V114.424C147.249 112.973 148.268 111.845 149.62 111.039C151.2 110.066 153.161 109.58 155.502 109.58V112.726H155.137C155.016 112.696 154.894 112.68 154.772 112.68C152.249 112.68 150.273 113.456 148.844 115.006C147.416 116.526 146.701 118.7 146.701 121.527V133.748H143.464ZM119.546 132.425C121.43 133.459 123.619 133.976 126.112 133.976C128.027 133.976 129.775 133.641 131.356 132.972C132.967 132.304 134.305 131.331 135.369 130.054L133.545 127.956C132.633 129.02 131.538 129.811 130.262 130.328C129.015 130.844 127.662 131.103 126.203 131.103C124.349 131.103 122.692 130.723 121.233 129.963C119.804 129.172 118.679 128.093 117.858 126.725C117.196 125.552 116.811 124.23 116.704 122.758H136.828V122.256C136.858 122.074 136.874 121.907 136.874 121.755C136.874 119.353 136.372 117.24 135.369 115.416C134.366 113.562 132.982 112.133 131.219 111.13C129.486 110.096 127.495 109.58 125.246 109.58C123.026 109.58 121.02 110.112 119.226 111.176C117.463 112.209 116.065 113.638 115.031 115.462C114.028 117.286 113.526 119.384 113.526 121.755C113.526 124.126 114.058 126.239 115.122 128.093C116.186 129.917 117.661 131.361 119.546 132.425ZM133.778 120.341H116.718C116.836 119 117.186 117.784 117.767 116.693C118.497 115.325 119.515 114.261 120.822 113.501C122.13 112.741 123.604 112.361 125.246 112.361C126.918 112.361 128.392 112.741 129.669 113.501C130.946 114.261 131.949 115.325 132.678 116.693C133.295 117.779 133.662 118.995 133.778 120.341ZM97.3485 109.58C99.2941 109.58 100.996 109.96 102.456 110.72C103.945 111.449 105.1 112.574 105.921 114.094C106.772 115.614 107.198 117.529 107.198 119.84V133.748H103.96V120.159C103.96 117.636 103.322 115.736 102.045 114.459C100.799 113.152 99.0357 112.498 96.7557 112.498C95.0533 112.498 93.5637 112.848 92.2869 113.547C91.0405 114.216 90.0677 115.204 89.3685 116.511C88.6997 117.788 88.3653 119.338 88.3653 121.162V133.748H85.1277V99.9124H88.3653V113.941C89.108 112.772 90.1112 111.82 91.3749 111.084C93.0469 110.081 95.0381 109.58 97.3485 109.58ZM63.3462 132.425C65.231 133.459 67.359 133.976 69.7302 133.976C71.767 133.976 73.6062 133.58 75.2478 132.79C76.8894 131.969 78.1814 130.784 79.1238 129.233L76.707 127.592C75.8862 128.777 74.8678 129.659 73.6518 130.236C72.4358 130.814 71.1134 131.103 69.6846 131.103C67.9822 131.103 66.447 130.723 65.079 129.963C63.711 129.172 62.6318 128.078 61.8414 126.68C61.051 125.281 60.6558 123.64 60.6558 121.755C60.6558 119.87 61.051 118.228 61.8414 116.83C62.6318 115.432 63.711 114.352 65.079 113.592C66.447 112.802 67.9822 112.407 69.6846 112.407C71.1134 112.407 72.4358 112.696 73.6518 113.273C74.8678 113.851 75.8862 114.748 76.707 115.964L79.1238 114.322C78.1814 112.741 76.8894 111.556 75.2478 110.765C73.6062 109.975 71.767 109.58 69.7302 109.58C67.359 109.58 65.231 110.096 63.3462 111.13C61.4918 112.164 60.0326 113.592 58.9686 115.416C57.9046 117.24 57.3726 119.353 57.3726 121.755C57.3726 124.126 57.9046 126.239 58.9686 128.093C60.0326 129.917 61.4918 131.361 63.3462 132.425ZM42.4379 133.976C39.9451 133.976 37.7563 133.459 35.8715 132.425C33.9867 131.361 32.5123 129.917 31.4483 128.093C30.3843 126.239 29.8523 124.126 29.8523 121.755C29.8523 119.384 30.3539 117.286 31.3571 115.462C32.3907 113.638 33.7891 112.209 35.5523 111.176C37.3459 110.112 39.3523 109.58 41.5715 109.58C43.8211 109.58 45.8123 110.096 47.5451 111.13C49.3083 112.133 50.6915 113.562 51.6947 115.416C52.6979 117.24 53.1995 119.353 53.1995 121.755C53.1995 121.907 53.1843 122.074 53.1539 122.256V122.758H33.0296C33.1365 124.23 33.5214 125.552 34.1843 126.725C35.0051 128.093 36.1299 129.172 37.5587 129.963C39.0179 130.723 40.6747 131.103 42.5291 131.103C43.9883 131.103 45.3411 130.844 46.5875 130.328C47.8643 129.811 48.9587 129.02 49.8707 127.956L51.6947 130.054C50.6307 131.331 49.2931 132.304 47.6819 132.972C46.1011 133.641 44.3531 133.976 42.4379 133.976ZM33.0437 120.341H50.1039C49.9878 118.995 49.6212 117.779 49.0043 116.693C48.2747 115.325 47.2715 114.261 45.9947 113.501C44.7179 112.741 43.2435 112.361 41.5715 112.361C39.9299 112.361 38.4555 112.741 37.1483 113.501C35.8411 114.261 34.8227 115.325 34.0931 116.693C33.5115 117.784 33.1617 119 33.0437 120.341ZM0 101.828V133.748H3.3744V123.624H11.9472C12.8478 123.624 13.7063 123.577 14.5226 123.483L21.7968 133.748H25.4904L17.6975 122.812C18.1218 122.674 18.5307 122.52 18.924 122.348C20.8696 121.466 22.3592 120.22 23.3928 118.608C24.4568 116.967 24.9888 115.021 24.9888 112.772C24.9888 110.461 24.4568 108.5 23.3928 106.889C22.3592 105.248 20.8696 104.001 18.924 103.15C16.9784 102.268 14.6528 101.828 11.9472 101.828H0ZM3.3744 120.752V104.746H11.856C15.048 104.746 17.4648 105.445 19.1064 106.844C20.7784 108.242 21.6144 110.218 21.6144 112.772C21.6144 115.295 20.7784 117.256 19.1064 118.654C17.4648 120.052 15.048 120.752 11.856 120.752H3.3744Z" fill="#3E36DC"/>
</svg>
