<svg width="17" height="16" viewBox="0 0 17 16" fill="none" xmlns="http://www.w3.org/2000/svg">
<path fill-rule="evenodd" clip-rule="evenodd" d="M2.62908 10.6578H6.05519V13.6183C5.93538 14.802 6.76368 15.8624 7.90528 15.9867C8.04943 16.0044 8.19511 16.0044 8.33926 15.9867H9.23575C9.62832 15.9755 9.96403 15.6907 10.0523 15.2939V15.2229L10.6233 11.469L12.6447 8.28939H16.3335V0H5.48417C1.2358 0 0.345016 2.57563 0.345016 4.73679V8.28939C0.225214 9.47314 1.05351 10.5335 2.19511 10.6578C2.33926 10.6755 2.48493 10.6755 2.62908 10.6578ZM12.9074 1.1842H15.1915V7.10519H12.9074V1.1842ZM5.48417 1.1842C2.75471 1.1842 1.48705 2.31511 1.48705 4.73679V8.28939C1.48705 9.14201 1.80682 9.47359 2.62908 9.47359H7.19722V13.6183C7.19722 14.4709 7.51699 14.8025 8.33926 14.8025H8.98451L9.06445 14.2104L9.48129 11.0308L11.7654 7.51966V1.1842H5.48417Z" fill="#2B2C46"/>
</svg>
