<svg width="17" height="16" viewBox="0 0 17 16" fill="none" xmlns="http://www.w3.org/2000/svg">
<path fill-rule="evenodd" clip-rule="evenodd" d="M14.3709 5.34222H10.9448V2.38172C11.0646 1.19796 10.2363 0.13762 9.09472 0.0133228C8.95057 -0.00444094 8.80489 -0.00444094 8.66074 0.0133228H7.76425C7.37168 0.0244753 7.03597 0.309285 6.94769 0.706079V0.777131L6.37668 4.53104L4.35527 7.71061H0.666504V16H11.5158C15.7642 16 16.655 13.4244 16.655 11.2632V7.71061C16.7748 6.52686 15.9465 5.46651 14.8049 5.34222C14.6607 5.32445 14.5151 5.32445 14.3709 5.34222ZM4.09261 14.8158H1.80854V8.89481H4.09261V14.8158ZM11.5158 14.8158C14.2453 14.8158 15.5129 13.6849 15.5129 11.2632V7.71061C15.5129 6.85799 15.1932 6.52641 14.3709 6.52641H9.80278V2.38172C9.80278 1.5291 9.48301 1.19752 8.66074 1.19752H8.01549L7.93555 1.78962L7.51871 4.96919L5.23464 8.48034V14.8158H11.5158Z" fill="#2B2C46"/>
</svg>
