<svg width="298" height="135" viewBox="0 0 298 135" fill="none" xmlns="http://www.w3.org/2000/svg">
<path fill-rule="evenodd" clip-rule="evenodd" d="M115.278 26.0944C117.088 26.0944 118.556 24.626 118.556 22.8159V12.9561C118.556 9.71876 121.19 7.0853 124.427 7.0853H134.496C136.306 7.0853 137.774 5.61684 137.774 3.80681C137.774 1.99678 136.306 0.52832 134.496 0.52832H124.427C117.574 0.52832 112 6.10328 112 12.9561V22.8159C112 24.626 113.468 26.0944 115.278 26.0944ZM163.371 0.52832H173.44C180.292 0.52832 185.867 6.10328 185.867 12.9561V22.8159C185.867 24.626 184.399 26.0944 182.589 26.0944C180.779 26.0944 179.31 24.626 179.31 22.8159V12.9561C179.31 9.71876 176.677 7.0853 173.44 7.0853H163.371C161.561 7.0853 160.093 5.61684 160.093 3.80681C160.093 1.99678 161.561 0.52832 163.371 0.52832ZM179.31 52.0994C179.31 50.2894 180.779 48.8209 182.589 48.8209C184.399 48.8209 185.867 50.2894 185.867 52.0994V61.9608C185.867 68.8136 180.292 74.3886 173.44 74.3886H163.371C161.561 74.3886 160.093 72.9201 160.093 71.1101C160.093 69.3 161.561 67.8316 163.371 67.8316H173.44C176.677 67.8316 179.31 65.1981 179.31 61.9608V52.0994ZM124.427 67.8316H134.496C136.306 67.8316 137.774 69.3 137.774 71.1101C137.774 72.9201 136.306 74.3886 134.496 74.3886H124.427C117.574 74.3886 112 68.8136 112 61.9608V52.0994C112 50.2878 113.468 48.8209 115.278 48.8209C117.088 48.8209 118.556 50.2894 118.556 52.0994V61.9608C118.556 65.1981 121.19 67.8316 124.427 67.8316ZM167.516 59.8121C168.524 59.8121 169.471 59.4202 170.183 58.7081C171.653 57.2381 171.653 54.8456 170.183 53.3756L164.706 47.8982C166.762 44.8119 167.841 41.2315 167.841 37.4635C167.841 32.4146 165.876 27.6677 162.306 24.098C158.737 20.5282 153.99 18.5627 148.942 18.5627C143.893 18.5627 139.147 20.5282 135.577 24.098C132.008 27.6677 130.043 32.4146 130.043 37.4635C130.043 42.5124 132.008 47.2593 135.577 50.829C139.147 54.3988 143.893 56.3643 148.942 56.3643C152.71 56.3643 156.29 55.2847 159.374 53.2292L164.851 58.7065C165.563 59.4187 166.51 59.8106 167.518 59.8106L167.516 59.8121ZM157.173 45.28C157.098 45.3441 157.026 45.4111 156.958 45.4782C156.889 45.5469 156.822 45.6201 156.756 45.6963C154.634 47.7137 151.862 48.8223 148.94 48.8223C142.677 48.8223 137.583 43.7262 137.583 37.4635C137.583 31.2008 142.678 26.1047 148.94 26.1047C155.203 26.1047 160.298 31.2008 160.298 37.4635C160.298 40.3852 159.188 43.1574 157.173 45.28ZM33.0302 134.276V109.743H40.1438V134.276H33.0302ZM36.587 106.323C35.2798 106.323 34.2158 105.943 33.395 105.183C32.5742 104.423 32.1638 103.481 32.1638 102.356C32.1638 101.231 32.5742 100.289 33.395 99.5287C34.2158 98.7687 35.2798 98.3887 36.587 98.3887C37.8942 98.3887 38.9582 98.7535 39.779 99.4831C40.5998 100.182 41.0102 101.094 41.0102 102.219C41.0102 103.405 40.5998 104.393 39.779 105.183C38.9886 105.943 37.9246 106.323 36.587 106.323ZM208.779 110.336V134.276H212.017V110.336H208.779ZM208.734 104.362C209.19 104.818 209.752 105.046 210.421 105.046C211.12 105.046 211.683 104.818 212.108 104.362C212.564 103.906 212.792 103.344 212.792 102.675C212.792 102.037 212.564 101.505 212.108 101.079C211.652 100.653 211.09 100.441 210.421 100.441C209.752 100.441 209.19 100.669 208.734 101.125C208.278 101.55 208.05 102.082 208.05 102.721C208.05 103.359 208.278 103.906 208.734 104.362ZM243.291 110.336V134.276H246.529V110.336H243.291ZM243.246 104.362C243.702 104.818 244.264 105.046 244.933 105.046C245.632 105.046 246.194 104.818 246.62 104.362C247.076 103.906 247.304 103.344 247.304 102.675C247.304 102.037 247.076 101.505 246.62 101.079C246.164 100.653 245.602 100.441 244.933 100.441C244.264 100.441 243.702 100.669 243.246 101.125C242.79 101.55 242.562 102.082 242.562 102.721C242.562 103.359 242.79 103.906 243.246 104.362ZM294.542 134.276V130.517C293.918 131.545 293.052 132.403 291.943 133.09C290.453 134.033 288.568 134.504 286.288 134.504C284.495 134.504 282.929 134.215 281.592 133.638C280.284 133.03 279.281 132.209 278.582 131.175C277.883 130.111 277.533 128.895 277.533 127.527C277.533 126.281 277.822 125.156 278.4 124.153C279.008 123.119 279.98 122.298 281.318 121.69C282.686 121.052 284.51 120.733 286.79 120.733H294.405V119.274C294.405 117.237 293.828 115.671 292.672 114.577C291.548 113.482 289.86 112.935 287.611 112.935C286.06 112.935 284.586 113.194 283.188 113.71C281.789 114.227 280.604 114.911 279.631 115.762L278.172 113.346C279.388 112.312 280.847 111.522 282.549 110.974C284.252 110.397 286.045 110.108 287.93 110.108C291.031 110.108 293.417 110.883 295.089 112.434C296.792 113.954 297.643 116.279 297.643 119.41V134.276H294.542ZM294.405 123.15V127.071C293.797 128.652 292.824 129.868 291.487 130.719C290.18 131.54 288.614 131.95 286.79 131.95C284.875 131.95 283.385 131.54 282.321 130.719C281.257 129.898 280.725 128.804 280.725 127.436C280.725 126.22 281.166 125.202 282.048 124.381C282.96 123.56 284.571 123.15 286.881 123.15H294.405ZM261.693 134.276L251.069 110.336H254.443L263.409 130.74L272.501 110.336H275.693L265.022 134.276H261.693ZM227.455 134.504C225.479 134.504 223.61 134.23 221.846 133.683C220.083 133.106 218.7 132.391 217.697 131.54L219.156 128.986C220.129 129.716 221.375 130.354 222.895 130.902C224.415 131.418 226.011 131.677 227.683 131.677C229.963 131.677 231.605 131.327 232.608 130.628C233.611 129.898 234.113 128.941 234.113 127.755C234.113 126.874 233.824 126.19 233.246 125.703C232.699 125.186 231.97 124.806 231.058 124.563C230.146 124.29 229.127 124.062 228.002 123.879C226.878 123.697 225.753 123.484 224.628 123.241C223.534 122.998 222.53 122.648 221.618 122.192C220.706 121.706 219.962 121.052 219.384 120.231C218.837 119.41 218.563 118.316 218.563 116.948C218.563 115.641 218.928 114.47 219.658 113.437C220.387 112.403 221.451 111.598 222.85 111.02C224.278 110.412 226.011 110.108 228.048 110.108C229.598 110.108 231.149 110.321 232.699 110.746C234.25 111.142 235.526 111.674 236.53 112.342L235.116 114.942C234.052 114.212 232.912 113.695 231.696 113.391C230.48 113.057 229.264 112.89 228.048 112.89C225.89 112.89 224.294 113.27 223.26 114.03C222.257 114.759 221.755 115.702 221.755 116.857C221.755 117.769 222.029 118.483 222.576 119C223.154 119.517 223.898 119.927 224.81 120.231C225.753 120.505 226.771 120.733 227.866 120.915C228.99 121.098 230.1 121.326 231.194 121.599C232.319 121.842 233.338 122.192 234.25 122.648C235.192 123.074 235.937 123.697 236.484 124.518C237.062 125.308 237.35 126.357 237.35 127.664C237.35 129.062 236.955 130.278 236.165 131.312C235.405 132.315 234.28 133.106 232.79 133.683C231.331 134.23 229.553 134.504 227.455 134.504ZM187.5 134.276L173.364 102.356H177.012L189.236 130.134L201.544 102.356H204.964L190.828 134.276H187.5ZM163.414 131.227V134.276H170.072V120.277C170.072 116.537 169.038 113.786 166.971 112.023C164.904 110.26 162.001 109.378 158.261 109.378C156.316 109.378 154.401 109.637 152.516 110.153C150.631 110.67 149.02 111.4 147.682 112.342L150.236 117.313C151.117 116.613 152.181 116.066 153.428 115.671C154.705 115.245 155.997 115.033 157.304 115.033C159.219 115.033 160.633 115.458 161.545 116.309C162.487 117.161 162.958 118.346 162.958 119.866H157.304C154.811 119.866 152.789 120.185 151.239 120.824C149.689 121.432 148.549 122.283 147.819 123.377C147.12 124.472 146.77 125.749 146.77 127.208C146.77 128.606 147.135 129.868 147.865 130.993C148.594 132.117 149.643 133.014 151.011 133.683C152.379 134.322 154.021 134.641 155.936 134.641C158.094 134.641 159.857 134.23 161.225 133.409C162.149 132.855 162.879 132.128 163.414 131.227ZM162.958 126.524C162.533 127.618 161.849 128.454 160.906 129.032C159.964 129.579 158.9 129.853 157.714 129.853C156.468 129.853 155.48 129.594 154.75 129.077C154.051 128.53 153.701 127.801 153.701 126.889C153.701 126.068 154.005 125.384 154.613 124.837C155.252 124.289 156.407 124.016 158.079 124.016H162.958V126.524ZM133.281 134.641C130.636 134.641 128.28 134.109 126.213 133.045C124.146 131.95 122.519 130.445 121.334 128.53C120.178 126.615 119.601 124.441 119.601 122.009C119.601 119.547 120.178 117.373 121.334 115.489C122.519 113.573 124.146 112.084 126.213 111.02C128.28 109.925 130.636 109.378 133.281 109.378C135.865 109.378 138.114 109.925 140.03 111.02C141.945 112.084 143.358 113.619 144.27 115.625L138.753 118.589C138.114 117.434 137.309 116.583 136.336 116.036C135.394 115.489 134.36 115.215 133.235 115.215C132.019 115.215 130.925 115.489 129.952 116.036C128.979 116.583 128.204 117.358 127.626 118.361C127.079 119.365 126.806 120.581 126.806 122.009C126.806 123.438 127.079 124.654 127.626 125.657C128.204 126.661 128.979 127.436 129.952 127.983C130.925 128.53 132.019 128.804 133.235 128.804C134.36 128.804 135.394 128.546 136.336 128.029C137.309 127.481 138.114 126.615 138.753 125.429L144.27 128.439C143.358 130.415 141.945 131.95 140.03 133.045C138.114 134.109 135.865 134.641 133.281 134.641ZM102.143 109.743V134.276H109.256V122.693C109.256 120.353 109.849 118.635 111.035 117.541C112.251 116.416 113.832 115.854 115.777 115.854C116.051 115.854 116.309 115.869 116.552 115.899C116.796 115.899 117.069 115.914 117.373 115.945V109.378C115.063 109.378 113.102 109.834 111.491 110.746C110.459 111.311 109.608 112.05 108.937 112.964V109.743H102.143ZM85.5507 134.641C82.7539 134.641 80.2915 134.094 78.1635 132.999C76.0659 131.905 74.4395 130.415 73.2843 128.53C72.1291 126.615 71.5515 124.441 71.5515 122.009C71.5515 119.547 72.1139 117.373 73.2387 115.489C74.3939 113.573 75.9595 112.084 77.9355 111.02C79.9115 109.925 82.1459 109.378 84.6387 109.378C87.0403 109.378 89.1987 109.895 91.1139 110.929C93.0595 111.932 94.5947 113.391 95.7195 115.306C96.8443 117.191 97.4067 119.456 97.4067 122.101C97.4067 122.374 97.3915 122.693 97.3611 123.058C97.3307 123.393 97.3003 123.712 97.2699 124.016H78.708C78.8512 124.669 79.0801 125.277 79.3947 125.84C80.0027 126.843 80.8387 127.618 81.9027 128.165C82.9971 128.682 84.2739 128.941 85.7331 128.941C87.0403 128.941 88.1803 128.743 89.1531 128.348C90.1563 127.953 91.0683 127.36 91.8891 126.569L95.6739 130.673C94.5491 131.95 93.1355 132.938 91.4331 133.637C89.7307 134.306 87.7699 134.641 85.5507 134.641ZM78.6259 119.866H90.7071C90.5917 119.093 90.3625 118.394 90.0195 117.769C89.5027 116.826 88.7883 116.097 87.8763 115.58C86.9643 115.033 85.9003 114.759 84.6843 114.759C83.4683 114.759 82.3891 115.033 81.4467 115.58C80.5347 116.097 79.8203 116.841 79.3035 117.814C78.9701 118.422 78.7442 119.106 78.6259 119.866ZM51.5339 133.045C53.6011 134.109 55.9571 134.641 58.6019 134.641C61.1859 134.641 63.4355 134.109 65.3507 133.045C67.2659 131.95 68.6795 130.415 69.5915 128.439L64.0739 125.429C63.4355 126.615 62.6299 127.481 61.6571 128.029C60.7147 128.546 59.6811 128.804 58.5563 128.804C57.3403 128.804 56.2459 128.53 55.2731 127.983C54.3003 127.436 53.5251 126.661 52.9475 125.657C52.4003 124.654 52.1267 123.438 52.1267 122.009C52.1267 120.581 52.4003 119.365 52.9475 118.361C53.5251 117.358 54.3003 116.583 55.2731 116.036C56.2459 115.489 57.3403 115.215 58.5563 115.215C59.6811 115.215 60.7147 115.489 61.6571 116.036C62.6299 116.583 63.4355 117.434 64.0739 118.589L69.5915 115.625C68.6795 113.619 67.2659 112.084 65.3507 111.02C63.4355 109.925 61.1859 109.378 58.6019 109.378C55.9571 109.378 53.6011 109.925 51.5339 111.02C49.4667 112.084 47.8403 113.573 46.6547 115.489C45.4995 117.373 44.9219 119.547 44.9219 122.009C44.9219 124.441 45.4995 126.615 46.6547 128.53C47.8403 130.445 49.4667 131.95 51.5339 133.045ZM0 102.356V134.276H7.3872V125.384H13.8168C13.9332 125.384 14.049 125.383 14.1641 125.382L20.292 134.276H28.272L21.1414 124.043L21.204 124.016C23.2712 123.104 24.8672 121.797 25.992 120.094C27.1168 118.361 27.6792 116.309 27.6792 113.938C27.6792 111.537 27.1168 109.469 25.992 107.737C24.8672 106.004 23.2712 104.681 21.204 103.769C19.1368 102.827 16.6744 102.356 13.8168 102.356H0ZM7.3872 119.501H13.4064C15.6864 119.501 17.3888 119.015 18.5136 118.042C19.6384 117.039 20.2008 115.671 20.2008 113.938C20.2008 112.175 19.6384 110.807 18.5136 109.834C17.3888 108.861 15.6864 108.375 13.4064 108.375H7.3872V119.501Z" fill="currentColor"/>
</svg>
