<svg width="186" height="180" viewBox="0 0 186 180" fill="none" xmlns="http://www.w3.org/2000/svg">
<path fill-rule="evenodd" clip-rule="evenodd" d="M45.7423 23.6607C45.7423 26.0424 47.6703 27.9704 50.052 27.9704C52.4337 27.9704 54.3617 26.0424 54.3617 23.6607C54.3617 15.3674 61.1097 8.61936 69.4031 8.61936C71.7847 8.61936 73.7127 6.69135 73.7127 4.30968C73.7127 1.92802 71.7847 0 69.4031 0C56.3606 0 45.7423 10.6183 45.7423 23.6607ZM93.9281 29.2038L110.472 38.7588H110.501C111.053 39.0707 111.394 39.6661 111.394 40.304V57.2734C111.394 57.9539 111.011 58.5776 110.401 58.8754L102.987 62.5754C102.434 62.8448 101.768 62.8165 101.243 62.4904C100.704 62.1643 100.393 61.5973 100.393 60.9735V45.6061L93.035 41.3673L85.6915 45.6061V60.9735C85.6915 61.5973 85.3654 62.1643 84.8409 62.4904C84.5574 62.6747 84.2313 62.7597 83.9052 62.7597C83.6359 62.7597 83.3665 62.703 83.1114 62.5754L75.697 58.8754C75.0874 58.5635 74.7046 57.9539 74.7046 57.2734V40.304C74.7046 39.6661 75.0449 39.0707 75.5978 38.7588L92.1418 29.2038C92.6947 28.8919 93.3752 28.8919 93.9281 29.2038ZM69.4032 94.5153C56.3607 94.5153 45.7425 83.897 45.7425 70.8545C45.7425 68.4729 47.6705 66.5448 50.0522 66.5448C52.4338 66.5448 54.3618 68.4729 54.3618 70.8545C54.3618 79.1478 61.1099 85.8959 69.4032 85.8959C71.7849 85.8959 73.7129 87.8239 73.7129 90.2056C73.7129 92.5872 71.7849 94.5153 69.4032 94.5153ZM112.287 90.2056C112.287 92.5872 114.215 94.5153 116.596 94.5153C129.639 94.5153 140.257 83.897 140.257 70.8545C140.257 68.4729 138.329 66.5448 135.947 66.5448C133.566 66.5448 131.638 68.4729 131.638 70.8545C131.638 79.1478 124.89 85.8959 116.596 85.8959C114.215 85.8959 112.287 87.8239 112.287 90.2056ZM135.947 27.9704C133.566 27.9704 131.638 26.0424 131.638 23.6607C131.638 15.3674 124.89 8.61936 116.596 8.61936C114.215 8.61936 112.287 6.69135 112.287 4.30968C112.287 1.92802 114.215 0 116.596 0C129.639 0 140.257 10.6183 140.257 23.6607C140.257 26.0424 138.329 27.9704 135.947 27.9704ZM54.6736 48.7816C55.4958 69.3943 72.5219 85.6124 92.9787 85.6124C93.4891 85.6124 93.9994 85.5982 94.5098 85.584C115.633 84.7618 132.149 66.8851 131.312 45.762C131.142 41.8067 130.391 37.9223 129.058 34.2222C128.25 31.9823 125.783 30.8199 123.543 31.6279C121.304 32.436 120.141 34.9027 120.949 37.1426C121.984 40.0063 122.565 43.0117 122.693 46.088C123.331 62.462 110.529 76.2983 94.1554 76.9505C86.1881 77.2482 78.6462 74.4696 72.8196 69.0825C66.993 63.6954 63.6048 56.3661 63.2929 48.4272C62.655 32.0532 75.4565 18.2169 91.8304 17.5647C95.6439 17.423 99.3865 17.99 102.945 19.2518C105.185 20.0456 107.651 18.869 108.445 16.6291C109.239 14.3892 108.063 11.9225 105.823 11.1286C101.215 9.49827 96.4095 8.76108 91.476 8.95956C70.3529 9.7818 53.8372 27.6585 54.6736 48.7816ZM118.354 27.5734C121.353 27.5734 123.784 25.1425 123.784 22.1438C123.784 19.1451 121.353 16.7142 118.354 16.7142C115.356 16.7142 112.925 19.1451 112.925 22.1438C112.925 25.1425 115.356 27.5734 118.354 27.5734ZM128.476 124.641C128.476 117.17 134.217 111.811 141.944 111.811C146.225 111.811 149.812 113.37 152.151 116.206L148.465 119.608C146.806 117.694 144.708 116.702 142.227 116.702C137.592 116.702 134.288 119.962 134.288 124.641C134.288 129.319 137.577 132.58 142.227 132.58C144.708 132.58 146.792 131.587 148.465 129.645L152.151 133.047C149.812 135.911 146.239 137.471 141.915 137.471C134.232 137.471 128.49 132.126 128.49 124.641H128.476ZM0.159843 134.586L0.150391 134.607V134.579L0.159843 134.586ZM0.159843 134.586L2.09258 130.283C4.17654 131.8 7.29539 132.863 10.2725 132.863C13.6749 132.863 15.0642 131.729 15.0642 130.198C15.0642 128.274 12.5816 127.698 9.67678 127.024C5.58134 126.074 0.646571 124.928 0.646571 119.537C0.646571 115.327 4.04895 111.811 11.0947 111.811C14.2136 111.811 17.4033 112.562 19.6999 114.008L17.9278 118.361C15.6312 117.056 13.2496 116.404 11.0522 116.404C7.6498 116.404 6.34556 117.68 6.34556 119.24C6.34556 121.132 8.82373 121.699 11.7252 122.363C15.8222 123.3 20.7631 124.431 20.7631 129.759C20.7631 133.898 17.3324 137.442 10.2441 137.442C6.32283 137.442 2.35913 136.283 0.159843 134.586ZM51.002 137.045V132.438H50.9879H37.4918V126.696H49.0031V122.23H37.4918V116.843H50.5342V112.236H31.7928V137.045H51.002ZM79.0005 131.729H67.4891L65.2917 137.045H59.4084L70.4662 112.236H76.1368L87.2229 137.045H81.1979L79.0005 131.729ZM77.2001 127.376L73.2732 117.878L69.3462 127.376H77.2001ZM107.921 130.141L112.698 137.045V137.031H118.865L113.308 129.063C116.526 127.688 118.412 124.952 118.412 121.238C118.412 115.667 114.258 112.236 107.637 112.236H96.9057V137.045H102.647V130.141H107.921ZM102.647 116.928H107.325C110.827 116.928 112.599 118.559 112.599 121.252C112.599 123.946 110.827 125.576 107.325 125.576H102.647V116.928ZM185.85 137.059V112.25H180.108V122.032H168.838V112.25H163.097V137.059H168.838V126.895H180.108V137.059H185.85ZM26.8727 177.136L26.8821 177.115C29.0814 178.813 33.0451 179.972 36.9664 179.972C44.0547 179.972 47.4854 176.428 47.4854 172.288C47.4854 166.96 42.5444 165.83 38.4475 164.892C35.546 164.229 33.0678 163.662 33.0678 161.769C33.0678 160.21 34.3721 158.934 37.7744 158.934C39.9718 158.934 42.3535 159.586 44.6501 160.89L46.4222 156.538C44.1256 155.092 40.9358 154.341 37.817 154.341C30.7712 154.341 27.3688 157.856 27.3688 162.067C27.3688 167.458 32.3036 168.603 36.399 169.554C39.3039 170.228 41.7864 170.804 41.7864 172.728C41.7864 174.259 40.3971 175.393 36.9947 175.393C34.0177 175.393 30.8988 174.33 28.8148 172.813L26.8821 177.115L26.8727 177.108V177.136ZM58.3019 154.766V168.659H58.3161C58.3161 175.96 62.4982 180 69.5439 180C76.5897 180 80.7718 175.96 80.7718 168.659V154.766H75.1012V168.446C75.1012 173.167 73.0456 175.109 69.5723 175.109C66.099 175.109 64.0434 173.153 64.0434 168.446V154.766H58.3019ZM93.5315 154.78H99.273V179.589H93.5315V154.78ZM109.451 159.458H117.39V179.589H123.132V159.458H131.07V154.78H109.451V159.458ZM160.444 174.967V179.575H141.235V154.766H159.977V159.373H146.934V164.76H158.445V169.226H146.934V174.967H160.43H160.444Z" fill="#3E36DC"/>
</svg>
