<svg width="320" height="134" viewBox="0 0 320 134" fill="none" xmlns="http://www.w3.org/2000/svg">
<path fill-rule="evenodd" clip-rule="evenodd" d="M118.778 25.5662C120.588 25.5662 122.056 24.0977 122.056 22.2877V12.4278C122.056 9.19051 124.69 6.55704 127.927 6.55704H137.996C139.806 6.55704 141.274 5.08858 141.274 3.27855C141.274 1.46852 139.806 6.10352e-05 137.996 6.10352e-05H127.927C121.074 6.10352e-05 115.5 5.57502 115.5 12.4278V22.2877C115.5 24.0977 116.968 25.5662 118.778 25.5662ZM166.871 6.10352e-05H176.94C183.792 6.10352e-05 189.367 5.57502 189.367 12.4278V22.2877C189.367 24.0977 187.899 25.5662 186.089 25.5662C184.279 25.5662 182.811 24.0977 182.811 22.2877V12.4278C182.811 9.19051 180.177 6.55704 176.94 6.55704H166.871C165.061 6.55704 163.593 5.08858 163.593 3.27855C163.593 1.46852 165.061 6.10352e-05 166.871 6.10352e-05ZM182.811 51.5711C182.811 49.7611 184.279 48.2926 186.089 48.2926C187.899 48.2926 189.367 49.7611 189.367 51.5711V61.4325C189.367 68.2853 183.792 73.8603 176.94 73.8603H166.871C165.061 73.8603 163.593 72.3918 163.593 70.5818C163.593 68.7718 165.061 67.3033 166.871 67.3033H176.94C180.177 67.3033 182.811 64.6698 182.811 61.4325V51.5711ZM127.927 67.3033H137.996C139.806 67.3033 141.274 68.7718 141.274 70.5818C141.274 72.3918 139.806 73.8603 137.996 73.8603H127.927C121.074 73.8603 115.5 68.2853 115.5 61.4325V51.5711C115.5 49.7596 116.968 48.2926 118.778 48.2926C120.588 48.2926 122.056 49.7611 122.056 51.5711V61.4325C122.056 64.6698 124.69 67.3033 127.927 67.3033ZM171.016 59.2838C172.024 59.2838 172.971 58.8919 173.683 58.1798C175.153 56.7098 175.153 54.3173 173.683 52.8473L168.206 47.37C170.262 44.2836 171.341 40.7032 171.341 36.9352C171.341 31.8864 169.376 27.1394 165.806 23.5697C162.237 20 157.49 18.0344 152.442 18.0344C147.393 18.0344 142.647 20 139.077 23.5697C135.508 27.1394 133.543 31.8864 133.543 36.9352C133.543 41.9841 135.508 46.731 139.077 50.3008C142.647 53.8705 147.393 55.8361 152.442 55.8361C156.21 55.8361 159.79 54.7565 162.874 52.7009L168.351 58.1783C169.063 58.8904 170.01 59.2823 171.018 59.2823L171.016 59.2838ZM160.673 44.7518C160.598 44.8158 160.526 44.8829 160.458 44.95C160.389 45.0186 160.322 45.0918 160.256 45.168C158.134 47.1855 155.362 48.294 152.44 48.294C146.177 48.294 141.083 43.1979 141.083 36.9352C141.083 30.6726 146.178 25.5764 152.44 25.5764C158.703 25.5764 163.798 30.6726 163.798 36.9352C163.798 39.8569 162.688 42.6291 160.673 44.7518ZM40.0064 100.534C40.0064 103.214 42.1684 105.282 45.4586 105.282C48.7487 105.282 50.9108 103.214 50.9108 100.393C50.9108 97.7143 48.7487 95.7872 45.4586 95.7872C42.1684 95.7872 40.0064 97.8553 40.0064 100.534ZM40.9934 108.102V133.577H49.9238V108.102H40.9934ZM38.0345 100.675H28.8221L19.7037 122.108L10.7733 100.675H0.714844L14.7685 133.577H23.9339L38.0345 100.675ZM65.7543 134C61.4301 134 56.9649 132.919 54.4738 131.368L57.1529 125.258C59.503 126.715 62.9341 127.608 66.0363 127.608C69.0444 127.608 70.0315 126.95 70.0315 125.869C70.0315 124.609 68.0046 124.338 65.4391 123.994C61.0157 123.401 54.9908 122.595 54.9908 116.139C54.9908 111.345 59.409 107.679 67.3993 107.679C70.9715 107.679 74.9197 108.431 77.4578 109.841L74.7787 115.904C72.2406 114.494 69.7024 114.024 67.4463 114.024C64.4382 114.024 63.3572 114.87 63.3572 115.81C63.3572 117.119 65.4244 117.417 68.0237 117.792C72.4247 118.426 78.3508 119.28 78.3508 125.634C78.3508 130.334 74.0266 134 65.7543 134ZM109.758 108.102H100.827V120.369C100.827 124.647 98.6652 126.386 96.0331 126.386C93.354 126.386 91.8029 124.835 91.8029 120.886V108.102H82.8725V122.343C82.8725 130.428 87.4317 134 93.683 134C96.5971 134 99.3233 132.966 101.25 130.851V133.577H109.758V108.102ZM127.135 107.679C135.407 107.679 140.154 111.345 140.154 119.429V133.577H131.835V130.287C130.566 132.731 128.028 134 124.315 134C118.204 134 114.82 130.569 114.82 126.151C114.82 121.45 118.251 118.536 126.148 118.536H131.224C131.083 115.951 129.344 114.494 125.819 114.494C123.375 114.494 120.649 115.34 118.909 116.703L115.901 110.64C118.815 108.713 123.14 107.679 127.135 107.679ZM126.806 128.36C128.78 128.36 130.519 127.42 131.224 125.399V123.189H127.37C124.503 123.189 123.469 124.224 123.469 125.775C123.469 127.279 124.691 128.36 126.806 128.36ZM146.559 98.7014V133.577H155.489V98.7014H146.559ZM173.773 133.804C168.838 133.823 163.99 132.102 161.537 129.573L162.89 126.889C165.248 129.183 169.438 130.859 173.762 130.843C179.919 130.82 182.589 128.225 182.577 124.982C182.561 120.807 178.221 119.767 173.556 118.649C168.139 117.351 162.284 115.948 162.26 109.406C162.242 104.565 165.986 100.368 174.352 100.336C178.065 100.322 181.924 101.389 184.563 103.212L183.398 105.99C180.571 104.167 177.278 103.287 174.363 103.297C168.347 103.32 165.678 106.009 165.691 109.299C165.706 113.492 170.083 114.544 174.769 115.67C180.17 116.967 185.983 118.364 186.007 124.781C186.025 129.622 182.187 133.773 173.773 133.804ZM215.188 121.449C215.199 121.287 215.208 121.135 215.208 121.005C215.18 113.578 210.131 108.474 203.175 108.5C196.219 108.526 191.115 113.763 191.143 121.095C191.17 128.428 196.454 133.672 204.163 133.643C208.064 133.628 211.49 132.205 213.689 129.565L211.801 127.41C209.929 129.579 207.254 130.67 204.246 130.681C198.84 130.702 194.879 127.285 194.484 122.117L215.165 122.039C215.164 121.837 215.177 121.636 215.188 121.449ZM194.474 119.626C194.879 114.783 198.392 111.385 203.186 111.367C208.027 111.349 211.565 114.72 212.006 119.56L194.474 119.626ZM230.68 108.397C237.072 108.373 240.704 111.555 240.728 117.947L240.785 133.27L237.589 133.282L237.575 129.428C236.08 131.972 233.172 133.534 229.083 133.549C223.49 133.57 220.047 130.669 220.031 126.392C220.017 122.585 222.449 119.379 229.546 119.353L237.396 119.323L237.39 117.819C237.374 113.589 234.968 111.295 230.362 111.312C227.166 111.324 224.162 112.463 222.148 114.257L220.634 111.772C223.117 109.647 226.779 108.411 230.68 108.397ZM229.59 130.915C233.35 130.901 236.116 129.104 237.42 125.856L237.405 121.814L229.65 121.843C224.856 121.861 223.312 123.747 223.321 126.285C223.332 129.152 225.642 130.93 229.59 130.915ZM262.978 108.275C258.419 108.292 255.277 110.043 253.738 113.339L253.72 108.498L250.524 108.51L250.617 133.233L253.954 133.22L253.906 120.624C253.884 114.796 257.021 111.494 262.191 111.474C262.303 111.474 262.426 111.484 262.555 111.495C262.696 111.507 262.843 111.519 262.991 111.518L262.978 108.275ZM279.9 133.358C272.52 133.385 267.142 128.188 267.115 120.809C267.087 113.43 272.426 108.24 279.805 108.212C283.988 108.196 287.519 109.828 289.506 113.063L287.021 114.765C285.32 112.28 282.683 111.115 279.816 111.126C274.411 111.146 270.477 115.015 270.499 120.796C270.521 126.625 274.483 130.417 279.888 130.397C282.756 130.386 285.383 129.248 287.066 126.75L289.564 128.433C287.602 131.637 284.083 133.342 279.9 133.358ZM319.232 118.639C319.205 111.542 315.056 108.079 309.04 108.102C304.856 108.117 301.62 109.775 299.797 112.649L299.743 98.1722L296.406 98.1847L296.537 133.06L299.874 133.048L299.825 120.075C299.804 114.435 303.129 111.132 308.44 111.112C313.14 111.094 315.876 113.763 315.896 118.98L315.949 132.987L319.286 132.974L319.232 118.639Z"/>
</svg>
