<svg width="252" height="138" viewBox="0 0 252 138" fill="none" xmlns="http://www.w3.org/2000/svg">
<path fill-rule="evenodd" clip-rule="evenodd" d="M92.2782 26.319C94.0881 26.319 95.5564 24.8506 95.5564 23.0406V13.1807C95.5564 9.94337 98.1897 7.30991 101.427 7.30991H111.496C113.306 7.30991 114.774 5.84145 114.774 4.03142C114.774 2.22139 113.306 0.75293 111.496 0.75293H101.427C94.5745 0.75293 89 6.32789 89 13.1807V23.0406C89 24.8506 90.4683 26.319 92.2782 26.319ZM140.371 0.75293H150.44C157.292 0.75293 162.867 6.32789 162.867 13.1807V23.0406C162.867 24.8506 161.399 26.319 159.589 26.319C157.779 26.319 156.31 24.8506 156.31 23.0406V13.1807C156.31 9.94337 153.677 7.30991 150.44 7.30991H140.371C138.561 7.30991 137.093 5.84145 137.093 4.03142C137.093 2.22139 138.561 0.75293 140.371 0.75293ZM156.31 52.324C156.31 50.514 157.779 49.0455 159.589 49.0455C161.399 49.0455 162.867 50.514 162.867 52.324V62.1854C162.867 69.0382 157.292 74.6132 150.44 74.6132H140.371C138.561 74.6132 137.093 73.1447 137.093 71.3347C137.093 69.5246 138.561 68.0562 140.371 68.0562H150.44C153.677 68.0562 156.31 65.4227 156.31 62.1854V52.324ZM101.427 68.0562H111.496C113.306 68.0562 114.774 69.5246 114.774 71.3347C114.774 73.1447 113.306 74.6132 111.496 74.6132H101.427C94.5745 74.6132 89 69.0382 89 62.1854V52.324C89 50.5124 90.4683 49.0455 92.2782 49.0455C94.0881 49.0455 95.5564 50.514 95.5564 52.324V62.1854C95.5564 65.4227 98.1897 68.0562 101.427 68.0562ZM144.516 60.0367C145.524 60.0367 146.471 59.6448 147.183 58.9327C148.653 57.4627 148.653 55.0702 147.183 53.6002L141.706 48.1228C143.762 45.0365 144.841 41.4561 144.841 37.6881C144.841 32.6392 142.876 27.8923 139.306 24.3226C135.737 20.7528 130.99 18.7873 125.942 18.7873C120.893 18.7873 116.147 20.7528 112.577 24.3226C109.008 27.8923 107.043 32.6392 107.043 37.6881C107.043 42.737 109.008 47.4839 112.577 51.0536C116.147 54.6234 120.893 56.5889 125.942 56.5889C129.71 56.5889 133.29 55.5093 136.374 53.4538L141.851 58.9312C142.563 59.6433 143.51 60.0352 144.518 60.0352L144.516 60.0367ZM134.173 45.5046C134.098 45.5687 134.026 45.6358 133.958 45.7029C133.889 45.7715 133.822 45.8447 133.756 45.9209C131.634 47.9383 128.862 49.0469 125.94 49.0469C119.677 49.0469 114.583 43.9508 114.583 37.6881C114.583 31.4254 119.678 26.3293 125.94 26.3293C132.203 26.3293 137.298 31.4254 137.298 37.6881C137.298 40.6098 136.188 43.382 134.173 45.5046ZM37.4482 134.5V109.968H44.5618V134.5H37.4482ZM41.005 106.548C39.6978 106.548 38.6338 106.168 37.813 105.408C36.9922 104.648 36.5818 103.705 36.5818 102.58C36.5818 101.456 36.9922 100.513 37.813 99.7533C38.6338 98.9933 39.6978 98.6133 41.005 98.6133C42.3122 98.6133 43.3762 98.9781 44.197 99.7077C45.0178 100.407 45.4282 101.319 45.4282 102.444C45.4282 103.629 45.0178 104.617 44.197 105.408C43.4066 106.168 42.3426 106.548 41.005 106.548ZM135.462 134.5V100.665H142.575V134.5H135.462ZM231.932 127.667V134.5H228.694V100.665H231.932V123.609L246.25 110.56H250.218L239.996 120.34L251.221 134.5H247.254L237.583 122.445L231.932 127.667ZM203.799 133.278C205.607 134.245 207.629 134.728 209.864 134.728C212.204 134.728 214.302 134.212 216.156 133.178C218.011 132.114 219.455 130.67 220.488 128.846C221.552 126.992 222.084 124.879 222.084 122.508C222.084 120.106 221.552 117.993 220.488 116.169C219.711 114.798 218.702 113.649 217.46 112.725L220.99 107.414H218.847L215.947 111.767C214.172 110.811 212.145 110.332 209.864 110.332C207.523 110.332 205.44 110.849 203.616 111.883C201.792 112.916 200.348 114.345 199.284 116.169C198.22 117.993 197.688 120.106 197.688 122.508C197.688 124.879 198.22 126.992 199.284 128.846C200.074 130.2 201.074 131.345 202.282 132.28L198.646 137.738H200.835L203.799 133.278ZM205.461 130.778C206.77 131.496 208.238 131.856 209.864 131.856C211.596 131.856 213.132 131.476 214.469 130.716C215.807 129.925 216.856 128.831 217.616 127.432C218.406 126.004 218.801 124.362 218.801 122.508C218.801 120.623 218.406 118.981 217.616 117.583C217.123 116.676 216.508 115.903 215.772 115.265L205.461 130.778ZM203.986 129.722L214.296 114.246C213.001 113.522 211.539 113.16 209.909 113.16C208.207 113.16 206.687 113.555 205.349 114.345C204.012 115.105 202.948 116.184 202.157 117.583C201.367 118.981 200.972 120.623 200.972 122.508C200.972 124.362 201.367 126.004 202.157 127.432C202.657 128.317 203.267 129.08 203.986 129.722ZM181.535 134.774C179.164 134.774 176.884 134.394 174.695 133.634C172.537 132.844 170.865 131.84 169.679 130.624L171.002 128.025C172.127 129.12 173.631 130.047 175.516 130.807C177.431 131.536 179.438 131.901 181.535 131.901C183.542 131.901 185.168 131.658 186.415 131.172C187.691 130.655 188.619 129.971 189.196 129.12C189.804 128.268 190.108 127.326 190.108 126.292C190.108 125.046 189.743 124.043 189.014 123.283C188.315 122.523 187.387 121.93 186.232 121.504C185.077 121.048 183.8 120.653 182.402 120.319C181.003 119.984 179.605 119.635 178.207 119.27C176.808 118.875 175.516 118.358 174.331 117.72C173.175 117.081 172.233 116.245 171.503 115.212C170.804 114.148 170.455 112.764 170.455 111.062C170.455 109.481 170.865 108.037 171.686 106.73C172.537 105.392 173.829 104.328 175.562 103.538C177.295 102.717 179.514 102.307 182.219 102.307C184.013 102.307 185.791 102.565 187.555 103.082C189.318 103.568 190.838 104.252 192.115 105.134L190.975 107.824C189.607 106.912 188.147 106.244 186.597 105.818C185.077 105.392 183.603 105.18 182.174 105.18C180.259 105.18 178.678 105.438 177.431 105.955C176.185 106.472 175.258 107.171 174.65 108.052C174.072 108.904 173.783 109.876 173.783 110.971C173.783 112.217 174.133 113.22 174.832 113.98C175.562 114.74 176.504 115.333 177.659 115.759C178.845 116.184 180.137 116.564 181.535 116.899C182.934 117.233 184.317 117.598 185.685 117.993C187.083 118.388 188.36 118.905 189.515 119.544C190.701 120.152 191.643 120.972 192.343 122.006C193.072 123.04 193.437 124.392 193.437 126.064C193.437 127.615 193.011 129.059 192.16 130.396C191.309 131.704 190.002 132.768 188.239 133.588C186.506 134.379 184.271 134.774 181.535 134.774ZM154.286 132.676C155.897 134.136 158.147 134.865 161.035 134.865C162.129 134.865 163.178 134.744 164.181 134.5C165.215 134.227 166.096 133.832 166.826 133.315L164.911 128.299C164.12 128.907 163.163 129.211 162.038 129.211C161.096 129.211 160.351 128.937 159.804 128.39C159.256 127.812 158.983 127.007 158.983 125.973V115.987H165.093V110.515H158.983V104.541H151.869V110.515H148.084V115.987H151.869V126.064C151.869 128.983 152.675 131.187 154.286 132.676ZM111.482 133.224C113.61 134.318 116.073 134.865 118.87 134.865C121.089 134.865 123.05 134.531 124.752 133.862C126.454 133.163 127.868 132.175 128.993 130.898L125.208 126.794C124.387 127.585 123.475 128.177 122.472 128.573C121.499 128.968 120.359 129.165 119.052 129.165C117.593 129.165 116.316 128.907 115.222 128.39C114.158 127.843 113.322 127.068 112.714 126.065C112.399 125.502 112.17 124.894 112.027 124.241H130.589C130.619 123.937 130.65 123.617 130.68 123.283C130.71 122.918 130.726 122.599 130.726 122.325C130.726 119.681 130.163 117.416 129.038 115.531C127.914 113.616 126.378 112.157 124.433 111.153C122.518 110.12 120.359 109.603 117.958 109.603C115.465 109.603 113.23 110.15 111.254 111.245C109.278 112.309 107.713 113.798 106.558 115.713C105.433 117.598 104.87 119.772 104.87 122.234C104.87 124.666 105.448 126.84 106.603 128.755C107.758 130.64 109.385 132.129 111.482 133.224ZM124.026 120.091H111.945C112.063 119.331 112.289 118.647 112.622 118.039C113.139 117.066 113.854 116.321 114.766 115.805C115.708 115.257 116.787 114.984 118.003 114.984C119.219 114.984 120.283 115.257 121.195 115.805C122.107 116.321 122.822 117.051 123.338 117.993C123.681 118.619 123.911 119.318 124.026 120.091ZM85.7402 134.865C83.7034 134.865 81.8794 134.47 80.2682 133.68C78.6874 132.889 77.4562 131.688 76.5746 130.077C75.693 128.436 75.2522 126.353 75.2522 123.83V109.968H82.3658V122.781C82.3658 124.818 82.7914 126.323 83.6426 127.296C84.5242 128.238 85.7554 128.709 87.3362 128.709C88.4306 128.709 89.4034 128.481 90.2546 128.025C91.1058 127.539 91.7746 126.809 92.261 125.836C92.7474 124.833 92.9906 123.587 92.9906 122.097V109.968H100.104V134.5H93.3554V131.626C92.6844 132.42 91.8788 133.074 90.9386 133.588C89.3578 134.44 87.625 134.865 85.7402 134.865ZM53.3527 134.136C55.2983 134.622 57.3199 134.865 59.4175 134.865C61.8799 134.865 63.9623 134.531 65.6647 133.862C67.3975 133.193 68.7199 132.281 69.6319 131.126C70.5439 129.941 70.9999 128.588 70.9999 127.068C70.9999 125.669 70.7263 124.545 70.1791 123.693C69.6319 122.812 68.9175 122.128 68.0359 121.641C67.1847 121.125 66.2271 120.729 65.1631 120.456C64.0991 120.182 63.0351 119.985 61.9711 119.863C60.9375 119.711 59.9799 119.544 59.0983 119.361C58.2167 119.179 57.5023 118.936 56.9551 118.632C56.4383 118.328 56.1799 117.872 56.1799 117.264C56.1799 116.595 56.5447 116.048 57.2743 115.622C58.0039 115.197 59.1591 114.984 60.7399 114.984C61.8647 114.984 63.0199 115.121 64.2055 115.394C65.4215 115.637 66.6223 116.109 67.8079 116.808L70.1791 111.746C69.0239 111.047 67.5799 110.515 65.8471 110.15C64.1143 109.785 62.4119 109.603 60.7399 109.603C58.3687 109.603 56.3319 109.953 54.6295 110.652C52.9271 111.321 51.6199 112.248 50.7079 113.433C49.8263 114.619 49.3855 115.987 49.3855 117.537C49.3855 118.936 49.6439 120.076 50.1607 120.957C50.7079 121.839 51.4223 122.538 52.3039 123.055C53.1855 123.572 54.1583 123.967 55.2223 124.241C56.2863 124.484 57.3351 124.681 58.3687 124.833C59.4327 124.985 60.4055 125.137 61.2871 125.289C62.1687 125.441 62.8679 125.669 63.3847 125.973C63.9319 126.247 64.2055 126.673 64.2055 127.25C64.2055 127.949 63.8559 128.497 63.1567 128.892C62.4879 129.287 61.3327 129.485 59.6911 129.485C58.2015 129.485 56.6815 129.272 55.1311 128.846C53.6111 128.39 52.2887 127.813 51.1639 127.113L48.7927 132.221C49.9175 132.98 51.4375 133.619 53.3527 134.136ZM0 102.58L13.7712 134.5H21.0672L34.884 102.58H27.5424L17.6877 125.379L7.98 102.58H0Z" fill="currentColor"/>
</svg>
