<svg width="14" height="13" viewBox="0 0 14 13" fill="none" xmlns="http://www.w3.org/2000/svg">
<path d="M5.74786 12.2785C5.99572 12.5263 6.39757 12.5263 6.64543 12.2785C6.89317 12.0307 6.8933 11.6291 6.64572 11.3812L3.12248 7.85332C2.80781 7.53824 3.03097 7 3.47626 7L13.1966 7C13.5481 7 13.833 6.71509 13.833 6.36364C13.833 6.01218 13.5481 5.72727 13.1966 5.72727L3.47626 5.72727C3.03097 5.72727 2.80781 5.18903 3.12248 4.87395L6.64572 1.34606C6.8933 1.09815 6.89317 0.696526 6.64543 0.448784C6.39757 0.200928 5.99572 0.200928 5.74786 0.448784L0.540115 5.65653C0.14959 6.04705 0.14959 6.68022 0.540115 7.07074L5.74786 12.2785Z" fill="#2B2C46"/>
</svg>
