<svg viewBox="0 0 567 144" fill="none" xmlns="http://www.w3.org/2000/svg">
<path fill-rule="evenodd" clip-rule="evenodd" d="M249.7 25.7C251.5 25.7 253 24.2 253 22.3999V12.5C253 9.30005 255.6 6.6001 258.9 6.6001H269C270.8 6.6001 272.3 5.1001 272.3 3.30005C272.3 1.5 270.8 0 269 0H258.9C252 0 246.5 5.6001 246.5 12.3999V22.3C246.5 24.1001 248 25.6001 249.8 25.6001H249.7V25.7ZM297.8 0.100098H307.9C314.8 0.100098 320.3 5.69995 320.3 12.5V22.3999C320.3 24.2 318.8 25.7 317 25.7C315.2 25.7 313.7 24.2 313.7 22.3999V12.5C313.7 9.30005 311.1 6.6001 307.8 6.6001H297.7C295.9 6.6001 294.4 5.1001 294.4 3.30005C294.4 1.5 295.9 0 297.7 0L297.8 0.100098ZM313.7 51.7C313.7 49.8999 315.2 48.3999 317 48.3999C318.8 48.3999 320.3 49.8999 320.3 51.7V61.6001C320.3 68.5 314.7 74 307.9 74H297.8C296 74 294.5 72.5 294.5 70.7C294.5 68.8999 296 67.3999 297.8 67.3999H307.9C311.1 67.3999 313.8 64.8 313.8 61.5V51.6001L313.7 51.7ZM258.8 67.5H268.9C270.7 67.5 272.2 69 272.2 70.8C272.2 72.6001 270.7 74.1001 268.9 74.1001H258.8C251.9 74.1001 246.4 68.5 246.4 61.7V51.8C246.4 50 247.9 48.5 249.7 48.5C251.5 48.5 253 50 253 51.8V61.7C253 64.8674 255.547 67.5461 258.8 67.6001V67.5ZM301.9 59.3999C302.9 59.3999 303.9 59 304.6 58.3C306.1 56.8 306.1 54.3999 304.6 53L299.1 47.5C301.2 44.3999 302.2 40.8 302.2 37.1001C302.2 33.3999 300.2 27.3 296.7 23.7C293.1 20.1001 288.4 18.2 283.3 18.2C278.2 18.2 273.5 20.2 269.9 23.7C266.3 27.3 264.4 32 264.4 37.1001C264.4 42.2 266.4 46.8999 269.9 50.5C273.5 54.1001 278.2 56 283.3 56C288.4 56 290.6 54.8999 293.7 52.8999L299.2 58.3999C299.9 59.1001 300.9 59.5 301.9 59.5V59.3999ZM291.518 44.939C291.484 44.9673 291.442 45.0161 291.4 45.1001C291.4 45.1001 291.364 45.1001 291.314 45.1431C291.28 45.1719 291.24 45.22 291.2 45.3C289.1 47.3 286.3 48.3999 283.4 48.3999C277.1 48.3999 272 43.3 272 37C272 30.7 277.1 25.6001 283.4 25.6001C289.7 25.6001 294.8 30.7 294.8 37C294.8 42.0586 294.091 42.6685 292.776 43.7996C292.605 43.946 292.425 44.1013 292.235 44.2761C292.064 44.4326 291.886 44.6047 291.7 44.8L291.6 44.8999C291.6 44.8999 291.595 44.8999 291.586 44.9021C291.581 44.9036 291.574 44.9055 291.567 44.9087C291.554 44.9143 291.537 44.9236 291.518 44.939ZM52.7002 101.7L41.8999 134.7H33.7002L26.3999 112.4L18.8999 134.7H10.7998L0 101.7H7.8999L15.2998 124.9L23.1001 101.7H30.2002L37.7002 125.1L45.3999 101.7H52.7002ZM60.6001 97.6001C57.7998 97.6001 56 99.4001 56 101.7C56 104 57.7998 105.8 60.6001 105.8C63.3999 105.8 65.2002 103.9 65.2002 101.6C65.2002 99.3 63.3999 97.6001 60.6001 97.6001ZM64.2002 109.3H56.8999V134.6H64.2002V109.3ZM91.8999 129V134.7H69.2998V130.3L82.1997 115H69.5996V109.3H91.3999V113.7L78.5 129H91.8999ZM122.1 134.6V109.3H114.6V121.8C114.6 126.4 112 128.6 108.8 128.6C105.6 128.6 103.7 126.7 103.7 122.5V109.3H96.3999V123.6C96.3999 131.4 100.8 135 107.2 135C110.3 135 113.2 133.8 115.1 131.6V134.6H122.1ZM151.4 120.2V134.7H144.5V131.5C143.1 133.8 140.5 135 136.8 135C130.9 135 127.3 131.7 127.3 127.3C127.3 122.9 130.5 119.7 138.2 119.7H144C144 116.5 142.1 114.7 138.2 114.7C134.3 114.7 132.7 115.6 130.9 117.1L128.3 112C131.1 110 135.2 108.9 139.2 108.9C146.9 108.9 151.4 112.5 151.4 120.2ZM144 126.6V124H139C135.6 124 134.5 125.3 134.5 127C134.5 128.7 136.1 130.1 138.6 130.1C141.1 130.1 143.2 129 144 126.7V126.6ZM165.3 99.7H158V134.6H165.3V99.7ZM198.1 120.1V134.6H190.8V121.2C190.8 117.1 188.9 115.2 185.7 115.2C182.5 115.2 179.6 117.4 179.6 122V134.5H172.3V109.2H179.3V112.2C181.3 110 184.2 108.9 187.7 108.9C193.7 108.9 198.2 112.4 198.2 120.1H198.1ZM210.5 124H229.7V124.1C229.762 123.73 229.785 126.135 229.794 126.135C229.8 126.135 229.8 125.206 229.8 122.1C229.8 114 224.3 109 216.6 109C208.9 109 203.1 114.5 203.1 122C203.1 129.5 208.8 135 217.6 135C222.2 135 225.7 133.6 228.1 130.9L224.2 126.7L223.95 126.923C222.326 128.375 221.514 129.1 217.8 129.1C213.9 129.1 211.2 127.2 210.5 124ZM222.9 119.7H210.4C211 116.4 213.4 114.4 216.7 114.4C220 114.4 222.4 116.5 222.9 119.7ZM281.9 101.7L270.8 134.7H267.1L257.4 106.6L247.7 134.7H244.1L233 101.7H236.6L246.1 130L255.9 101.7H259.1L268.8 130.2L278.5 101.7H281.9ZM296 137.5L308.4 109.8H305.1L295.8 130.8L286.5 109.8H283L294.1 134.5L293 136.9C291.6 140 289.7 141 287.9 141C286.1 141 284.6 140.3 283.4 139.1L281.8 141.6C283.3 143.1 284.3 143.9 287.8 143.9C291.3 143.9 293.9 142.4 296 137.5ZM309.3 131.8L310.8 129.2C312.8 130.8 316.1 132 319.6 132C323.1 132 326.2 130.4 326.2 128C326.2 125.083 322.956 124.502 319.381 123.862C314.99 123.076 310.1 122.201 310.1 116.8C310.1 108.914 312.366 109.122 316.534 109.504C317.545 109.597 318.669 109.7 319.9 109.7C325.434 109.7 326.415 110.394 327.996 111.512C328.214 111.667 328.445 111.83 328.7 112L327.2 114.7C325 113.2 322.4 112.6 319.9 112.6C315.4 112.6 313.4 114.3 313.4 116.7C313.4 119.75 316.735 120.354 320.37 121.014C324.721 121.803 329.5 122.669 329.5 127.9C329.5 135.71 326.985 135.512 322.601 135.166H322.598L322.592 135.165C322.267 135.14 321.931 135.114 321.586 135.09C321.314 135.071 321.037 135.053 320.753 135.039C320.285 135.015 319.8 135 319.3 135C312.9 135 311.2 133.7 309.2 131.9H309.3V131.8ZM353.3 134.6V131.9H337.4L353 112.1V109.9H333.4V112.7H348.7L333.1 132.4V134.6H353.3ZM382.2 109.9V134.6H379V130.1C377.3 133.1 374.1 134.9 370.1 134.9C363.8 134.9 359.6 131.4 359.6 124.3V109.9H362.9V123.9C362.9 129.2 365.6 131.9 370.3 131.9C375 131.9 378.7 128.6 378.7 122.9V109.9H382.2ZM394.9 127.6L400.7 122.2V122.3L410.7 134.7H414.8L403.2 120.1L413.8 110H409.7L394.9 123.5V99.8H391.6V134.7H394.9V127.6ZM418.7 101.951C418.728 100.673 419.816 99.6001 421.1 99.6001C422.4 99.6001 423.5 100.6 423.5 101.9C423.5 103.2 422.5 104.3 421.1 104.3C419.718 104.3 418.726 103.229 418.7 101.951ZM418.7 101.951L418.7 102V101.9L418.7 101.951ZM419.5 109.8H422.8V134.6H419.5V109.8ZM455.9 134.6H459.1L468.5 109.8H465.5L457.6 130.8L449.7 109.8H446.8L438.8 130.8L431 109.8H427.8L437.1 134.6H440.3L448.1 114.3L455.9 134.6ZM491.5 119.4V134.7H488.3V130.8C486.8 133.3 483.9 134.9 479.8 134.9C475.7 134.9 470.8 132 470.8 127.7C470.8 123.4 473.2 120.7 480.4 120.7H488.3V119.2C488.3 115 485.9 112.7 481.3 112.7C476.7 112.7 475.1 113.8 473.1 115.6L471.6 113.1C474.1 111 477.8 109.8 481.7 109.8C488.1 109.8 491.7 113 491.7 119.4H491.5ZM488.1 127.2V123.2H480.3C475.5 123.2 473.9 125.1 473.9 127.6C473.9 130.1 476.2 132.3 480.2 132.3C484.2 132.3 486.7 130.5 488.1 127.3V127.2ZM523.3 134.6V120.2H523.4C523.4 113.1 517.5 109.6 513.2 109.6C508.9 109.6 505.6 111.4 503.8 114.4V109.8H500.6V134.6H503.9V121.6C503.9 116 507.9 112.7 512.6 112.7C517.3 112.7 520 115.4 520 120.6V134.6H523.3ZM531.7 101.951C531.728 100.673 532.816 99.6001 534.1 99.6001C535.4 99.6001 536.5 100.6 536.5 101.9C536.5 103.2 535.5 104.3 534.1 104.3C532.718 104.3 531.726 103.229 531.7 101.951ZM531.7 101.951L531.7 102V101.9L531.7 101.951ZM532.4 109.8H535.7V134.6H532.4V109.8ZM545.9 123.3H566.6V122.3C566.6 114.8 561.6 109.7 554.6 109.7C547.6 109.7 542.5 115 542.5 122.3C542.5 129.6 547.8 134.9 555.5 134.9C559.4 134.9 562.9 133.5 565.1 130.9L563.2 128.7C562.995 128.927 562.808 129.142 562.632 129.345C561.176 131.025 560.417 131.9 555.6 131.9C550.2 131.9 546.3 128.5 545.9 123.3ZM563.5 120.8H545.9C546.4 116 549.9 112.6 554.7 112.6C559.5 112.6 563.1 115.9 563.5 120.8Z" fill="#3E36DC"/>
</svg>
