<svg viewBox="0 0 454 143" fill="none" xmlns="http://www.w3.org/2000/svg">
<path fill-rule="evenodd" clip-rule="evenodd" d="M193.278 26.3042C195.088 26.3042 196.556 24.8357 196.556 23.0257V13.1658C196.556 9.92848 199.19 7.29502 202.427 7.29502H212.496C214.306 7.29502 215.774 5.82656 215.774 4.01653C215.774 2.2065 214.306 0.738037 212.496 0.738037H202.427C195.574 0.738037 190 6.31299 190 13.1658V23.0257C190 24.8357 191.468 26.3042 193.278 26.3042ZM241.371 0.738037H251.44C258.292 0.738037 263.867 6.31299 263.867 13.1658V23.0257C263.867 24.8357 262.399 26.3042 260.589 26.3042C258.779 26.3042 257.31 24.8357 257.31 23.0257V13.1658C257.31 9.92848 254.677 7.29502 251.44 7.29502H241.371C239.561 7.29502 238.093 5.82656 238.093 4.01653C238.093 2.2065 239.561 0.738037 241.371 0.738037ZM257.31 52.3091C257.31 50.4991 258.779 49.0306 260.589 49.0306C262.399 49.0306 263.867 50.4991 263.867 52.3091V62.1705C263.867 69.0233 258.292 74.5983 251.44 74.5983H241.371C239.561 74.5983 238.093 73.1298 238.093 71.3198C238.093 69.5098 239.561 68.0413 241.371 68.0413H251.44C254.677 68.0413 257.31 65.4078 257.31 62.1705V52.3091ZM202.427 68.0413H212.496C214.306 68.0413 215.774 69.5098 215.774 71.3198C215.774 73.1298 214.306 74.5983 212.496 74.5983H202.427C195.574 74.5983 190 69.0233 190 62.1705V52.3091C190 50.4975 191.468 49.0306 193.278 49.0306C195.088 49.0306 196.556 50.4991 196.556 52.3091V62.1705C196.556 65.4078 199.19 68.0413 202.427 68.0413ZM245.516 60.0218C246.524 60.0218 247.471 59.6299 248.183 58.9178C249.653 57.4478 249.653 55.0553 248.183 53.5853L242.706 48.1079C244.762 45.0216 245.841 41.4412 245.841 37.6732C245.841 32.6243 243.876 27.8774 240.306 24.3077C236.737 20.7379 231.99 18.7724 226.942 18.7724C221.893 18.7724 217.147 20.7379 213.577 24.3077C210.008 27.8774 208.043 32.6243 208.043 37.6732C208.043 42.7221 210.008 47.469 213.577 51.0387C217.147 54.6085 221.893 56.5741 226.942 56.5741C230.71 56.5741 234.29 55.4944 237.374 53.4389L242.851 58.9163C243.563 59.6284 244.51 60.0203 245.518 60.0203L245.516 60.0218ZM235.173 45.4897C235.098 45.5538 235.026 45.6209 234.958 45.688C234.889 45.7566 234.822 45.8298 234.756 45.906C232.634 47.9234 229.862 49.032 226.94 49.032C220.677 49.032 215.583 43.9359 215.583 37.6732C215.583 31.4105 220.678 26.3144 226.94 26.3144C233.203 26.3144 238.298 31.4105 238.298 37.6732C238.298 40.5949 237.188 43.3671 235.173 45.4897ZM274.745 132.844V108.311H281.813V122.903L293.76 108.311H300.281V132.844H293.213V118.252L281.311 132.844H274.745ZM287.057 105.666C284.382 105.666 282.375 105.089 281.038 103.934C279.7 102.748 279.016 100.97 278.986 98.5984H283.637C283.667 99.632 283.956 100.453 284.503 101.061C285.05 101.669 285.886 101.973 287.011 101.973C288.106 101.973 288.942 101.669 289.519 101.061C290.127 100.453 290.431 99.632 290.431 98.5984H295.174C295.174 100.97 294.49 102.748 293.122 103.934C291.754 105.089 289.732 105.666 287.057 105.666ZM309.08 100.924V132.844H312.409V103.842H332.609V132.844H335.938V100.924H309.08ZM355.783 133.072C353.473 133.072 351.39 132.555 349.536 131.522C347.712 130.458 346.268 129.014 345.204 127.19C344.14 125.335 343.608 123.222 343.608 120.851C343.608 118.45 344.14 116.337 345.204 114.513C346.268 112.689 347.712 111.26 349.536 110.226C351.36 109.193 353.442 108.676 355.783 108.676C358.154 108.676 360.252 109.193 362.076 110.226C363.93 111.26 365.374 112.689 366.408 114.513C367.472 116.337 368.004 118.45 368.004 120.851C368.004 123.222 367.472 125.335 366.408 127.19C365.374 129.014 363.93 130.458 362.076 131.522C360.221 132.555 358.124 133.072 355.783 133.072ZM355.783 130.199C357.516 130.199 359.051 129.819 360.389 129.059C361.726 128.269 362.775 127.174 363.535 125.776C364.326 124.347 364.721 122.706 364.721 120.851C364.721 118.966 364.326 117.325 363.535 115.926C362.775 114.528 361.726 113.449 360.389 112.689C359.051 111.898 357.531 111.503 355.829 111.503C354.126 111.503 352.606 111.898 351.269 112.689C349.931 113.449 348.867 114.528 348.077 115.926C347.286 117.325 346.891 118.966 346.891 120.851C346.891 122.706 347.286 124.347 348.077 125.776C348.867 127.174 349.931 128.269 351.269 129.059C352.606 129.819 354.111 130.199 355.783 130.199ZM416.35 133.072C413.979 133.072 411.851 132.555 409.966 131.522C408.112 130.458 406.652 129.014 405.588 127.19C404.524 125.335 403.992 123.222 403.992 120.851C403.992 118.45 404.524 116.337 405.588 114.513C406.652 112.689 408.112 111.26 409.966 110.226C411.851 109.193 413.979 108.676 416.35 108.676C418.387 108.676 420.226 109.071 421.868 109.862C423.509 110.652 424.801 111.838 425.744 113.418L423.327 115.06C422.506 113.844 421.488 112.947 420.272 112.37C419.056 111.792 417.733 111.503 416.304 111.503C414.602 111.503 413.067 111.898 411.699 112.689C410.331 113.449 409.252 114.528 408.461 115.926C407.671 117.325 407.276 118.966 407.276 120.851C407.276 122.736 407.671 124.378 408.461 125.776C409.252 127.174 410.331 128.269 411.699 129.059C413.067 129.819 414.602 130.199 416.304 130.199C417.733 130.199 419.056 129.91 420.272 129.333C421.488 128.755 422.506 127.874 423.327 126.688L425.744 128.33C424.801 129.88 423.509 131.066 421.868 131.886C420.226 132.677 418.387 133.072 416.35 133.072ZM449.568 132.844L440.704 122.174H435.25V132.844H432.012V108.904H435.25V119.392H440.773L449.204 108.904H452.715L443.29 120.471L453.399 132.844H449.568ZM374.923 108.904V132.844H377.842L393.802 113.783V132.844H397.039V108.904H394.167L378.161 127.919V108.904H374.923ZM260.82 108.311V132.844H267.888V108.311H260.82ZM255.713 118.343C254.101 116.914 251.685 116.185 248.462 116.154H242.625V108.311H235.557V132.844L247.505 132.89C250.909 132.89 253.539 132.145 255.393 130.655C257.248 129.135 258.175 127.022 258.175 124.317C258.175 121.733 257.354 119.742 255.713 118.343ZM250.013 126.962C249.283 127.57 248.234 127.858 246.866 127.828H242.625V120.714L246.866 120.76C248.234 120.79 249.283 121.079 250.013 121.626C250.742 122.143 251.107 123.01 251.107 124.226C251.107 125.442 250.742 126.354 250.013 126.962ZM203.896 132.844V108.311H210.964V117.887H221.634V108.311H228.748V132.844H221.634V123.678H210.964V132.844H203.896ZM196.898 118.343C195.226 116.914 192.778 116.185 189.556 116.154H183.354V108.311H176.286V132.844L188.598 132.89C192.003 132.89 194.663 132.145 196.578 130.655C198.494 129.135 199.451 127.022 199.451 124.317C199.451 121.733 198.6 119.742 196.898 118.343ZM191.106 126.962C190.377 127.57 189.328 127.858 187.96 127.828H183.354V120.714L187.96 120.76C189.328 120.79 190.377 121.079 191.106 121.626C191.836 122.143 192.201 123.01 192.201 124.226C192.201 125.442 191.836 126.354 191.106 126.962ZM142.815 132.798L143.18 126.962L143.727 127.053H144.229C145.08 127.053 145.749 126.81 146.235 126.323C146.722 125.837 147.086 125.183 147.33 124.362C147.573 123.511 147.74 122.554 147.831 121.49C147.953 120.426 148.044 119.316 148.105 118.161L148.47 108.311H169.446V132.844H162.332V114.148H154.577L154.352 118.48C154.261 120.669 154.078 122.675 153.805 124.499C153.562 126.323 153.151 127.904 152.574 129.242C151.996 130.549 151.221 131.567 150.248 132.297C149.275 132.996 148.029 133.346 146.509 133.346C145.962 133.346 145.384 133.3 144.776 133.209C144.168 133.118 143.514 132.981 142.815 132.798ZM133.079 129.795V132.844H139.736V118.845C139.736 115.106 138.703 112.354 136.636 110.591C134.568 108.828 131.665 107.946 127.926 107.946C125.98 107.946 124.065 108.205 122.18 108.722C120.296 109.238 118.684 109.968 117.347 110.91L119.9 115.881C120.782 115.182 121.846 114.634 123.092 114.239C124.369 113.814 125.661 113.601 126.968 113.601C128.884 113.601 130.297 114.026 131.209 114.878C132.152 115.729 132.623 116.914 132.623 118.434H126.968C124.476 118.434 122.454 118.754 120.904 119.392C119.353 120 118.213 120.851 117.484 121.946C116.784 123.04 116.435 124.317 116.435 125.776C116.435 127.174 116.8 128.436 117.529 129.561C118.259 130.686 119.308 131.582 120.676 132.251C122.044 132.89 123.685 133.209 125.6 133.209C127.759 133.209 129.522 132.798 130.89 131.978C131.814 131.423 132.543 130.696 133.079 129.795ZM132.623 122.584V125.092C132.197 126.186 131.513 127.022 130.571 127.6C129.628 128.147 128.564 128.421 127.379 128.421C126.132 128.421 125.144 128.162 124.415 127.646C123.716 127.098 123.366 126.369 123.366 125.457C123.366 124.636 123.67 123.952 124.278 123.405C124.916 122.858 126.072 122.584 127.744 122.584H132.623ZM94.5158 142.055C93.239 142.055 91.9774 141.858 90.731 141.462C89.4846 141.067 88.4662 140.52 87.6758 139.821L90.275 134.759C90.8222 135.246 91.4454 135.626 92.1446 135.899C92.8742 136.173 93.5886 136.31 94.2878 136.31C95.291 136.31 96.0814 136.066 96.659 135.58C97.267 135.124 97.8142 134.349 98.3006 133.254L98.3878 133.049L87.767 108.311H95.1086L101.995 124.972L108.925 108.311H115.765L104.685 134.349C103.894 136.325 102.982 137.875 101.949 139C100.945 140.125 99.8206 140.915 98.5742 141.371C97.3582 141.827 96.0054 142.055 94.5158 142.055ZM68.2265 132.707C70.1113 133.102 71.9961 133.3 73.8809 133.3C76.1913 133.3 78.2585 132.996 80.0825 132.388C81.9369 131.75 83.3961 130.853 84.4601 129.698C85.5545 128.512 86.1017 127.129 86.1017 125.548C86.1017 123.694 85.3265 122.234 83.7761 121.17C83.1369 120.719 82.3994 120.361 81.5637 120.096C82.7342 119.556 83.6541 118.835 84.3233 117.933C85.0529 116.99 85.4177 115.926 85.4177 114.741C85.4177 113.251 84.8857 111.99 83.8217 110.956C82.7881 109.922 81.3593 109.132 79.5353 108.585C77.7113 108.038 75.6593 107.794 73.3793 107.855C71.8289 107.886 70.2633 108.098 68.6825 108.494C67.1017 108.889 65.5057 109.421 63.8945 110.09L65.6273 115.014C66.9953 114.467 68.3329 114.057 69.6401 113.783C70.9473 113.479 72.2089 113.327 73.4249 113.327C74.4889 113.327 75.3705 113.434 76.0697 113.646C76.7689 113.829 77.3009 114.102 77.6657 114.467C78.0305 114.832 78.2129 115.273 78.2129 115.79C78.2129 116.276 78.0609 116.702 77.7569 117.066C77.4833 117.401 77.0577 117.659 76.4801 117.842C75.9025 118.024 75.2033 118.115 74.3825 118.115H69.9593V122.538H74.9753C76.2521 122.538 77.2249 122.751 77.8937 123.177C78.5625 123.572 78.8969 124.165 78.8969 124.955C78.8969 125.563 78.6841 126.08 78.2585 126.506C77.8329 126.931 77.2097 127.266 76.3889 127.509C75.5985 127.722 74.6561 127.828 73.5617 127.828C72.0417 127.828 70.5369 127.676 69.0473 127.372C67.5881 127.038 66.2353 126.566 64.9889 125.958L63.0737 130.929C64.6545 131.719 66.3721 132.312 68.2265 132.707ZM33.4302 132.844V108.311H40.4982V122.903L52.4454 108.311H58.9662V132.844H51.8982V118.252L39.9966 132.844H33.4302ZM0 100.924V132.844H15.732C19.7752 132.844 22.8456 132.054 24.9432 130.473C27.0712 128.862 28.1352 126.658 28.1352 123.861C28.1352 121.155 27.1472 119.088 25.1712 117.659C24.3194 117.043 23.3179 116.56 22.1667 116.21C22.7201 115.945 23.2352 115.638 23.712 115.288C25.6576 113.829 26.6304 111.792 26.6304 109.178C26.6304 106.533 25.5968 104.496 23.5296 103.067C21.4624 101.638 18.5744 100.924 14.8656 100.924H0ZM15.4584 127.372H7.3416V119.301H15.4584C17.1608 119.301 18.4528 119.635 19.3344 120.304C20.216 120.942 20.6568 121.93 20.6568 123.268C20.6568 124.666 20.216 125.7 19.3344 126.369C18.4528 127.038 17.1608 127.372 15.4584 127.372ZM14.2272 114.148H7.3416V106.396H14.2272C15.8384 106.396 17.0544 106.73 17.8752 107.399C18.696 108.038 19.1064 108.995 19.1064 110.272C19.1064 111.549 18.696 112.522 17.8752 113.19C17.0544 113.829 15.8384 114.148 14.2272 114.148Z" fill="currentColor"/>
</svg>
