<svg width="17" height="16" viewBox="0 0 17 16" fill="none" xmlns="http://www.w3.org/2000/svg">
<path fill-rule="evenodd" clip-rule="evenodd" d="M1.92028 4.82804C1.92028 5.22014 1.60221 5.53825 1.21014 5.53825C0.818078 5.53825 0.5 5.22014 0.5 4.82804V2.69216C0.5 1.20767 1.70757 0 3.19193 0H5.37323C5.76529 0 6.08337 0.318104 6.08337 0.710201C6.08337 1.1023 5.76529 1.4204 5.37323 1.4204H3.19193C2.49071 1.4204 1.92028 1.99087 1.92028 2.69216V4.82804ZM13.8081 0H11.6268C11.2347 0 10.9167 0.318104 10.9167 0.710201C10.9167 1.1023 11.2347 1.4204 11.6268 1.4204H13.8081C14.5093 1.4204 15.0798 1.99087 15.0798 2.69216V4.82804C15.0798 5.22014 15.3978 5.53825 15.7899 5.53825C16.182 5.53825 16.5 5.22014 16.5 4.82804V2.69216C16.5 1.20767 15.2925 0 13.8081 0ZM15.7899 10.4614C15.3978 10.4614 15.0798 10.7795 15.0798 11.1716V13.3078C15.0798 14.0091 14.5093 14.5796 13.8081 14.5796H11.6268C11.2347 14.5796 10.9167 14.8977 10.9167 15.2898C10.9167 15.6819 11.2347 16 11.6268 16H13.8081C15.2925 16 16.5 14.7923 16.5 13.3078V11.1716C16.5 10.7795 16.182 10.4614 15.7899 10.4614ZM5.37323 14.5796H3.19193C2.49071 14.5796 1.92028 14.0091 1.92028 13.3078V11.1716C1.92028 10.7795 1.60221 10.4614 1.21014 10.4614C0.818078 10.4614 0.5 10.7792 0.5 11.1716V13.3078C0.5 14.7923 1.70757 16 3.19193 16H5.37323C5.76529 16 6.08337 15.6819 6.08337 15.2898C6.08337 14.8977 5.76529 14.5796 5.37323 14.5796ZM13.1019 12.6029C12.9476 12.7572 12.7425 12.8421 12.5242 12.8421L12.5245 12.8418C12.3062 12.8418 12.1011 12.7569 11.9468 12.6026L10.7604 11.4161C10.0922 11.8613 9.31663 12.0952 8.50047 12.0952C7.40685 12.0952 6.37863 11.6694 5.6054 10.8961C4.83217 10.1228 4.40641 9.09453 4.40641 8.00082C4.40641 6.90711 4.83217 5.87881 5.6054 5.10552C6.37863 4.33222 7.40685 3.90643 8.50047 3.90643C9.59408 3.90643 10.6223 4.33222 11.3955 5.10552C12.1688 5.87881 12.5945 6.90711 12.5945 8.00082C12.5945 8.81706 12.3607 9.59266 11.9154 10.2612L13.1019 11.4478C13.4203 11.7662 13.4203 12.2845 13.1019 12.6029ZM10.2368 9.73702C10.2517 9.72248 10.2672 9.70795 10.2834 9.69407C10.7201 9.23426 10.9605 8.63373 10.9605 8.00082C10.9605 6.64418 9.85667 5.54023 8.50014 5.54023C7.1436 5.54023 6.03974 6.64418 6.03974 8.00082C6.03974 9.35747 7.14327 10.4614 8.50014 10.4614C9.13299 10.4614 9.73347 10.2213 10.1932 9.78425C10.2074 9.76774 10.222 9.75188 10.2368 9.73702Z" fill="#3E36DC"/>
</svg>
