<svg width="16" height="17" viewBox="0 0 16 17" fill="none" xmlns="http://www.w3.org/2000/svg">
<path fill-rule="evenodd" clip-rule="evenodd" d="M1.42028 5.56218C1.42028 5.95427 1.10221 6.27238 0.710142 6.27238C0.318078 6.27238 0 5.95427 0 5.56218V3.42629C0 1.9418 1.20757 0.734131 2.69193 0.734131H4.87323C5.26529 0.734131 5.58337 1.05223 5.58337 1.44433C5.58337 1.83643 5.26529 2.15453 4.87323 2.15453H2.69193C1.99071 2.15453 1.42028 2.72501 1.42028 3.42629V5.56218ZM13.3081 0.734131H11.1268C10.7347 0.734131 10.4167 1.05223 10.4167 1.44433C10.4167 1.83643 10.7347 2.15453 11.1268 2.15453H13.3081C14.0093 2.15453 14.5798 2.72501 14.5798 3.42629V5.56218C14.5798 5.95427 14.8978 6.27238 15.2899 6.27238C15.682 6.27238 16 5.95427 16 5.56218V3.42629C16 1.9418 14.7925 0.734131 13.3081 0.734131ZM15.2899 11.1956C14.8978 11.1956 14.5798 11.5137 14.5798 11.9058V14.042C14.5798 14.7433 14.0093 15.3137 13.3081 15.3137H11.1268C10.7347 15.3137 10.4167 15.6318 10.4167 16.0239C10.4167 16.416 10.7347 16.7341 11.1268 16.7341H13.3081C14.7925 16.7341 16 15.5265 16 14.042V11.9058C16 11.5137 15.682 11.1956 15.2899 11.1956ZM4.87323 15.3137H2.69193C1.99071 15.3137 1.42028 14.7433 1.42028 14.042V11.9058C1.42028 11.5137 1.10221 11.1956 0.710142 11.1956C0.318078 11.1956 0 11.5133 0 11.9058V14.042C0 15.5265 1.20757 16.7341 2.69193 16.7341H4.87323C5.26529 16.7341 5.58337 16.416 5.58337 16.0239C5.58337 15.6318 5.26529 15.3137 4.87323 15.3137ZM12.6019 13.3371C12.4476 13.4913 12.2425 13.5762 12.0242 13.5762L12.0245 13.5759C11.8062 13.5759 11.6011 13.491 11.4468 13.3367L10.2604 12.1502C9.59218 12.5955 8.81663 12.8293 8.00047 12.8293C6.90685 12.8293 5.87863 12.4036 5.1054 11.6303C4.33217 10.857 3.90641 9.82866 3.90641 8.73495C3.90641 7.64125 4.33217 6.61294 5.1054 5.83965C5.87863 5.06635 6.90685 4.64056 8.00047 4.64056C9.09408 4.64056 10.1223 5.06635 10.8955 5.83965C11.6688 6.61294 12.0945 7.64125 12.0945 8.73495C12.0945 9.55119 11.8607 10.3268 11.4154 10.9954L12.6019 12.1819C12.9203 12.5003 12.9203 13.0186 12.6019 13.3371ZM9.73685 10.4711C9.75171 10.4566 9.76723 10.4421 9.78342 10.4282C10.2201 9.96839 10.4605 9.36786 10.4605 8.73495C10.4605 7.37831 9.35667 6.27436 8.00014 6.27436C6.6436 6.27436 5.53974 7.37831 5.53974 8.73495C5.53974 10.0916 6.64327 11.1956 8.00014 11.1956C8.63299 11.1956 9.23347 10.9554 9.69325 10.5184C9.70745 10.5019 9.72198 10.486 9.73685 10.4711Z" fill="#2B2C46"/>
</svg>
