<svg width="371" height="144" viewBox="0 0 371 144" fill="none" xmlns="http://www.w3.org/2000/svg">
<path fill-rule="evenodd" clip-rule="evenodd" d="M151.278 26.5004C153.088 26.5004 154.556 25.032 154.556 23.222V13.3621C154.556 10.1248 157.19 7.4913 160.427 7.4913H170.496C172.306 7.4913 173.774 6.02285 173.774 4.21282C173.774 2.40278 172.306 0.934326 170.496 0.934326H160.427C153.574 0.934326 148 6.50928 148 13.3621V23.222C148 25.032 149.468 26.5004 151.278 26.5004ZM199.371 0.934326H209.44C216.292 0.934326 221.867 6.50928 221.867 13.3621V23.222C221.867 25.032 220.399 26.5004 218.589 26.5004C216.779 26.5004 215.31 25.032 215.31 23.222V13.3621C215.31 10.1248 212.677 7.4913 209.44 7.4913H199.371C197.561 7.4913 196.093 6.02285 196.093 4.21282C196.093 2.40278 197.561 0.934326 199.371 0.934326ZM215.31 52.5054C215.31 50.6954 216.779 49.2269 218.589 49.2269C220.399 49.2269 221.867 50.6954 221.867 52.5054V62.3668C221.867 69.2196 216.292 74.7946 209.44 74.7946H199.371C197.561 74.7946 196.093 73.3261 196.093 71.5161C196.093 69.706 197.561 68.2376 199.371 68.2376H209.44C212.677 68.2376 215.31 65.6041 215.31 62.3668V52.5054ZM160.427 68.2376H170.496C172.306 68.2376 173.774 69.706 173.774 71.5161C173.774 73.3261 172.306 74.7946 170.496 74.7946H160.427C153.574 74.7946 148 69.2196 148 62.3668V52.5054C148 50.6938 149.468 49.2269 151.278 49.2269C153.088 49.2269 154.556 50.6954 154.556 52.5054V62.3668C154.556 65.6041 157.19 68.2376 160.427 68.2376ZM203.516 60.2181C204.524 60.2181 205.471 59.8262 206.183 59.1141C207.653 57.6441 207.653 55.2516 206.183 53.7816L200.706 48.3042C202.762 45.2179 203.841 41.6375 203.841 37.8695C203.841 32.8206 201.876 28.0737 198.306 24.504C194.737 20.9342 189.99 18.9687 184.942 18.9687C179.893 18.9687 175.147 20.9342 171.577 24.504C168.008 28.0737 166.043 32.8206 166.043 37.8695C166.043 42.9184 168.008 47.6653 171.577 51.235C175.147 54.8048 179.893 56.7703 184.942 56.7703C188.71 56.7703 192.29 55.6907 195.374 53.6352L200.851 59.1125C201.563 59.8247 202.51 60.2166 203.518 60.2166L203.516 60.2181ZM193.173 45.686C193.098 45.7501 193.026 45.8172 192.958 45.8842C192.889 45.9529 192.822 46.0261 192.756 46.1023C190.634 48.1197 187.862 49.2283 184.94 49.2283C178.677 49.2283 173.583 44.1322 173.583 37.8695C173.583 31.6068 178.678 26.5107 184.94 26.5107C191.203 26.5107 196.298 31.6068 196.298 37.8695C196.298 40.7912 195.188 43.5634 193.173 45.686ZM265.985 134.682V110.149H273.098V134.682H265.985ZM269.542 106.729C268.234 106.729 267.17 106.349 266.35 105.589C265.529 104.829 265.118 103.887 265.118 102.762C265.118 101.637 265.529 100.695 266.35 99.9347C267.17 99.1747 268.234 98.7947 269.542 98.7947C270.849 98.7947 271.913 99.1595 272.734 99.8891C273.554 100.588 273.965 101.5 273.965 102.625C273.965 103.811 273.554 104.799 272.734 105.589C271.943 106.349 270.879 106.729 269.542 106.729ZM370.488 100.847H363.375V134.682H370.488V100.847ZM350.279 131.633V134.682H356.936V120.683C356.936 116.944 355.903 114.192 353.836 112.429C351.768 110.666 348.865 109.784 345.126 109.784C343.18 109.784 341.265 110.043 339.38 110.56C337.496 111.076 335.884 111.806 334.547 112.748L337.1 117.719C337.982 117.02 339.046 116.472 340.292 116.077C341.569 115.652 342.861 115.439 344.168 115.439C346.084 115.439 347.497 115.864 348.409 116.715C349.352 117.567 349.823 118.752 349.823 120.272H344.168C341.676 120.272 339.654 120.591 338.104 121.23C336.553 121.838 335.413 122.689 334.684 123.784C333.984 124.878 333.635 126.155 333.635 127.614C333.635 129.012 334 130.274 334.729 131.399C335.459 132.523 336.508 133.42 337.876 134.089C339.244 134.728 340.885 135.047 342.8 135.047C344.959 135.047 346.722 134.636 348.09 133.815C349.014 133.261 349.743 132.534 350.279 131.633ZM349.823 126.93V124.422H344.944C343.272 124.422 342.116 124.696 341.478 125.243C340.87 125.79 340.566 126.474 340.566 127.295C340.566 128.207 340.916 128.936 341.615 129.484C342.344 130 343.332 130.259 344.579 130.259C345.764 130.259 346.828 129.985 347.771 129.438C348.713 128.86 349.397 128.024 349.823 126.93ZM314.277 135.047C312.24 135.047 310.416 134.651 308.805 133.861C307.224 133.071 305.993 131.87 305.111 130.259C304.229 128.617 303.789 126.535 303.789 124.011V110.149H310.902V122.963C310.902 124.999 311.328 126.504 312.179 127.477C313.061 128.419 314.292 128.891 315.873 128.891C316.967 128.891 317.94 128.663 318.791 128.207C319.642 127.72 320.311 126.991 320.797 126.018C321.284 125.015 321.527 123.768 321.527 122.279V110.149H328.641V134.682H321.892V131.807C321.221 132.601 320.415 133.255 319.475 133.77C317.894 134.621 316.161 135.047 314.277 135.047ZM281.889 134.317C283.835 134.803 285.856 135.047 287.954 135.047C290.416 135.047 292.499 134.712 294.201 134.044C295.934 133.375 297.256 132.463 298.168 131.307C299.08 130.122 299.536 128.769 299.536 127.249C299.536 125.851 299.263 124.726 298.716 123.875C298.168 122.993 297.454 122.309 296.572 121.823C295.721 121.306 294.764 120.911 293.7 120.637C292.636 120.364 291.572 120.166 290.508 120.044C289.474 119.892 288.516 119.725 287.635 119.543C286.753 119.36 286.039 119.117 285.492 118.813C284.975 118.509 284.716 118.053 284.716 117.445C284.716 116.776 285.081 116.229 285.811 115.803C286.54 115.378 287.695 115.165 289.276 115.165C290.401 115.165 291.556 115.302 292.742 115.576C293.958 115.819 295.159 116.29 296.344 116.989L298.716 111.928C297.56 111.228 296.116 110.696 294.384 110.331C292.651 109.967 290.948 109.784 289.276 109.784C286.905 109.784 284.868 110.134 283.166 110.833C281.464 111.502 280.156 112.429 279.244 113.615C278.363 114.8 277.922 116.168 277.922 117.719C277.922 119.117 278.18 120.257 278.697 121.139C279.244 122.02 279.959 122.72 280.84 123.236C281.722 123.753 282.695 124.148 283.759 124.422C284.823 124.665 285.872 124.863 286.905 125.015C287.969 125.167 288.942 125.319 289.824 125.471C290.705 125.623 291.404 125.851 291.921 126.155C292.468 126.428 292.742 126.854 292.742 127.432C292.742 128.131 292.392 128.678 291.693 129.073C291.024 129.468 289.869 129.666 288.228 129.666C286.738 129.666 285.218 129.453 283.668 129.027C282.148 128.572 280.825 127.994 279.7 127.295L277.329 132.402C278.454 133.162 279.974 133.8 281.889 134.317ZM228.536 102.762L242.308 134.682H249.604L263.42 102.762H256.079L246.224 125.56L236.516 102.762H228.536ZM221.567 134.682V130.923C220.943 131.951 220.077 132.809 218.967 133.496C217.478 134.439 215.593 134.91 213.313 134.91C211.519 134.91 209.954 134.621 208.616 134.044C207.309 133.436 206.306 132.615 205.607 131.581C204.907 130.517 204.558 129.301 204.558 127.933C204.558 126.687 204.847 125.562 205.424 124.559C206.032 123.525 207.005 122.704 208.343 122.096C209.711 121.458 211.535 121.139 213.815 121.139H221.43V119.68C221.43 117.643 220.852 116.077 219.697 114.983C218.572 113.888 216.885 113.341 214.635 113.341C213.085 113.341 211.611 113.6 210.212 114.116C208.814 114.633 207.628 115.317 206.655 116.168L205.196 113.752C206.412 112.718 207.871 111.928 209.574 111.38C211.276 110.803 213.07 110.514 214.955 110.514C218.055 110.514 220.442 111.289 222.114 112.84C223.816 114.36 224.667 116.685 224.667 119.816V134.682H221.567ZM218.511 131.125C219.849 130.274 220.822 129.058 221.43 127.477V123.556H213.906C211.595 123.556 209.984 123.966 209.072 124.787C208.191 125.608 207.75 126.626 207.75 127.842C207.75 129.21 208.282 130.304 209.346 131.125C210.41 131.946 211.899 132.356 213.815 132.356C215.639 132.356 217.204 131.946 218.511 131.125ZM179.034 133.359C180.858 134.393 182.91 134.91 185.19 134.91C187.318 134.91 189.203 134.439 190.845 133.496C192.316 132.64 193.517 131.454 194.447 129.938V134.682H197.548V100.847H194.31V115.294C193.393 113.852 192.223 112.73 190.799 111.927C189.157 110.985 187.288 110.514 185.19 110.514C182.91 110.514 180.858 111.031 179.034 112.064C177.241 113.067 175.827 114.481 174.793 116.305C173.76 118.129 173.243 120.257 173.243 122.689C173.243 125.091 173.76 127.219 174.793 129.073C175.827 130.897 177.241 132.326 179.034 133.359ZM189.978 130.897C188.641 131.657 187.121 132.037 185.418 132.037C183.746 132.037 182.241 131.657 180.904 130.897C179.566 130.107 178.502 129.012 177.712 127.614C176.921 126.185 176.526 124.543 176.526 122.689C176.526 120.804 176.921 119.163 177.712 117.764C178.502 116.366 179.566 115.287 180.904 114.527C182.241 113.736 183.746 113.341 185.418 113.341C187.121 113.341 188.641 113.736 189.978 114.527C191.346 115.287 192.41 116.366 193.17 117.764C193.961 119.163 194.356 120.804 194.356 122.689C194.356 124.543 193.961 126.185 193.17 127.614C192.41 129.012 191.346 130.107 189.978 130.897ZM158.308 134.91C155.815 134.91 153.626 134.393 151.742 133.36C149.857 132.296 148.382 130.852 147.318 129.028C146.254 127.173 145.722 125.06 145.722 122.689C145.722 120.318 146.224 118.22 147.227 116.396C148.261 114.572 149.659 113.144 151.422 112.11C153.216 111.046 155.222 110.514 157.442 110.514C159.691 110.514 161.682 111.031 163.415 112.064C165.178 113.068 166.562 114.496 167.565 116.351C168.568 118.175 169.07 120.288 169.07 122.689C169.07 122.841 169.054 123.008 169.024 123.191V123.692H148.9C149.007 125.164 149.392 126.487 150.054 127.66C150.875 129.028 152 130.107 153.429 130.897C154.888 131.657 156.545 132.037 158.399 132.037C159.858 132.037 161.211 131.779 162.458 131.262C163.734 130.745 164.829 129.955 165.741 128.891L167.565 130.988C166.501 132.265 165.163 133.238 163.552 133.907C161.971 134.576 160.223 134.91 158.308 134.91ZM148.914 121.276H165.974C165.858 119.929 165.491 118.713 164.874 117.628C164.145 116.26 163.142 115.196 161.865 114.436C160.588 113.676 159.114 113.296 157.442 113.296C155.8 113.296 154.326 113.676 153.018 114.436C151.711 115.196 150.693 116.26 149.963 117.628C149.382 118.718 149.032 119.934 148.914 121.276ZM122.062 133.77C123.582 134.53 125.36 134.91 127.397 134.91C129.525 134.91 131.38 134.424 132.96 133.451C134.252 132.646 135.271 131.597 136.016 130.304V134.682H139.116V110.742H135.879V123.282C135.879 125.106 135.544 126.672 134.876 127.979C134.237 129.286 133.295 130.289 132.048 130.988C130.832 131.657 129.388 131.992 127.716 131.992C125.436 131.992 123.658 131.353 122.381 130.076C121.135 128.769 120.512 126.839 120.512 124.285V110.742H117.274V124.65C117.274 126.93 117.684 128.83 118.505 130.35C119.356 131.87 120.542 133.01 122.062 133.77ZM96.1276 134.91C93.8476 134.91 91.7956 134.393 89.9716 133.36C88.178 132.326 86.7644 130.897 85.7308 129.073C84.6972 127.249 84.1804 125.121 84.1804 122.689C84.1804 120.288 84.6972 118.175 85.7308 116.351C86.7644 114.496 88.178 113.068 89.9716 112.064C91.7956 111.031 93.8476 110.514 96.1276 110.514C98.2556 110.514 100.14 110.985 101.782 111.928C103.254 112.757 104.454 113.928 105.384 115.44V110.742H108.485V143.528H105.248V130.118C104.331 131.542 103.16 132.668 101.736 133.496C100.095 134.439 98.2252 134.91 96.1276 134.91ZM96.3556 132.037C98.058 132.037 99.578 131.657 100.916 130.897C102.284 130.107 103.348 129.012 104.108 127.614C104.898 126.185 105.293 124.544 105.293 122.689C105.293 120.835 104.898 119.208 104.108 117.81C103.348 116.412 102.284 115.317 100.916 114.527C99.578 113.736 98.058 113.341 96.3556 113.341C94.6836 113.341 93.1788 113.736 91.8412 114.527C90.5036 115.317 89.4396 116.412 88.6492 117.81C87.8588 119.208 87.4636 120.835 87.4636 122.689C87.4636 124.544 87.8588 126.185 88.6492 127.614C89.4396 129.012 90.5036 130.107 91.8412 130.897C93.1788 131.657 94.6836 132.037 96.3556 132.037ZM65.1523 134.089C66.9155 134.636 68.7851 134.91 70.7611 134.91C72.8587 134.91 74.6371 134.636 76.0963 134.089C77.5859 133.512 78.7107 132.721 79.4707 131.718C80.2611 130.684 80.6563 129.468 80.6563 128.07C80.6563 126.763 80.3675 125.714 79.7899 124.924C79.2427 124.103 78.4979 123.48 77.5555 123.054C76.6435 122.598 75.6251 122.248 74.5003 122.005C73.4059 121.732 72.2963 121.504 71.1715 121.321C70.0771 121.139 69.0587 120.911 68.1163 120.637C67.2043 120.333 66.4595 119.923 65.8819 119.406C65.3347 118.889 65.0611 118.175 65.0611 117.263C65.0611 116.108 65.5627 115.165 66.5659 114.436C67.5995 113.676 69.1955 113.296 71.3539 113.296C72.5699 113.296 73.7859 113.463 75.0019 113.797C76.2179 114.101 77.3579 114.618 78.4219 115.348L79.8355 112.748C78.8323 112.08 77.5555 111.548 76.0051 111.152C74.4547 110.727 72.9043 110.514 71.3539 110.514C69.3171 110.514 67.5843 110.818 66.1555 111.426C64.7571 112.004 63.6931 112.809 62.9635 113.843C62.2339 114.876 61.8691 116.047 61.8691 117.354C61.8691 118.722 62.1427 119.816 62.6899 120.637C63.2675 121.458 64.0123 122.112 64.9243 122.598C65.8363 123.054 66.8395 123.404 67.9339 123.647C69.0587 123.89 70.1835 124.103 71.3083 124.285C72.4331 124.468 73.4515 124.696 74.3635 124.969C75.2755 125.212 76.0051 125.592 76.5523 126.109C77.1299 126.596 77.4187 127.28 77.4187 128.161C77.4187 129.347 76.9171 130.304 75.9139 131.034C74.9107 131.733 73.2691 132.083 70.9891 132.083C69.3171 132.083 67.7211 131.824 66.2011 131.308C64.6811 130.76 63.4347 130.122 62.4619 129.392L61.0027 131.946C62.0059 132.797 63.3891 133.512 65.1523 134.089ZM43.5893 134.91C41.5525 134.91 39.7741 134.53 38.2541 133.77C36.7341 133.01 35.5485 131.87 34.6973 130.35C33.8765 128.83 33.4661 126.93 33.4661 124.65V110.742H36.7037V124.285C36.7037 126.839 37.3269 128.769 38.5733 130.076C39.8501 131.353 41.6285 131.991 43.9085 131.991C45.5805 131.991 47.0245 131.657 48.2405 130.988C49.4869 130.289 50.4293 129.286 51.0677 127.979C51.7365 126.671 52.0709 125.106 52.0709 123.282V110.742H55.3085V134.682H52.2077V130.304C51.463 131.597 50.4446 132.646 49.1525 133.451C47.5717 134.423 45.7173 134.91 43.5893 134.91ZM41.4461 107.003L47.6933 101.348H52.0253L44.6381 107.003H41.4461ZM0 102.762V134.682H14.6832C18.696 134.682 21.6904 133.937 23.6664 132.447C25.6728 130.958 26.676 128.86 26.676 126.155C26.676 124.331 26.2656 122.811 25.4448 121.595C24.624 120.348 23.4688 119.421 21.9792 118.813C21.3952 118.558 20.7649 118.353 20.0884 118.2C20.2182 118.149 20.3469 118.095 20.4744 118.038C21.8728 117.43 22.9672 116.533 23.7576 115.347C24.5784 114.162 24.9888 112.703 24.9888 110.97C24.9888 108.355 24.0008 106.334 22.0248 104.905C20.0792 103.476 17.328 102.762 13.7712 102.762H0ZM14.6376 131.9H3.3744V119.907H14.6376C17.4344 119.907 19.5776 120.394 21.0672 121.367C22.5568 122.309 23.3016 123.814 23.3016 125.881C23.3016 127.979 22.5568 129.514 21.0672 130.487C19.5776 131.429 17.4344 131.9 14.6376 131.9ZM3.3744 117.126H13.5432C16.0968 117.126 18.0728 116.639 19.4712 115.667C20.9 114.694 21.6144 113.25 21.6144 111.335C21.6144 109.389 20.9 107.945 19.4712 107.003C18.0728 106.03 16.0968 105.543 13.5432 105.543H3.3744V117.126Z" fill="#3E36DC"/>
</svg>
