<svg width="64" height="64" viewBox="0 0 64 64" fill="none" xmlns="http://www.w3.org/2000/svg">
<g clip-path="url(#clip0_502_1529)">
<path d="M32 64C49.6731 64 64 49.6731 64 32C64 14.3269 49.6731 0 32 0C14.3269 0 0 14.3269 0 32C0 49.6731 14.3269 64 32 64Z" fill="#2B2C46"/>
<path d="M31.9997 58.6049C17.3264 58.6049 5.39453 46.6729 5.39453 31.9997C5.39453 17.3264 17.3264 5.39453 31.9997 5.39453C46.6729 5.39453 58.6049 17.3352 58.6049 31.9997C58.6049 46.6642 46.6729 58.6049 31.9997 58.6049ZM31.9997 8.84758C19.2331 8.84758 8.84758 19.2331 8.84758 31.9997C8.84758 44.7663 19.2331 55.1518 31.9997 55.1518C44.7663 55.1518 55.1518 44.7663 55.1518 31.9997C55.1518 19.2331 44.7663 8.84758 31.9997 8.84758Z" fill="white"/>
<path d="M31.1131 47.8427C30.6298 47.8251 30.1378 47.79 29.6545 47.7197C22.5551 46.8147 16.9231 41.2265 15.9566 34.1271C15.8863 33.6 15.8423 33.0728 15.8248 32.5456C15.8072 31.9833 15.3503 31.5352 14.7968 31.5352H13.76C13.4788 31.5352 13.2064 31.6494 13.0131 31.8515C12.8198 32.0536 12.7144 32.3171 12.7232 32.5983C13.0483 42.5533 21.1054 50.6104 31.0603 50.9355C31.0691 50.9355 31.0867 50.9355 31.0955 50.9355C31.3591 50.9355 31.6139 50.8301 31.8072 50.6455C32.0093 50.4522 32.1235 50.1799 32.1235 49.8987V48.8619C32.1235 48.2996 31.6842 47.8515 31.1131 47.8251V47.8427Z" fill="white"/>
<path d="M42.8258 16.6062C42.5973 16.4393 42.3249 16.3777 42.0438 16.4305C41.7626 16.4832 41.5166 16.6413 41.3584 16.8786L40.7785 17.7309C40.4622 18.1965 40.5764 18.8204 41.0333 19.1455C45.0048 22.0362 47.3771 26.5084 47.5528 31.4112C47.5704 31.9736 48.0273 32.4217 48.5808 32.4217H49.6176C49.8988 32.4217 50.1712 32.3075 50.3733 32.1054C50.5666 31.9033 50.672 31.6397 50.6632 31.3585C50.4699 25.4629 47.6143 20.0856 42.8258 16.615V16.6062Z" fill="white"/>
<path d="M40.2159 45.4163C43.5303 45.4163 46.217 42.7295 46.217 39.4152C46.217 36.1008 43.5303 33.4141 40.2159 33.4141C36.9016 33.4141 34.2148 36.1008 34.2148 39.4152C34.2148 42.7295 36.9016 45.4163 40.2159 45.4163Z" fill="white"/>
<path d="M31.2888 39.4153C31.2888 34.4861 35.2866 30.4883 40.2158 30.4883C41.1999 30.4883 42.1488 30.6552 43.0362 30.9452C42.5003 25.3307 37.782 20.9375 32.0269 20.9375C25.9204 20.9375 20.9648 25.893 20.9648 31.9996C20.9648 38.1061 25.9204 43.0616 32.0269 43.0616C32.0445 43.0616 32.0533 43.0616 32.0708 43.0616C31.57 41.9457 31.2888 40.7156 31.2888 39.4153Z" fill="white"/>
</g>
<defs>
<clipPath id="clip0_502_1529">
<rect width="64" height="64" fill="white"/>
</clipPath>
</defs>
</svg>
