<svg width="344" height="143" viewBox="0 0 344 143" fill="none" xmlns="http://www.w3.org/2000/svg">
<path fill-rule="evenodd" clip-rule="evenodd" d="M138.278 25.6213C140.088 25.6213 141.556 24.1528 141.556 22.3428V12.4829C141.556 9.24562 144.19 6.61215 147.427 6.61215H157.496C159.306 6.61215 160.774 5.1437 160.774 3.33367C160.774 1.52363 159.306 0.0551758 157.496 0.0551758H147.427C140.574 0.0551758 135 5.63013 135 12.4829V22.3428C135 24.1528 136.468 25.6213 138.278 25.6213ZM186.371 0.0551758H196.44C203.292 0.0551758 208.867 5.63013 208.867 12.4829V22.3428C208.867 24.1528 207.399 25.6213 205.589 25.6213C203.779 25.6213 202.31 24.1528 202.31 22.3428V12.4829C202.31 9.24562 199.677 6.61215 196.44 6.61215H186.371C184.561 6.61215 183.093 5.1437 183.093 3.33367C183.093 1.52363 184.561 0.0551758 186.371 0.0551758ZM202.31 51.6262C202.31 49.8162 203.779 48.3478 205.589 48.3478C207.399 48.3478 208.867 49.8162 208.867 51.6262V61.4876C208.867 68.3404 203.292 73.9154 196.44 73.9154H186.371C184.561 73.9154 183.093 72.447 183.093 70.6369C183.093 68.8269 184.561 67.3584 186.371 67.3584H196.44C199.677 67.3584 202.31 64.725 202.31 61.4876V51.6262ZM147.427 67.3584H157.496C159.306 67.3584 160.774 68.8269 160.774 70.6369C160.774 72.447 159.306 73.9154 157.496 73.9154H147.427C140.574 73.9154 135 68.3404 135 61.4876V51.6262C135 49.8147 136.468 48.3478 138.278 48.3478C140.088 48.3478 141.556 49.8162 141.556 51.6262V61.4876C141.556 64.725 144.19 67.3584 147.427 67.3584ZM190.516 59.3389C191.524 59.3389 192.471 58.947 193.183 58.2349C194.653 56.7649 194.653 54.3724 193.183 52.9024L187.706 47.4251C189.762 44.3387 190.841 40.7583 190.841 36.9904C190.841 31.9415 188.876 27.1945 185.306 23.6248C181.737 20.0551 176.99 18.0895 171.942 18.0895C166.893 18.0895 162.147 20.0551 158.577 23.6248C155.008 27.1945 153.043 31.9415 153.043 36.9904C153.043 42.0392 155.008 46.7862 158.577 50.3559C162.147 53.9256 166.893 55.8912 171.942 55.8912C175.71 55.8912 179.29 54.8116 182.374 52.756L187.851 58.2334C188.563 58.9455 189.51 59.3374 190.518 59.3374L190.516 59.3389ZM180.173 44.8069C180.098 44.8709 180.026 44.938 179.958 45.0051C179.889 45.0737 179.822 45.1469 179.756 45.2232C177.634 47.2406 174.862 48.3492 171.94 48.3492C165.677 48.3492 160.583 43.253 160.583 36.9904C160.583 30.7277 165.678 25.6315 171.94 25.6315C178.203 25.6315 183.298 30.7277 183.298 36.9904C183.298 39.912 182.188 42.6842 180.173 44.8069ZM37.4482 133.803V109.27H44.5618V133.803H37.4482ZM41.005 105.85C39.6978 105.85 38.6338 105.47 37.813 104.71C36.9922 103.95 36.5818 103.007 36.5818 101.883C36.5818 100.758 36.9922 99.8154 37.813 99.0554C38.6338 98.2954 39.6978 97.9154 41.005 97.9154C42.3122 97.9154 43.3762 98.2802 44.197 99.0098C45.0178 99.709 45.4282 100.621 45.4282 101.746C45.4282 102.931 45.0178 103.919 44.197 104.71C43.4066 105.47 42.3426 105.85 41.005 105.85ZM135.462 133.803V99.9674H142.575V133.803H135.462ZM149.177 99.9674V133.803H156.291V99.9674H149.177ZM224.005 133.803V126.969L229.656 121.747L239.327 133.803H243.294L232.069 119.642L242.291 109.863H238.324L224.005 122.911V99.9674H220.768V133.803H224.005ZM278.614 133.803V109.863H281.852V133.803H278.614ZM280.255 104.573C279.587 104.573 279.024 104.345 278.568 103.889C278.112 103.433 277.884 102.886 277.884 102.247C277.884 101.609 278.112 101.077 278.568 100.651C279.024 100.195 279.587 99.9674 280.255 99.9674C280.924 99.9674 281.487 100.18 281.943 100.606C282.399 101.031 282.627 101.563 282.627 102.202C282.627 102.871 282.399 103.433 281.943 103.889C281.517 104.345 280.955 104.573 280.255 104.573ZM308.188 110.775C306.729 110.015 305.026 109.635 303.081 109.635C300.77 109.635 298.779 110.136 297.107 111.139C295.764 111.921 294.715 112.947 293.961 114.219V109.863H290.86V133.803H294.097V121.217C294.097 119.393 294.432 117.843 295.101 116.566C295.8 115.259 296.773 114.271 298.019 113.602C299.296 112.903 300.785 112.553 302.488 112.553C304.768 112.553 306.531 113.207 307.777 114.514C309.054 115.791 309.693 117.691 309.693 120.214V133.803H312.93V119.895C312.93 117.584 312.505 115.669 311.653 114.149C310.833 112.629 309.677 111.504 308.188 110.775ZM325.597 141.919C327.604 142.558 329.701 142.877 331.89 142.877C335.842 142.877 338.821 141.904 340.828 139.959C342.864 138.043 343.883 135.019 343.883 130.884V109.863H340.782V114.36C339.817 112.883 338.571 111.748 337.043 110.957C335.34 110.075 333.425 109.635 331.297 109.635C329.017 109.635 326.965 110.121 325.141 111.094C323.317 112.067 321.873 113.435 320.809 115.198C319.776 116.931 319.259 118.937 319.259 121.217C319.259 123.497 319.776 125.519 320.809 127.282C321.873 129.045 323.317 130.428 325.141 131.431C326.965 132.404 329.017 132.891 331.297 132.891C333.425 132.891 335.34 132.435 337.043 131.523C338.5 130.742 339.7 129.661 340.645 128.28V131.295C340.645 134.274 339.931 136.463 338.502 137.861C337.073 139.29 334.839 140.004 331.799 140.004C329.944 140.004 328.181 139.7 326.509 139.092C324.868 138.515 323.484 137.724 322.36 136.721L320.718 139.183C321.964 140.369 323.591 141.281 325.597 141.919ZM336.313 128.923C334.945 129.653 333.38 130.018 331.616 130.018C329.884 130.018 328.318 129.653 326.92 128.923C325.552 128.163 324.472 127.13 323.682 125.823C322.922 124.485 322.542 122.95 322.542 121.217C322.542 119.484 322.922 117.964 323.682 116.657C324.472 115.35 325.552 114.331 326.92 113.602C328.318 112.842 329.884 112.462 331.616 112.462C333.38 112.462 334.945 112.842 336.313 113.602C337.681 114.331 338.76 115.35 339.551 116.657C340.341 117.964 340.736 119.484 340.736 121.217C340.736 122.95 340.341 124.485 339.551 125.823C338.76 127.13 337.681 128.163 336.313 128.923ZM265.126 110.775C263.667 110.015 261.965 109.635 260.019 109.635C257.709 109.635 255.718 110.136 254.046 111.139C252.703 111.921 251.654 112.947 250.899 114.219V109.863H247.798V133.803H251.036V121.217C251.036 119.393 251.37 117.843 252.039 116.566C252.738 115.259 253.711 114.271 254.958 113.602C256.234 112.903 257.724 112.553 259.426 112.553C261.706 112.553 263.47 113.207 264.716 114.514C265.993 115.791 266.631 117.691 266.631 120.214V133.803H269.869V119.895C269.869 117.584 269.443 115.669 268.592 114.149C267.771 112.629 266.616 111.504 265.126 110.775ZM195.69 132.48C197.544 133.514 199.627 134.031 201.937 134.031C204.278 134.031 206.376 133.514 208.23 132.48C210.084 131.416 211.528 129.972 212.562 128.148C213.626 126.294 214.158 124.181 214.158 121.81C214.158 119.408 213.626 117.295 212.562 115.471C211.528 113.647 210.084 112.219 208.23 111.185C206.406 110.151 204.308 109.635 201.937 109.635C199.596 109.635 197.514 110.151 195.69 111.185C193.866 112.219 192.422 113.647 191.358 115.471C190.294 117.295 189.762 119.408 189.762 121.81C189.762 124.181 190.294 126.294 191.358 128.148C192.422 129.972 193.866 131.416 195.69 132.48ZM206.543 130.018C205.205 130.778 203.67 131.158 201.937 131.158C200.265 131.158 198.76 130.778 197.423 130.018C196.085 129.227 195.021 128.133 194.231 126.735C193.44 125.306 193.045 123.664 193.045 121.81C193.045 119.925 193.44 118.283 194.231 116.885C195.021 115.487 196.085 114.407 197.423 113.647C198.76 112.857 200.28 112.462 201.983 112.462C203.685 112.462 205.205 112.857 206.543 113.647C207.88 114.407 208.929 115.487 209.689 116.885C210.48 118.283 210.875 119.925 210.875 121.81C210.875 123.664 210.48 125.306 209.689 126.735C208.929 128.133 207.88 129.227 206.543 130.018ZM204.628 104.527C205.023 104.892 205.479 105.075 205.996 105.075C206.543 105.075 206.999 104.892 207.364 104.527C207.759 104.163 207.956 103.691 207.956 103.114C207.956 102.536 207.759 102.065 207.364 101.7C206.999 101.335 206.543 101.153 205.996 101.153C205.479 101.153 205.023 101.335 204.628 101.7C204.232 102.065 204.035 102.536 204.035 103.114C204.035 103.691 204.232 104.163 204.628 104.527ZM196.465 104.527C196.86 104.892 197.332 105.075 197.879 105.075C198.396 105.075 198.852 104.892 199.247 104.527C199.642 104.163 199.84 103.691 199.84 103.114C199.84 102.536 199.642 102.065 199.247 101.7C198.852 101.335 198.396 101.153 197.879 101.153C197.332 101.153 196.86 101.335 196.465 101.7C196.1 102.065 195.918 102.536 195.918 103.114C195.918 103.691 196.1 104.163 196.465 104.527ZM173.609 134.076C171.238 134.076 168.958 133.696 166.769 132.936C164.611 132.146 162.939 131.143 161.753 129.927L163.075 127.327C164.2 128.422 165.705 129.349 167.59 130.109C169.505 130.839 171.511 131.203 173.609 131.203C175.615 131.203 177.242 130.96 178.488 130.474C179.765 129.957 180.692 129.273 181.27 128.422C181.878 127.571 182.182 126.628 182.182 125.595C182.182 124.348 181.817 123.345 181.087 122.585C180.388 121.825 179.461 121.232 178.306 120.807C177.151 120.351 175.874 119.955 174.475 119.621C173.077 119.287 171.679 118.937 170.28 118.572C168.882 118.177 167.59 117.66 166.404 117.022C165.249 116.383 164.307 115.547 163.577 114.514C162.878 113.45 162.528 112.067 162.528 110.364C162.528 108.783 162.939 107.339 163.759 106.032C164.611 104.695 165.903 103.631 167.635 102.84C169.368 102.019 171.587 101.609 174.293 101.609C176.087 101.609 177.865 101.867 179.628 102.384C181.391 102.871 182.911 103.555 184.188 104.436L183.048 107.127C181.68 106.215 180.221 105.546 178.671 105.12C177.151 104.695 175.676 104.482 174.247 104.482C172.332 104.482 170.751 104.74 169.505 105.257C168.259 105.774 167.331 106.473 166.723 107.355C166.146 108.206 165.857 109.179 165.857 110.273C165.857 111.519 166.207 112.523 166.906 113.283C167.635 114.043 168.578 114.635 169.733 115.061C170.919 115.487 172.211 115.867 173.609 116.201C175.007 116.535 176.391 116.9 177.759 117.295C179.157 117.691 180.434 118.207 181.589 118.846C182.775 119.454 183.717 120.275 184.416 121.308C185.146 122.342 185.511 123.695 185.511 125.367C185.511 126.917 185.085 128.361 184.234 129.699C183.383 131.006 182.075 132.07 180.312 132.891C178.579 133.681 176.345 134.076 173.609 134.076ZM111.482 132.526C113.61 133.62 116.073 134.167 118.87 134.167C121.089 134.167 123.05 133.833 124.752 133.164C126.454 132.465 127.868 131.477 128.993 130.2L125.208 126.096C124.387 126.887 123.475 127.479 122.472 127.875C121.499 128.27 120.359 128.467 119.052 128.467C117.593 128.467 116.316 128.209 115.222 127.692C114.158 127.145 113.322 126.37 112.714 125.367C112.399 124.804 112.17 124.196 112.027 123.543H130.589C130.619 123.239 130.65 122.919 130.68 122.585C130.71 122.22 130.726 121.901 130.726 121.627C130.726 118.983 130.163 116.718 129.038 114.833C127.914 112.918 126.378 111.459 124.433 110.455C122.518 109.422 120.359 108.905 117.958 108.905C115.465 108.905 113.23 109.452 111.254 110.547C109.278 111.611 107.713 113.1 106.558 115.015C105.433 116.9 104.87 119.074 104.87 121.536C104.87 123.968 105.448 126.142 106.603 128.057C107.758 129.942 109.385 131.431 111.482 132.526ZM124.026 119.393H111.945C112.063 118.633 112.289 117.949 112.622 117.341C113.139 116.368 113.854 115.623 114.766 115.107C115.708 114.559 116.787 114.286 118.003 114.286C119.219 114.286 120.283 114.559 121.195 115.107C122.107 115.623 122.822 116.353 123.338 117.295C123.681 117.921 123.911 118.62 124.026 119.393ZM85.7402 134.167C83.7034 134.167 81.8794 133.772 80.2682 132.982C78.6874 132.191 77.4562 130.991 76.5746 129.379C75.693 127.738 75.2522 125.655 75.2522 123.132V109.27H82.3658V122.083C82.3658 124.12 82.7914 125.625 83.6426 126.598C84.5242 127.54 85.7554 128.011 87.3362 128.011C88.4306 128.011 89.4034 127.783 90.2546 127.327C91.1058 126.841 91.7746 126.111 92.261 125.139C92.7474 124.135 92.9906 122.889 92.9906 121.399V109.27H100.104V133.803H93.3554V130.928C92.6844 131.722 91.8788 132.376 90.9386 132.891C89.3578 133.742 87.625 134.167 85.7402 134.167ZM53.3527 133.438C55.2983 133.924 57.3199 134.167 59.4175 134.167C61.8799 134.167 63.9623 133.833 65.6647 133.164C67.3975 132.495 68.7199 131.583 69.6319 130.428C70.5439 129.243 70.9999 127.89 70.9999 126.37C70.9999 124.971 70.7263 123.847 70.1791 122.995C69.6319 122.114 68.9175 121.43 68.0359 120.943C67.1847 120.427 66.2271 120.031 65.1631 119.758C64.0991 119.484 63.0351 119.287 61.9711 119.165C60.9375 119.013 59.9799 118.846 59.0983 118.663C58.2167 118.481 57.5023 118.238 56.9551 117.934C56.4383 117.63 56.1799 117.174 56.1799 116.566C56.1799 115.897 56.5447 115.35 57.2743 114.924C58.0039 114.499 59.1591 114.286 60.7399 114.286C61.8647 114.286 63.0199 114.423 64.2055 114.696C65.4215 114.939 66.6223 115.411 67.8079 116.11L70.1791 111.048C69.0239 110.349 67.5799 109.817 65.8471 109.452C64.1143 109.087 62.4119 108.905 60.7399 108.905C58.3687 108.905 56.3319 109.255 54.6295 109.954C52.9271 110.623 51.6199 111.55 50.7079 112.735C49.8263 113.921 49.3855 115.289 49.3855 116.839C49.3855 118.238 49.6439 119.378 50.1607 120.259C50.7079 121.141 51.4223 121.84 52.3039 122.357C53.1855 122.874 54.1583 123.269 55.2223 123.543C56.2863 123.786 57.3351 123.983 58.3687 124.135C59.4327 124.287 60.4055 124.439 61.2871 124.591C62.1687 124.743 62.8679 124.971 63.3847 125.275C63.9319 125.549 64.2055 125.975 64.2055 126.552C64.2055 127.251 63.8559 127.799 63.1567 128.194C62.4879 128.589 61.3327 128.787 59.6911 128.787C58.2015 128.787 56.6815 128.574 55.1311 128.148C53.6111 127.692 52.2887 127.115 51.1639 126.415L48.7927 131.523C49.9175 132.283 51.4375 132.921 53.3527 133.438ZM0 101.883L13.7712 133.803H21.0672L34.884 101.883H27.5424L17.6877 124.681L7.98 101.883H0Z" fill="#3E36DC"/>
</svg>
