<svg width="14" height="14" viewBox="0 0 14 14" fill="none" xmlns="http://www.w3.org/2000/svg">
<path fill-rule="evenodd" clip-rule="evenodd" d="M9 0.5C9 0.223858 8.77614 0 8.5 0H5.5C5.22386 0 5 0.223858 5 0.5C5 0.776142 5.22386 1 5.5 1H8.5C8.77614 1 9 0.776142 9 0.5ZM1.5 3C1.22386 3 1 2.77614 1 2.5C1 2.22386 1.22386 2 1.5 2H12.5C12.7761 2 13 2.22386 13 2.5C13 2.77614 12.7761 3 12.5 3C12.2239 3 12 3.22386 12 3.5V13C12 13.5523 11.5523 14 11 14H3C2.44772 14 2 13.5523 2 13V3.5C2 3.22386 1.77614 3 1.5 3ZM4 3C3.44772 3 3 3.44772 3 4V12C3 12.5523 3.44772 13 4 13H10C10.5523 13 11 12.5523 11 12V4C11 3.44772 10.5523 3 10 3H4ZM6 5.5C6 5.22386 5.77614 5 5.5 5C5.22386 5 5 5.22386 5 5.5V10.5C5 10.7761 5.22386 11 5.5 11C5.77614 11 6 10.7761 6 10.5V5.5ZM9 5.5C9 5.22386 8.77614 5 8.5 5C8.22386 5 8 5.22386 8 5.5V10.5C8 10.7761 8.22386 11 8.5 11C8.77614 11 9 10.7761 9 10.5V5.5Z" fill="white"/>
</svg>
