<svg  viewBox="0 0 18 20" fill="currentColor" xmlns="http://www.w3.org/2000/svg">
<path fill-rule="evenodd" clip-rule="evenodd" d="M2.36053 7.6466C2.08233 7.36839 2.08233 6.91733 2.36053 6.63912L8.99965 0L15.6388 6.63912C15.917 6.91733 15.917 7.36839 15.6388 7.64659C15.3607 7.92467 14.9099 7.92482 14.6316 7.64693L9.71394 2.73571L9.71394 15C9.71394 15.3945 9.39414 15.7143 8.99965 15.7143C8.60516 15.7143 8.28537 15.3945 8.28537 15L8.28537 2.73571L3.36768 7.64693C3.08942 7.92482 2.63861 7.92467 2.36053 7.6466ZM16.1429 16.4286C16.1429 16.0341 16.4627 15.7143 16.8572 15.7143C17.2516 15.7143 17.5714 16.0341 17.5714 16.4286V18.5714C17.5714 18.9503 17.4209 19.3137 17.153 19.5816C16.8851 19.8495 16.5218 20 16.1429 20H1.85716C1.47828 20 1.11492 19.8495 0.847008 19.5816C0.579099 19.3137 0.428589 18.9503 0.428589 18.5714V16.4286C0.428589 16.0341 0.748386 15.7143 1.14287 15.7143C1.53736 15.7143 1.85716 16.0341 1.85716 16.4286V17.5714C1.85716 18.1237 2.30488 18.5714 2.85716 18.5714H15.1429C15.6952 18.5714 16.1429 18.1237 16.1429 17.5714V16.4286Z" fill="currentColor"/>
</svg>
