<svg width="232" height="110" viewBox="0 0 232 110" fill="none" xmlns="http://www.w3.org/2000/svg">
<path d="M75.395 54.9853C75.395 65.7947 66.6231 74.5653 55.8124 74.5653C45.0016 74.5653 36.2298 65.7947 36.2298 54.9853C36.2298 44.176 45.0016 35.4053 55.8124 35.4053C66.6231 35.4053 75.395 44.176 75.395 54.9853ZM66.4618 54.9853C66.4618 53.3573 65.1416 52.0227 63.4987 52.0227H58.7754V47.3C58.7754 45.672 57.4553 44.3373 55.8124 44.3373C54.1695 44.3373 52.8493 45.6573 52.8493 47.3V52.0227H48.126C46.4978 52.0227 45.1629 53.3427 45.1629 54.9853C45.1629 56.628 46.4831 57.948 48.126 57.948H52.8493V62.6707C52.8493 64.2987 54.1695 65.6333 55.8124 65.6333C57.4553 65.6333 58.7754 64.3133 58.7754 62.6707V57.948H63.4987C65.1269 57.948 66.4618 56.628 66.4618 54.9853ZM68.4421 80.0947C57.1179 85.8 42.728 83.3653 34.0295 72.7613C25.331 62.1573 25.6097 47.74 33.7948 37.5173C44.4589 24.1853 63.9681 23.3933 75.703 35.112C84.5042 43.912 86.2351 57.0827 80.9251 67.628C79.8983 69.6813 80.3236 72.16 81.9519 73.788C84.5482 76.384 88.9341 75.68 90.577 72.4093C98.4247 56.76 95.0363 36.916 80.4117 24.8893C65.787 12.8627 45.8524 13.2293 31.6825 24.552C13.244 39.292 12.1439 66.264 28.3527 82.4853C40.513 94.644 58.7021 97.0493 73.268 89.7453C76.5391 88.1027 77.2139 83.7173 74.6322 81.136C73.004 79.508 70.5103 79.0827 68.4567 80.124L68.4421 80.0947Z" fill="url(#paint0_linear_2060_5167)"/>
<path d="M55.8124 109.971C25.4923 109.971 0.819702 85.3013 0.819702 54.9853C0.819702 24.6693 25.4923 0 55.8124 0C64.0415 0 71.9625 1.77467 79.3555 5.28C81.3945 6.248 82.2599 8.668 81.2918 10.7067C80.3236 12.7453 77.8886 13.596 75.8644 12.6427C69.5715 9.66533 62.8386 8.15467 55.8124 8.15467C29.9809 8.15467 8.96079 29.172 8.96079 55C8.96079 80.828 29.9809 101.845 55.8124 101.845C81.6438 101.845 102.664 80.828 102.664 55C102.664 48.5467 101.373 42.2987 98.8354 36.432C97.9407 34.364 98.8941 31.9733 100.962 31.0787C103.031 30.184 105.422 31.1373 106.316 33.2053C109.294 40.0987 110.82 47.4467 110.82 55.0147C110.82 85.3307 86.1471 110 55.827 110L55.8124 109.971Z" fill="url(#paint1_linear_2060_5167)"/>
<path d="M84.3722 18.4653C84.3722 14.0653 87.9513 10.4867 92.3372 10.4867C96.7232 10.4867 100.317 14.0653 100.317 18.4653C100.317 22.8653 96.7378 26.444 92.3372 26.444C87.9367 26.444 84.3722 22.8653 84.3722 18.4653Z" fill="url(#paint2_linear_2060_5167)"/>
<path d="M142.695 37.3079V50.6989H138.984L133.894 44.6121V50.6989H129.494V37.3079H133.205L138.295 43.3947V37.3079H142.695Z" fill="#2B2C44"/>
<path d="M156.643 45.8441V50.6989H152.125V45.7854L147.08 37.3079H151.847L154.589 41.9427L157.347 37.3079H161.703L156.658 45.8441H156.643Z" fill="#2B2C44"/>
<path d="M170.621 47.3402V50.7136H166.103V37.3226H172.557C176.282 37.3226 178.658 39.2733 178.658 42.3681C178.658 44.3041 177.734 45.7561 176.135 46.5775L178.951 50.7136H174.126L171.853 47.3402H170.621ZM172.263 40.7987H170.621V43.9374H172.263C173.51 43.9374 174.097 43.3507 174.097 42.3681C174.097 41.3854 173.51 40.7987 172.263 40.7987Z" fill="#2B2C44"/>
<path d="M184.173 37.3079H188.69V50.6989H184.173V37.3079Z" fill="#2B2C44"/>
<path d="M193.853 49.6429L195.305 46.3575C196.566 47.1055 198.253 47.5749 199.72 47.5749C200.996 47.5749 201.465 47.3109 201.465 46.8415C201.465 45.1548 194.058 46.5189 194.058 41.5174C194.058 39.024 196.141 37 200.292 37C202.096 37 203.944 37.3813 205.337 38.1734L203.973 41.4441C202.653 40.7694 201.406 40.4467 200.248 40.4467C198.928 40.4467 198.502 40.8281 198.502 41.2827C198.502 42.8961 205.909 41.5468 205.909 46.4895C205.909 48.9389 203.827 51.0069 199.676 51.0069C197.432 51.0069 195.173 50.4496 193.838 49.6282L193.853 49.6429Z" fill="#2B2C44"/>
<path d="M210.001 43.9374H219.564V46.4308H210.001V43.9374Z" fill="#2B2C44"/>
<path d="M150.233 60.2618L145.848 73.6527H142.519L139.571 64.5885L136.535 73.6527H133.22L128.82 60.2618H132.032L135.053 69.6779L138.207 60.2618H141.081L144.147 69.7513L147.271 60.2618H150.233Z" fill="#2B2C44"/>
<path d="M156.056 60.2618H159.151V73.6527H156.056V60.2618Z" fill="#2B2C44"/>
<path d="M166.147 60.2618H172.234C176.619 60.2618 179.626 62.9018 179.626 66.9646C179.626 71.0273 176.619 73.6674 172.234 73.6674H166.147V60.2618ZM172.087 71.1153C174.742 71.1153 176.487 69.5313 176.487 66.9646C176.487 64.3978 174.742 62.8138 172.087 62.8138H169.256V71.1153H172.087Z" fill="#2B2C44"/>
<path d="M194.836 66.7592H197.666V72.2006C196.2 73.3153 194.161 73.902 192.254 73.902C188.045 73.902 184.95 71.0126 184.95 66.9792C184.95 62.9458 188.045 60.0564 192.313 60.0564C194.66 60.0564 196.625 60.8631 197.916 62.3738L195.921 64.2072C194.938 63.1805 193.809 62.6965 192.46 62.6965C189.864 62.6965 188.074 64.4418 188.074 66.9792C188.074 69.5166 189.849 71.262 192.416 71.262C193.252 71.262 194.044 71.1153 194.821 70.6899V66.7739L194.836 66.7592Z" fill="#2B2C44"/>
<path d="M214.724 71.174V73.6674H204.355V60.2764H214.475V62.7698H207.435V65.6739H213.653V68.0793H207.435V71.174H214.724Z" fill="#2B2C44"/>
<path d="M219.505 62.7992V60.2764H231.18V62.7992H226.898V73.6674H223.803V62.7992H219.505Z" fill="#2B2C44"/>
<defs>
<linearGradient id="paint0_linear_2060_5167" x1="115.948" y1="132.496" x2="115.948" y2="-20.4309" gradientUnits="userSpaceOnUse">
<stop stop-color="#FF145E"/>
<stop offset="0.49" stop-color="#A024A0"/>
<stop offset="1" stop-color="#4036E5"/>
</linearGradient>
<linearGradient id="paint1_linear_2060_5167" x1="115.985" y1="109.795" x2="115.985" y2="1.496" gradientUnits="userSpaceOnUse">
<stop stop-color="#FF145E"/>
<stop offset="0.49" stop-color="#A024A0"/>
<stop offset="1" stop-color="#4036E5"/>
</linearGradient>
<linearGradient id="paint2_linear_2060_5167" x1="192.505" y1="109.795" x2="192.505" y2="1.49585" gradientUnits="userSpaceOnUse">
<stop stop-color="#FF145E"/>
<stop offset="0.49" stop-color="#A024A0"/>
<stop offset="1" stop-color="#4036E5"/>
</linearGradient>
</defs>
</svg>
