<svg width="16" height="17" viewBox="0 0 16 17" fill="none" xmlns="http://www.w3.org/2000/svg">
<path fill-rule="evenodd" clip-rule="evenodd" d="M14.643 4.65152L8.343 1.24366C8.12642 1.12191 7.85958 1.12191 7.643 1.24366L1.34303 4.65152C1.12828 4.77548 0.997588 5.00142 1.00003 5.24448V12.0602C1.00047 12.3061 1.13689 12.5327 1.35703 12.6532L7.657 16.061C7.87358 16.1828 8.14042 16.1828 8.357 16.061L14.657 12.6532C14.8717 12.5292 15.0024 12.3033 15 12.0602V5.24448C14.9995 4.9986 14.8631 4.772 14.643 4.65152ZM7.99982 2.61361L12.8578 5.24447L7.99982 7.87534L3.14185 5.24447L7.99982 2.61361ZM2.40015 6.40315L7.30012 9.05447V14.3094L2.40015 11.6581V6.40315ZM8.69983 14.3094V9.05447L13.5998 6.40315V11.6581L8.69983 14.3094Z" fill="currentColor"/>
</svg>
