<svg  viewBox="0 0 16 16" fill="none" xmlns="http://www.w3.org/2000/svg">
<g clip-path="url(#clip0_7255_39665)">
<path d="M14.62 0H6.88C6.51 0 6.15 0.15 5.89 0.41L0.39 6.02C0.14 6.28 0 6.62 0 6.98V14.62C0 15.38 0.62 16 1.38 16H9.12C9.49 16 9.85 15.85 10.11 15.59L15.61 9.99C15.86 9.73 16 9.39 16 9.03V1.38C16 0.62 15.38 0 14.62 0ZM6.6 1.1C6.67 1.03 6.78 0.98 6.88 0.98H14.33L9.23 6.18C9.16 6.16 9.09 6.14 9.01 6.14H6.87V5.09H6.13V6.14H1.66L6.6 1.1ZM0.99 14.62V7.11H9.01V9H8.11V9.74H9.01V15.01H1.38C1.16 15.01 0.99 14.83 0.99 14.62ZM10 14.29V7.11C10 7.02 9.97 6.94 9.95 6.85L15.01 1.69V9H14.02V9.74H14.46L10 14.29Z" fill="#2B2C46"/>
<path d="M12.5503 9.00977H11.0703V9.74977H12.5503V9.00977Z" fill="#2B2C46"/>
<path d="M6.87086 2.13086H6.13086V3.60086H6.87086V2.13086Z" fill="#2B2C46"/>
<path d="M6.76922 9.6293L5.72922 10.6893L5.19922 10.1693L6.12922 9.2293V8.0293H6.86922V9.3693V9.5193L6.76922 9.6293Z" fill="#2B2C46"/>
<path d="M3.14062 12.2805L3.67062 12.8005L4.70062 11.7405L4.17062 11.2305L3.14062 12.2805Z" fill="#2B2C46"/>
<path d="M1.07031 14.3898L1.60031 14.9098L2.63031 13.8498L2.10031 13.3398L1.07031 14.3898Z" fill="#2B2C46"/>
<path opacity="0.65" d="M9.00922 7.08984H0.949219V15.1498H9.00922V7.08984Z" fill="#2B2C46"/>
</g>
<defs>
<clipPath id="clip0_7255_39665">
<rect width="16" height="16" fill="currentColor"/>
</clipPath>
</defs>
</svg>
