<svg  viewBox="0 0 16 16" fill="none" xmlns="http://www.w3.org/2000/svg">
<path fill-rule="evenodd" clip-rule="evenodd" d="M14.153 13.1029C16.4093 10.3896 16.6189 6.51922 14.6686 3.57859C12.7184 0.63796 9.06952 -0.677581 5.68945 0.34128C2.30938 1.36014 -0.00263212 4.47248 2.24892e-06 8.00018C0.00045013 9.86651 0.658681 11.6731 1.85919 13.1029L1.84775 13.1123C1.86985 13.139 1.89369 13.1635 1.91756 13.188L1.91757 13.1881L1.91758 13.1881C1.93694 13.208 1.95633 13.2279 1.97482 13.249C2.00851 13.2878 2.04377 13.3248 2.07913 13.3618L2.07914 13.3619L2.07918 13.3619C2.09781 13.3814 2.11647 13.401 2.13494 13.4209C2.29507 13.5942 2.45942 13.761 2.63247 13.918C2.66868 13.9509 2.70582 13.9824 2.74301 14.0139L2.74305 14.0139L2.79259 14.0561C2.97558 14.2138 3.16338 14.3631 3.35873 14.5026C3.37125 14.5114 3.38306 14.5212 3.39489 14.5311L3.39492 14.5311C3.40691 14.5411 3.41892 14.5511 3.4317 14.5601V14.5528C6.17596 16.4824 9.83728 16.4824 12.5815 14.5528V14.5599C12.5943 14.5509 12.6063 14.5409 12.6183 14.531C12.6302 14.5211 12.642 14.5113 12.6545 14.5025C12.8496 14.363 13.0377 14.2137 13.2207 14.056L13.2614 14.0214L13.2614 14.0214C13.3015 13.9874 13.3417 13.9534 13.3808 13.9179C13.5538 13.7608 13.7182 13.594 13.8783 13.4208C13.8971 13.4005 13.9161 13.3806 13.935 13.3607L13.9351 13.3606C13.97 13.3239 14.0049 13.2872 14.0384 13.2489C14.057 13.2276 14.0766 13.2074 14.0962 13.1873L14.0962 13.1873L14.0962 13.1873C14.1199 13.163 14.1436 13.1386 14.1655 13.1122L14.153 13.1029ZM8.00611 3.42892C9.42735 3.42892 10.5795 4.58015 10.5795 6.00026C10.5795 7.42036 9.42735 8.57159 8.00611 8.57159C6.58486 8.57159 5.43271 7.42036 5.43271 6.00026C5.43271 4.58015 6.58486 3.42892 8.00611 3.42892ZM6.29051 10.2858C4.72789 10.2866 3.4558 11.5416 3.43525 13.1029C6.03294 15.4418 9.97927 15.4418 12.577 13.1029C12.5564 11.5416 11.2843 10.2866 9.7217 10.2858H6.29051Z" fill="#2B2C46"/>
</svg>
