<svg width="14" height="14" viewBox="0 0 14 14" fill="none" xmlns="http://www.w3.org/2000/svg">
<path d="M12.3849 14H12.2933C1.71255 13.3915 0.210246 4.46385 0.000245939 1.73923C-0.0166751 1.52739 0.00837059 1.31429 0.0739478 1.11214C0.139525 0.909999 0.244345 0.722779 0.382401 0.561213C0.520458 0.399646 0.689038 0.266909 0.878482 0.170606C1.06793 0.0743029 1.27451 0.0163271 1.4864 5.04857e-07H4.45332C4.66901 -0.000208291 4.87979 0.0643519 5.05836 0.185318C5.23693 0.306285 5.37506 0.478084 5.45486 0.678462L6.27332 2.69231C6.35213 2.88806 6.37168 3.10266 6.32956 3.30943C6.28744 3.51621 6.1855 3.70605 6.0364 3.85539L4.88948 5.01308C5.06863 6.03117 5.55619 6.96967 6.28619 7.70159C7.01619 8.43352 7.9534 8.92355 8.97101 9.10538L10.1395 7.94769C10.2911 7.80024 10.4827 7.70067 10.6905 7.66141C10.8983 7.62215 11.113 7.64494 11.3079 7.72692L13.3379 8.54C13.5353 8.62232 13.7037 8.76153 13.8216 8.9399C13.9396 9.11827 14.0018 9.32771 14.0002 9.54154V12.3846C14.0002 12.813 13.8301 13.2239 13.5271 13.5269C13.2242 13.8298 12.8133 14 12.3849 14ZM1.61563 1.07692C1.47282 1.07692 1.33586 1.13365 1.23488 1.23464C1.1339 1.33562 1.07717 1.47258 1.07717 1.61539V1.65846C1.32486 4.84615 2.91332 12.3846 12.3526 12.9231C12.4233 12.9275 12.4942 12.9178 12.5612 12.8947C12.6282 12.8716 12.69 12.8355 12.743 12.7885C12.7961 12.7415 12.8393 12.6845 12.8702 12.6207C12.9012 12.5569 12.9192 12.4877 12.9233 12.4169V9.54154L10.8933 8.72846L9.34794 10.2631L9.08948 10.2308C4.40486 9.64385 3.76948 4.95923 3.76948 4.91077L3.73717 4.65231L5.2664 3.10692L4.45871 1.07692H1.61563Z" fill="currentColor"/>
</svg>
