<svg viewBox="0 0 12 12" fill="none" xmlns="http://www.w3.org/2000/svg">
<path d="M11.1426 2.57129C11.616 2.57129 12 2.95532 12 3.42871V11.1426C12 11.616 11.616 12 11.1426 12H3.42871C2.95532 12 2.57129 11.616 2.57129 11.1426V3.42871C2.57129 2.95532 2.95532 2.57129 3.42871 2.57129H11.1426ZM3.42871 11.1426H11.1426V3.42871H3.42871V11.1426ZM6.42871 0C6.66534 7.53061e-05 6.85742 0.192064 6.85742 0.428711C6.85735 0.665294 6.66529 0.857347 6.42871 0.857422H1.85742C1.30514 0.857422 0.857422 1.30514 0.857422 1.85742V6.42871C0.857347 6.66529 0.665294 6.85735 0.428711 6.85742C0.192064 6.85742 7.52336e-05 6.66534 0 6.42871V0.857422C0 0.384035 0.384035 0 0.857422 0H6.42871Z" fill="currentColor"/>
</svg>
