<svg  viewBox="0 0 20 20" fill="none" xmlns="http://www.w3.org/2000/svg">
<path d="M10 0.000191037C8.68453 -0.0079651 7.38053 0.245119 6.16361 0.744768C4.94669 1.24442 3.84108 1.98069 2.91088 2.91088C1.98069 3.84108 1.24442 4.94669 0.744768 6.16361C0.245119 7.38053 -0.0079651 8.68453 0.000191037 10C-0.0079651 11.3155 0.245119 12.6195 0.744768 13.8364C1.24442 15.0533 1.98069 16.1589 2.91088 17.0891C3.84108 18.0193 4.94669 18.7556 6.16361 19.2552C7.38053 19.7549 8.68453 20.008 10 19.9998C11.3155 20.008 12.6195 19.7549 13.8364 19.2552C15.0533 18.7556 16.1589 18.0193 17.0891 17.0891C18.0193 16.1589 18.7556 15.0533 19.2552 13.8364C19.7549 12.6195 20.008 11.3155 19.9998 10C20.008 8.68453 19.7549 7.38053 19.2552 6.16361C18.7556 4.94669 18.0193 3.84108 17.0891 2.91088C16.1589 1.98069 15.0533 1.24442 13.8364 0.744768C12.6195 0.245119 11.3155 -0.0079651 10 0.000191037ZM13.8891 14.9999L5.0001 6.11129L6.11129 5.0001L14.9999 13.8891L13.8891 14.9999Z" fill="#E31B5D"/>
</svg>
