<svg width="16" height="16" viewBox="0 0 16 16" fill="none" xmlns="http://www.w3.org/2000/svg">
<path fill-rule="evenodd" clip-rule="evenodd" d="M1.33333 0H14.6667C15.0203 0 15.3594 0.138515 15.6095 0.385075C15.8595 0.631636 16 0.966042 16 1.31473V14.462C16 14.8107 15.8595 15.1451 15.6095 15.3917C15.3594 15.6382 15.0203 15.7767 14.6667 15.7767H1.33333C0.979711 15.7767 0.640573 15.6382 0.390524 15.3917C0.140476 15.1451 0 14.8107 0 14.462V1.31473C0 0.966042 0.140476 0.631636 0.390524 0.385075C0.640573 0.138515 0.979711 0 1.33333 0ZM1.33333 10.5178V14.462H14.6667V13.1473L11.3333 9.86047L10.2733 10.9057C10.0235 11.1505 9.68558 11.288 9.33333 11.288C8.98109 11.288 8.64315 11.1505 8.39333 10.9057L4.66667 7.23101L1.33333 10.5178ZM12.2733 8.92701L14.6667 11.2869V1.31473H1.33333V8.65749L3.72667 6.29755C3.97648 6.05268 4.31442 5.91524 4.66667 5.91524C5.01891 5.91524 5.35685 6.05268 5.60667 6.29755L9.33333 9.97222L10.3933 8.92701C10.6432 8.68214 10.9811 8.5447 11.3333 8.5447C11.6856 8.5447 12.0235 8.68214 12.2733 8.92701ZM11.1111 6.24074C10.7822 6.45744 10.3956 6.57309 10 6.57309C9.46957 6.57309 8.96086 6.36532 8.58579 5.99548C8.21071 5.62564 8 5.12403 8 4.601C8 4.21096 8.1173 3.82967 8.33706 3.50536C8.55682 3.18106 8.86918 2.92829 9.23463 2.77902C9.60009 2.62976 10.0022 2.59071 10.3902 2.6668C10.7781 2.74289 11.1345 2.93072 11.4142 3.20652C11.6939 3.48232 11.8844 3.83372 11.9616 4.21627C12.0387 4.59881 11.9991 4.99533 11.8478 5.35569C11.6964 5.71604 11.44 6.02404 11.1111 6.24074ZM10.3704 4.05442C10.2607 3.98219 10.1319 3.94364 10 3.94364C9.82319 3.94364 9.65362 4.01289 9.52859 4.13617C9.40357 4.25945 9.33333 4.42666 9.33333 4.601C9.33333 4.73101 9.37243 4.85811 9.44569 4.96621C9.51894 5.07432 9.62306 5.15857 9.74488 5.20833C9.8667 5.25808 10.0007 5.2711 10.1301 5.24574C10.2594 5.22037 10.3782 5.15776 10.4714 5.06583C10.5646 4.9739 10.6281 4.85676 10.6539 4.72925C10.6796 4.60173 10.6664 4.46955 10.6159 4.34944C10.5655 4.22932 10.48 4.12666 10.3704 4.05442Z" fill="currentColor"/>
</svg>
