<svg  viewBox="0 0 24 24" fill="none" xmlns="http://www.w3.org/2000/svg">
<path fill-rule="evenodd" clip-rule="evenodd" d="M23.3723 22.117C23.719 22.4637 23.719 23.0257 23.3723 23.3723C23.0257 23.719 22.4637 23.719 22.117 23.3723L16.8475 18.1028C16.3904 17.6457 15.6641 17.6208 15.123 17.9745C11.1608 20.5639 5.82363 19.9525 2.55769 16.3754C-0.967972 12.5138 -0.832726 6.56215 2.86471 2.86471C6.56215 -0.832726 12.5138 -0.967972 16.3754 2.55769C19.9525 5.82363 20.5639 11.1608 17.9745 15.123C17.6208 15.6641 17.6457 16.3904 18.1028 16.8475L23.3723 22.117ZM9.79677 1.80687C5.38428 1.80687 1.80725 5.3839 1.80725 9.79639C1.81214 14.2069 5.38631 17.781 9.79677 17.7859C14.2093 17.7859 17.7863 14.2089 17.7863 9.79639C17.7863 5.3839 14.2093 1.80687 9.79677 1.80687Z" fill="#000"/>
</svg>