<svg viewBox="0 0 11 11" fill="currentColor" xmlns="http://www.w3.org/2000/svg">
<path fill-rule="evenodd" clip-rule="evenodd" d="M1.53059 7.14308H3.81466V9.11675C3.7348 9.90592 4.28699 10.6128 5.04806 10.6957C5.14416 10.7075 5.24128 10.7075 5.33738 10.6957H5.93504C6.19675 10.6882 6.42056 10.4984 6.47941 10.2338V10.1865L6.86009 7.68387L8.20769 5.56415H10.6669V0.0378923H3.43399C0.601741 0.0378923 0.00788307 1.75498 0.00788307 3.19576V5.56415C-0.0719852 6.35332 0.480213 7.06022 1.24128 7.14308C1.33738 7.15493 1.43449 7.15493 1.53059 7.14308ZM8.38276 0.827361H9.90548V4.77469H8.38276V0.827361ZM3.43384 0.827355C1.6142 0.827355 0.769092 1.5813 0.769092 3.19575V5.56415C0.769092 6.13256 0.982271 6.35361 1.53045 6.35361H4.57587V9.11674C4.57587 9.68516 4.78905 9.90621 5.33723 9.90621H5.76739L5.82069 9.51148L6.09858 7.39176L7.6213 5.051V0.827355H3.43384Z" fill="currentColor"/>
</svg>
