<svg viewBox="0 0 12 11" fill="currentColor" xmlns="http://www.w3.org/2000/svg">
<path fill-rule="evenodd" clip-rule="evenodd" d="M9.80278 3.59938H7.51871V1.62572C7.59858 0.836545 7.04638 0.129649 6.28531 0.0467847C6.18921 0.0349422 6.0921 0.0349422 5.996 0.0467847H5.39833C5.13662 0.0542197 4.91282 0.244093 4.85396 0.508622V0.55599L4.47329 3.0586L3.12568 5.17831H0.666504V10.7046H7.89939C10.7316 10.7046 11.3255 8.98748 11.3255 7.54671V5.17831C11.4054 4.38914 10.8532 3.68224 10.0921 3.59938C9.99599 3.58754 9.89888 3.58754 9.80278 3.59938ZM2.95061 9.9151H1.4279V5.96777H2.95061V9.9151ZM7.89954 9.9151C9.71918 9.9151 10.5643 9.16116 10.5643 7.5467V5.1783C10.5643 4.60989 10.3511 4.38884 9.80293 4.38884H6.7575V1.62571C6.7575 1.05729 6.54432 0.836243 5.99615 0.836243H5.56598L5.51268 1.23098L5.23479 3.35069L3.71208 5.69146V9.9151H7.89954Z" fill="currentColor"/>
</svg>
