<svg viewBox="0 0 32 33" fill="none" xmlns="http://www.w3.org/2000/svg">
<path d="M15.085 0.710938C15.8843 0.347138 16.3642 0.503578 17.0576 0.804688L17.9141 1.17676C21.0657 2.54513 29.4381 6.17925 30.8711 6.8623C31.1075 6.97413 31.2992 7.15808 31.4414 7.40625C31.4845 7.47877 31.5068 7.56223 31.5068 7.65039L31.5059 7.65234C31.4921 15.8976 31.4902 21.5428 31.502 24.9121C31.5038 25.4986 31.224 25.9268 30.6924 26.1523C26.7208 27.8463 22.0116 29.9308 16.6953 32.3457C16.4678 32.4487 16.2237 32.5 15.9688 32.5C15.9168 32.5 15.8635 32.4971 15.8096 32.4932C15.5998 32.4755 15.3401 32.395 14.9902 32.2383C9.66399 29.8214 5.11956 27.7873 1.4834 26.1914C0.489991 25.7529 0.492179 25.0028 0.494141 24.1348V24.0098C0.496102 16.7875 0.496111 11.7504 0.492188 7.67676C0.492188 7.56886 0.520278 7.46039 0.572266 7.3623C0.718364 7.09276 0.934524 6.89312 1.21582 6.76562C4.16634 5.42867 7.50351 3.97355 11.1338 2.44336C12.3285 1.94016 13.6215 1.37402 15.085 0.710938ZM2.34961 24.3125C2.34961 24.436 2.42254 24.5485 2.53516 24.5996L15.0146 30.2275V14.5811L11.5547 13.0811C11.5586 15.3126 11.5499 16.8519 11.5303 17.4385C11.5234 17.6464 11.4034 17.8718 11.1514 18.1465C11.0563 18.2474 10.9321 18.3094 10.7979 18.3223C10.3997 18.3527 10.1806 18.231 9.96973 18.1143C9.90701 18.079 9.84203 18.0441 9.77051 18.0107C9.07506 17.689 8.16922 17.2526 7 16.6738C6.91668 16.6336 6.83716 16.5745 6.77246 16.5029V16.5039C6.47434 16.1793 6.32036 15.7376 6.31543 15.1953V10.8418L2.34961 9.05273V24.3125ZM16.7324 14.7451V30.1875L29.5137 24.5156V9.07129L16.7324 14.7451ZM24.0957 15.709C24.6018 15.4836 25.1826 15.53 25.6465 15.832C26.1112 16.1342 26.3886 16.6451 26.3887 17.1992V23.3008C26.3885 23.9449 26.0081 24.5301 25.4199 24.791L20.5557 26.9512C20.3429 27.0453 20.1171 27.0927 19.8936 27.0928C19.5828 27.0928 19.2745 27.0035 19.0049 26.8281C18.5399 26.526 18.2627 26.0142 18.2627 25.46V19.3623C18.2627 18.7179 18.6429 18.133 19.2314 17.8711L24.0957 15.709ZM24.7598 16.5479C24.6705 16.5479 24.5795 16.5662 24.4932 16.6045L19.6289 18.7676C19.3947 18.8716 19.2441 19.1054 19.2441 19.3623V25.46C19.2441 25.6846 19.3507 25.8832 19.5391 26.0059C19.7274 26.1285 19.9522 26.1459 20.1572 26.0547L25.0215 23.8945C25.2567 23.7906 25.4081 23.5576 25.4082 23.3008V17.1992C25.4082 16.9746 25.2996 16.7769 25.1123 16.6543C25.0035 16.5837 24.8823 16.5479 24.7598 16.5479ZM23.7002 22.6143C23.9483 22.5046 24.2378 22.6172 24.3477 22.8643C24.4571 23.1112 24.3454 23.4008 24.0986 23.5107L20.5264 25.0977C20.4618 25.126 20.3937 25.1396 20.3271 25.1396C20.14 25.1396 19.9604 25.0308 19.8789 24.8486C19.769 24.6014 19.8807 24.311 20.1279 24.2012L23.7002 22.6143ZM24.1943 20.7031C24.4415 20.5933 24.7319 20.705 24.8418 20.9521C24.9516 21.1993 24.8399 21.4897 24.5928 21.5996L20.5264 23.4053C20.4618 23.4337 20.3937 23.4472 20.3271 23.4473C20.1398 23.4473 19.9603 23.3386 19.8789 23.1562C19.769 22.9091 19.8807 22.6186 20.1279 22.5088L24.1943 20.7031ZM22.6504 19.7617C22.8976 19.6519 23.188 19.7636 23.2979 20.0107C23.4075 20.2579 23.2959 20.5484 23.0488 20.6582L20.5264 21.7783C20.4618 21.8067 20.3937 21.8203 20.3271 21.8203C20.14 21.8203 19.9604 21.7114 19.8789 21.5293C19.769 21.2821 19.8807 20.9917 20.1279 20.8818L22.6504 19.7617ZM23.7002 17.7695C23.9484 17.6597 24.2378 17.7714 24.3477 18.0186C24.4573 18.2656 24.3456 18.5561 24.0986 18.666L20.5264 20.252C20.4618 20.2803 20.3937 20.2939 20.3271 20.2939C20.1399 20.2939 19.9604 20.1852 19.8789 20.0029C19.769 19.7557 19.8807 19.4653 20.1279 19.3555L23.7002 17.7695ZM8.15332 11.0039V15.1338L9.7627 16.0635V11.8174L23.6289 5.65918L21.8877 4.9043L8.15332 11.0039ZM13.8564 12.0225L16.1377 13.0508L28.2656 7.66602L25.9365 6.65723L13.8564 12.0225ZM3.74414 7.62207L7.4502 9.29199V9.29297L19.499 3.94141L15.9863 2.35449L3.74414 7.62207Z" fill="currentColor"/>
</svg>
