<svg viewBox="0 0 22 18" fill="none" xmlns="http://www.w3.org/2000/svg">
<path fill-rule="evenodd" clip-rule="evenodd" d="M4.82282 9.57625C5.11177 9.76706 5.19132 10.156 5.0005 10.4449L3.37144 12.9117L0.98271 11.3343C0.693768 11.1435 0.614214 10.7545 0.805022 10.4656L0.976492 10.2059C1.08106 10.0476 1.29421 10.004 1.45256 10.1086C1.70394 10.2746 2.04049 10.0581 2.01532 9.75793C1.91262 8.53292 2.06082 7.28795 2.46178 6.10569C3.1492 4.07879 4.54249 2.35932 6.38498 1.2641C8.22752 0.168844 10.4039 -0.233564 12.5129 0.130951C14.3866 0.454786 16.1077 1.36288 17.4231 2.71042C17.6703 2.96369 17.6346 3.36987 17.3642 3.59821C17.0938 3.82654 16.6913 3.79023 16.441 3.53997C15.3219 2.42088 13.8715 1.66646 12.2947 1.39394C10.4863 1.08136 8.6201 1.42651 7.03988 2.36583C5.45977 3.30509 4.26493 4.77948 3.67558 6.51736C3.3564 7.45844 3.22388 8.44559 3.2767 9.42222C3.29868 9.82858 3.80104 9.93534 4.02529 9.59576C4.16401 9.38571 4.44673 9.32789 4.65677 9.46659L4.82282 9.57625ZM21.0319 6.49235C21.3348 6.66015 21.4443 7.04171 21.2765 7.34459L21.1602 7.5546C21.0492 7.75493 20.7968 7.82735 20.5965 7.71636C20.2886 7.54578 19.9127 7.81419 19.9451 8.16468C20.0607 9.41475 19.9149 10.6874 19.5053 11.8948C18.8177 13.9218 17.4245 15.6411 15.5822 16.7362C13.74 17.8313 11.5639 18.2336 9.45489 17.869C7.58155 17.5451 5.8604 16.637 4.54482 15.2896C4.29756 15.0364 4.33318 14.6302 4.60357 14.4018C4.87396 14.1735 5.27649 14.2097 5.52677 14.46C6.64606 15.579 8.09659 16.3334 9.67327 16.6061C11.4815 16.9187 13.3474 16.5737 14.9273 15.6345C16.5073 14.6954 17.702 13.221 18.2916 11.4831C18.6014 10.5698 18.7354 9.61314 18.6949 8.66482C18.6804 8.3237 18.2538 8.24483 18.0883 8.54349C17.9913 8.71857 17.7707 8.78187 17.5956 8.68487L17.3399 8.54321C17.037 8.3754 16.9275 7.99384 17.0953 7.69096L18.2242 5.65352C18.392 5.35064 18.7735 5.24114 19.0764 5.40894L21.0319 6.49235ZM16.175 5.6395L11.315 2.7769C11.1479 2.67463 10.9421 2.67463 10.775 2.7769L5.91502 5.6395C5.74935 5.74363 5.64853 5.93342 5.65042 6.13759V11.8628C5.65075 12.0693 5.75599 12.2597 5.92582 12.3609L10.7858 15.2235C10.9529 15.3258 11.1587 15.3258 11.3258 15.2235L16.1858 12.3609C16.3514 12.2568 16.4523 12.067 16.4504 11.8628V6.13759C16.45 5.93105 16.3448 5.74071 16.175 5.6395ZM11.0472 3.92759L14.7948 6.13752L11.0472 8.34745L7.29966 6.13752L11.0472 3.92759ZM10.5095 9.33853L6.72956 7.11143V11.5256L10.5095 13.7527V9.33853ZM11.591 13.7527V9.33853L15.371 7.11143V11.5256L11.591 13.7527Z" fill="currentColor"/>
</svg>
