<svg viewBox="0 0 120 109" fill="none" xmlns="http://www.w3.org/2000/svg">
<path d="M62.0061 5.6149e-06C64.8534 5.16776e-06 67.2733 -0.00374472 69.2825 0.183599C71.3783 0.379003 73.327 0.802109 75.2219 1.81641C77.2601 2.90736 78.0288 5.44419 76.9377 7.48243C75.8471 9.52067 73.31 10.2881 71.2717 9.19727C70.6991 8.8908 69.951 8.65431 68.5051 8.51954C66.9737 8.37672 65.0064 8.37208 62.0061 8.37208H57.9953C54.9948 8.37208 53.0269 8.37671 51.4953 8.51954C50.0492 8.65433 49.3011 8.89075 48.7287 9.19727C48.156 9.50374 47.5442 9.99496 46.6301 11.1231C45.6615 12.3184 44.567 13.9525 42.9026 16.4492L38.3674 23.252L38.2151 23.4648C37.4266 24.5012 36.1961 25.1162 34.884 25.1162C26.7903 25.1162 23.6714 25.1618 21.2463 25.8975C15.449 27.6561 10.9122 32.1929 9.15355 37.9902C8.41799 40.4153 8.3723 43.5347 8.3723 51.6279V62.79C8.3723 72.0666 8.37919 78.6568 8.97679 83.7129C9.56351 88.6764 10.6702 91.615 12.4905 93.833C13.2442 94.751 14.0858 95.5937 15.0041 96.3477C17.2222 98.1677 20.1604 99.2738 25.1243 99.8604C30.1805 100.458 36.7704 100.465 46.0471 100.465H73.9534C83.2299 100.465 89.8201 100.458 94.8762 99.8604C99.8397 99.2738 102.778 98.1677 104.996 96.3477C105.914 95.5936 106.757 94.7511 107.511 93.833C109.331 91.615 110.437 88.6763 111.024 83.7129C111.621 78.6568 111.628 72.0666 111.628 62.79V51.6279C111.628 43.5345 111.583 40.4153 110.847 37.9902C110.176 35.778 111.425 33.4408 113.637 32.7695C115.849 32.0984 118.187 33.3473 118.859 35.5596C120.045 39.4726 120 44.1433 120 51.6279V62.79C120 71.862 120.006 79.034 119.337 84.6963C118.657 90.4501 117.229 95.1874 113.982 99.1445C112.88 100.487 111.65 101.718 110.308 102.819C106.351 106.067 101.613 107.494 95.8596 108.174C90.1973 108.843 83.0253 108.837 73.9534 108.837H46.0471C36.9753 108.837 29.8027 108.843 24.1409 108.174C18.3871 107.494 13.6503 106.066 9.69359 102.819C8.35137 101.718 7.12034 100.487 6.01878 99.1445C2.77146 95.1874 1.34347 90.4501 0.663315 84.6963C-0.00594722 79.034 0.000229086 71.862 0.000229086 62.79V51.6279C0.000229086 44.1433 -0.0451596 39.4726 1.14183 35.5596C3.71214 27.0866 10.3428 20.4562 18.8157 17.8857C22.3229 16.8219 26.4388 16.748 32.6438 16.7441L35.9358 11.8057C37.5155 9.43618 38.8547 7.42055 40.1252 5.85254C41.4503 4.21723 42.8833 2.83077 44.7785 1.81641C46.6739 0.802109 48.6223 0.379003 50.718 0.183599C52.7273 -0.00375806 55.1478 5.6149e-06 57.9953 5.6149e-06H62.0061ZM60.0002 33.4883C74.6418 33.4884 86.5119 45.3584 86.5119 60C86.5118 74.6415 74.6417 86.5116 60.0002 86.5117C45.3584 86.5117 33.4887 74.6415 33.4885 60C33.4885 45.3583 45.3583 33.4883 60.0002 33.4883ZM60.0002 41.8604C49.9821 41.8604 41.8606 49.9821 41.8606 60C41.8607 70.0178 49.9822 78.1397 60.0002 78.1397C70.018 78.1395 78.1397 70.0177 78.1399 60C78.1399 49.9822 70.018 41.8605 60.0002 41.8604ZM89.2366 3.47754C90.1751 -1.15554 96.801 -1.15559 97.7395 3.47754L97.7336 3.4834C99.0985 10.1309 104.302 15.3256 110.951 16.6846C115.573 17.6305 115.573 24.2309 110.951 25.1768C104.302 26.5358 99.0985 31.7304 97.7336 38.3779L97.7395 38.3828C96.8012 43.0162 90.1749 43.0162 89.2366 38.3828V38.3779C87.8714 31.7311 82.6733 26.5358 76.0246 25.1768C71.4031 24.2307 71.4031 17.6306 76.0246 16.6846C82.6733 15.3255 87.8713 10.1302 89.2366 3.4834V3.47754ZM93.4875 14.4111C91.731 16.9651 89.5229 19.1742 86.969 20.9307C89.5216 22.6863 91.7315 24.892 93.4875 27.4443C95.2427 24.8933 97.4502 22.6859 100.001 20.9307C97.4489 19.1746 95.2432 16.9638 93.4875 14.4111ZM77.7034 24.8877C77.7335 24.8814 77.7605 24.8612 77.7903 24.8545C77.7607 24.8606 77.7329 24.8757 77.7034 24.8818L77.2561 22.7051L77.7034 24.8877Z" fill="currentColor"/>
</svg>
