<svg width="17" height="16" viewBox="0 0 17 16" fill="none" xmlns="http://www.w3.org/2000/svg">
<path d="M9.58515 2.44905C9.33729 2.20119 8.93544 2.20119 8.68758 2.44905C8.43984 2.69679 8.43971 3.09842 8.68728 3.34632L12.2105 6.87422C12.5252 7.1893 12.302 7.72754 11.8567 7.72754L2.13636 7.72754C1.78491 7.72754 1.5 8.01245 1.5 8.3639C1.5 8.71536 1.78491 9.00027 2.13636 9.00027L11.8567 9.00027C12.302 9.00027 12.5252 9.53851 12.2105 9.85359L8.68728 13.3815C8.43971 13.6294 8.43984 14.031 8.68758 14.2788C8.93544 14.5266 9.33729 14.5266 9.58515 14.2788L14.7929 9.07101C15.1834 8.68049 15.1834 8.04732 14.7929 7.6568L9.58515 2.44905Z" fill="currentColor"/>
</svg>
