<svg viewBox="0 0 34 33" fill="none" xmlns="http://www.w3.org/2000/svg">
<path d="M29.0781 0.300781C31.4171 0.30095 33.321 2.20397 33.3213 4.54297C33.3212 6.88211 31.4172 8.78596 29.0781 8.78613C28.1179 8.7861 27.2334 8.46141 26.5215 7.92188L22.2529 8.39551L25.9932 11.79C27.2873 12.9645 28.046 14.5799 28.1309 16.335C28.2155 18.0897 27.6175 19.7703 26.4434 21.0645H26.4424L26.2461 21.2793L26.2471 21.2803C25.009 22.6449 23.2346 23.4267 21.3809 23.4268C19.7452 23.4267 18.1781 22.8231 16.9727 21.7295L16.4268 21.2344L13.8867 22.8848C14.4586 23.077 14.914 23.6163 15.0273 24.2627H15.0264L15.0586 24.4375L15.0596 24.4395C15.1885 25.182 14.8504 25.9373 14.2402 26.2646C14.1734 26.3811 14.0441 26.6583 13.833 27.2891L13.834 27.29L13.8193 27.335L13.8184 27.3379C13.8137 27.3519 13.8102 27.3835 13.8154 27.4258C13.8177 27.4443 13.8207 27.4612 13.8242 27.4736C14.3681 28.0221 14.3962 28.9536 13.9238 29.627L13.9248 29.6279L13.8223 29.7754V29.7764C13.3868 30.3977 12.5986 30.6885 11.9277 30.4766C11.7975 30.5096 11.4872 30.6079 10.8975 30.9033C10.8935 30.9054 10.8837 30.9121 10.8701 30.9248C10.8569 30.9372 10.8435 30.953 10.8311 30.9697C10.8183 30.9868 10.8076 31.003 10.8018 31.0146C10.8141 31.7968 10.1702 32.4983 9.35059 32.6426L9.35156 32.6436L9.17578 32.6748H9.17383C9.07031 32.6923 8.96581 32.7012 8.86328 32.7012C8.21518 32.7011 7.59944 32.3509 7.32227 31.793C7.18497 31.7079 6.85451 31.5443 6.31934 31.3643H6.31738C6.32704 31.3675 6.32751 31.3651 6.31348 31.3652C6.30114 31.3654 6.28438 31.3674 6.2666 31.3711C6.24912 31.3747 6.23401 31.3796 6.22363 31.3838L6.22168 31.3848C5.67578 31.9709 4.71551 32.0359 4.02344 31.5645L3.87598 31.4639C3.34919 31.105 3.05922 30.4883 3.10059 29.8926L3.06641 29.915L3.06543 29.9141C2.91477 30.0124 2.74046 30.0634 2.56641 30.0635C2.50077 30.0635 2.43301 30.0574 2.36426 30.042V30.041C2.12137 29.9871 1.91355 29.8367 1.78418 29.6279V29.627C0.764556 27.9727 0.436022 26.0173 0.861328 24.1201C1.28669 22.2191 2.42065 20.5876 4.05469 19.5264C5.93393 18.305 8.22673 18.0102 10.332 18.6816L11.4053 16.6768L7.08887 12.7598C5.79463 11.5854 5.03509 9.97095 4.9502 8.21582C4.8654 6.46072 5.4642 4.77973 6.63867 3.48535H6.63965L6.83496 3.27051C8.07306 1.90586 9.84728 1.12305 11.7012 1.12305C12.1464 1.1231 12.585 1.16955 13.0127 1.25684H26.4043C27.1345 0.663054 28.0645 0.303406 29.0781 0.302734V0.300781ZM10.835 24.8711C10.9507 25.3085 10.9671 25.7716 10.8701 26.2275C10.7063 26.993 10.255 27.6511 9.59863 28.0781H9.59766C9.12051 28.3873 8.56939 28.5517 8.00195 28.5518C7.32131 28.5518 6.67881 28.3163 6.16504 27.9033L4.87305 28.7422C5.06511 29.3397 5.05388 29.7074 4.95898 29.9824L5.00098 30.0117C5.49102 29.5758 6.26967 29.4124 6.90137 29.624L7.40723 29.8066C8.36206 30.1806 8.74281 30.5227 8.91309 30.8564L8.97168 30.8467C9.02772 30.2038 9.47029 29.5668 10.0752 29.2646C11.2646 28.6706 11.8925 28.5419 12.3486 28.6787L12.3877 28.623C11.9906 28.1337 11.8663 27.3863 12.0781 26.7549V26.7539L12.0928 26.7109C12.2751 26.1642 12.4459 25.7149 12.6377 25.374C12.8036 25.0792 12.9949 24.8483 13.2402 24.709L13.2275 24.6367C12.8085 24.5904 12.395 24.377 12.0781 24.0645L10.835 24.8711ZM2.83008 28.1162L2.73145 27.8828L2.72852 27.876L2.83008 28.1162ZM11.5732 20.2598C11.3459 20.6854 10.8258 20.8611 10.3857 20.6631C8.64462 19.8778 6.65162 20.0292 5.05469 21.0664C2.80826 22.5256 1.95622 25.3998 2.9209 27.8174L5.0791 26.416C4.95089 25.9525 4.93616 25.4615 5.03809 24.9795C5.20722 24.1878 5.67393 23.5078 6.35254 23.0664C7.0327 22.6251 7.84533 22.4745 8.6377 22.6436C9.11917 22.7467 9.55935 22.9603 9.93066 23.2656L15.0225 19.959L12.8076 17.9492L11.5732 20.2598ZM6.3457 27.7959C6.35146 27.8003 6.3575 27.8043 6.36328 27.8086L6.17871 27.6572L6.3457 27.7959ZM7.99805 24.5186C7.78678 24.5186 7.58102 24.5799 7.40137 24.6963C6.89508 25.0253 6.75043 25.7074 7.0791 26.2139C7.28111 26.526 7.62542 26.7138 8 26.7139C8.21152 26.7138 8.41664 26.653 8.5957 26.5371C8.84265 26.3765 9.01244 26.1323 9.07324 25.8457V25.8447C9.13507 25.5577 9.08018 25.2652 8.91992 25.0186V25.0176C8.71681 24.7046 8.37281 24.5187 7.99805 24.5186ZM10.6748 26.1855C10.6373 26.3607 10.5823 26.5292 10.5137 26.6904C10.5473 26.6113 10.5792 26.531 10.6055 26.4482L10.6748 26.1855ZM14.877 24.916C14.8802 24.8833 14.8825 24.8505 14.8838 24.8174C14.8826 24.8505 14.8801 24.8833 14.877 24.916ZM14.8799 24.6221C14.8794 24.6156 14.8805 24.609 14.8799 24.6025L14.8623 24.4736C14.8709 24.5231 14.8759 24.5727 14.8799 24.6221ZM8.9541 22.9395C8.89731 22.9194 8.83961 22.9013 8.78125 22.8848L8.77734 22.8838C8.83707 22.9005 8.89605 22.919 8.9541 22.9395ZM11.7021 2.96094C10.3638 2.96094 9.08643 3.52576 8.19629 4.50586H8.19531L8 4.7207C7.15593 5.65255 6.72287 6.86077 6.78418 8.12793C6.84564 9.39552 7.39285 10.5574 8.32324 11.4014L18.207 20.373C19.0733 21.1591 20.2003 21.5927 21.3809 21.5928C22.7193 21.5927 23.9976 21.028 24.8877 20.0479L25.083 19.833C25.9271 18.9011 26.3592 17.693 26.2979 16.4258L26.293 16.3242C26.2077 15.097 25.6666 13.9754 24.7617 13.1543L14.876 4.18262C14.0097 3.39517 12.8827 2.96103 11.7021 2.96094ZM21.4658 13.2793C22.355 13.2794 23.208 13.6087 23.8662 14.2061H23.8652C24.5715 14.8462 24.9865 15.7254 25.0322 16.6777C25.0778 17.6303 24.7503 18.5446 24.1104 19.251C23.4354 19.995 22.4714 20.4227 21.4658 20.4229C20.5766 20.4229 19.7237 20.0934 19.0654 19.4961C18.359 18.856 17.9442 17.9767 17.8984 17.0244C17.8528 16.0718 18.1813 15.1575 18.8213 14.4512C19.4963 13.7071 20.4601 13.2793 21.4658 13.2793ZM21.4658 15.1172C20.9777 15.1172 20.5082 15.3251 20.1807 15.6865C19.8693 16.0295 19.7102 16.4735 19.7324 16.9365C19.7547 17.4005 19.9566 17.8261 20.2998 18.1377C20.6196 18.4281 21.0331 18.5889 21.4648 18.5889C21.9541 18.5887 22.4226 18.3809 22.75 18.0195C23.0614 17.6765 23.2204 17.2322 23.1982 16.7695C23.176 16.3057 22.9749 15.88 22.6318 15.5684C22.3107 15.2777 21.8974 15.1173 21.4658 15.1172ZM19.5879 17.3252C19.5927 17.3444 19.6001 17.3628 19.6055 17.3818C19.598 17.3552 19.5894 17.3288 19.583 17.3018L19.5879 17.3252ZM11.6172 4.12891C12.5063 4.12904 13.3594 4.45834 14.0176 5.05566L14.4004 5.4043H14.3496C14.8513 5.99873 15.1447 6.73727 15.1826 7.52734C15.2282 8.47963 14.9021 9.39408 14.2607 10.1006C13.5858 10.8447 12.6208 11.2724 11.6152 11.2725C10.7262 11.2723 9.87389 10.9428 9.21582 10.3457C8.50952 9.7057 8.09365 8.8265 8.04785 7.87402C8.00223 6.92148 8.33081 6.00711 8.9707 5.30078C9.64697 4.55679 10.6114 4.12891 11.6172 4.12891ZM11.6182 5.96484C11.1299 5.96487 10.6604 6.17207 10.333 6.5332C10.0216 6.87625 9.86167 7.32044 9.88379 7.7832C9.90607 8.24716 10.108 8.67275 10.4512 8.98438C10.7709 9.27475 11.1836 9.43545 11.6152 9.43555C12.1047 9.43546 12.5739 9.22758 12.9014 8.86621C13.2127 8.52309 13.3718 8.07881 13.3496 7.61621C13.3273 7.15253 13.1255 6.72679 12.7822 6.41504C12.4626 6.12489 12.0499 5.96492 11.6182 5.96484ZM9.73926 8.17188C9.74551 8.19699 9.75448 8.22132 9.76172 8.24609C9.75226 8.21369 9.74215 8.18142 9.73438 8.14844L9.73926 8.17188ZM27.1152 8.07422C27.0222 8.02223 26.9312 7.96712 26.8428 7.9082L26.8379 7.90527C26.9278 7.9652 27.0205 8.02131 27.1152 8.07422ZM29.0811 2.13867C27.7552 2.13867 26.6748 3.21911 26.6748 4.54492C26.675 5.87069 27.7541 6.95117 29.0811 6.95117C30.4065 6.9509 31.4872 5.87044 31.4873 4.54492C31.4873 3.2193 30.4067 2.13894 29.0811 2.13867ZM20.4395 6.75195L25.1855 6.22461C24.9624 5.70914 24.837 5.14153 24.8369 4.54492L24.8428 4.31445C24.8657 3.88726 24.9539 3.47763 25.0947 3.09277H16.4092L20.4395 6.75195ZM12.2607 2.79297C12.2272 2.78919 12.1938 2.78435 12.1602 2.78125L12.1455 2.78027C12.184 2.78371 12.2224 2.78864 12.2607 2.79297ZM14.8525 25.0918C14.8626 25.043 14.8693 24.9934 14.875 24.9434C14.8693 24.9934 14.8626 25.043 14.8525 25.0918ZM14.8857 24.7607C14.8859 24.7228 14.8844 24.6848 14.8818 24.6465C14.8844 24.6847 14.8858 24.7228 14.8857 24.7607Z" fill="currentColor"/>
</svg>
