<svg width="55" height="56" viewBox="0 0 55 56" fill="none" xmlns="http://www.w3.org/2000/svg">
<circle opacity="0.6" cx="27.5" cy="28" r="27" fill="#2B2C46"/>
<circle cx="27.5" cy="28" r="25.92" stroke="white" stroke-width="3"/>
<path fill-rule="evenodd" clip-rule="evenodd" d="M19.276 23.5276L20.0465 25.1191L15.5975 27.2727L13.5 22.94L15.0914 22.1696L15.7765 23.5846C16.5115 21.6558 17.725 19.9218 19.3162 18.561C21.56 16.6421 24.4242 15.5852 27.381 15.5852C30.3379 15.5852 33.2022 16.6421 35.4462 18.5609C37.6654 20.4586 39.1501 23.0816 39.6269 25.9468L37.8828 26.237C37.4742 23.7814 36.2007 21.5325 34.2971 19.9047C32.3731 18.2594 29.9169 17.3533 27.381 17.3533C24.8452 17.3533 22.3891 18.2594 20.4653 19.9047C19.0307 21.1316 17.9543 22.7115 17.336 24.4668L19.276 23.5276ZM39.0725 28.6991L41.5 32.8558L39.9732 33.7475L39.0672 32.1959C38.3417 34.2126 37.0971 36.0268 35.4456 37.4392C33.2015 39.358 30.3374 40.4148 27.381 40.4148C24.4246 40.4148 21.5607 39.358 19.3168 37.4391C17.0981 35.5416 15.6133 32.9186 15.136 30.0535L16.88 29.763C17.2891 32.2187 18.5627 34.4676 20.466 36.0954C22.3899 37.7407 24.8456 38.6468 27.381 38.6468C29.9165 38.6468 32.3725 37.7407 34.2965 36.0954C35.6707 34.9203 36.7164 33.4214 37.3458 31.7549L35.6958 32.7185L34.8042 31.1917L39.0725 28.6991Z" fill="white"/>
</svg>
