<svg viewBox="0 0 32 33" fill="none" xmlns="http://www.w3.org/2000/svg">
<path d="M29.8574 0.5C31.0398 0.500006 32 1.46019 32 2.64258V30.3574C31.9998 31.5397 31.0397 32.5 29.8574 32.5H2.14258C0.960303 32.5 0.000181967 31.5397 0 30.3574V2.64258C0 1.46019 0.960191 0.500007 2.14258 0.5H29.8574ZM3.1582 27.4326C2.10284 27.4327 1.25 28.2864 1.25 29.3418C1.25025 30.397 2.10299 31.2499 3.1582 31.25C4.21348 31.25 5.06616 30.397 5.06641 29.3418C5.06641 28.2864 4.21363 27.4326 3.1582 27.4326ZM28.8379 27.4326C27.7825 27.4326 26.9297 28.2864 26.9297 29.3418C26.9299 30.397 27.7826 31.25 28.8379 31.25C29.8931 31.2499 30.7458 30.3969 30.7461 29.3418C30.7461 28.2864 29.8932 27.4327 28.8379 27.4326ZM8.68945 3.00293C7.96344 3.00293 7.37611 3.59042 7.37598 4.31641V6.5625C7.37593 7.28856 6.78857 7.87598 6.0625 7.87598H3.81348C3.08738 7.87598 2.5 8.46335 2.5 9.18945V23.8105C2.50014 24.5365 3.08747 25.124 3.81348 25.124H6.0625C6.78846 25.124 7.37575 25.7106 7.37598 26.4365V28.6826C7.37598 29.4087 7.96335 29.9961 8.68945 29.9961H23.3105C24.0366 29.9961 24.624 29.4087 24.624 28.6826V26.4365C24.6242 25.7106 25.2115 25.124 25.9375 25.124H28.1865C28.9125 25.124 29.4999 24.5365 29.5 23.8105V9.18945C29.5 8.46335 28.9126 7.87598 28.1865 7.87598H25.9375C25.2114 7.87598 24.6241 7.28856 24.624 6.5625V4.31641C24.6239 3.59042 24.0366 3.00293 23.3105 3.00293H8.68945ZM21.5 26.5C21.7761 26.5 22 26.7239 22 27V28C21.9998 28.276 21.776 28.5 21.5 28.5H10.5C10.224 28.5 10.0002 28.276 10 28V27C10 26.7239 10.2239 26.5 10.5 26.5H21.5ZM19.5 22.5C19.7761 22.5 20 22.7239 20 23V24C19.9998 24.276 19.776 24.5 19.5 24.5H12.5C12.224 24.5 12.0002 24.276 12 24V23C12 22.7239 12.2239 22.5 12.5 22.5H19.5ZM25.5 18.5C25.7761 18.5 26 18.7239 26 19V20C25.9998 20.276 25.776 20.5 25.5 20.5H6.5C6.22397 20.5 6.00018 20.276 6 20V19C6 18.7239 6.22386 18.5 6.5 18.5H25.5ZM21.5 14.5C21.7761 14.5 22 14.7239 22 15V16C21.9998 16.276 21.776 16.5 21.5 16.5H10.5C10.224 16.5 10.0002 16.276 10 16V15C10 14.7239 10.2239 14.5 10.5 14.5H21.5ZM23.5 10.5C23.7761 10.5 24 10.7239 24 11V12C23.9998 12.276 23.776 12.5 23.5 12.5H8.5C8.22397 12.5 8.00018 12.276 8 12V11C8 10.7239 8.22386 10.5 8.5 10.5H23.5ZM21.5 6.5C21.7761 6.5 22 6.72386 22 7V8C21.9998 8.27599 21.776 8.5 21.5 8.5H10.5C10.224 8.5 10.0002 8.27599 10 8V7C10 6.72386 10.2239 6.5 10.5 6.5H21.5ZM3.1582 1.75C2.10284 1.75007 1.25 2.60282 1.25 3.6582C1.2501 4.7135 2.1029 5.56633 3.1582 5.56641C4.21356 5.56641 5.0663 4.71354 5.06641 3.6582C5.06641 2.60278 4.21363 1.75 3.1582 1.75ZM28.8379 1.75C27.7825 1.75 26.9297 2.60278 26.9297 3.6582C26.9298 4.71354 27.7825 5.56641 28.8379 5.56641C29.8932 5.5663 30.746 4.71347 30.7461 3.6582C30.7461 2.60284 29.8932 1.75011 28.8379 1.75Z" fill="currentColor"/>
</svg>
