<svg viewBox="0 0 14 14" fill="none" xmlns="http://www.w3.org/2000/svg">
<path d="M7 0C5.61553 0 4.26216 0.410543 3.11101 1.17971C1.95987 1.94888 1.06266 3.04213 0.532846 4.32122C0.00303298 5.6003 -0.13559 7.00776 0.134506 8.36563C0.404603 9.7235 1.07129 10.9708 2.05026 11.9497C3.02922 12.9287 4.2765 13.5954 5.63437 13.8655C6.99224 14.1356 8.3997 13.997 9.67879 13.4672C10.9579 12.9373 12.0511 12.0401 12.8203 10.889C13.5895 9.73785 14 8.38447 14 7C14 5.14348 13.2625 3.36301 11.9497 2.05025C10.637 0.737498 8.85652 0 7 0ZM10.75 3.5C11.0961 3.5 11.4345 3.60264 11.7223 3.79493C12.01 3.98722 12.2343 4.26053 12.3668 4.5803C12.4992 4.90007 12.5339 5.25194 12.4664 5.59141C12.3989 5.93087 12.2322 6.24269 11.9874 6.48744C11.7427 6.73218 11.4309 6.89885 11.0914 6.96637C10.7519 7.0339 10.4001 6.99924 10.0803 6.86679C9.76054 6.73434 9.48722 6.51003 9.29493 6.22225C9.10264 5.93446 9 5.59612 9 5.25C9.00055 4.78604 9.18509 4.34123 9.51317 4.01316C9.84124 3.68509 10.286 3.50054 10.75 3.5ZM10.9674 2.511C10.8955 2.50535 10.8234 2.5 10.75 2.5C10.3585 2.49994 9.97156 2.58373 9.61516 2.74573C9.25877 2.90773 8.94121 3.14419 8.68385 3.4392C8.43664 2.85842 8.05566 2.34428 7.57199 1.93872C7.08831 1.53315 6.51564 1.24764 5.90065 1.10545C6.79641 0.934182 7.7196 0.971909 8.5984 1.21569C9.4772 1.45948 10.2879 1.90274 10.9674 2.511ZM7 13C6.60444 13 6.21776 12.8827 5.88886 12.6629C5.55996 12.4432 5.30362 12.1308 5.15224 11.7654C5.00087 11.3999 4.96126 10.9978 5.03843 10.6098C5.1156 10.2219 5.30608 9.86549 5.58579 9.58579C5.86549 9.30608 6.22186 9.1156 6.60982 9.03843C6.99778 8.96126 7.39992 9.00087 7.76537 9.15224C8.13082 9.30362 8.44318 9.55996 8.66294 9.88886C8.8827 10.2178 9 10.6044 9 11C8.99941 11.5303 8.7885 12.0386 8.41356 12.4136C8.03862 12.7885 7.53025 12.9994 7 13ZM5 8C4.40666 8 3.82664 7.82405 3.33329 7.49441C2.83994 7.16476 2.45543 6.69623 2.22836 6.14805C2.0013 5.59987 1.94189 4.99667 2.05765 4.41473C2.1734 3.83279 2.45913 3.29824 2.87868 2.87868C3.29824 2.45912 3.83279 2.1734 4.41473 2.05764C4.99668 1.94189 5.59988 2.0013 6.14805 2.22836C6.69623 2.45542 7.16477 2.83994 7.49441 3.33329C7.82406 3.82664 8 4.40666 8 5C7.99912 5.79538 7.68276 6.55792 7.12034 7.12034C6.55793 7.68276 5.79538 7.99911 5 8ZM1 7C1.00125 6.63108 1.0366 6.26306 1.1056 5.90065C1.30091 6.74367 1.76459 7.50051 2.42694 8.0574C3.08929 8.61428 3.91452 8.94111 4.77855 8.98875C4.36783 9.43877 4.10496 10.0039 4.02539 10.6079C3.94582 11.212 4.05338 11.8259 4.33355 12.367C3.33381 11.8708 2.49222 11.1057 1.90334 10.1577C1.31446 9.20959 1.00164 8.11608 1 7ZM9.66625 12.367C9.87964 11.9539 9.99383 11.4968 9.99977 11.032C10.0057 10.5671 9.90323 10.1073 9.70047 9.68895C9.4977 9.2706 9.20024 8.90527 8.83167 8.62193C8.4631 8.33859 8.03357 8.14505 7.57715 8.05665C7.96854 7.72677 8.29315 7.325 8.53345 6.87305C8.79022 7.22505 9.12712 7.51086 9.51627 7.70681C9.90543 7.90277 10.3356 8.00324 10.7713 7.99993C11.207 7.99661 11.6357 7.88959 12.0218 7.68773C12.4079 7.48587 12.7404 7.19497 12.9918 6.8391C12.9933 6.89305 13 6.9458 13 7C12.9984 8.1161 12.6855 9.20962 12.0966 10.1577C11.5077 11.1058 10.666 11.8709 9.66625 12.367Z" fill="currentColor"/>
</svg>
