<?xml version="1.0" encoding="UTF-8"?>
<svg width="13px" height="13px" viewBox="0 0 13 13" version="1.1" xmlns="http://www.w3.org/2000/svg" xmlns:xlink="http://www.w3.org/1999/xlink">
    <!-- Generator: Sketch 42 (36781) - http://www.bohemiancoding.com/sketch -->
    <title>ic_shopNow</title>
    <desc>Created with Sketch.</desc>
    <defs></defs>
    <g id="Page-1" stroke="none" stroke-width="1" fill="none" fill-rule="evenodd">
        <g id="Desktop-HD" transform="translate(-389.000000, -948.000000)" fill="#FBFDFE">
            <g id="resultRow" transform="translate(120.000000, 624.000000)">
                <g id="resultItem" transform="translate(242.000000, 0.000000)">
                    <g id="cta" transform="translate(16.000000, 315.000000)">
                        <path d="M21.7502,19.5 C22.4392,19.5 23.0002,20.061 23.0002,20.75 C23.0002,21.439 22.4392,22 21.7502,22 C21.0612,22 20.5002,21.439 20.5002,20.75 C20.5002,20.061 21.0612,19.5 21.7502,19.5 Z M14.7502,19.5 C15.4392,19.5 16.0002,20.061 16.0002,20.75 C16.0002,21.439 15.4392,22 14.7502,22 C14.0612,22 13.5002,21.439 13.5002,20.75 C13.5002,20.061 14.0612,19.5 14.7502,19.5 Z M15.1965,16.5 L14.1185,17.574 C14.0135,17.681 14.0465,17.8 14.0655,17.8465 C14.085,17.8925 14.146,18 14.2965,18 L22.75,18 C22.8885,18 23,18.112 23,18.25 L23,18.75 C23,18.888 22.8885,19 22.75,19 L14.346,19 C13.942,19 13.542,18.8325 13.301,18.5085 C12.916,17.9915 12.9785,17.3045 13.4075,16.871 L14.1625,16.108 L12.375,10 L11.25,10 C11.112,10 11,9.888 11,9.75 L11,9.25 C11,9.112 11.112,9 11.25,9 L12.75,9 C12.9725,9 13.1675,9.1465 13.23,9.3595 L13.4175,10 L22.998,10 C23.5505,10 24,10.4485 24,11 C24,11.3645 23.9175,11.7305 23.7615,12.0595 L21.922,15.9285 C21.7575,16.2755 21.4015,16.5 21.0165,16.5 L15.1965,16.5 Z" id="ic_shopNow"></path>
                    </g>
                </g>
            </g>
        </g>
    </g>
</svg>