<svg xmlns="http://www.w3.org/2000/svg" width="100" height="50" viewBox="0 0 100 50"><path fill="#FFF" d="M65.32 13.183h.086l1.928-10.555C67.554 1.425 68.048 1 69.437 1h1.93c1.024 0 1.605.396 1.605 1.317 0 .213-.03.45-.088.72l-4.26 17.618c-.26 1.19-.65 1.706-2.115 1.706h-2.32c-1.32 0-1.7-.46-1.993-1.652L59.533 9.216h-.05l-2.69 11.513c-.272 1.21-.65 1.632-1.96 1.632H52.51c-1.498 0-1.87-.48-2.14-1.653L46.14 3.04c-.054-.272-.12-.508-.12-.72 0-.924.6-1.32 1.63-1.32h2.3c1.393 0 1.9.42 2.12 1.627l1.916 10.556h.05l2.46-10.556c.282-1.204.777-1.627 2.1-1.627h2.174c1.306 0 1.81.42 2.1 1.627l2.452 10.556h-.003zM11.66 22.36c-1.162 0-1.66-.478-1.66-1.652V2.678C10 1.496 10.5 1 11.66 1h6.118c6.61 0 9.118 2.49 9.118 6.734 0 2.587-1.398 4.75-4.5 5.833l4.89 6.752c.296.41.418.734.418 1.017 0 .686-.802 1.024-1.693 1.024h-3.614c-1.066 0-1.48-.418-2.23-1.632l-4.02-6.438h-.063v6.42c0 1.176-.5 1.652-1.702 1.652H11.66zm64.926 0c-1.162 0-1.614-.422-1.614-1.594V2.63c0-1.206.452-1.63 1.614-1.63h10.838c1.186 0 1.62.422 1.62 1.628v1.54c0 1.155-.435 1.592-1.62 1.592H81.2v3.538h5.277c1.193 0 1.613.435 1.613 1.634v1.42c0 1.16-.42 1.59-1.615 1.59h-5.278v3.65h7.143c1.21 0 1.657.443 1.657 1.63v1.544c0 1.172-.445 1.595-1.656 1.595H76.587zm-44.7 0c-1.17 0-1.66-.478-1.66-1.652V2.678c0-1.182.49-1.675 1.66-1.675H42.59c1.18 0 1.68.495 1.68 1.676v1.428c0 1.158-.5 1.653-1.68 1.653h-6.163v3.535h5.206c1.2 0 1.703.486 1.703 1.69v1.294c0 1.164-.503 1.662-1.703 1.662h-5.206v3.647h7.102c1.185 0 1.7.487 1.7 1.707v1.41c0 1.173-.515 1.65-1.7 1.65l-11.644.002zm-14.05-11.75c1.857 0 2.645-.778 2.645-2.477 0-1.695-.787-2.482-2.645-2.482h-1.752v4.96h1.752zm-5.88 18.36s-.035.003-.035.036c0 .03.04.092.035.11-.01.044 0 .464 0 .464v.36c0 .058 0 .138-.027.25v.3c0 .25.087.475.116.61l.068.335c0 .14 0 .277-.026.36.027.026.027.083.027.194 0 .163-.027.3-.055.388v.193c.026.087.026.14.026.165v.334c0 .026 0 .056-.027.136v.334c.026.084.106.11.106.14v3.628c0 .14 0 .223.027.305v.416c0 .192 0 .306-.03.386.03.084.03 2.916.03 3.107v2.135c0 .275-.08.498-.052.637-.03.22-.055.416-.055.553v.19l-.068.692-.06.613c0 .3.026.672 0 .863h.403c.313 0 .57.113.805.074.267-.045.544-.148.773-.246.176-.07.26-.068.395-.172.202-.154.43-.43.584-.68.11-.176.135-.375.203-.637.067-.256.18-.576.222-.85l.028-.184c.015-.1-.02-.09-.01-.335.023-.504.102-4.94.122-5.695.028-1.115-.043-1.334-.028-1.346.032-.02-.03-.268-.03-.373 0-.032.055-.032.055-.075 0-.992.08-3.465.015-4.475-.008-.125-.043-.22-.053-.295-.024-.17-.084-.52-.078-.69.02-.478-.172-.687-.358-1-.106-.183-.2-.333-.324-.454-.135-.134-.41-.23-.595-.33-.04-.02-.094-.07-.135-.09-.13-.056.002-.056-.136-.09-.32-.095-.937-.288-1.414-.288h-.446zm-1.846 19.3c0-.082 0-.36-.027-.5v-.72c.03-.165.03-.302.03-.388-.03-.193.03-.47.03-.86l.068-.694c0-.303 0-.525-.028-.717v-.526l.08-.275V41.87c0-.057 0-.14-.026-.275v-3.55c.027-.198.027-.335.055-.476-.028-.358-.054-.663-.054-.882v-1.94c0-.14 0-.304-.027-.554v-.527l-.08-1.053v-.996l-.068-.61v-.306L10 30.29c0-.196 0-.306.03-.388v-1.305c.026-.25.026-.44.053-.553.027-.082.025-.16.052-.27.025-.07.066-.14.125-.196.048-.05.122-.05.18-.072.064-.025.114-.076.19-.076 0 0 .23 0 .29.027.06.03 1.298-.027 1.298-.027.09 0 .078.03.165.03.097.003.174.085.267.09.34.02.77.054 1.083.105.15.025.193.053.31.088.138.04.348.084.497.137.08.03.145.03.218.06.178.075.334.128.49.226.15.098.134.12.268.244.09.082.137.08.26.193.13.117.34.352.42.45.454.55.836 1.27 1.055 2.16.107.423.175 1.34.213 2.435.025.604-.07 1.52-.084 2.186 0 .043-.068.078-.07.12 0 .048.026.08.026.13v.14c.005.405.09.356.09.624 0 .477.045 4.207 0 5.227-.025.533-.097 1.205-.114 1.635-.02.52-.087.99-.1 1.23-.01.246.038.262-.012.46-.08.333-.08.48-.184.76-.06.163-.125.24-.212.413-.068.13-.225.467-.3.61-.106.196-.135.19-.242.312-.128.148-.232.287-.373.412-.185.164-.286.184-.51.303-.198.105-.517.31-.743.38-.2.062-.402.114-.61.155-.086.02-.177.01-.267.025-.04.006-.08.04-.123.045-.234.033-.592-.064-.858-.05-.172.007-.278.03-.465.03l-.47-.035-1.115.06-.1-.022c-.148 0-.272-.047-.37-.148-.098-.105-.147-.227-.147-.375l-.003-.005zm9.605.64c-.145 0-.27-.05-.37-.15-.02-.023-.04-.045-.058-.07-.048 0-.102-.12-.1-.393v-.69l.115-.767-.023-.734.024-3.04V41.83c.023-.074.023-.223.05-.395v-.396c0-.073 0-.126-.025-.2l.026-1.232.026.05c-.023-.517 0-.89-.023-1.16v-.024c0-.05 0-.1.023-.197v-.2c-.024-.12-.024-.294-.048-.517v-.668c.024-.098.024-.146.024-.172v-.023c-.025-.37.095-2.27.07-2.94-.02-2.08-.145-3.397-.12-3.72 0-.318-.018-.666-.043-1.04v-.69c0-.223.025-.395.1-.518.02-.026.095-.046.117-.067.1-.102.167-.154.314-.154 0 0 .282-.03.406 0 .023.005.148-.02.354-.017.033 0 .103-.03.106.004 0 .002-.01.02.046.023.03.002.188-.02.234-.02.4.01 1.3.075 2.04.075.633 0 1.142.05 1.142.05.148 0 .31.056.408.155.1.098.114.22.114.367 0 0-.027.303-.027.342s.028.2.028.2c0 .146-.014.334-.145.395-.133.062-.23.13-.377.13 0 0-.154-.026-.322-.03-.342-.012-.89-.086-1.387-.084-.283 0-.815-.015-.833-.007-.042.018-.272-.04-.396-.05-.02 0-.075-.003-.044.015.03.02-.022.035-.022.035l.113 1.973c-.032.22 0 .164.044.637l-.003.166-.003.25c-.03.138-.087.218-.116.274v.025l.024.25c.023.222.074.528.067.89-.002.105-.11 1.938-.097 2.77l-.028.61s.325.018.387.035c.06.016.425-.072.502-.072.08 0 .124.02.124.02h.576l.416-.02c.146 0 .27.05.37.15.1.1.15.223.15.37v.327l-.02.02.02.197c0 .078-.086.21-.115.273-.025.06.012.05-.035.098-.1.102-.222.15-.37.15l-.75.014-.086-.023-.432.07s-.372-.028-.402-.02c-.097.032-.267 0-.267 0s-.104-.026-.108.01c-.003.032.04.065.04.065s-.018 4.078.02 4.32c.04.24.07 3.088.075 3.13.004.042-.11.712-.093.77.018.058-.09.43-.09.43s.004.058-.006.11c-.01.05.233-.133.352-.113.067.014.683.13 1.253.127.437-.003.686.028 1.005.017.28-.01.77.05.77.05.145 0 .27.048.372.15.056.054.087.052.113.118.012.03 0 .082.01.13.005.042.03.09.03.12l-.02.03.02.53c0 .148-.102.285-.202.385s-.17.14-.32.14c-.132.02-.262-.036-.552-.054-.02 0-.066 0-.11.02h-.24l-.397-.045-3.413-.134.017.018-.002-.004zm9.353-1.305s.468.082.51.088c.044.008.31.012.31.012.134.027.248.09.342.193.093.096.14.21.14.346v.043c0 .146-.047.266-.14.357-.094.098-.207.14-.342.14h-1.445l-.737.032-.92-.06-.208.028h-.158c-.147 0-.27-.047-.363-.143-.09-.09-.14-.21-.14-.356v-.04c0-.138.048-.253.14-.35.097-.1.21-.165.343-.192 0 0 .174-.016.216.008.042.02.606-.11.606-.11 0-.04.03-.19.053-.53.025-.357.027-.695.03-1.03l.057-3.08c0-.093 0-.247-.02-.476 0-.22.047-.94.024-1.102.023-.11.024-.268.025-.426l.004-.402-.02-.406v-.428l-.012-.924.036-1.012-.02-.54-.012-1.526.058-1.914-.018-.83.005-.586.005-.518.002-.584s-.05-2.598-.048-2.604c.002-.008.032-.008.032-.014s.02-.006 0-.033c-.02-.03-.157-.03-.166-.016-.024.03-.626-.044-.626-.044-.072-.016-.162-.082-.22-.11-.06-.03-.086-.026-.132-.073-.087-.092-.13-.21-.13-.36v-.038c0-.135.05-.248.14-.342.093-.092.208-.14.34-.14l.422-.02.316.003s.234-.05.44-.045c.08 0 .51.034.95.038.624.008 1.3-.057 1.3-.057.134 0 .248.046.342.142.093.094.14.207.14.34v.04c0 .145-.044.267-.132.36-.087.094-.203.154-.35.182 0 0-.375.02-.442.064s-.38.096-.38.096l-.02 2.752c-.014 1.78-.017 2.19 0 2.525v.52l-.003.296v.316l-.005.54-.002.34c.02.155.02.29.02.358v.158c.02.428.038.7.058.86-.023.45-.026.72-.026.788v.09l-.035.834c.02.203.016.72.054 1.578-.007.88-.09 4.86-.095 5.336-.014.63-.068 1.137-.094 1.656l.002.005zm45.38.813c.006-.043-.008-.09-.02-.137 0 0 .012-.206-.03-.41-.047-.257-.22-.556-.302-1.065-.016-.096-.024-.36-.038-.46-.012-.06-.083-.124-.093-.183-.024-.164.01-.328-.015-.492-.214-1.338-.424-4.127-.428-4.203-.008-.145-.103-.547-.103-.547-.022-.127-.098-.326-.116-.432-.03-.125-.01-.154-.036-.254-.153-.547-.305-.72-.532-.957-.13-.137-.246-.213-.408-.31-.022-.013-.106-.067-.13-.077-.02-.016-.022-.03-.044-.04-.168-.087-.347-.153-.515-.185-.016-.004.03-.03.016-.033.348-.096.613-.22.872-.303.253-.087.422-.368.59-.575.038-.05.192-.35.23-.404.05-.08.037.046.082-.04.138-.28.267-.715.367-1.256.02-.12-.005-.242.017-.367.03-.227.115-.488.145-.74.047-.385.037-1.37.037-1.79 0-.347-.015-1.288-.038-1.628-.012-.14-.076-.366-.09-.5-.025-.196 0-.38-.04-.567-.038-.21-.088-.42-.145-.613-.015-.05.008-.057-.02-.102-.024-.047-.1-.127-.115-.17-.17-.46-.357-.852-.61-1.117l-.13-.134c-.023-.023-.044-.05-.07-.07-.072-.072-.12-.143-.196-.21-.09-.067-.218-.13-.337-.192-.073-.04-.154-.035-.243-.068-.083-.035-.147-.086-.237-.125-.16-.06-.35-.104-.5-.14-.19-.04-.432-.055-.643-.068-.083-.01-.17.008-.255.002-.133-.008-.268.047-.407.047 0 0-.285.005-.61.005-.03 0-.048.02-.076.02-.036 0-.09-.016-.125-.016-.364 0-.723 0-.76-.01-.067-.02-.248 0-.248 0-.148 0-.26.05-.365.15l-.02.015c-.122.05-.178.455-.185 1.24.006.367.092.682.07.928l.007.342c-.02.148-.02.244-.02.32.002.096.09.266.116.533-.022.223-.04.564-.03 1.03l.015.76.03 1.71c.004.342-.05.635-.02.83 0 .17-.1.418-.116.76l.003.145.004.27c-.025.12-.022.22-.02.318 0 .054 0 .1.023.17l.006.173.004.17c-.024.072-.024.146-.02.195 0 .246.01.562-.01 1.006l.02.904.01.684.006.318c-.017.416-.034.734-.032.93-.015.465-.066.953-.08 1.492-.015.54.036 3.814.015 4.11l-.024.808c.007.367-.053.516-.033.637.002.125.044.23.125.322.042.05.01.058.065.09.022.013.052.028.097.046.064.023.15.04.196.043 0 0 .055.007.115-.02.068-.02.688.075.688.075.145.008.264.002.37-.09.11-.092.175-.248.184-.393l.027-.518c-.083-.037.01-.293.01-.334-.006-.04.053-.164.03-.207-.025-.045.057-.7.04-.785-.018-.088-.104-3.074-.08-3.404.025-.33.1-.81.1-.81l.02-.897s-.027-.043-.02-.07c.01-.03-.098-2.547-.074-2.58.033-.012.073.098.073.098s.098.025.183 0c.025-.012.215 0 .215 0 .025 0 .033-.012.057-.012.025 0 .05.012.077.014.03.002.01.01.04.012.045.007.143.013.185.022.03.01.043-.002.072.008.048.02.07.035.12.06.062.03.127.083.196.124.046.027.097.047.136.078.092.072.18.146.25.225.066.08.113.164.19.297.04.066.075.072.106.14.104.21.18.517.272 1.054 0 0 .07 1.695.154 2.244.018.115.05.195.07.31.004.034-.006.11 0 .142.01.07.045.098.053.162.01.066-.005.178.007.236.05.303.087.764.102.816.05.188.08.19.082.256.007.062-.022.21 0 .31.014.034.077.364.147.817.047.304.065.69.11 1.01.075.536.24.95.24.95.01.06.03.11.055.158.015.027.058.043.073.066.017.02.013.05.028.07.025.025.034.078.063.094.057.04.185.027.31.043.093.01.182.052.262.052h.796c.136 0 .23-.04.303-.143.014-.02.024-.034.03-.052.016-.03 0-.06.002-.09.01-.023.027-.045.028-.066l.007-.004zm-2.925-11.406c-.056.053-.164.125-.23.17-.11.07-.238.133-.384.18-.133.045-.14.115-.3.143-.108.02-.36-.016-.488-.01-.085.006-.178.01-.272.01h-.357V37.5c-.076-.05.038-.656.038-1.797V34.61l-.034-.683c0-.23.035-1.426.06-1.527v-1.14l-.06-1.015-.08-.785c-.025-.127-.025-.252 0-.38h.436c.062 0 .102-.022.164-.02.114.003.21-.06.32-.044.61.072 1.045.27 1.294.582.136.168.174-.008.244.385.036.19.042.475.078.752.03.25.09.57.108.85.024.35.016 1.328.016 1.586 0 .272.042 1.4.035 1.657-.005.2-.054.127-.076.338-.068.58-.213 1.2-.346 1.512-.025.06-.02.11-.05.152-.047.073-.054.114-.118.18l.003.002zm12.32-9.617h.028c.055.025.136.025.22.027.03 0 .112 0 .224-.025l.252.04.136.005c.028.025.11.025.222.027.084 0 .166 0 .305-.024l.302.006.14.04 2.576.01 1.23.054c.144 0 .27.05.37.15.1.1.15.22.15.373 0 0-.004.394-.014.438-.015.045.014.117.014.117 0 .03.007.068 0 .1-.02.076-.074.148-.11.205-.02.035-.01.04-.04.068-.1.102-.226.154-.37.154 0 0-.55-.06-.857-.06-.165 0-.073.017-.22.015-.27 0-.323-.01-.374.004-.125.028-.446-.042-.446-.042.006.316.017.855 0 1.607l.022 1.39c.07 4.605-.21 7.913-.115 13.907l.005.17.004.314c.003.123.007.148-.02.2 0 .07.004.167-.02.34.003.17.003.294-.017.392.023.17.052.266.052.312 0 .025.002.074-.022.125l.002.098c.002.05.002.117-.023.22l.008.118c0 .15-.048.272-.147.372-.1.102-.223.148-.37.148 0 0-.383-.014-.458 0-.08.02-.345 0-.345 0-.145 0-.373-.06-.477-.207-.08-.117-.044-.164-.044-.31 0-.17 0-.302.02-.57 0-.073.024-.222.047-.413 0-.05 0-.123-.026-.244l-.003-.22v-.096l-.004-.2-.007-.462c.023-.074.02-.225.02-.39.023-.173.02-.294.02-.345l.095-2.287c-.014-1.096-.022-4.668-.006-5.324-.006-.39-.01-.682.017-.877l-.004-.17c-.004-.146.02-.39.037-.758 0-.098 0-.242-.028-.46l-.004-.466-.012-.997-.015-1.023.012-1.094-.004-.39c0-.27.024-.15.045-.32 0-.07 0-.24-.026-.462-.004-.22-.006-.39-.03-.51l-.012-.803-.004-.32h-.008s.012-.054-.02-.022c-.036.025-.267-.03-.323-.014-.058.02-.908-.047-1.343-.05-.178-.003-.21.01-.21.01-.146 0-.17.052-.27-.05-.1-.102-.25-.326-.25-.473v-.558c0-.148-.02-.193.082-.29.1-.106.094-.208.44-.233v.005zM78.145 47.94c0 .145-.134.337-.234.438-.102.1-.14.084-.287.084 0 0-.72-.03-.754-.02-.036.01-.048.02-.048.02-.27-.027-.5-.113-.524-.215.023 0 .05-.023.05-.07.003-.05-.018-.148-.044-.273l.03-.943c.01-.57.062-4.056.057-5.274-.006-1.19.05-1.78.06-2.35l.003-.15v-.2l.002-.17.004-.15.038-.472.003-.146v-.125l.003-.15c-.02-.05-.02-.123-.02-.223v-.297l.005-.1-.025-.05c.002-.022.025-.05.054-.075-.02-.273-.073-.473-.07-.596l.017-1.19-.01-.843.002-.272-.016-.545-.03-.498c0-.125 0-.223-.022-.297l.006-.223.004-.248.005-.25-.047-1.34.014-.77-.054-.744c.004-.2.004-.322.028-.422l.004-.05v-.172c-.022-.074-.02-.123-.02-.123 0-.05 0-.1.022-.1.006-.174-.017-.273-.04-.324 0-.077.105-.247.135-.31.024-.06-.034-.012.014-.06.1-.103.227-.16.372-.16 0 0 .02-.01.035.005.02.02.125.02.125.02l.64-.015c.146 0 .27.05.372.148.03.03.016.04.035.07.054.08.112.197.112.303.022.05.022.09.022.165l-.023.217.004 1.402c-.002.342-.003.586.02.756l-.03.652c.02.365.084.658.082.922l-.022 2.016c.02.217.02.41.02.53.02.487-.01 1.146.01 1.968l-.017 1.674v.023l-.01 2.148.01 1.334-.026.438c.023.168.023.314.023.387l-.04.146c.02.072.02.17.02.295l-.027.287v.145l-.004.27c.023.096.023 2.89.023 2.912l-.035 1.232h-.004zm1.92-10.477c.11.424.225.775.287 1l.324 1.076c.344 1.57.865 4.226 1.15 5.302.022.098.067.25.136.45.04.224.087.374.107.474l.332 1.07c.26 1.02.32 1.56.41 1.785.033.14.048.243.01.304-.06.094-.15.14-.272.14 0 0-.755-.05-.77-.013-.02.032-.052.015-.052.015-.162 0-.322-.027-.464-.105-.077-.04-.138.055-.194 0-.05-.057-.104-.26-.123-.34 0 0-.557-2.55-.824-3.404-.062-.19-.104-.64-.255-1.248-.03-.125-.145-.277-.176-.412-.026-.1-.054-.205-.076-.31C79.092 41.085 78.374 38 78.374 38c-.05-.172-.077-.277-.07-.44.01-.16.044-.263.1-.42.023-.08.02-.067.045-.228.02-.21.07-.346.1-.426.1-.293.224-.69.347-1.174l.617-2.77c.123-.45.194-.88.29-1.28l.177-.558c.05-.318.1-.48.1-.506.3-.986.628-2.35.624-2.562.025-.098.068-.223.16-.262.15-.08.432-.16.673-.16 0 0 .245-.01.268 0 .022.012.384 0 .384 0 .105 0 .185.047.237.14.043.075.02.16-.02.282 0 .025-.064.146-.17.412-.083.316-.273 1.477-.393 2.03-.113.556-.183.653-.28 1.112-.098.457-.22.893-.347 1.28l-.695 3.386c-.1.482-.347 1.025-.473 1.512h-.043l-.022.045c-.046.03.083.053.083.053v-.003zm-41.17 11.424s-.67-.016-.926-.006c-.023 0-.06-.087-.072-.093-.02-.002-.012.084-.02.086-.064.035-.2.014-.2.014-.144 0-.286-.035-.42-.11-.133-.07-.28-.16-.32-.35-.014-.456-.232-.935-.41-2.132-.2-1.176-.396-1.936-.47-2.295-.062-.254-.128-.836-.193-1.588-.058-.068-.085-.234-.07-.465 0-.018.006-.04.028-.078l.006-.063c-.06-.064-.088-.213-.133-.445l-.05-.46c.005-.038 0-.353-.078-.962-.01-.145-.202-.248-.207-.455-.027-.188-.037-.336-.05-.398l-.593-3.043c-.074-.344-.104-1.043-.147-1.566-.015-.162-.058-.148-.067-.307-.018-.216-.017-.345-.027-.524-.017-.254-.06.037-.07-.078-.03-.365-.026-.922-.11-1.3-.09-.41-.164-1.044-.22-1.372h-.086c.03.268.062.896.084 1.137.007.076-.008.13-.002.217.012.15.037.346.044.555.033.73.023 2.65.023 3.45l-.016.134-.06.854c0 .207.038.352.05.457l-.018.397c.013.225.026.396.025.56l.002 1.224c.012.134.012.253.01.325.014.297-.043.693-.032 1.19l.152 1.02v.015l-.02 1.486.122 1.873-.084.265c.014.102.014.188.014.234l.044.44v.25c.014.057.013.102.013.117l.008 1.035c0 .088-.03.117-.066.19-.026.044-.046.14-.084.18-.1.1-.18.15-.326.15 0 0-.416-.044-.522-.026l-.14.025c-.147 0-.26-.032-.357-.132-.013-.014-.04-.033-.05-.047-.01-.01 0-.058-.01-.07-.008-.01-.03.01-.036-.007-.03-.03-.116-.084-.135-.115-.045-.076-.065-.176-.065-.275v-.56c0-.07.024-.216.05-.384 0-.05 0-.12-.024-.24v-.216l.04-.098v-.24l-.042-.46c.023-.065.023-.216.025-.382v-.037l-.15-2.992c.024-.844-.055-1.512-.055-2.068l-.022-1.127-.01-.385.038-.48v-.22c0-.142.022-.382.048-.694 0-.095-.02-.24-.044-.456-.023-.193.04-.336.04-.455l-.024-2.358.077-.443.026-.673.036-.314v-.166c0-.17.024-.338.05-.482 0-.072 0-.24-.025-.457 0-.213-.022-.383-.045-.504v-.793l-.022-.308v-.338c0-.146 0-.238-.023-.287 0-.025 0-.1.05-.195 0-.068.023-.14.023-.19 0-.022 0-.046-.023-.046v-.072c.023-.05.046-.096.046-.12v-.024l-.046-.145c0-.1-.045-.105 0-.18.022-.04.116-.16.15-.19.1-.1.22-.15.37-.15 0 0 .076.01.14.042.02.014.51.004.655-.004.297-.014.34-.04.34-.04.47-.05.674.14.746.464l.254 1.02c.293 2.108.664 3.702.86 4.64l.122.566c.015.04.015.115.03.188.015.087.03.16.045.218l.044.143.12.536.68 3.36c.052.265.06.58.112.845.042.218.132.384.154.58.025.24 0 .515.01.636.07.72.155 1.87.19 2.2.022.21-.013.413.014.638.07.04.11.494.14.707.04.325.062.903.118 1.32l.016.024.05-.086c-.053-.47.018-.738-.072-1.465-.084-.7-.067-3.41-.067-4.16-.01-.244 0-.62.01-1.135-.007-.512.01-.8.01-.87 0-.688.027-1.14.08-1.345-.005-.088-.025-.385-.033-.896l-.075-5.326c.01-.444-.106-.704-.116-.753.01-.094.023-.258.022-.613l-.004-.824.017-.006c-.003-.086-.038-.307-.083-.49 0-.107.05-.21.097-.293.02-.03.024-.05.053-.077.1-.1.225-.15.37-.15 0 0 .127-.004.162.014.033.016.42-.014.42-.014.116 0 .198.037.283.096.025.02.066.032.087.054.1.102.15.223.15.37 0 .052 0 .1-.024.146.024 0 .024.027.024.078 0 .098 0 .195-.026.268.025.074.024.197.024.318.023.125.023.225.022.27 0 .347.14 2.335.157 3.714 0 .342-.004.613.02.785 0 .346 0 .637.02.86-.025.075-.05.25-.052.515.022.125-.01.273-.01.492v.44c0 .32.02.567.044.74-.025.1-.028.272-.03.52l.03.563c.017 1.354-.037 4.72-.05 7.205l.078.94c.024.12.024.294.022.515 0 .148 0 .246-.026.32-.022.072-.024.197-.024.39 0 .15.02.274-.007.347.024.025.024.074.023.148v.148c-.024.072-.024.12-.024.145v.052c0 .074.02.193-.003.266 0 .15-.052.27-.15.37-.11.105-.22.157-.365.157l-.01-.008zm27.48-.065c-.01-.12-.115-.65-.21-1.32-.177-1.29-.437-3.47-.438-3.516-.023-.02-.078-.23-.16-.62-.37-1.68-.57-3.874-1.003-7.198l-.352-1.36c-.006-.118-.038-.192-.07-.444-.036-.28-.042-.418-.042-.44-.003-.095-.032-.257-.064-.487-.03-.207-.04-.37-.063-.484-.104-.855-.244-1.92-.406-3.213-.03-.137-.036-.322-.05-.58l-.005-.184c-.004-.047-.028-.14-.058-.254-.03-.117-.03-.186-.03-.232-.004-.068-.006-.137.015-.186-.025-.092-.017-.16-.02-.184 0-.023-.018-.07.003-.14-.02-.065-.01-.116-.045-.173-.044-.068-.135-.135-.207-.188-.124-.095-.263-.142-.407-.142 0 0-.41-.004-.7.008-.2.008-.305.03-.316.02-.02-.015-.143-.028-.143-.028-.048 0-.13.018-.184.037-.052.018-.077.04-.12.06-.05.022-.062.013-.108.048-.055.074-.23.234-.26.328-.052.155-.142 1.25-.165 1.343l-.208.64-.074.724c.004.027.004.055-.02.117-.028.033-.028.062-.028.094.005.03.07.088.044.148.004.06-.055.12-.08.15l.007.09v.03c-.024.09-.092.245-.136.458-.02.207-.037.357-.063.45.007.03-.02.124-.04.243-.023.12-.02.21-.04.27-.024.153.033.546-.04 1.237l-1.054 6.787-.243 1.67c-.205 1.03-.19 1.602-.217 1.725 0 .027.003.057-.02.12l.004.093c-.02.148-.04.27-.067.332.004.03.004.06-.023.123.002.027.006.06-.022.088.004.03.004.06-.022.093-.028.03-.024.062-.024.092-.022.092-.018.18-.04.3-.02.124-.017.183-.017.214 0 .028.006.058-.022.09l.005.06c-.038.36-.102.576-.096.633-.05.213-.064.44-.056.59-.02.15-.065.363-.14.64-.043.24-.045.45-.06.63-.043.154-.016.297.072.41.036.04.073.08.12.104.007.006.028.01.038.014.012.005.01.01.02.013.04.014.086.02.13.02 0 0 .054-.005.088-.02.036-.014.695.02.695.02.147 0 .305-.05.43-.14.1-.076.073-.14.118-.246.058-.076.15-.48.25-1.246.044-.503.107-.89.14-1.07.03-.106.04-.294.072-.532.008-.24.04-.453.07-.584.03-.107.034-.266.068-.504.008-.21.014-.373.04-.48.003-.078.037-.29.13-.686l.107-.812.422.014c.447-.006.813.01 1.105.03.05 0 .156-.026.314-.05l.29-.004.262-.004c.08.02.16.02.184.02l.45-.006s.163 1.107.176 1.354c.012.252.1.914.1.914s.09 1.22.114 1.355.193.514.185.535c-.005.02.1.79.087.812-.017.02.02.172.01.193-.01.014.016.025.006.04-.01.013.025.07.014.1-.014.028.02.07.01.114-.006.042-.008.097-.008.124-.006.05.04.09.048.117.014.07.1.58.1.58.032.15.215.368.34.464.063.05.063.086.114.107.04.02.133.024.182.03h.053s.08.02.087.01c.008-.01.243-.02.43-.02.208 0 .367.01.367.01.132 0 .237-.05.31-.148.07-.102.095-.215.062-.35zm-3.947-7.9c-.34-.006-.6.047-.77.045-.152-.004-.24-.053-.272-.062l-.614.02c.014-.115.047-.23.037-.322l.07-.502.067-.485.17-1.064c.026-.185.076-.394.163-.653-.007-.068-.043-.172-.033-.334.024-.184.034-.32.026-.412.016-.065.08-.165.072-.23.037-.097.028-.187.06-.302-.008-.115.027-.21.04-.275l.05-.396.014-.396c.028-.142.1-.1.088-.21-.004-.047-.013-.115.02-.21.072-.493.172-1.132.21-1.48.017-.13-.028.012-.02-.12.02-.25.158-1.212.17-1.532.037-.482.088-2.027.098-2.31h.077c.007.126.028.458.048.9.008.07-.032.216-.032.29.008.133.045.203.056.33.015.303-.006.64.005.79l.048.554c.02.344.112 1.076.13 1.36.037.456.07.85.177 1.55 0 0 .002.016-.004.037-.007.022-.027.06-.015.11.078.322.21.912.295 1.527.077.568.11 1.207.188 1.7.05.278.116.495.153.673.033.184.007.26.023.295.053.107.023.182.05.4.03.258.105.72.105.72l-.947-.005v.002zm-11.45.55c-.15-.07-.25-.194-.303-.34 0 0-.045-.052-.06-.138-.02-.1-.013-.248-.047-.377-.035-.14-.1-.31-.123-.43-.03-.15-.02-.232-.04-.25-.06-.047-.767-4.004-.767-4.004-.02-.094-.02-.43-.04-.523-.07-.33-.15-.412-.216-.773-.09-.512-.26-1.09-.308-1.504-.037-.184-.03-.475-.08-.875-.073-.57-.204-1.28-.23-1.52-.02-.212.07-.14.005-.407-.078-.313-.096-.968-.1-1.028h-.104c.015.305.048.625.073 1.38.026.753.04 1.427.04 2.452l-.044.93v.56c-.02.204-.02.43-.02.675 0 .27.003.563.028.878l-.01 1.207c0 .156.02.07.04.39l.065.74.003.673c-.02.314-.02.54-.02.674.004.65.146 1.613.155 2.896-.04 1.303.01 5.125.014 5.664 0 .15-.09.3-.19.375-.11.082-.185.148-.332.148 0 0-.535-.012-.558 0-.02.012-.103 0-.103 0-.148 0-.21.012-.31-.088-.048-.05-.146-.164-.172-.223-.026-.05-.03-.104-.032-.178l-.005-.197-.003-.146.094-.348c-.002-.174-.113-3.402-.154-4.018V42.22c0-.1-.087-.25-.116-.444l-.01-.443-.01-.246c-.003-.27-.01-.518-.038-.69.02-.175.037-.493.025-.94-.03-.218-.037-.54-.048-.956.017-.298-.055-.743-.07-1.333l.125-.662c0-.986-.11-1.635-.12-1.955.013-.418-.006-1.014 0-1.828.003-.814.045-1.525.053-2.14.01-.593-.016-1.16.02-1.68 0-.024-.044-.1-.023-.2.022-.102.045-.174.045-.2.023-.022.023-.073.02-.122v-.1l-.004-.076-.005-.22c0-.144.05-.27.15-.366.1-.102.223-.152.372-.152 0 0 .012.025.03.037.02.014 1.645-.037 1.645-.037.147 0 .284.047.412.14.125.095.157.052.212.198 0 0 .32.932.296.982-.04.088.323 1.73.376 1.877-.006.06.28 1.943.328 1.963.07.033.145.828.145.846 0 .094.14.625.19.883.02.084-.003.127-.003.127.13.713.428 2.234.436 2.79.063.382.1.73.104.968.002.223-.025.338-.02.607.012.53.028.623.035 1.025h.063c.004-.398.008-.545.02-1.025.016-.512.012-.576.03-.703.012-.512.43-2.83.585-3.613 0 0 .005-.302.06-.347.008-.006.004-.086.036-.232-.05-.06.443-2.675.42-2.767-.02-.06.385-1.635.505-2.27.04-.22.086-.35.107-.476.022-.12.004-.156.004-.156.046-.147.197-.364.32-.458.128-.094.204-.043.353-.043 0 0 .274-.05.377-.017.102.033 1.43.016 1.43.016.146 0 .353.108.455.208.102.1.067.162.067.31l-.003.146.01.906c.028.137.03.33.034.576.026.25.028.44.032.525-.026.192-.06.056-.055.356l.035.14-.014 1.235.014 1.157.014 1.127.058.52c.03.248-.056.395-.056.504-.023.41-.068.707-.065.87l.004.192c-.022.217-.02.547-.02.988-.02.74-.04 1.7-.03 2.94l.11 2.497c0 .057.002.193-.023.387.002.193-.036.254-.06.34l.004 2.97.005.274.002.11.002.25c.027.136.027.218.03.27-.03.222-.053.356-.053.44 0 .146-.05.268-.15.37-.102.1-.224.15-.37.15 0 0-.246-.007-.437-.007-.087 0-.196.01-.2.007-.016-.004-.012-.014-.028-.02-.02-.004-.14.02-.14.02-.147 0-.266-.05-.368-.15-.035-.035-.062-.07-.087-.11-.067 0 .022-.392.024-1.177l-.008-3.95c.005-.083.005-.243.02-.435l.005-.47.032-.192c0-.156-.08-.45-.06-.87-.016-.243-.014-.56-.012-1.116-.05-1.066.03-2.3.02-3.676l.022-.8.027-.246c0-.244-.032-.434-.018-.574-.017-.05-.017-.156-.017-.277 0-.068 0-.174.02-.295v-.28c.002-.085-.064-.114-.047-.304.004-.193-.026-.416-.028-.504 0-1.176-.013-1.594.02-2.3.02-.48.07-.757.086-.966.008-.092.077-.25.082-.328l-.135.078c-.01.06-.084.45-.115.742-.033.275-.023.447-.052.68-.05.393-.23 1.445-.315 1.873-.032.288 0-.155-.077.325-.06.39-.115.66-.21 1.23-.037.247-.173.767-.216.99-.034.175.022.056-.02.245 0 0-.508 2.373-.494 2.504.012.13-.52 2.8-.52 2.8-.02.163-.12.278-.247.382-.124.1-.272.15-.42.16 0 0-.377-.004-.46.03-.085.028-.194.01-.194.01-.135.013-.277-.02-.424-.1l.003.007z"/></svg>