<svg width="16" height="16" viewBox="0 0 16 16" fill="none" xmlns="http://www.w3.org/2000/svg">
<path fill-rule="evenodd" clip-rule="evenodd" d="M1.42028 4.82804C1.42028 5.22014 1.10221 5.53825 0.710142 5.53825C0.318078 5.53825 0 5.22014 0 4.82804V2.69216C0 1.20767 1.20757 0 2.69193 0H4.87323C5.26529 0 5.58337 0.318104 5.58337 0.710201C5.58337 1.1023 5.26529 1.4204 4.87323 1.4204H2.69193C1.99071 1.4204 1.42028 1.99087 1.42028 2.69216V4.82804ZM13.3081 0H11.1268C10.7347 0 10.4167 0.318104 10.4167 0.710201C10.4167 1.1023 10.7347 1.4204 11.1268 1.4204H13.3081C14.0093 1.4204 14.5798 1.99087 14.5798 2.69216V4.82804C14.5798 5.22014 14.8978 5.53825 15.2899 5.53825C15.682 5.53825 16 5.22014 16 4.82804V2.69216C16 1.20767 14.7925 0 13.3081 0ZM15.2899 10.4614C14.8978 10.4614 14.5798 10.7795 14.5798 11.1716V13.3078C14.5798 14.0091 14.0093 14.5796 13.3081 14.5796H11.1268C10.7347 14.5796 10.4167 14.8977 10.4167 15.2898C10.4167 15.6819 10.7347 16 11.1268 16H13.3081C14.7925 16 16 14.7923 16 13.3078V11.1716C16 10.7795 15.682 10.4614 15.2899 10.4614ZM4.87323 14.5796H2.69193C1.99071 14.5796 1.42028 14.0091 1.42028 13.3078V11.1716C1.42028 10.7795 1.10221 10.4614 0.710142 10.4614C0.318078 10.4614 0 10.7792 0 11.1716V13.3078C0 14.7923 1.20757 16 2.69193 16H4.87323C5.26529 16 5.58337 15.6819 5.58337 15.2898C5.58337 14.8977 5.26529 14.5796 4.87323 14.5796ZM12.6019 12.6029C12.4476 12.7572 12.2425 12.8421 12.0242 12.8421L12.0245 12.8418C11.8062 12.8418 11.6011 12.7569 11.4468 12.6026L10.2604 11.4161C9.59218 11.8613 8.81663 12.0952 8.00047 12.0952C6.90685 12.0952 5.87863 11.6694 5.1054 10.8961C4.33217 10.1228 3.90641 9.09453 3.90641 8.00082C3.90641 6.90711 4.33217 5.87881 5.1054 5.10552C5.87863 4.33222 6.90685 3.90643 8.00047 3.90643C9.09408 3.90643 10.1223 4.33222 10.8955 5.10552C11.6688 5.87881 12.0945 6.90711 12.0945 8.00082C12.0945 8.81706 11.8607 9.59266 11.4154 10.2612L12.6019 11.4478C12.9203 11.7662 12.9203 12.2845 12.6019 12.6029ZM9.73685 9.73702C9.75171 9.72248 9.76723 9.70795 9.78342 9.69407C10.2201 9.23426 10.4605 8.63373 10.4605 8.00082C10.4605 6.64418 9.35667 5.54023 8.00014 5.54023C6.6436 5.54023 5.53974 6.64418 5.53974 8.00082C5.53974 9.35747 6.64327 10.4614 8.00014 10.4614C8.63299 10.4614 9.23347 10.2213 9.69325 9.78425C9.70745 9.76774 9.72198 9.75188 9.73685 9.73702Z" fill="white"/>
</svg>
