<svg width="24" height="24" viewBox="0 0 24 24" fill="none" xmlns="http://www.w3.org/2000/svg">
<path fill-rule="evenodd" clip-rule="evenodd" d="M0 12C0 5.37258 5.37258 0 12 0C18.6243 0.00746339 23.9925 5.37568 24 12C24 18.6274 18.6274 24 12 24C5.37258 24 0 18.6274 0 12ZM6.85714 19.7143V20.8941C10.0347 22.7496 13.9653 22.7496 17.1429 20.8941V19.7143C17.1413 18.2948 15.9909 17.1444 14.5714 17.1429H9.42857C8.00906 17.1444 6.8587 18.2948 6.85714 19.7143ZM18.8507 19.6507C18.8153 17.3114 16.9109 15.4326 14.5714 15.4286H9.42857C7.08906 15.4326 5.18474 17.3114 5.14929 19.6507C1.96707 16.8092 0.86923 12.2983 2.38983 8.31228C3.91044 4.32628 7.7338 1.69271 12 1.69271C16.2662 1.69271 20.0896 4.32628 21.6102 8.31228C23.1308 12.2983 22.0329 16.8092 18.8507 19.6507ZM12 5.14286C9.63307 5.14286 7.71429 7.06164 7.71429 9.42857C7.71429 11.7955 9.63307 13.7143 12 13.7143C14.3669 13.7143 16.2857 11.7955 16.2857 9.42857C16.2857 8.29193 15.8342 7.20184 15.0305 6.39811C14.2267 5.59439 13.1366 5.14286 12 5.14286ZM12 12C10.5798 12 9.42857 10.8487 9.42857 9.42857C9.42857 8.00841 10.5798 6.85714 12 6.85714C13.4202 6.85714 14.5714 8.00841 14.5714 9.42857C14.5698 10.8481 13.4195 11.9984 12 12Z" fill="#2B2C46"/>
</svg>
