<svg width="11" height="12" viewBox="0 0 11 12" fill="none" xmlns="http://www.w3.org/2000/svg">
<path fill-rule="evenodd" clip-rule="evenodd" d="M0.333008 5.99999C0.333008 3.05447 2.72082 0.666656 5.66634 0.666656C8.61049 0.669974 10.9964 3.05585 10.9997 5.99999C10.9997 8.94551 8.61186 11.3333 5.66634 11.3333C2.72082 11.3333 0.333008 8.94551 0.333008 5.99999ZM3.38053 9.42855V9.95293C4.79278 10.7776 6.53972 10.7776 7.95196 9.95293V9.42855C7.95127 8.79766 7.44 8.28639 6.80911 8.2857H4.52339C3.8925 8.28639 3.38123 8.79766 3.38053 9.42855ZM8.71111 9.4003C8.69535 8.36063 7.84899 7.52558 6.80921 7.5238H4.52349C3.48371 7.52558 2.63734 8.36063 2.62159 9.4003C1.20727 8.13743 0.719341 6.13256 1.39516 4.36101C2.07099 2.58945 3.77026 1.41898 5.66635 1.41898C7.56244 1.41898 9.26171 2.58945 9.93754 4.36101C10.6134 6.13256 10.1254 8.13743 8.71111 9.4003ZM5.66648 2.95236C4.61451 2.95236 3.76172 3.80515 3.76172 4.85712C3.76172 5.90909 4.61451 6.76189 5.66648 6.76189C6.71845 6.76189 7.57124 5.90909 7.57124 4.85712C7.57124 4.35195 7.37056 3.86747 7.01335 3.51025C6.65614 3.15304 6.17165 2.95236 5.66648 2.95236ZM5.66662 5.99998C5.03544 5.99998 4.52376 5.4883 4.52376 4.85712C4.52376 4.22594 5.03544 3.71426 5.66662 3.71426C6.2978 3.71426 6.80948 4.22594 6.80948 4.85712C6.80876 5.48801 6.29751 5.99926 5.66662 5.99998Z" fill="white"/>
</svg>
