<svg width="16" height="16" viewBox="0 0 16 16" fill="none" xmlns="http://www.w3.org/2000/svg">
<path fill-rule="evenodd" clip-rule="evenodd" d="M16 13.7139C16 14.0295 15.7442 14.2853 15.4286 14.2853H0.571429C0.255837 14.2853 0 14.0295 0 13.7139V3.99958C0 3.68399 0.255837 3.42815 0.571429 3.42815H4.26286L5.24 1.97101C5.34513 1.81136 5.52313 1.71486 5.71429 1.71387H10.2857C10.4769 1.71486 10.6549 1.81136 10.76 1.97101L11.7371 3.42815H15.4286C15.7442 3.42815 16 3.68399 16 3.99958V13.7139ZM1.14286 13.1424H14.8571V4.57101H11.4286C11.2374 4.57002 11.0594 4.47352 10.9543 4.31387L9.97714 2.85672H6.02286L5.04571 4.31387C4.94058 4.47352 4.76258 4.57002 4.57143 4.57101H1.14286V13.1424ZM8 11.9996C6.10645 11.9996 4.57143 10.4646 4.57143 8.57101C4.57143 6.67746 6.10645 5.14244 8 5.14244C9.89355 5.14244 11.4286 6.67746 11.4286 8.57101C11.4286 10.4646 9.89355 11.9996 8 11.9996ZM8 6.2853C6.73764 6.2853 5.71429 7.30865 5.71429 8.57101C5.71429 9.83337 6.73764 10.8567 8 10.8567C9.26237 10.8567 10.2857 9.83337 10.2857 8.57101C10.2857 7.30865 9.26237 6.2853 8 6.2853Z" fill="currentColor"/>
</svg>
