<svg width="16" height="16" viewBox="0 0 16 16" fill="none" xmlns="http://www.w3.org/2000/svg">
<path d="M1.48039 1.48039C1.74571 1.21508 2.17586 1.21508 2.44118 1.48039L5.5451 4.58431C5.67096 4.71018 5.88618 4.62127 5.88652 4.44328L5.88908 3.11787C5.88981 2.74393 6.19315 2.44118 6.56709 2.44118C6.94154 2.44118 7.2451 2.74473 7.2451 3.11918V6.2451C7.2451 6.79738 6.79738 7.2451 6.2451 7.2451H3.11918C2.74473 7.2451 2.44118 6.94154 2.44118 6.56709C2.44118 6.19315 2.74393 5.88981 3.11787 5.88908L4.44328 5.88652C4.62127 5.88618 4.71018 5.67096 4.58431 5.5451L1.48039 2.44118C1.21508 2.17586 1.21508 1.74571 1.48039 1.48039Z" fill="#55566B"/>
<path d="M3.11918 8.7549C2.74473 8.7549 2.44118 9.05846 2.44118 9.43291C2.44118 9.80685 2.74393 10.1102 3.11787 10.1109L4.44328 10.1135C4.62127 10.1138 4.71018 10.329 4.58431 10.4549L1.48039 13.5588C1.21508 13.8241 1.21508 14.2543 1.48039 14.5196C1.74571 14.7849 2.17586 14.7849 2.44118 14.5196L5.5451 11.4157C5.67096 11.2898 5.88618 11.3787 5.88652 11.5567L5.88908 12.8821C5.88981 13.2561 6.19315 13.5588 6.56709 13.5588C6.94154 13.5588 7.2451 13.2553 7.2451 12.8808V9.7549C7.2451 9.20262 6.79738 8.7549 6.2451 8.7549H3.11918Z" fill="#55566B"/>
<path d="M14.5196 1.48039C14.2543 1.21508 13.8241 1.21508 13.5588 1.48039L10.4549 4.58431C10.329 4.71018 10.1138 4.62127 10.1135 4.44328L10.1109 3.11787C10.1102 2.74393 9.80685 2.44118 9.43291 2.44118C9.05846 2.44118 8.7549 2.74473 8.7549 3.11918V6.2451C8.7549 6.79738 9.20262 7.2451 9.7549 7.2451H12.8808C13.2553 7.2451 13.5588 6.94154 13.5588 6.56709C13.5588 6.19315 13.2561 5.88981 12.8821 5.88908L11.5567 5.88652C11.3787 5.88618 11.2898 5.67096 11.4157 5.5451L14.5196 2.44118C14.7849 2.17586 14.7849 1.74571 14.5196 1.48039Z" fill="#55566B"/>
<path d="M14.5196 14.5196C14.2543 14.7849 13.8241 14.7849 13.5588 14.5196L10.4549 11.4157C10.329 11.2898 10.1138 11.3787 10.1135 11.5567L10.1109 12.8821C10.1102 13.2561 9.80685 13.5588 9.43291 13.5588C9.05846 13.5588 8.7549 13.2553 8.7549 12.8808V9.7549C8.7549 9.20262 9.20262 8.7549 9.7549 8.7549H12.8808C13.2553 8.7549 13.5588 9.05846 13.5588 9.43291C13.5588 9.80685 13.2561 10.1102 12.8821 10.1109L11.5567 10.1135C11.3787 10.1138 11.2898 10.329 11.4157 10.4549L14.5196 13.5588C14.7849 13.8241 14.7849 14.2543 14.5196 14.5196Z" fill="#55566B"/>
</svg>
