<svg width="16" height="16" viewBox="0 0 16 16" fill="none" xmlns="http://www.w3.org/2000/svg">
<path fill-rule="evenodd" clip-rule="evenodd" d="M12.5055 6.45389C12.7282 6.23157 13.0888 6.23169 13.3113 6.45415C13.5338 6.67672 13.5338 7.03757 13.3113 7.26013L8.70707 11.8643C8.31655 12.2548 7.68338 12.2548 7.29286 11.8643L2.68867 7.26013C2.4661 7.03757 2.4661 6.67672 2.68867 6.45415C2.91113 6.23169 3.27178 6.23157 3.49438 6.45389L5.7219 8.67847C6.35205 9.30779 7.42854 8.86148 7.42854 7.97089V0.571428C7.42854 0.255837 7.68437 0 7.99996 0C8.31556 0 8.57139 0.255838 8.57139 0.571429V7.97089C8.57139 8.86148 9.64788 9.30779 10.278 8.67847L12.5055 6.45389ZM12.7143 14.8571C13.2665 14.8571 13.7143 14.4094 13.7143 13.8571V13.1429C13.7143 12.8273 13.9701 12.5714 14.2857 12.5714C14.6013 12.5714 14.8571 12.8273 14.8571 13.1429V14.8571C14.8571 15.4883 14.3454 16 13.7143 16H2.28568C1.6545 16 1.14282 15.4883 1.14282 14.8571V13.1429C1.14282 12.8273 1.39866 12.5714 1.71425 12.5714C2.02984 12.5714 2.28568 12.8273 2.28568 13.1429V13.8571C2.28568 14.4094 2.7334 14.8571 3.28568 14.8571H12.7143Z" fill="currentColor"/>
</svg>
