<svg width="40" height="40" viewBox="0 0 40 40" fill="none" xmlns="http://www.w3.org/2000/svg">
<path fill-rule="evenodd" clip-rule="evenodd" d="M20 40C31.0457 40 40 31.0457 40 20C40 8.9543 31.0457 0 20 0C8.9543 0 0 8.9543 0 20C0 31.0457 8.9543 40 20 40ZM9.49963 11.25H30.4996C31.4661 11.25 32.2496 12.0335 32.2496 13V27C32.2496 27.9665 31.4661 28.75 30.4996 28.75H9.49963C8.53313 28.75 7.74963 27.9665 7.74963 27V13C7.74963 12.0335 8.53313 11.25 9.49963 11.25ZM20.0002 18.9325L28.5752 13H11.4252L20.0002 18.9325ZM9.50012 13.7962V27H30.5001V13.7962L20.4989 20.7175C20.1989 20.9256 19.8013 20.9256 19.5014 20.7175L9.50012 13.7962Z" fill="#3E36DC"/>
</svg>
