<svg width="16" height="17" viewBox="0 0 16 17" fill="none" xmlns="http://www.w3.org/2000/svg">
<path fill-rule="evenodd" clip-rule="evenodd" d="M10.8572 1.99051C10.5416 1.99051 10.2858 1.73468 10.2858 1.41908C10.2858 1.10349 10.5416 0.847656 10.8572 0.847656H15.4001C15.7315 0.847656 16.0001 1.11629 16.0001 1.44766V5.99051C16.0001 6.3061 15.7442 6.56194 15.4287 6.56194C15.1131 6.56194 14.8572 6.3061 14.8572 5.99051V4.24704C14.8572 3.7125 14.2109 3.4448 13.833 3.82278L10.356 7.2997C10.1324 7.52334 9.76974 7.52308 9.54642 7.29913C9.32351 7.07559 9.32381 6.71373 9.54709 6.49056L13.0244 3.01488C13.4025 2.63694 13.1348 1.99051 12.6002 1.99051H10.8572ZM5.64795 10.3948C5.87125 10.1717 6.23331 10.1723 6.4559 10.3961C6.67768 10.6192 6.67715 10.9796 6.45471 11.202L2.97541 14.6805C2.59736 15.0584 2.86505 15.7048 3.39962 15.7048H5.14286C5.45845 15.7048 5.71428 15.9606 5.71428 16.2762C5.71428 16.5918 5.45845 16.8476 5.14286 16.8476H0.6C0.268629 16.8476 0 16.579 0 16.2476V11.7048C0 11.3892 0.255837 11.1334 0.571428 11.1334C0.88702 11.1334 1.14286 11.3892 1.14286 11.7048V13.449C1.14286 13.9834 1.78893 14.2512 2.16697 13.8734L5.64795 10.3948Z" fill="currentColor"/>
</svg>
