<svg width="10" height="11" viewBox="0 0 10 11" fill="none" xmlns="http://www.w3.org/2000/svg">
<path fill-rule="evenodd" clip-rule="evenodd" d="M6.56905 7.91401C6.92789 7.46225 7.47234 7.19773 8.04926 7.19483C9.10003 7.19483 9.95185 8.04665 9.95185 9.09742C9.95185 10.1482 9.10003 11 8.04926 11C6.99849 11 6.14667 10.1482 6.14667 9.09742C6.14847 8.92726 6.17408 8.75819 6.22277 8.59513L3.44118 6.85616C2.93785 7.48979 2.0888 7.73571 1.32474 7.46917C0.560687 7.20264 0.0488281 6.48196 0.0488281 5.67275C0.0488281 4.86354 0.560687 4.14287 1.32474 3.87633C2.0888 3.60979 2.93785 3.85571 3.44118 4.48934L6.22277 2.75037C6.17408 2.58732 6.14847 2.41825 6.14667 2.24809C6.14083 1.32028 6.80508 0.523574 7.7188 0.36244C8.63252 0.201306 9.52922 0.722744 9.84111 1.59657C10.153 2.4704 9.78909 3.44177 8.97983 3.89559C8.17057 4.34941 7.15198 4.15332 6.56905 3.4315L3.78746 5.17047C3.88883 5.49765 3.88883 5.84785 3.78746 6.17504L6.56905 7.91401ZM9.19066 2.24808C9.19066 1.61762 8.67957 1.10653 8.04911 1.10653C7.41864 1.10653 6.90755 1.61762 6.90755 2.24808C6.90755 2.87855 7.41864 3.38964 8.04911 3.38964C8.67957 3.38964 9.19066 2.87855 9.19066 2.24808ZM1.96089 6.81431C1.33043 6.81431 0.819336 6.30322 0.819336 5.67275C0.819336 5.04229 1.33043 4.5312 1.96089 4.5312C2.59136 4.5312 3.10245 5.04229 3.10245 5.67275C3.10245 6.30322 2.59136 6.81431 1.96089 6.81431ZM6.90755 9.09742C6.90755 9.72788 7.41864 10.239 8.04911 10.239C8.67957 10.239 9.19066 9.72788 9.19066 9.09742C9.19066 8.46695 8.67957 7.95586 8.04911 7.95586C7.41864 7.95586 6.90755 8.46695 6.90755 9.09742Z" fill="#2B2C46"/>
</svg>
