<svg width="24" height="22" viewBox="0 0 22 21" style="enable-background:new 0 0 22 20.28;" xmlns="http://www.w3.org/2000/svg">
  <path class="st3" d="M 10.959 1.845 C 11.109 1.845 11.266 1.886 11.408 1.96 L 19.66 6.661 C 19.935 6.825 20.101 7.112 20.101 7.424 L 20.101 15.776 C 20.101 16.111 19.91 16.415 19.61 16.562 L 15.912 18.384 C 15.787 18.449 15.646 18.474 15.513 18.474 C 15.347 18.474 15.189 18.433 15.048 18.343 C 14.782 18.178 14.624 17.9 14.624 17.596 L 14.624 10.041 L 10.959 7.957 L 7.294 10.041 L 7.294 17.605 C 7.294 17.908 7.136 18.196 6.87 18.351 C 6.728 18.441 6.562 18.483 6.405 18.483 C 6.272 18.483 6.13 18.449 6.006 18.392 L 2.307 16.57 C 2.008 16.415 1.817 16.111 1.817 15.776 L 1.817 7.424 C 1.817 7.112 1.983 6.817 2.265 6.661 L 10.519 1.96 C 10.651 1.886 10.801 1.845 10.959 1.845 M 10.959 0.205 C 10.51 0.205 10.069 0.32 9.679 0.541 L 1.426 5.242 C 0.645 5.693 0.155 6.529 0.155 7.424 L 0.155 15.776 C 0.155 16.735 0.695 17.596 1.568 18.031 L 5.266 19.852 C 5.615 20.025 6.014 20.115 6.405 20.115 C 6.878 20.115 7.343 19.984 7.742 19.738 C 8.499 19.278 8.956 18.474 8.956 17.596 L 8.956 10.984 L 10.959 9.844 L 12.962 10.984 L 12.962 17.596 C 12.962 18.474 13.41 19.278 14.175 19.738 C 14.583 19.984 15.039 20.115 15.522 20.115 C 15.912 20.115 16.311 20.025 16.66 19.852 L 20.359 18.031 C 21.231 17.605 21.771 16.735 21.771 15.776 L 21.771 7.424 C 21.771 6.529 21.281 5.693 20.492 5.242 L 12.239 0.541 C 11.848 0.32 11.408 0.205 10.959 0.205 Z" fill="currentColor"  transform="matrix(0.999999, 0.00121, -0.00121, 0.999999, 0.012302, -0.013258)"/>
</svg>