<svg width="10" height="10" viewBox="0 0 10 10" fill="none" xmlns="http://www.w3.org/2000/svg">
<path fill-rule="evenodd" clip-rule="evenodd" d="M8.56526 3.33888H6.42394V1.48857C6.49882 0.748727 5.98113 0.0860124 5.26763 0.00832676C5.17754 -0.00277559 5.08649 -0.00277559 4.9964 0.00832676H4.43609C4.19073 0.0152971 3.98092 0.193303 3.92574 0.441299V0.485707L3.56886 2.8319L2.30548 4.81913H0V10H6.78083C9.43606 10 9.9928 8.39023 9.9928 7.0395V4.81913C10.0677 4.07929 9.54999 3.41657 8.83649 3.33888C8.7464 3.32778 8.65535 3.32778 8.56526 3.33888ZM2.14135 9.25987H0.713806V5.55925H2.14135V9.25987ZM6.78097 9.25987C8.48688 9.25987 9.27917 8.55305 9.27917 7.0395V4.81913C9.27917 4.28624 9.07931 4.079 8.5654 4.079H5.71031V1.48857C5.71031 0.955678 5.51045 0.748444 4.99654 0.748444H4.59326L4.54329 1.11851L4.28277 3.10574L2.85522 5.30021V9.25987H6.78097Z" fill="#55566B"/>
</svg>
