<svg width="30" height="30" viewBox="0 0 30 30" fill="none" xmlns="http://www.w3.org/2000/svg">
<g filter="url(#filter0_d_801_3713)">
<circle cx="15.3332" cy="15.3334" r="10.6667" fill="url(#paint0_linear_801_3713)"/>
<path fill-rule="evenodd" clip-rule="evenodd" d="M10.7619 18.381H13.8095V19.1429H10.7619C10.3413 19.1424 10.0005 18.8015 10 18.381V10.7619C10.0004 10.3413 10.3413 10.0004 10.7619 10H18.381C18.8015 10.0005 19.1424 10.3413 19.1429 10.7619V13.0476H18.381V10.7619H10.7619V15.0164L12.128 13.6505C12.4255 13.353 12.9078 13.353 13.2054 13.6505L15.3333 15.7783L14.7946 16.3184L12.6667 14.1905L10.7619 16.0939V18.381ZM16.857 12.6667C16.857 13.2978 16.3453 13.8095 15.7141 13.8095C15.0833 13.8088 14.572 13.2976 14.5713 12.6667C14.5713 12.0355 15.083 11.5238 15.7141 11.5238C16.3453 11.5238 16.857 12.0355 16.857 12.6667ZM16.0952 12.6667C16.0952 12.4563 15.9247 12.2857 15.7143 12.2857C15.504 12.2859 15.3335 12.4563 15.3333 12.6667C15.3333 12.8771 15.5039 13.0476 15.7143 13.0476C15.9247 13.0476 16.0952 12.8771 16.0952 12.6667ZM16.3488 15.8073C16.7409 15.047 17.5254 14.5699 18.3808 14.5714C19.3678 14.5709 20.2435 15.2043 20.5521 16.1418C20.8606 17.0793 20.5323 18.1089 19.738 18.6947C18.9436 19.2805 17.8629 19.29 17.0585 18.7182L15.11 20.6667L14.5713 20.128L16.5199 18.1795C16.0227 17.4833 15.9567 16.5676 16.3488 15.8073ZM16.8571 16.8571C16.8571 17.6987 17.5393 18.381 18.3809 18.381C19.2221 18.38 19.9038 17.6983 19.9047 16.8571C19.9047 16.0156 19.2225 15.3333 18.3809 15.3333C17.5393 15.3333 16.8571 16.0156 16.8571 16.8571Z" fill="#55566B"/>
</g>
<defs>
<filter id="filter0_d_801_3713" x="0.666504" y="0.666687" width="29.3334" height="29.3333" filterUnits="userSpaceOnUse" color-interpolation-filters="sRGB">
<feFlood flood-opacity="0" result="BackgroundImageFix"/>
<feColorMatrix in="SourceAlpha" type="matrix" values="0 0 0 0 0 0 0 0 0 0 0 0 0 0 0 0 0 0 127 0" result="hardAlpha"/>
<feOffset/>
<feGaussianBlur stdDeviation="2"/>
<feColorMatrix type="matrix" values="0 0 0 0 0.333333 0 0 0 0 0.337255 0 0 0 0 0.419608 0 0 0 0.502974 0"/>
<feBlend mode="normal" in2="BackgroundImageFix" result="effect1_dropShadow_801_3713"/>
<feBlend mode="normal" in="SourceGraphic" in2="effect1_dropShadow_801_3713" result="shape"/>
</filter>
<linearGradient id="paint0_linear_801_3713" x1="15.3332" y1="4.66669" x2="15.3332" y2="26" gradientUnits="userSpaceOnUse">
<stop stop-color="white"/>
<stop offset="1" stop-color="#F4F4F6"/>
</linearGradient>
</defs>
</svg>
