<svg width="17" height="12" viewBox="0 0 17 12" fill="none" xmlns="http://www.w3.org/2000/svg">
<path fill-rule="evenodd" clip-rule="evenodd" d="M15.6888 0C16.0047 0 16.2931 0.192151 16.4241 0.489651C16.4738 0.593965 16.5 0.711618 16.5 0.830018V11.1561C16.5 11.2133 16.494 11.2703 16.4821 11.3256C16.4737 11.3686 16.462 11.4111 16.4474 11.4521C16.3285 11.7849 16.0308 12 15.6888 12H1.30961C0.967644 12 0.669889 11.7849 0.551024 11.4521C0.511476 11.3414 0.494785 11.2261 0.501415 11.1094V0.890625C0.494785 0.773926 0.511476 0.658628 0.551024 0.547891C0.669878 0.215062 0.967644 0 1.30961 0H15.6888ZM8.49921 6.90797L15.0048 1.10306H1.99367L8.49921 6.90797ZM5.8515 6L1.56406 9.8257V2.1743L5.8515 6ZM6.66657 6.72729L7.97182 7.89199C8.11913 8.02342 8.30643 8.0958 8.49921 8.0958C8.692 8.0958 8.87929 8.02342 9.02659 7.89199L10.3319 6.7273L15.0048 10.8969H1.99367L6.66657 6.72729ZM15.4374 9.82838L11.1469 6L15.4374 2.17162V9.82838Z" fill="currentColor"/>
</svg>
