<svg width="38" height="38" viewBox="0 0 38 38" fill="none" xmlns="http://www.w3.org/2000/svg">
<g filter="url(#filter0_d_111_2051)">
<circle cx="19" cy="19" r="15" fill="url(#paint0_linear_111_2051)"/>
<path d="M26.5 25.7154L22.3099 21.5253C23.3167 20.3165 23.8188 18.7661 23.7117 17.1966C23.6045 15.6271 22.8964 14.1593 21.7346 13.0986C20.5728 12.0378 19.0468 11.4658 17.4741 11.5016C15.9013 11.5373 14.4028 12.178 13.2904 13.2904C12.178 14.4028 11.5373 15.9013 11.5016 17.4741C11.4658 19.0468 12.0378 20.5728 13.0986 21.7346C14.1593 22.8964 15.6271 23.6045 17.1966 23.7117C18.7661 23.8188 20.3165 23.3167 21.5253 22.3099L25.7154 26.5L26.5 25.7154ZM12.6293 17.6227C12.6293 16.6351 12.9222 15.6697 13.4708 14.8485C14.0195 14.0274 14.7994 13.3873 15.7118 13.0094C16.6243 12.6315 17.6283 12.5326 18.5969 12.7252C19.5656 12.9179 20.4553 13.3935 21.1537 14.0918C21.852 14.7902 22.3276 15.6799 22.5203 16.6486C22.7129 17.6172 22.614 18.6212 22.2361 19.5337C21.8582 20.4461 21.2181 21.226 20.397 21.7747C19.5758 22.3233 18.6104 22.6162 17.6227 22.6162C16.2989 22.6147 15.0296 22.0882 14.0935 21.152C13.1573 20.2159 12.6308 18.9466 12.6293 17.6227Z" fill="#55566B"/>
</g>
<defs>
<filter id="filter0_d_111_2051" x="0" y="0" width="38" height="38" filterUnits="userSpaceOnUse" color-interpolation-filters="sRGB">
<feFlood flood-opacity="0" result="BackgroundImageFix"/>
<feColorMatrix in="SourceAlpha" type="matrix" values="0 0 0 0 0 0 0 0 0 0 0 0 0 0 0 0 0 0 127 0" result="hardAlpha"/>
<feOffset/>
<feGaussianBlur stdDeviation="2"/>
<feColorMatrix type="matrix" values="0 0 0 0 0.333333 0 0 0 0 0.337255 0 0 0 0 0.419608 0 0 0 0.502974 0"/>
<feBlend mode="normal" in2="BackgroundImageFix" result="effect1_dropShadow_111_2051"/>
<feBlend mode="normal" in="SourceGraphic" in2="effect1_dropShadow_111_2051" result="shape"/>
</filter>
<linearGradient id="paint0_linear_111_2051" x1="19" y1="4" x2="19" y2="34" gradientUnits="userSpaceOnUse">
<stop stop-color="white"/>
<stop offset="1" stop-color="#F4F4F6"/>
</linearGradient>
</defs>
</svg>
