<svg width="40" height="40" viewBox="0 0 40 40" fill="none" xmlns="http://www.w3.org/2000/svg">
<path fill-rule="evenodd" clip-rule="evenodd" d="M22.7116 20.4708C21.9816 20.4608 21.3651 21.0586 21.3508 21.7901C21.3363 22.5307 21.9489 23.156 22.691 23.1581C23.4219 23.16 24.0318 22.5562 24.0379 21.8246C24.0439 21.0946 23.4428 20.4808 22.7116 20.4708Z" fill="#51C332"/>
<path fill-rule="evenodd" clip-rule="evenodd" d="M12.8396 11.4991C12.1096 11.49 11.4937 12.0887 11.4807 12.8202C11.4671 13.5611 12.0806 14.1855 12.8227 14.1864C13.5536 14.1873 14.1629 13.5826 14.1677 12.8511C14.1729 12.1208 13.5709 11.5082 12.8396 11.4991Z" fill="#51C332"/>
<path fill-rule="evenodd" clip-rule="evenodd" d="M20.0021 14.1859C20.7333 14.1853 21.3411 13.5797 21.3447 12.8482C21.3483 12.1178 20.7454 11.5065 20.0139 11.4986C19.2839 11.491 18.6692 12.0909 18.6574 12.8224C18.6456 13.5634 19.26 14.1865 20.0021 14.1859Z" fill="#51C332"/>
<path fill-rule="evenodd" clip-rule="evenodd" d="M28.0876 20.4708C27.3576 20.4641 26.7432 21.0646 26.7326 21.7958C26.7217 22.537 27.3367 23.1596 28.0785 23.1581C28.81 23.1566 29.4169 22.5503 29.4196 21.8188C29.4223 21.0882 28.8191 20.4774 28.0876 20.4708Z" fill="#51C332"/>
<mask id="mask0_111_3013" style="mask-type:alpha" maskUnits="userSpaceOnUse" x="0" y="0" width="40" height="40">
<path fill-rule="evenodd" clip-rule="evenodd" d="M0 0H40.0001V40H0V0Z" fill="white"/>
</mask>
<g mask="url(#mask0_111_3013)">
<path fill-rule="evenodd" clip-rule="evenodd" d="M34.09 25.3055C33.6287 26.7653 32.7062 27.8915 31.504 28.807C31.3261 28.9429 31.1381 29.0655 30.9553 29.1953C30.9411 29.2056 30.9323 29.2241 30.9036 29.261C31.4372 30.3309 31.9765 31.4114 32.5464 32.5542C32.4017 32.5013 32.3179 32.4749 32.2377 32.4404C30.8654 31.8533 29.4908 31.2713 28.1239 30.6714C27.8461 30.5494 27.5879 30.5198 27.2907 30.5764C24.6052 31.0897 22.0819 30.6399 19.7672 29.1914C18.2848 28.264 17.1825 26.9932 16.6701 25.2813C16.1898 23.6763 16.3798 22.1334 17.2013 20.6857C18.2854 18.7747 19.9824 17.615 22.0308 16.9606C24.5398 16.1592 27.0425 16.2427 29.488 17.2351C31.2026 17.9309 32.6085 19.0226 33.5506 20.6497C33.9577 21.3528 34.2062 22.1107 34.3085 22.9166C34.3188 22.9984 34.3397 23.0789 34.3557 23.16V24.1694C34.2685 24.5486 34.2068 24.9357 34.09 25.3055ZM14.752 24.9477C14.7717 25.0467 14.7835 25.1472 14.8159 25.3566C13.9987 25.1396 13.2515 24.9502 12.5105 24.7389C12.3023 24.6796 12.1286 24.6699 11.9228 24.7601C10.8468 25.2328 9.76391 25.689 8.68342 26.1505C8.59958 26.1862 8.51453 26.2192 8.34716 26.287C8.83475 25.3079 9.28783 24.3981 9.74333 23.4838C9.35865 23.1793 8.9658 22.8957 8.60382 22.5773C7.08386 21.2389 6.06269 19.6082 5.74005 17.5822C5.4722 15.9 5.76608 14.3023 6.57055 12.8156C7.87501 10.4061 9.9446 8.91434 12.5054 8.08414C15.2902 7.18101 18.0816 7.23185 20.8249 8.25969C23.2807 9.17977 25.2289 10.7227 26.4014 13.1243C26.6445 13.6222 26.8037 14.1613 27.0234 14.739C26.7171 14.7145 26.4901 14.6927 26.2625 14.6788C23.13 14.4893 20.2801 15.2617 17.8165 17.2447C16.3619 18.416 15.3425 19.9057 14.8616 21.7283C14.5817 22.7892 14.5393 23.866 14.752 24.9477ZM20.0001 -0.000488281C8.95419 -0.000488281 0 8.9537 0 19.9996C0 31.0454 8.95419 39.9996 20.0001 39.9996C31.0459 39.9996 40.0001 31.0454 40.0001 19.9996C40.0001 8.9537 31.0459 -0.000488281 20.0001 -0.000488281Z" fill="#51C332"/>
</g>
</svg>
