<svg width="12" height="12" viewBox="0 0 12 12" fill="none" xmlns="http://www.w3.org/2000/svg">
<path fill-rule="evenodd" clip-rule="evenodd" d="M11.1429 0H6C5.77274 0.000226919 5.55486 0.0906056 5.39416 0.251302C5.23346 0.411998 5.14308 0.629884 5.14286 0.857143V5.14286H0.857143C0.629884 5.14308 0.411998 5.23346 0.251302 5.39416C0.0906056 5.55486 0.000226919 5.77274 0 6V12H12V0.857143C11.9997 0.629894 11.9093 0.412028 11.7487 0.251339C11.588 0.0906505 11.3701 0.000260886 11.1429 0ZM3 11.1429V8.14286H4.71429V11.1429H3ZM11.1429 11.1429H5.57143V7.71429C5.57143 7.60062 5.52628 7.49161 5.4459 7.41124C5.36553 7.33087 5.25652 7.28571 5.14286 7.28571H2.57143C2.45776 7.28571 2.34876 7.33087 2.26838 7.41124C2.18801 7.49161 2.14286 7.60062 2.14286 7.71429V11.1429H0.857143V6H6V0.857143H11.1429V11.1429ZM7.71334 2.5719H6.8562V3.42904H7.71334V2.5719ZM9.43286 2.5719H10.29V3.42904H9.43286V2.5719ZM7.71334 5.14233H6.8562V5.99948H7.71334V5.14233ZM9.43286 5.14233H10.29V5.99948H9.43286V5.14233ZM7.71334 7.71643H6.8562V8.57357H7.71334V7.71643ZM9.43286 7.71643H10.29V8.57357H9.43286V7.71643Z" fill="#55566B"/>
</svg>
