<svg width="12" height="12" viewBox="0 0 12 12" fill="none" xmlns="http://www.w3.org/2000/svg">
<path fill-rule="evenodd" clip-rule="evenodd" d="M2.66658 1.01118C3.65328 0.351894 4.81331 0 6 0C7.59075 0.00179224 9.11583 0.634509 10.2407 1.75934C11.3655 2.88417 11.9982 4.40925 12 6C12 7.18669 11.6481 8.34672 10.9888 9.33342C10.3295 10.3201 9.39246 11.0891 8.2961 11.5433C7.19975 11.9974 5.99335 12.1162 4.82946 11.8847C3.66557 11.6532 2.59648 11.0818 1.75736 10.2426C0.918247 9.40352 0.346802 8.33443 0.115291 7.17054C-0.11622 6.00665 0.0025997 4.80026 0.456725 3.7039C0.910851 2.60754 1.67989 1.67047 2.66658 1.01118ZM3.42857 9.85714V10.4471C4.20893 10.9027 5.09635 11.1429 6 11.1429C6.90365 11.1429 7.79107 10.9027 8.57143 10.4471V9.85714C8.57106 9.51626 8.43548 9.18945 8.19444 8.94842C7.9534 8.70738 7.62659 8.5718 7.28572 8.57143H4.71429C4.37341 8.5718 4.0466 8.70738 3.80556 8.94842C3.56453 9.18945 3.42895 9.51626 3.42857 9.85714ZM8.78755 8.33195C9.18778 8.72684 9.41684 9.26316 9.42536 9.82534C10.2025 9.13138 10.7506 8.21772 10.997 7.20534C11.2434 6.19297 11.1765 5.12963 10.8051 4.15614C10.4337 3.18265 9.77541 2.34491 8.91734 1.75387C8.05928 1.16283 7.04193 0.846354 6 0.846354C4.95808 0.846354 3.94073 1.16283 3.08266 1.75387C2.2246 2.34491 1.56629 3.18265 1.19492 4.15614C0.823545 5.12963 0.756619 6.19297 1.003 7.20534C1.24939 8.21772 1.79746 9.13138 2.57464 9.82534C2.58316 9.26316 2.81222 8.72684 3.21246 8.33195C3.61269 7.93707 4.15204 7.71524 4.71429 7.71428H7.28572C7.84796 7.71524 8.38732 7.93707 8.78755 8.33195ZM4.80928 2.9323C5.16167 2.69684 5.57597 2.57117 5.99979 2.57117C6.56811 2.57117 7.11316 2.79693 7.51502 3.1988C7.91688 3.60066 8.14265 4.1457 8.14265 4.71402C8.14265 5.13784 8.01697 5.55214 7.78151 5.90453C7.54605 6.25692 7.21138 6.53158 6.81983 6.69376C6.42827 6.85595 5.99741 6.89839 5.58174 6.81571C5.16607 6.73302 4.78425 6.52894 4.48456 6.22925C4.18488 5.92957 3.98079 5.54775 3.89811 5.13207C3.81543 4.7164 3.85786 4.28554 4.02005 3.89399C4.18224 3.50243 4.45689 3.16776 4.80928 2.9323ZM5.28549 5.78306C5.49692 5.92433 5.7455 5.99974 5.99979 5.99974C6.34067 5.99935 6.66747 5.86377 6.9085 5.62273C7.14954 5.3817 7.28512 5.0549 7.28551 4.71402C7.28551 4.45973 7.2101 4.21115 7.06882 3.99972C6.92755 3.78828 6.72675 3.62349 6.49181 3.52618C6.25688 3.42887 5.99836 3.4034 5.74896 3.45301C5.49956 3.50262 5.27046 3.62508 5.09065 3.80489C4.91084 3.9847 4.78839 4.21379 4.73878 4.46319C4.68917 4.7126 4.71463 4.97111 4.81195 5.20604C4.90926 5.44098 5.07405 5.64178 5.28549 5.78306Z" fill="#55566B"/>
</svg>
