<svg width="28" height="28" viewBox="0 0 28 28" fill="none" xmlns="http://www.w3.org/2000/svg">
<path fill-rule="evenodd" clip-rule="evenodd" d="M28 24C28 24.5523 27.5523 25 27 25H1C0.447715 25 0 24.5523 0 24V7C0 6.44772 0.447715 6 1 6H7.46L9.17 3.45C9.35398 3.17061 9.66548 3.00173 10 3H18C18.3345 3.00173 18.646 3.17061 18.83 3.45L20.54 6H27C27.5523 6 28 6.44772 28 7V24ZM2 23H26V8H20C19.6655 7.99827 19.354 7.82939 19.17 7.55L17.46 5H10.54L8.83 7.55C8.64602 7.82939 8.33452 7.99827 8 8H2V23ZM14 21C10.6863 21 8 18.3137 8 15C8 11.6863 10.6863 9 14 9C17.3137 9 20 11.6863 20 15C20 18.3137 17.3137 21 14 21ZM14 11C11.7909 11 10 12.7909 10 15C10 17.2091 11.7909 19 14 19C16.2091 19 18 17.2091 18 15C18 12.7909 16.2091 11 14 11Z" fill="white"/>
</svg>
