<svg width="12" height="12" viewBox="0 0 12 12" fill="none" xmlns="http://www.w3.org/2000/svg">
<path d="M10.6159 11.9956H10.5374C1.47155 11.4742 0.184328 3.82475 0.00439445 1.49022C-0.0101039 1.30871 0.0113559 1.12612 0.0675442 0.952916C0.123733 0.779712 0.213545 0.619297 0.331836 0.480862C0.450127 0.342428 0.594571 0.228695 0.756891 0.14618C0.919212 0.0636647 1.09622 0.0139895 1.27777 4.32575e-07H3.81991C4.00472 -0.000178469 4.18532 0.0551384 4.33832 0.158786C4.49132 0.262433 4.60968 0.409635 4.67806 0.581325L5.37934 2.30684C5.44686 2.47457 5.46362 2.65844 5.42753 2.83561C5.39144 3.01278 5.30409 3.17545 5.17634 3.3034L4.19362 4.29534C4.34713 5.16767 4.76488 5.9718 5.39036 6.59894C6.01585 7.22607 6.81887 7.64594 7.69079 7.80174L8.69197 6.8098C8.82184 6.68346 8.98603 6.59815 9.16407 6.56451C9.34211 6.53087 9.52612 6.55039 9.69313 6.62064L11.4325 7.31731C11.6016 7.38784 11.7459 7.50712 11.8469 7.65995C11.948 7.81278 12.0013 7.99223 12 8.17545V10.6115C12 10.9786 11.8542 11.3306 11.5946 11.5902C11.335 11.8498 10.983 11.9956 10.6159 11.9956ZM1.3885 0.922738C1.26614 0.922738 1.14879 0.971346 1.06226 1.05787C0.97574 1.14439 0.927132 1.26174 0.927132 1.38411V1.42102C1.13936 4.15232 2.5004 10.6115 10.5882 11.0728C10.6488 11.0766 10.7096 11.0683 10.767 11.0485C10.8244 11.0288 10.8773 10.9978 10.9228 10.9575C10.9682 10.9173 11.0052 10.8684 11.0317 10.8138C11.0583 10.7591 11.0737 10.6998 11.0772 10.6392V8.17545L9.33788 7.47878L8.01375 8.79368L7.7923 8.766C3.77839 8.26311 3.23397 4.2492 3.23397 4.20768L3.20629 3.98622L4.51658 2.6621L3.82453 0.922738H1.3885Z" fill="#55566B"/>
</svg>
