<svg width="32" height="33" viewBox="0 0 32 33" fill="none" xmlns="http://www.w3.org/2000/svg">
<path fill-rule="evenodd" clip-rule="evenodd" d="M2.28572 25.4762H11.4286V27.7619H2.28572C1.02395 27.7605 0.00144853 26.738 0 25.4762V2.61906C0.00125995 1.35722 1.02387 0.334603 2.28572 0.333344H25.1429C26.4046 0.334792 27.4271 1.35729 27.4286 2.61906V9.4762H25.1429V2.61906H2.28572V15.3825L6.38389 11.2848C7.27649 10.3923 8.72352 10.3923 9.61612 11.2848L16 17.6682L14.3839 19.2887L8 12.9048L2.28572 18.6152V25.4762ZM20.571 8.33335C20.571 10.2269 19.036 11.7619 17.1424 11.7619C15.2498 11.7598 13.7159 10.226 13.7139 8.33335C13.7139 6.4398 15.2489 4.90478 17.1424 4.90478C19.036 4.90478 20.571 6.4398 20.571 8.33335ZM18.2857 8.33333C18.2857 7.70215 17.774 7.19047 17.1429 7.19047C16.5119 7.19104 16.0006 7.70238 16 8.33333C16 8.96451 16.5117 9.47619 17.1429 9.47619C17.774 9.47619 18.2857 8.96451 18.2857 8.33333ZM19.0464 17.7553C20.2228 15.4744 22.5761 14.0431 25.1424 14.0476C28.1034 14.0461 30.7305 15.9461 31.6562 18.7586C32.5819 21.5711 31.5969 24.6601 29.2139 26.4175C26.8309 28.1749 23.5888 28.2033 21.1754 26.488L15.33 32.3333L13.7139 30.7172L19.5596 24.8718C18.0681 22.7834 17.87 20.0361 19.0464 17.7553ZM20.5713 20.9048C20.5713 23.4295 22.618 25.4762 25.1427 25.4762C27.6663 25.4734 29.7113 23.4283 29.7141 20.9048C29.7141 18.38 27.6674 16.3333 25.1427 16.3333C22.618 16.3333 20.5713 18.38 20.5713 20.9048Z" fill="white"/>
</svg>
