<svg width="12" height="9" viewBox="0 0 12 9" fill="none" xmlns="http://www.w3.org/2000/svg">
<path d="M11.1429 0H0.857143C0.629814 0 0.411797 0.0903058 0.251051 0.251051C0.0903058 0.411797 0 0.629814 0 0.857143V7.71429C0 7.94161 0.0903058 8.15963 0.251051 8.32038C0.411797 8.48112 0.629814 8.57143 0.857143 8.57143H11.1429C11.3702 8.57143 11.5882 8.48112 11.7489 8.32038C11.9097 8.15963 12 7.94161 12 7.71429V0.857143C12 0.629814 11.9097 0.411797 11.7489 0.251051C11.5882 0.0903058 11.3702 0 11.1429 0ZM10.2 0.857143L6 3.76286L1.8 0.857143H10.2ZM0.857143 7.71429V1.24714L5.75571 4.63714C5.82746 4.68691 5.91269 4.71358 6 4.71358C6.08731 4.71358 6.17254 4.68691 6.24429 4.63714L11.1429 1.24714V7.71429H0.857143Z" fill="#55566B"/>
</svg>
