<svg width="40" height="40" viewBox="0 0 40 40" fill="none" xmlns="http://www.w3.org/2000/svg">
<mask id="mask0_111_3004" style="mask-type:alpha" maskUnits="userSpaceOnUse" x="0" y="0" width="40" height="40">
<path fill-rule="evenodd" clip-rule="evenodd" d="M0 0H40V40H0V0Z" fill="white"/>
</mask>
<g mask="url(#mask0_111_3004)">
<path fill-rule="evenodd" clip-rule="evenodd" d="M20.1246 32.1824C16.6755 32.1824 14.155 30.6497 14.155 30.6497L7.48438 32.6004L9.53216 26.2212C9.53216 26.2212 7.7377 23.1856 7.7377 19.7912C7.7377 12.9478 13.2809 7.40039 20.1246 7.40039C26.9683 7.40039 32.5158 12.9478 32.5158 19.7912C32.5158 26.635 26.9683 32.1824 20.1246 32.1824ZM20.0003 0C8.95446 0 0 8.95446 0 20.0003C0 31.0458 8.95446 40.0003 20.0003 40.0003C31.0458 40.0003 40.0003 31.0458 40.0003 20.0003C40.0003 8.95446 31.0458 0 20.0003 0Z" fill="#3AAA35"/>
</g>
<path fill-rule="evenodd" clip-rule="evenodd" d="M25.9758 24.8237C25.24 25.6179 23.6753 25.9856 22.9344 25.7783C22.1935 25.5713 19.7441 24.9305 18.1466 23.4406C16.5492 21.9509 15.2553 20.3828 14.7263 19.2263C14.1969 18.0699 14.2263 17.3837 14.2556 17.0605C14.285 16.737 14.4551 15.2385 15.4581 14.596C15.4581 14.596 15.7929 14.3838 15.9672 14.3838H16.9433C16.9433 14.3838 17.2051 14.4295 17.3252 14.7019C17.4454 14.9749 18.2683 16.9083 18.3297 17.0575C18.3909 17.2067 18.5507 17.5756 18.2943 17.9061C18.038 18.2366 17.502 18.8541 17.502 18.8541C17.502 18.8541 17.2898 19.045 17.4738 19.3492C17.6578 19.6534 18.3043 20.6567 19.1502 21.4146C19.9959 22.1724 21.0319 22.7302 21.5479 22.9C22.0645 23.0698 22.1774 22.8434 22.3757 22.5886C22.5736 22.334 23.1889 21.5562 23.1889 21.5562C23.1889 21.5562 23.4014 21.2448 23.8185 21.4357C24.2358 21.6267 26.2658 22.6101 26.2658 22.6101C26.2658 22.6101 26.5133 22.6524 26.5276 22.9282C26.5415 23.2042 26.7116 24.0295 25.9758 24.8237ZM20.1254 9.38379C14.3797 9.38379 9.71875 14.0405 9.71875 19.7904C9.71875 23.1554 11.7493 25.9628 11.7493 25.9628L10.4236 29.661L14.3921 28.4749C14.3921 28.4749 16.9423 30.1973 20.1254 30.1973C25.8756 30.1973 30.5323 25.5364 30.5323 19.7904C30.5323 14.0405 25.8756 9.38379 20.1254 9.38379Z" fill="#3AAA35"/>
</svg>
