<svg width="10" height="10" viewBox="0 0 10 10" fill="none" xmlns="http://www.w3.org/2000/svg">
<path fill-rule="evenodd" clip-rule="evenodd" d="M1.43486 6.66112H3.57618V8.51143C3.5013 9.25127 4.01899 9.91399 4.73249 9.99167C4.82258 10.0028 4.91363 10.0028 5.00372 9.99167H5.56403C5.80939 9.9847 6.0192 9.8067 6.07438 9.5587V9.51429L6.43126 7.1681L7.69464 5.18087H10.0001V0H3.21929C0.564063 0 0.00732136 1.60977 0.00732136 2.9605V5.18087C-0.0675545 5.92071 0.450131 6.58343 1.16363 6.66112C1.25373 6.67222 1.34477 6.67222 1.43486 6.66112ZM7.85877 0.740127H9.28632V4.44075H7.85877V0.740127ZM3.21915 0.740122C1.51324 0.740122 0.720955 1.44694 0.720955 2.96049V5.18087C0.720955 5.71375 0.920811 5.92099 1.43473 5.92099H4.28981V8.51142C4.28981 9.04431 4.48967 9.25155 5.00358 9.25155H5.40686L5.45683 8.88148L5.71735 6.89425L7.1449 4.69978V0.740122H3.21915Z" fill="#55566B"/>
</svg>
