<svg width="13" height="12" viewBox="0 0 13 12" fill="none" xmlns="http://www.w3.org/2000/svg">
<path fill-rule="evenodd" clip-rule="evenodd" d="M3.16658 10.9888C4.15328 11.6481 5.31331 12 6.5 12C8.0913 12 9.61742 11.3679 10.7426 10.2426C11.8679 9.11742 12.5 7.5913 12.5 6C12.5 4.81331 12.1481 3.65328 11.4888 2.66658C10.8295 1.67989 9.89246 0.910851 8.7961 0.456725C7.69975 0.0025997 6.49335 -0.11622 5.32946 0.115291C4.16557 0.346802 3.09648 0.918247 2.25736 1.75736C1.41825 2.59648 0.846802 3.66557 0.615291 4.82946C0.38378 5.99335 0.5026 7.19975 0.956725 8.2961C1.41085 9.39246 2.17989 10.3295 3.16658 10.9888ZM3.64278 1.72387C4.48852 1.15877 5.48284 0.857145 6.5 0.857145C7.86397 0.857145 9.17208 1.39898 10.1366 2.36345C11.101 3.32793 11.6429 4.63603 11.6429 6C11.6429 7.01716 11.3412 8.01148 10.7761 8.85722C10.211 9.70296 9.40782 10.3621 8.46809 10.7514C7.52835 11.1406 6.4943 11.2425 5.49668 11.044C4.49906 10.8456 3.58269 10.3558 2.86345 9.63655C2.14421 8.91731 1.6544 8.00094 1.45596 7.00332C1.25753 6.00571 1.35937 4.97165 1.74862 4.03192C2.13787 3.09218 2.79705 2.28898 3.64278 1.72387ZM6.5 2.57143C6.37285 2.57143 6.24857 2.60913 6.14285 2.67977C6.03713 2.75041 5.95473 2.85081 5.90608 2.96827C5.85742 3.08574 5.84469 3.215 5.86949 3.3397C5.8943 3.4644 5.95553 3.57895 6.04543 3.66885C6.13534 3.75876 6.24988 3.81999 6.37458 3.84479C6.49929 3.8696 6.62854 3.85686 6.74601 3.80821C6.86348 3.75955 6.96388 3.67715 7.03452 3.57144C7.10515 3.46572 7.14286 3.34143 7.14286 3.21429C7.14286 3.04379 7.07513 2.88028 6.95457 2.75972C6.83401 2.63916 6.6705 2.57143 6.5 2.57143ZM6.92857 8.57143V5.14286H5.21428V6H6.07143V8.57143H4.78571V9.42857H8.21428V8.57143H6.92857Z" fill="white"/>
</svg>
