<svg width="30" height="30" viewBox="0 0 30 30" fill="none" xmlns="http://www.w3.org/2000/svg">
<path fill-rule="evenodd" clip-rule="evenodd" d="M0 17.1429H2.14286V3.21429C2.14286 2.57143 2.57143 2.14286 3.21429 2.14286H17.1429V0H3.21429C1.39286 0 0 1.39286 0 3.21429V17.1429ZM6.42857 4.28571H27.8571C29.1429 4.28571 30 5.14286 30 6.42857V21.4286C30 22.7143 29.1429 23.5714 27.8571 23.5714H21.2143L16.7143 30L15 28.7143L20.1429 21.4286H27.8571V6.42857H6.42857V21.4286H15V23.5714H6.42857C5.14286 23.5714 4.28571 22.7143 4.28571 21.4286V6.42857C4.28571 5.14286 5.14286 4.28571 6.42857 4.28571Z" fill="#1E1F31"/>
</svg>
