<svg width="24" height="24" viewBox="0 0 24 24" fill="none" xmlns="http://www.w3.org/2000/svg">
<path fill-rule="evenodd" clip-rule="evenodd" d="M13.5 22.5H4.5C4.10232 22.4995 3.72105 22.3414 3.43984 22.0602C3.15864 21.7789 3.00046 21.3977 3 21V3C3.00046 2.60232 3.15864 2.22105 3.43984 1.93984C3.72105 1.65864 4.10232 1.50046 4.5 1.5H13.5C13.8977 1.50046 14.279 1.65864 14.5602 1.93984C14.8414 2.22105 14.9995 2.60232 15 3V5.25H13.5V3H4.5V21H13.5V18.75H15V21C14.9995 21.3977 14.8414 21.7789 14.5602 22.0602C14.279 22.3414 13.8977 22.4995 13.5 22.5ZM18.129 12.75L15.4395 15.4395L16.5 16.5L21 12L16.5 7.5L15.4395 8.5605L18.129 11.25H8.25C7.83579 11.25 7.5 11.5858 7.5 12C7.5 12.4142 7.83579 12.75 8.25 12.75H18.129Z" fill="currentColor"/>
</svg>
