<svg width="76" height="20" viewBox="0 0 76 20" fill="none" xmlns="http://www.w3.org/2000/svg">
<path fill-rule="evenodd" clip-rule="evenodd" d="M56.0555 0.325893L58.7955 1.8699C58.887 1.92143 58.9434 2.01671 58.9434 2.11989V4.86279C58.9434 4.97212 58.8801 5.07206 58.7799 5.12093L57.5524 5.72022C57.4608 5.7649 57.352 5.76017 57.2648 5.70756C57.1777 5.65496 57.1246 5.56206 57.1246 5.46204V2.97867L55.9077 2.29302L54.6912 2.97867V5.46204C54.6912 5.5621 54.6382 5.65499 54.551 5.70756C54.5035 5.73619 54.4496 5.75066 54.3956 5.75066C54.3504 5.75066 54.3051 5.74058 54.2634 5.72018L53.0363 5.12093C52.9362 5.07202 52.8729 4.97212 52.8729 4.86279V2.11989C52.8729 2.01675 52.9293 1.92147 53.0207 1.8699L55.7599 0.325932C55.8514 0.274365 55.964 0.274365 56.0555 0.325893ZM31.7803 2.71543H32.0398C32.35 2.71543 32.6262 2.88793 32.7605 3.16557C32.8949 3.44324 32.8579 3.76515 32.6642 4.00561L26.3665 11.8227V18.4881C26.3665 18.8286 26.0875 19.1057 25.7446 19.1057H25.1244C24.7815 19.1057 24.5025 18.8286 24.5025 18.4881V11.7638L18.4398 3.99599C18.2514 3.75456 18.2185 3.4343 18.3538 3.16003C18.4892 2.88581 18.7643 2.71543 19.0718 2.71543H19.3576C19.6051 2.71543 19.8346 2.82642 19.9871 3.01993L25.5678 10.0945L31.1509 3.01977C31.3034 2.82642 31.5327 2.71543 31.7803 2.71543ZM7.35967 3.32249C2.41966 3.32249 0.66684 7.75668 0.66684 11.5538V18.9229C0.66684 19.3584 1.01676 19.7127 1.44692 19.7127H1.65557C2.08573 19.7127 2.43569 19.3584 2.43569 18.9229V11.5538C2.43569 8.44029 3.7292 5.11333 7.35967 5.11333C10.9673 5.11333 12.2527 8.44029 12.2527 11.5538V18.9229C12.2527 19.3584 12.6026 19.7127 13.0328 19.7127H13.2418C13.6719 19.7127 14.0219 19.3584 14.0219 18.9229V11.5538C14.0219 9.44275 13.4988 7.48648 12.549 6.04512C11.3752 4.26397 9.5807 3.32249 7.35967 3.32249ZM69.8204 10.2761L69.8794 10.0177C72.1812 10.5389 75.3335 11.2528 75.3335 14.826C75.3335 17.9315 73.2344 19.7127 69.5743 19.7127C66.9489 19.7127 65.0877 18.7014 63.8847 16.6209C63.7222 16.3402 63.7986 15.988 64.0623 15.802L64.4716 15.5132C64.6134 15.4134 64.7921 15.3782 64.9609 15.4155C65.1312 15.4536 65.2784 15.5627 65.3647 15.715C66.2622 17.2985 67.5213 17.9741 69.5743 17.9741C72.2431 17.9741 73.5964 16.915 73.5964 14.826C73.5964 12.8575 72.283 12.3445 69.4954 11.7132C67.3147 11.2197 64.6006 10.6054 64.6006 7.66592C64.6006 4.81443 66.9965 3.32249 69.3632 3.32249C71.3359 3.32249 72.8187 3.95027 74.0296 5.29826C74.1443 5.42606 74.2016 5.59741 74.1866 5.76847C74.1717 5.93873 74.0864 6.09674 73.9524 6.20198L73.5567 6.51189C73.3044 6.70963 72.9375 6.67926 72.7214 6.44277C71.8604 5.50013 70.7932 5.06108 69.3632 5.06108C67.9061 5.06108 66.3378 5.87624 66.3378 7.66592C66.3378 9.0691 67.4168 9.4601 69.8788 10.0176L69.8204 10.2761ZM55.8906 6.96474H55.3183C54.974 6.96474 54.6939 7.24473 54.6939 7.58877V19.0887C54.6939 19.4327 54.974 19.7127 55.3183 19.7127H55.8906C56.2348 19.7127 56.515 19.4327 56.515 19.0887V7.58877C56.515 7.24473 56.2348 6.96474 55.8906 6.96474ZM38.5728 6.04468C39.7546 4.26381 41.5614 3.32249 43.7975 3.32249C45.688 3.32249 47.3037 4.02452 48.4698 5.35286C48.5812 5.47976 48.6363 5.64946 48.6211 5.81844C48.606 5.98686 48.5217 6.14315 48.39 6.24716L47.9505 6.59425C47.7002 6.79238 47.3377 6.76024 47.1256 6.52091C46.2981 5.58688 45.1783 5.11333 43.7975 5.11333C40.159 5.11333 38.8628 8.44029 38.8628 11.5538V18.9229C38.8628 19.3584 38.5121 19.7127 38.081 19.7127H37.8715C37.4404 19.7127 37.0897 19.3584 37.0897 18.9229V11.5538C37.0897 9.44251 37.6164 7.48596 38.5728 6.04468Z" fill="white"/>
</svg>
