<svg width="11" height="12" viewBox="0 0 11 12" fill="none" xmlns="http://www.w3.org/2000/svg">
<path fill-rule="evenodd" clip-rule="evenodd" d="M6.41841 1.21044C8.67559 1.29237 10.6034 3.03269 10.9467 5.29851C11.2801 7.49825 10.0125 9.66663 7.92274 10.4713C5.8256 11.2789 3.45364 10.5254 2.21699 8.65889C2.03058 8.37752 2.03778 8.16778 2.23838 8.03223C2.4377 7.89761 2.63475 7.97328 2.82831 8.24556C3.82757 9.65128 5.19567 10.2755 6.88841 9.98134C8.63 9.67859 9.73291 8.59296 10.1548 6.87796C10.667 4.79567 9.33915 2.63782 7.24888 2.08428C5.14875 1.52809 2.94542 2.74196 2.33759 4.79024C2.3316 4.81044 2.32667 4.83094 2.3185 4.86487C2.31345 4.88584 2.30718 4.91193 2.29865 4.94624C2.34114 4.90614 2.37853 4.87009 2.41281 4.83705C2.48033 4.77196 2.53575 4.71852 2.59425 4.6687C2.76632 4.52217 2.95013 4.51104 3.11034 4.67479C3.27071 4.83871 3.26074 5.02873 3.10402 5.19038C2.75884 5.54642 2.4074 5.89664 2.05257 6.24316C1.86959 6.42181 1.67371 6.41162 1.49361 6.23413C1.15341 5.89886 0.814046 5.56265 0.480828 5.22046C0.292753 5.02734 0.284166 4.81401 0.454958 4.66421C0.639044 4.50273 0.827784 4.52765 0.992039 4.69723C1.09128 4.79971 1.18473 4.90776 1.28964 5.02906C1.33921 5.08638 1.39134 5.14666 1.44785 5.21071C1.46416 5.1567 1.47774 5.11361 1.48917 5.07731C1.50873 5.01523 1.52202 4.97302 1.53206 4.93006C2.05922 2.67017 4.08755 1.12585 6.41841 1.21044ZM6.56767 4.77605C6.56763 4.95072 6.5676 5.1254 6.56782 5.30007C6.56789 5.3638 6.56787 5.42754 6.56785 5.49968C6.56783 5.53909 6.56782 5.58101 6.56782 5.6268C6.67174 5.6268 6.77196 5.62679 6.86973 5.62678C7.05831 5.62675 7.23781 5.62673 7.41734 5.6268C7.44445 5.62682 7.47158 5.62645 7.49872 5.62607C7.56337 5.62517 7.62803 5.62428 7.69234 5.62869C7.92396 5.64453 8.08406 5.7581 8.08417 6.00063C8.08433 6.24355 7.92324 6.36697 7.69212 6.37102C7.20639 6.37955 6.72022 6.38071 6.2346 6.37002C5.96648 6.36415 5.83624 6.22183 5.83463 5.94811C5.8297 5.12307 5.82959 4.29792 5.83347 3.47283C5.83469 3.2113 5.98487 3.05325 6.20574 3.05629C6.4255 3.05934 6.56173 3.21335 6.56405 3.48485C6.56784 3.91523 6.56775 4.34565 6.56767 4.77605Z" fill="white"/>
</svg>
