<svg width="16" height="16" viewBox="0 0 16 16" fill="none" xmlns="http://www.w3.org/2000/svg">
<path fill-rule="evenodd" clip-rule="evenodd" d="M14.3007 8.43552V8V7.55875L15.4009 6.59603C15.8197 6.22695 15.9116 5.60988 15.6187 5.13475L14.2663 2.84254C14.0618 2.4883 13.684 2.26991 13.2749 2.26949C13.1504 2.26854 13.0265 2.28789 12.9082 2.3268L11.5157 2.7967C11.2752 2.63694 11.0244 2.49336 10.765 2.36691L10.4727 0.922825C10.3645 0.378294 9.88166 -0.0104241 9.3266 0.000213077H6.64472C6.08966 -0.0104241 5.60678 0.378294 5.49862 0.922825L5.20636 2.36691C4.94501 2.49333 4.69232 2.6369 4.44994 2.7967L3.08608 2.30388C2.96648 2.27272 2.84263 2.26111 2.71932 2.26949C2.31028 2.26991 1.93247 2.4883 1.72795 2.84254L0.375548 5.13475C0.0996813 5.60867 0.198168 6.2116 0.610498 6.5731L1.69356 7.56448V8V8.44125L0.610498 9.40397C0.186011 9.76843 0.0866989 10.3861 0.375548 10.8653L1.72795 13.1575C1.93247 13.5117 2.31028 13.7301 2.71932 13.7305C2.84388 13.7315 2.96775 13.7121 3.08608 13.6732L4.47859 13.2033C4.71901 13.3631 4.96979 13.5066 5.22929 13.6331L5.52154 15.0772C5.6297 15.6217 6.11258 16.0104 6.66764 15.9998H9.37244C9.92751 16.0104 10.4104 15.6217 10.5185 15.0772L10.8108 13.6331C11.0721 13.5067 11.3248 13.3631 11.5672 13.2033L12.954 13.6732C13.0723 13.7121 13.1962 13.7315 13.3208 13.7305C13.7298 13.7301 14.1076 13.5117 14.3121 13.1575L15.6187 10.8653C15.8946 10.3913 15.7961 9.7884 15.3837 9.4269L14.3007 8.43552ZM13.2749 12.5844L11.3094 11.9197C10.8492 12.3094 10.3234 12.6141 9.75639 12.8194L9.34952 14.8766H6.64472L6.23786 12.8423C5.67536 12.6312 5.15234 12.327 4.69062 11.9426L2.71932 12.5844L1.36693 10.2922L2.92562 8.91688C2.81966 8.32369 2.81966 7.71642 2.92562 7.12323L1.36693 5.7078L2.71932 3.41559L4.68489 4.08033C5.14501 3.6906 5.67088 3.38594 6.23786 3.18064L6.64472 1.12339H9.34952L9.75639 3.15772C10.3189 3.36885 10.8419 3.67298 11.3036 4.05741L13.2749 3.41559L14.6273 5.7078L13.0686 7.08312C13.1746 7.67631 13.1746 8.28358 13.0686 8.87677L14.6273 10.2922L13.2749 12.5844ZM7.99712 11.4383C6.0982 11.4383 4.55882 9.89892 4.55882 8C4.55882 6.10108 6.0982 4.5617 7.99712 4.5617C9.89604 4.5617 11.4354 6.10108 11.4354 8C11.4447 8.91471 11.0854 9.79466 10.4386 10.4415C9.79178 11.0883 8.91183 11.4476 7.99712 11.4383ZM7.99712 5.7078C7.38493 5.69354 6.79358 5.93045 6.36058 6.36345C5.92757 6.79646 5.69066 7.38781 5.70492 8C5.69066 8.61219 5.92757 9.20354 6.36058 9.63655C6.79358 10.0695 7.38493 10.3065 7.99712 10.2922C8.60931 10.3065 9.20066 10.0695 9.63367 9.63655C10.0667 9.20354 10.3036 8.61219 10.2893 8C10.3036 7.38781 10.0667 6.79646 9.63367 6.36345C9.20066 5.93045 8.60931 5.69354 7.99712 5.7078Z" fill="currentColor"/>
</svg>
