<svg width="11" height="11" viewBox="0 0 11 11" fill="none" xmlns="http://www.w3.org/2000/svg">
<path fill-rule="evenodd" clip-rule="evenodd" d="M0.333496 6.42855H1.0954V1.47617C1.0954 1.2476 1.24778 1.09522 1.47635 1.09522H6.42873V0.333313H1.47635C0.828734 0.333313 0.333496 0.828551 0.333496 1.47617V6.42855ZM2.61916 1.85713H10.2382C10.6954 1.85713 11.0001 2.16189 11.0001 2.61903V7.95237C11.0001 8.40951 10.6954 8.71427 10.2382 8.71427H7.87631L6.27631 11L5.66678 10.5428L7.49535 7.95237H10.2382V2.61903H2.61916V7.95237H5.66678V8.71427H2.61916C2.16202 8.71427 1.85726 8.40951 1.85726 7.95237V2.61903C1.85726 2.16189 2.16202 1.85713 2.61916 1.85713Z" fill="#2B2C46"/>
</svg>
