<svg width="11" height="12" viewBox="0 0 11 12" fill="none" xmlns="http://www.w3.org/2000/svg">
<path fill-rule="evenodd" clip-rule="evenodd" d="M0.333008 6.76189H1.09491V1.80951C1.09491 1.58094 1.24729 1.42856 1.47586 1.42856H6.42825V0.666656H1.47586C0.828246 0.666656 0.333008 1.16189 0.333008 1.80951V6.76189ZM2.61868 2.19046H10.2377C10.6949 2.19046 10.9996 2.49522 10.9996 2.95236V8.2857C10.9996 8.74284 10.6949 9.0476 10.2377 9.0476H7.87582L6.27582 11.3333L5.6663 10.8762L7.49487 8.2857H10.2377V2.95236H2.61868V8.2857H5.6663V9.0476H2.61868C2.16153 9.0476 1.85677 8.74284 1.85677 8.2857V2.95236C1.85677 2.49522 2.16153 2.19046 2.61868 2.19046Z" fill="white"/>
</svg>
