<svg width="24" height="24" viewBox="0 0 24 24" fill="none" xmlns="http://www.w3.org/2000/svg">
<path fill-rule="evenodd" clip-rule="evenodd" d="M0 13.7143H1.71429V2.57143C1.71429 2.05714 2.05714 1.71429 2.57143 1.71429H13.7143V0H2.57143C1.11429 0 0 1.11429 0 2.57143V13.7143ZM5.14286 3.42857H22.2857C23.3143 3.42857 24 4.11429 24 5.14286V17.1429C24 18.1714 23.3143 18.8571 22.2857 18.8571H16.9714L13.3714 24L12 22.9714L16.1143 17.1429H22.2857V5.14286H5.14286V17.1429H12V18.8571H5.14286C4.11429 18.8571 3.42857 18.1714 3.42857 17.1429V5.14286C3.42857 4.11429 4.11429 3.42857 5.14286 3.42857Z" fill="#2B2C46"/>
</svg>
