<svg width="18" height="18" viewBox="0 0 18 18" fill="none" xmlns="http://www.w3.org/2000/svg">
<path fill-rule="evenodd" clip-rule="evenodd" d="M0.666504 10.1905H1.85698V2.4524C1.85698 2.09526 2.09508 1.85716 2.45222 1.85716H10.1903V0.666687H2.45222C1.44031 0.666687 0.666504 1.4405 0.666504 2.4524V10.1905ZM4.23786 3.04763H16.1426C16.8569 3.04763 17.3331 3.52382 17.3331 4.23811V12.5714C17.3331 13.2857 16.8569 13.7619 16.1426 13.7619H12.4521L9.95215 17.3333L8.99977 16.6191L11.8569 12.5714H16.1426V4.23811H4.23786V12.5714H8.99977V13.7619H4.23786C3.52357 13.7619 3.04738 13.2857 3.04738 12.5714V4.23811C3.04738 3.52382 3.52357 3.04763 4.23786 3.04763Z" fill="white"/>
</svg>
