<svg width="121" height="96" viewBox="0 0 121 96" fill="currentColor" xmlns="http://www.w3.org/2000/svg">
<g style="mix-blend-mode:multiply">
<path d="M81.7314 54.5169C81.7314 66.4489 71.985 76.1561 60.0049 76.1561C48.0248 76.1561 38.2785 66.4489 38.2785 54.5169C38.2785 42.5849 48.0248 32.8777 60.0049 32.8777C71.985 32.8777 81.7314 42.5849 81.7314 54.5169ZM120.005 24.1972V84.8366C120.005 90.4872 115.363 95.1111 109.689 95.1111H10.3215C4.64805 95.1111 0.00549316 90.4878 0.00549316 84.8366V24.1972C0.00549316 18.5466 4.64748 13.9227 10.3215 13.9227H34.2641L37.8838 5.57484C39.3502 2.1909 42.6961 0 46.3964 0H73.6134C77.3137 0 80.6602 2.1909 82.1272 5.57484L85.7469 13.9227H109.69C115.363 13.9227 120.005 18.546 120.005 24.1972H120.005ZM21.6286 26.4758C21.6286 25.1029 20.5011 23.98 19.1227 23.98H12.2151C10.8366 23.98 9.7092 25.1029 9.7092 26.4758V29.8484C9.7092 31.2214 10.8366 32.3443 12.2151 32.3443H19.1227C20.5011 32.3443 21.6286 31.2214 21.6286 29.8484V26.4758ZM92.258 54.5169C92.258 50.1826 91.4044 45.975 89.7215 42.0118C88.0965 38.1861 85.7719 34.7512 82.8116 31.8029C79.8514 28.8545 76.4027 26.5392 72.5615 24.9207C68.5818 23.2441 64.3578 22.3944 60.0061 22.3944C55.6543 22.3944 51.4298 23.2446 47.4506 24.9207C43.6094 26.5392 40.1607 28.8545 37.2005 31.8029C34.2403 34.7512 31.9156 38.1861 30.2906 42.0118C28.6072 45.9756 27.7541 50.1826 27.7541 54.5169C27.7541 58.8512 28.6077 63.0588 30.2906 67.022C31.9156 70.8477 34.2403 74.2825 37.2005 77.2309C40.1607 80.1793 43.6094 82.4946 47.4506 84.113C51.4303 85.7897 55.6543 86.6394 60.0061 86.6394C64.3578 86.6394 68.5824 85.7892 72.5615 84.113C76.4027 82.4946 79.8514 80.1793 82.8116 77.2309C85.7719 74.2825 88.0965 70.8477 89.7215 67.022C91.405 63.0582 92.258 58.8512 92.258 54.5169Z" fill="currentColor"/>
</g>
</svg>
