<svg width="32" height="28" viewBox="0 0 32 28" fill="none" xmlns="http://www.w3.org/2000/svg">
<path fill-rule="evenodd" clip-rule="evenodd" d="M4.46875 18.293V15C4.46875 14.7241 4.24463 14.5 3.96875 14.5H2.5C1.67284 14.5 1 13.8272 1 13V3C1 2.17286 1.67284 1.5 2.5 1.5H15C15.8271 1.5 16.5 2.17286 16.5 3V8.05052C15.3604 8.28271 14.5 9.29272 14.5 10.5V14.5H8.46874C8.33617 14.5 8.209 14.5527 8.11523 14.6465L4.46875 18.293ZM31 20.5C31 21.3271 30.3271 22 29.5 22H28.0313C27.7549 22 27.5312 22.2241 27.5312 22.5V25.793L23.8848 22.1465C23.791 22.0527 23.6636 22 23.5312 22H17C16.1729 22 15.5 21.3271 15.5 20.5V10.5C15.5 9.84863 15.9182 9.29395 16.5 9.0874C16.6567 9.03172 16.8242 9 17 9H29.5C30.3271 9 31 9.67284 31 10.5V20.5ZM29.5 8H17.5V3.00001C17.5 1.6216 16.3784 0.5 15 0.5H2.50001C1.1211 0.5 0 1.6216 0 3.00001V13C0 14.3784 1.12158 15.5 2.50001 15.5H3.46875V19.5C3.46875 19.7021 3.59032 19.8845 3.77734 19.9619C3.83888 19.9875 3.90406 20 3.96852 20C4.09864 20 4.22656 19.9492 4.32226 19.8535L8.67579 15.5H14.5V20.5C14.5 21.8784 15.6216 23 17 23H23.3242L27.6777 27.3535C27.7734 27.4492 27.9009 27.5 28.0313 27.5C28.0957 27.5 28.1606 27.4876 28.2227 27.4619C28.4092 27.3845 28.5313 27.2021 28.5313 27V23H29.5C30.8784 23 32 21.8784 32 20.5V10.5C32 9.12158 30.8784 8 29.5 8ZM8.78089 8.83569C7.99988 7.87501 7.45643 6.84693 7.12099 5.69775H10.3639C9.98108 6.98658 9.4623 8.01466 8.78089 8.83569ZM12.7622 12.9214C12.7771 12.9265 12.7927 12.9287 12.8083 12.9287C12.8601 12.9287 12.9072 12.9004 12.9319 12.8552L13.4641 11.874C13.4841 11.8369 13.4861 11.7932 13.4702 11.7534C13.4534 11.7144 13.4211 11.685 13.3811 11.6728C11.9548 11.24 10.6133 10.5488 9.68724 9.77219C10.6091 8.68676 11.2976 7.31641 11.7346 5.69799H13.2214C13.299 5.69799 13.3623 5.63526 13.3623 5.55761V4.67138C13.3623 4.59375 13.299 4.53075 13.2214 4.53075H9.34521V3.14061C9.34521 3.06324 9.28222 3 9.20483 3H8.21215C8.13428 3 8.07129 3.06324 8.07129 3.14061V4.53051H4.27758C4.19995 4.53051 4.13695 4.5935 4.13695 4.67089V5.55713C4.13695 5.63452 4.19995 5.69774 4.27758 5.69774H5.79004C6.22875 7.21238 6.94115 8.61033 7.85253 9.74755C7.11499 10.3896 5.87914 11.2534 4.11741 11.8032C4.07641 11.8159 4.04418 11.8464 4.02806 11.8869C4.01269 11.9272 4.01635 11.9717 4.03855 12.0093L4.58202 12.9311C4.60717 12.9736 4.65355 13 4.70289 13C4.7202 13 4.73729 12.9968 4.75145 12.991C6.22729 12.4473 7.65061 11.6289 8.76586 10.6821C9.79761 11.5791 11.2874 12.4138 12.7622 12.9214ZM21.5547 16.8572H24.9556L23.249 12.5316L21.5547 16.8572ZM23.9325 11C23.9777 11 24.0189 11.0281 24.0355 11.0698L27.5536 19.8257C27.5668 19.8437 27.5739 19.8662 27.5739 19.8896C27.5739 19.9502 27.5243 20 27.4638 20H26.2098C26.1647 20 26.1246 19.9727 26.1073 19.9302L25.3583 18.0393H21.1385L20.3895 19.9299C20.3724 19.9727 20.3322 20 20.287 20H19.0365C18.9994 20 18.9647 19.9814 18.9447 19.9504C18.9244 19.9214 18.9198 19.883 18.934 19.8481L22.4745 11.0688C22.4916 11.0269 22.5314 11 22.5765 11H23.9325Z" fill="#55566B"/>
</svg>
