<svg width="12" height="10" viewBox="0 0 12 10" fill="none" xmlns="http://www.w3.org/2000/svg">
<path fill-rule="evenodd" clip-rule="evenodd" d="M9.73688 2.92058C9.74815 2.90342 9.76075 2.88424 9.7761 2.86266L9.77639 2.86209C9.79271 2.88391 9.80597 2.9026 9.81755 2.91893C9.83931 2.9496 9.85517 2.97195 9.8743 2.99114C10.0332 3.15149 10.1926 3.31133 10.3519 3.47117C10.5325 3.65231 10.7131 3.83343 10.893 4.01529C11.0288 4.15234 11.1865 4.20773 11.3672 4.13264C11.5505 4.0564 11.6305 3.90708 11.6302 3.7075C11.6292 3.08098 11.6293 2.45454 11.6294 1.8281C11.6294 1.37229 11.6295 0.916476 11.6291 0.460611C11.6288 0.175094 11.464 0.00207137 11.1811 0.00150034C10.0946 -0.00078379 9.00844 -0.00078379 7.92197 0.00378447C7.83573 0.00406999 7.73838 0.0294809 7.6658 0.0748781C7.42955 0.222776 7.41076 0.516572 7.6194 0.728996C7.84617 0.959696 8.07483 1.18849 8.30353 1.41733C8.41788 1.53175 8.53224 1.64617 8.64638 1.76085C8.66409 1.7788 8.68116 1.79718 8.70477 1.82261C8.71947 1.83844 8.73672 1.85701 8.75824 1.87991C8.7441 1.88909 8.7299 1.89731 8.71609 1.90529C8.68739 1.9219 8.6604 1.93751 8.63926 1.95872C7.44161 3.15854 6.24486 4.35927 5.04801 5.56009C4.89857 5.71003 4.74913 5.85997 4.59968 6.00991C4.59274 6.01686 4.58573 6.02376 4.57872 6.03067C4.55867 6.05039 4.53861 6.07013 4.52027 6.09128C4.42207 6.20434 4.42007 6.30542 4.52567 6.41334C4.76135 6.6546 4.9996 6.89358 5.24068 7.1297C5.34685 7.2342 5.44904 7.22992 5.56119 7.1297C5.5788 7.11382 5.59531 7.09684 5.61187 7.07981C5.61913 7.07234 5.62639 7.06486 5.63377 7.05747L5.63512 7.05611C6.98357 5.70321 8.33202 4.35032 9.6799 2.99657C9.70028 2.97631 9.7164 2.95177 9.73688 2.92058ZM0.0502235 2.30711C0.0343489 2.36967 0.0184742 2.43224 0 2.4935V8.32717C0.0163363 8.3856 0.0300967 8.44529 0.0438521 8.50495C0.0737166 8.63448 0.103557 8.76391 0.159682 8.88022C0.517187 9.61628 1.10468 10.0006 1.93098 10C2.68365 9.99952 3.43626 9.99951 4.18884 9.99949C5.19257 9.99946 6.19624 9.99944 7.19992 9.9983C7.33569 9.9983 7.47231 9.98773 7.60666 9.96832C8.39369 9.85411 9.10073 9.09321 9.12521 8.29548C9.14199 7.74447 9.13882 7.19285 9.13566 6.64129C9.13453 6.44461 9.1334 6.24795 9.13318 6.05132C9.13318 5.91256 9.0623 5.84403 8.92254 5.83661C8.84798 5.83264 8.77311 5.83326 8.69827 5.83387C8.67083 5.8341 8.6434 5.83433 8.61599 5.83433C8.3601 5.83433 8.3083 5.88572 8.3083 6.13783C8.3083 6.30324 8.30841 6.46866 8.30853 6.63407C8.30886 7.10279 8.30919 7.57151 8.30687 8.04023C8.3063 8.14958 8.30061 8.26236 8.27328 8.36714C8.14491 8.86166 7.75325 9.16602 7.23407 9.16687C5.45508 9.17001 3.6761 9.16859 1.89711 9.16659C1.80375 9.16659 1.70726 9.15574 1.61703 9.13147C1.12574 8.99956 0.83342 8.61354 0.832566 8.08048C0.830496 6.78788 0.830834 5.49543 0.831173 4.2029C0.8313 3.7182 0.831427 3.23349 0.831427 2.74875C0.831427 2.50692 0.888355 2.28364 1.03864 2.08921C1.26635 1.79484 1.56636 1.66607 1.93639 1.66721C2.99627 1.67033 4.05599 1.66982 5.11578 1.66931C5.51322 1.66912 5.91067 1.66893 6.30814 1.66893C6.31847 1.66893 6.32881 1.66905 6.33915 1.66918C6.36676 1.66952 6.39439 1.66986 6.42172 1.66779C6.56688 1.65636 6.63519 1.59184 6.64373 1.4468C6.64877 1.35833 6.64773 1.26967 6.64668 1.18098C6.64643 1.15947 6.64618 1.13796 6.64601 1.11645C6.64459 0.896034 6.58026 0.832078 6.35995 0.832078C5.37338 0.831888 4.38669 0.831951 3.40004 0.832015C2.90673 0.832047 2.41343 0.832078 1.92017 0.832078C1.86722 0.832078 1.814 0.832935 1.76134 0.836932C1.02897 0.89118 0.504663 1.26264 0.18046 1.91247C0.119244 2.03509 0.0847337 2.1711 0.0502235 2.30711Z" fill="white"/>
</svg>
