<svg width="16" height="16" viewBox="0 0 16 16" fill="none" xmlns="http://www.w3.org/2000/svg">
<path fill-rule="evenodd" clip-rule="evenodd" d="M14.7972 0.00924418C14.7887 0.00617139 14.7801 0.00310346 14.7715 0.000312494L14.7718 0H10.1658C10.1495 0.0055061 10.1332 0.0109244 10.1168 0.0163371C10.0897 0.0253626 10.0625 0.0343727 10.0355 0.0437491C9.7444 0.14531 9.55892 0.345306 9.51318 0.649362C9.46744 0.952481 9.57835 1.20154 9.82963 1.3831C9.98534 1.4956 10.1642 1.51778 10.3504 1.51778C11.0032 1.51711 11.6559 1.51724 12.3085 1.51737C12.5695 1.51742 12.8305 1.51747 13.0915 1.51747H13.2639C13.269 1.5298 13.2743 1.54201 13.2796 1.55418C13.2832 1.56269 13.2869 1.57117 13.2905 1.57966C13.2689 1.59688 13.2468 1.61354 13.2246 1.63019C13.1757 1.667 13.1267 1.70381 13.084 1.74684C11.6554 3.18824 10.2274 4.63064 8.79949 6.07292C8.44459 6.43139 8.0897 6.78986 7.73481 7.1483C7.5428 7.3422 7.35058 7.53593 7.15835 7.72968C6.77404 8.117 6.3897 8.50437 6.00688 8.89326C5.73712 9.16763 5.68824 9.53294 5.87184 9.83543C6.13942 10.2764 6.71027 10.3182 7.10129 9.92356L14.5306 2.42152C14.5571 2.3949 14.5844 2.36913 14.6166 2.33882C14.632 2.32429 14.6485 2.30873 14.6666 2.29152C14.6666 2.31084 14.6669 2.32706 14.6673 2.34125C14.6678 2.3663 14.6683 2.38504 14.6663 2.40339C14.5466 3.49556 14.4516 4.58928 14.4394 5.68895C14.4344 6.1455 14.7346 6.49144 15.1625 6.50643C15.6049 6.52206 15.9405 6.20175 15.9508 5.73833C15.9547 5.5656 15.9587 5.39286 15.9627 5.22011C15.9814 4.41935 16 3.61845 16 2.81776C16 2.20964 15.969 1.60028 15.9255 0.993418C15.8847 0.429054 15.6463 0.182809 15.0899 0.0653112C15.0463 0.056019 15.0021 0.049588 14.9578 0.0431549C14.9246 0.0383382 14.8915 0.0335204 14.8586 0.0274995C14.8377 0.0237686 14.8174 0.0164929 14.7972 0.00924418ZM6.65735 0.0116066C6.6465 0.00778246 6.63564 0.00395385 6.62471 0.000320783H2.08166C2.04398 0.00756588 2.00622 0.0144228 1.96845 0.0212791C1.88406 0.0366024 1.79967 0.0519232 1.71634 0.0715694C0.751956 0.300315 0.0510725 1.14561 0.00595529 2.1334C0.00282215 2.2009 0.00219552 2.26871 0.00219552 2.33621C0.00210456 3.43333 0.00225127 4.53048 0.00239798 5.62763C0.00275661 8.30959 0.00311526 10.9916 2.32127e-06 13.6735C-0.000937621 14.4497 0.283551 15.0803 0.900467 15.5553C1.1906 15.7784 1.52114 15.9144 1.88365 15.9713C1.90744 15.9748 1.93052 15.9822 1.95366 15.9896C1.96495 15.9932 1.97626 15.9968 1.98767 16H13.9882C13.9923 15.9975 13.9963 15.9945 14.0003 15.9916C14.009 15.9852 14.0177 15.9788 14.0274 15.9769C15.2603 15.7247 15.9524 14.8832 15.9524 13.6332C15.9524 13.3632 15.9524 13.0932 15.9524 12.8233C15.9525 11.7443 15.9525 10.6654 15.9518 9.58638C15.9518 9.50326 15.9493 9.4192 15.937 9.33733C15.885 8.98608 15.6093 8.73327 15.2471 8.70015C14.9125 8.66953 14.5788 8.89015 14.4807 9.2217C14.4475 9.3342 14.4397 9.45763 14.4397 9.57607C14.4384 10.29 14.4384 11.0038 14.4383 11.7176C14.4383 12.3839 14.4383 13.0502 14.4372 13.7166C14.4366 14.1979 14.1352 14.4957 13.6536 14.4957C9.86751 14.4963 6.08143 14.4966 2.29534 14.4957C1.81284 14.4957 1.513 14.1963 1.513 13.7157C1.51237 9.90856 1.51268 6.10114 1.51362 2.29403C1.51362 2.21653 1.51644 2.13653 1.53555 2.06216C1.62454 1.71497 1.90526 1.51842 2.31289 1.5181C3.07025 1.51758 3.82752 1.51754 4.58475 1.51751C5.1905 1.51747 5.79622 1.51744 6.40195 1.51717C6.47464 1.51685 6.54826 1.51623 6.62064 1.5081C6.98283 1.46779 7.26168 1.18374 7.28706 0.832179C7.31463 0.452499 7.08779 0.130318 6.72591 0.0337576C6.70279 0.0276219 6.6801 0.019624 6.65735 0.0116066Z" fill="white"/>
</svg>