<?xml version="1.0" encoding="UTF-8"?>
<svg width="21px" height="18px" viewBox="0 0 21 18" version="1.1" xmlns="http://www.w3.org/2000/svg" xmlns:xlink="http://www.w3.org/1999/xlink">
    <!-- Generator: Sketch 42 (36781) - http://www.bohemiancoding.com/sketch -->
    <title>ic_cam</title>
    <desc>Created with Sketch.</desc>
    <defs></defs>
    <g id="Page-1" stroke="none" stroke-width="1" fill="none" fill-rule="evenodd">
        <g id="2017_03_10-everybag-demo-page---Desktop-Results" transform="translate(-641.000000, -54.000000)" fill-rule="nonzero" fill="#FFFFFF">
            <g id="sectionTrans_1" transform="translate(0.000000, 30.000000)">
                <g id="different" transform="translate(641.000000, 24.000000)">
                    <g id="ic_cam">
                        <path d="M14.18,9.76190476 C14.18,7.72310069 12.5324571,6.07142857 10.5,6.07142857 C8.46754293,6.07142857 6.82,7.72310069 6.82,9.76190476 C6.82,11.8007088 8.46754293,13.452381 10.5,13.452381 C12.5324571,13.452381 14.18,11.8007088 14.18,9.76190476 Z M15.18,9.76190476 C15.18,12.352434 13.0853029,14.452381 10.5,14.452381 C7.91469707,14.452381 5.82,12.352434 5.82,9.76190476 C5.82,7.1713755 7.91469707,5.07142857 10.5,5.07142857 C13.0853029,5.07142857 15.18,7.1713755 15.18,9.76190476 Z" id="Stroke-705"></path>
                        <path d="M17.98,5.95238095 C17.98,6.01795783 18.0333371,6.07142857 18.1,6.07142857 C18.1666629,6.07142857 18.22,6.01795783 18.22,5.95238095 C18.22,5.88680408 18.1666629,5.83333333 18.1,5.83333333 C18.0333371,5.83333333 17.98,5.88680408 17.98,5.95238095 Z M18.98,5.95238095 C18.98,6.43852926 18.5861829,6.83333333 18.1,6.83333333 C17.6138171,6.83333333 17.22,6.43852926 17.22,5.95238095 C17.22,5.46623265 17.6138171,5.07142857 18.1,5.07142857 C18.5861829,5.07142857 18.98,5.46623265 18.98,5.95238095 Z" id="Stroke-707"></path>
                        <path d="M15,3.5 L14.5,2 C14.08264,1.32685714 13.55596,1 13,1 L8,1 C7.44328,1 6.91736,1.32685714 6.5,2 L6,3.5 C5.72264,3.72152381 5.19596,4.04761905 4.5,4 L2.5,4 C1.50996,4.04761905 1,4.55961905 1,5.5 L1,16 C1,16.4887619 1.50996,17 2.5,17 L19,17 C19.48928,17 20,16.4887619 20,16 L20,5.5 C20,4.55961905 19.48928,4.04761905 19,4 L16.5,4 C15.80328,4.04761905 15.27736,3.72152381 15,3.5 Z M16.5,3 L19.0968671,3.00470267 C20.2107251,3.11310861 21,4.16427699 21,5.5 L21,16 C21,17.0411414 20.0414701,18 19,18 L2.5,18 C1.09462154,18 0,17.1769817 0,16 L0,5.5 C0,4.01462282 0.939781483,3.07388751 2.5,3 L4.5682625,3.00233261 C4.77656579,3.01658515 4.97422924,2.96487016 5.15760956,2.86489367 L5.5513167,1.68377223 C5.5759321,1.60992603 5.60908559,1.53920645 5.65010377,1.47304991 C6.22844604,0.540265337 7.0533535,0 8,0 L13,0 C13.9460933,0 14.7717205,0.540534 15.3498962,1.47304991 C15.3909144,1.53920645 15.4240679,1.60992603 15.4486833,1.68377223 L15.8420385,2.86383794 C16.0299633,2.96444139 16.242014,3.01597236 16.5,3 Z" id="Stroke-709"></path>
                    </g>
                </g>
            </g>
        </g>
    </g>
</svg>