<svg width="38px" height="22px" viewBox="0 0 38 22" version="1.1" xmlns="http://www.w3.org/2000/svg" xmlns:xlink="http://www.w3.org/1999/xlink">
    <defs>
        <linearGradient x1="0%" y1="0%" x2="101.999998%" y2="100.999999%" id="linearGradient-1">
            <stop stop-color="#3023AE" offset="0%"></stop>
            <stop stop-color="#C86DD7" offset="100%"></stop>
        </linearGradient>
    </defs>
    <g stroke="none" stroke-width="1" fill="none" fill-rule="evenodd">
        <g id="1.1-Default-stage-—-collapsed" transform="translate(-1149.000000, -727.000000)">
            <g id="Group-3" transform="translate(1032.000000, 650.000000)">
                <g id="Group-2" transform="translate(104.000000, 56.000000)">
                    <g id="Group" transform="translate(13.000000, 21.000000)">
                        <path d="M19,0.36 C6.5348,0.36 0,9.544 0,11 C0,12.4564 6.5348,21.64 19,21.64 C31.4644,21.64 38,12.4564 38,11 C38,9.544 31.4644,0.36 19,0.36 Z M19,19.1848 C14.3364,19.1848 10.5552,15.5204 10.5552,11 C10.5552,6.4796 14.3364,2.8152 19,2.8152 C23.6636,2.8152 27.4444,6.4796 27.4444,11 C27.4444,15.5204 23.6636,19.1848 19,19.1848 Z M23.222,11 C23.222,13.26 21.3312,15.0928 19,15.0928 C16.668,15.0928 14.778,13.26 14.778,11 C14.778,8.74 16.668,6.9076 19,6.9076 C20.26,6.9076 18.2268,10.1508 19,11 C19.6572,11.7212 23.222,9.962 23.222,11 Z"
                              id="Shape" fill="#030104" fill-rule="nonzero"></path>
                        <path d="M19,0.4 C6.5348,0.4 0,9.584 0,11.04 C0,12.4964 6.5348,21.68 19,21.68 C31.4644,21.68 38,12.4964 38,11.04 C38,9.584 31.4644,0.4 19,0.4 Z"
                              id="Shape" fill="url(#linearGradient-1)" fill-rule="nonzero"></path>
                        <path d="M19.2001989,19.2 C14.5612297,19.2 10.8,15.6183364 10.8,11.2 C10.8,6.78166357 14.5612297,3.2 19.2001989,3.2 C23.8391682,3.2 27.6,6.78166357 27.6,11.2 C27.6,15.6183364 23.8391682,19.2 19.2001989,19.2 Z M23.2,11.1998045 C23.2,10.1852905 19.8226433,11.9046865 19.2,11.1998045 C18.4674562,10.3698187 20.393747,7.2 19.2,7.2 C16.9906206,7.2 15.2,8.99093974 15.2,11.1998045 C15.2,13.4086693 16.9906206,15.2 19.2,15.2 C21.4086215,15.2 23.2,13.4086693 23.2,11.1998045 Z"
                              id="Combined-Shape" fill="#FFFFFF"></path>
                    </g>
                </g>
            </g>
        </g>
    </g>
</svg>
