<svg width="16" height="16" viewBox="0 0 16 16" fill="none" xmlns="http://www.w3.org/2000/svg">
<path fill-rule="evenodd" clip-rule="evenodd" d="M15.5816 14.7447C15.8127 14.9758 15.8127 15.3505 15.5816 15.5816C15.3505 15.8127 14.9758 15.8127 14.7447 15.5816L11.3393 12.1761C10.9736 11.8105 10.3931 11.7919 9.95375 12.0647C7.32633 13.6957 3.84738 13.2633 1.70513 10.9169C-0.645315 8.34254 -0.555151 4.37476 1.90981 1.90981C4.37476 -0.555151 8.34254 -0.645315 10.9169 1.70513C13.2633 3.84738 13.6957 7.32633 12.0647 9.95375C11.7919 10.3931 11.8105 10.9736 12.1761 11.3393L15.5816 14.7447ZM6.53094 1.20459C3.58927 1.20459 1.20459 3.58927 1.20459 6.53094C1.20785 9.47124 3.59063 11.854 6.53094 11.8573C9.4726 11.8573 11.8573 9.4726 11.8573 6.53094C11.8573 3.58927 9.4726 1.20459 6.53094 1.20459Z" fill="#2B2C46"/>
</svg>
