<svg width="12" height="10" viewBox="0 0 12 10" fill="none" xmlns="http://www.w3.org/2000/svg">
<path fill-rule="evenodd" clip-rule="evenodd" d="M2.14286 0H9.85714V0.857143H2.14286V0ZM9.85714 2.14286H2.14286V3H9.85714V2.14286ZM2.14286 4.28571H9.85714V5.14286H2.14286V4.28571ZM11.1429 9.42857H0.857143C0.629888 9.42833 0.412008 9.33795 0.251315 9.17726C0.0906207 9.01656 0.000238243 8.79868 0 8.57143V6.42857H0.857143V8.57143H11.1429V6.42857H12V8.57143C11.9998 8.79868 11.9094 9.01656 11.7487 9.17726C11.588 9.33795 11.3701 9.42833 11.1429 9.42857ZM9.85714 6.42857H2.14286V7.28571H9.85714V6.42857Z" fill="#55566B"/>
</svg>
