<?xml version="1.0" encoding="UTF-8"?>
<svg width="77px" height="66px" viewBox="0 0 77 66" version="1.1" xmlns="http://www.w3.org/2000/svg" xmlns:xlink="http://www.w3.org/1999/xlink">
    <!-- Generator: Sketch 42 (36781) - http://www.bohemiancoding.com/sketch -->
    <title>ic_cam_large</title>
    <desc>Created with Sketch.</desc>
    <defs></defs>
    <g id="Page-1" stroke="none" stroke-width="1" fill="none" fill-rule="evenodd" opacity="0.38">
        <g id="2017_03_10-everybag-demo-page---Mobile-Upload-larger" transform="translate(-149.000000, -153.000000)" fill-rule="nonzero" fill="#FFFFFF">
            <g id="Group" transform="translate(80.000000, 153.000000)">
                <g id="ic_cam_large" transform="translate(69.000000, 0.000000)">
                    <path d="M52.995,35.8571429 C52.995,27.7969527 46.505079,21.2678571 38.5,21.2678571 C30.494921,21.2678571 24.005,27.7969527 24.005,35.8571429 C24.005,43.917333 30.494921,50.4464286 38.5,50.4464286 C46.505079,50.4464286 52.995,43.917333 52.995,35.8571429 Z M55.245,35.8571429 C55.245,45.1569527 47.750761,52.6964286 38.5,52.6964286 C29.249239,52.6964286 21.755,45.1569527 21.755,35.8571429 C21.755,26.557333 29.249239,19.0178571 38.5,19.0178571 C47.750761,19.0178571 55.245,26.557333 55.245,35.8571429 Z" id="Stroke-705"></path>
                    <path d="M67.195,21.5714286 C67.195,21.402667 67.060999,21.2678571 66.9,21.2678571 C66.739001,21.2678571 66.605,21.402667 66.605,21.5714286 C66.605,21.7401902 66.739001,21.875 66.9,21.875 C67.060999,21.875 67.195,21.7401902 67.195,21.5714286 Z M69.445,21.5714286 C69.445,22.9798098 68.306681,24.125 66.9,24.125 C65.493319,24.125 64.355,22.9798098 64.355,21.5714286 C64.355,20.1630473 65.493319,19.0178571 66.9,19.0178571 C68.306681,19.0178571 69.445,20.1630473 69.445,21.5714286 Z" id="Stroke-707"></path>
                    <path d="M55.3157895,12.375 L53.4473684,6.75 C51.88776,4.22571429 49.91964,3 47.8421053,3 L29.1578947,3 C27.07752,3 25.11224,4.22571429 23.5526316,6.75 L21.6842105,12.375 C20.64776,13.2057143 18.67964,14.4285714 16.0789474,14.25 L8.60526316,14.25 C4.90564,14.4285714 3,16.3485714 3,19.875 L3,59.25 C3,61.0828571 4.90564,63 8.60526316,63 L70.2631579,63 C72.09152,63 74,61.0828571 74,59.25 L74,19.875 C74,16.3485714 72.09152,14.4285714 70.2631579,14.25 L60.9210526,14.25 C58.31752,14.4285714 56.35224,13.2057143 55.3157895,12.375 Z M60.7670911,12.0052738 L70.2631579,12 C73.8182388,12.3365098 76.25,15.5865703 76.25,19.875 L76.25,59.25 C76.25,62.3242019 73.3354674,65.25 70.2631579,65.25 L8.60526316,65.25 C4.0964363,65.25 0.75,62.7250397 0.75,59.25 L0.75,19.875 C0.75,15.1230771 3.6221351,12.2379035 8.49678765,12.0026164 L16.0789474,12 C17.5389198,12.0949484 18.72505,11.6975858 19.7730991,10.9908453 L21.4173461,6.04073559 C21.4724324,5.87489474 21.5466515,5.71603599 21.6385025,5.56737165 C23.5460895,2.4798693 26.1780835,0.75 29.1578947,0.75 L47.8421053,0.75 C50.8199669,0.75 53.454568,2.48093343 55.3614975,5.56737165 C55.4533485,5.71603599 55.5275676,5.87489474 55.5826539,6.04073559 L57.2269506,10.9909951 C58.2753138,11.6983258 59.4594399,12.0949631 60.7670911,12.0052738 Z" id="Stroke-709"></path>
                </g>
            </g>
        </g>
    </g>
</svg>