<svg width="48" height="48" viewBox="0 0 48 48" fill="none" xmlns="http://www.w3.org/2000/svg">
    <g clip-path="url(#clip0_1_2)">
        <path fill-rule="evenodd" clip-rule="evenodd"
              d="M3.84 34.56C3.84 33.5016 2.9784 32.64 1.92 32.64C0.861598 32.64 0 33.5016 0 34.56V46.08C0 47.1384 0.861598 48 1.92 48H46.08C47.1384 48 48 47.1384 48 46.08V34.56C48 33.5016 47.1384 32.64 46.08 32.64C45.0216 32.64 44.16 33.5016 44.16 34.56V44.16H3.84V34.56Z"
              fill="#AAABB5"/>
        <path d="M25.3584 0.5616L25.2984 0.503998C25.2264 0.439198 25.1496 0.376797 25.068 0.321598C25.0176 0.287998 24.9672 0.259201 24.9072 0.2304C24.852 0.1992 24.7968 0.170399 24.7368 0.1464C24.6744 0.119999 24.612 0.1008 24.5472 0.0839996C24.492 0.0648003 24.4368 0.0503998 24.3792 0.0383987C24.2544 0.0144005 24.1272 0 24.0024 0C23.8776 0 23.7504 0.0119972 23.6256 0.0383987C23.568 0.0503998 23.5128 0.0648003 23.4552 0.0839996C23.3928 0.1008 23.328 0.122402 23.268 0.1464C23.2095 0.169823 23.1527 0.200436 23.092 0.233101L23.088 0.235199C23.0352 0.2616 22.9824 0.290398 22.9368 0.321598C22.8312 0.391197 22.7328 0.472801 22.644 0.5616L11.124 12.0816C10.3752 12.8304 10.3752 14.0472 11.124 14.796C11.4864 15.1584 11.9688 15.3576 12.4824 15.3576C12.996 15.3576 13.4784 15.1584 13.8408 14.796L22.0824 6.5544V38.4C22.0824 39.4584 22.944 40.32 24.0024 40.32C25.0608 40.32 25.9224 39.4584 25.9224 38.4V6.5544L34.164 14.796C34.5264 15.1584 35.0088 15.3576 35.5224 15.3576C36.036 15.3576 36.5184 15.1584 36.8808 14.796C37.6296 14.0472 37.6296 12.8304 36.8808 12.0816L25.3608 0.5616H25.3584Z"
              fill="#AAABB5"/>
    </g>
    <defs>
        <clipPath id="clip0_1_2">
            <rect width="48" height="48" fill="white"/>
        </clipPath>
    </defs>
</svg>
