<svg width="152" height="105" viewBox="0 0 152 105" fill="none" xmlns="http://www.w3.org/2000/svg">
<path fill-rule="evenodd" clip-rule="evenodd" d="M111.96 0.828979L116 4.78553L110.286 10.3814V67.9793C110.284 69.4628 109.681 70.885 108.61 71.9339C107.539 72.9829 106.086 73.5731 104.571 73.5751H45.7546L40.0403 79.171L36 75.2144L111.96 0.828979ZM51.4689 67.9793H104.571V59.5779L93.1429 48.3938L88.612 52.8305C87.5404 53.8799 86.0869 54.4694 84.5714 54.4694C83.0559 54.4694 81.6025 53.8799 80.5309 52.8305L73.7343 46.175L51.4689 67.9793ZM97.1834 44.4272L104.571 51.6623V15.9772L77.78 42.2134L84.5714 48.8644L89.1023 44.4272C90.1739 43.3778 91.6274 42.7882 93.1429 42.7882C94.6584 42.7882 96.1118 43.3778 97.1834 44.4272ZM47.4291 48.393V56.7868H41.7148V12.0199C41.7164 10.5362 42.3189 9.11376 43.3902 8.06466C44.4615 7.01555 45.9141 6.42551 47.4291 6.42403H93.1434V12.0199H47.4291V40.4793L57.6743 30.4462C58.7459 29.3968 60.1993 28.8073 61.7148 28.8073C63.2303 28.8073 64.6838 29.3968 65.7554 30.4462L69.684 34.2934L65.6386 38.2552L61.7148 34.4128L47.4291 48.393Z" fill="#AAABB5"/>
<path d="M2.01444 100.171V88.399H4.30044L7.82844 94.879C8.04444 95.275 8.24844 95.701 8.44044 96.157C8.64444 96.613 8.83644 97.075 9.01644 97.543H9.08844C9.04044 96.907 8.98644 96.247 8.92644 95.563C8.86644 94.867 8.83644 94.195 8.83644 93.547V88.399H10.8344V100.171H8.54844L5.02044 93.691C4.80444 93.295 4.58844 92.869 4.37244 92.413C4.16844 91.957 3.97644 91.495 3.79644 91.027H3.72444C3.79644 91.639 3.86244 92.293 3.92244 92.989C3.98244 93.673 4.01244 94.351 4.01244 95.023V100.171H2.01444ZM17.5492 100.387C16.8172 100.387 16.1332 100.207 15.4972 99.847C14.8612 99.475 14.3452 98.947 13.9492 98.263C13.5532 97.567 13.3552 96.733 13.3552 95.761C13.3552 94.777 13.5532 93.943 13.9492 93.259C14.3452 92.563 14.8612 92.035 15.4972 91.675C16.1332 91.303 16.8172 91.117 17.5492 91.117C18.2932 91.117 18.9832 91.303 19.6192 91.675C20.2552 92.035 20.7712 92.563 21.1672 93.259C21.5632 93.943 21.7612 94.777 21.7612 95.761C21.7612 96.733 21.5632 97.567 21.1672 98.263C20.7712 98.947 20.2552 99.475 19.6192 99.847C18.9832 100.207 18.2932 100.387 17.5492 100.387ZM17.5492 98.695C17.9812 98.695 18.3532 98.575 18.6652 98.335C18.9772 98.095 19.2172 97.753 19.3852 97.309C19.5532 96.865 19.6372 96.349 19.6372 95.761C19.6372 95.173 19.5532 94.657 19.3852 94.213C19.2172 93.769 18.9772 93.427 18.6652 93.187C18.3532 92.935 17.9812 92.809 17.5492 92.809C17.1172 92.809 16.7452 92.935 16.4332 93.187C16.1332 93.427 15.8992 93.769 15.7312 94.213C15.5632 94.657 15.4792 95.173 15.4792 95.761C15.4792 96.349 15.5632 96.865 15.7312 97.309C15.8992 97.753 16.1332 98.095 16.4332 98.335C16.7452 98.575 17.1172 98.695 17.5492 98.695ZM27.9469 100.171V91.333H30.0169V100.171H27.9469ZM28.9729 89.785C28.6129 89.785 28.3129 89.677 28.0729 89.461C27.8449 89.245 27.7309 88.957 27.7309 88.597C27.7309 88.237 27.8449 87.955 28.0729 87.751C28.3129 87.535 28.6129 87.427 28.9729 87.427C29.3449 87.427 29.6449 87.535 29.8729 87.751C30.1009 87.955 30.2149 88.237 30.2149 88.597C30.2149 88.957 30.1009 89.245 29.8729 89.461C29.6449 89.677 29.3449 89.785 28.9729 89.785ZM32.9245 100.171V91.333H34.6345L34.7785 92.539H34.8505C35.2225 92.143 35.6245 91.807 36.0565 91.531C36.5005 91.255 36.9985 91.117 37.5505 91.117C38.2105 91.117 38.7325 91.255 39.1165 91.531C39.5005 91.807 39.7945 92.197 39.9985 92.701C40.4185 92.245 40.8565 91.867 41.3125 91.567C41.7685 91.267 42.2785 91.117 42.8425 91.117C43.7785 91.117 44.4685 91.423 44.9125 92.035C45.3565 92.647 45.5785 93.511 45.5785 94.627V100.171H43.4905V94.897C43.4905 94.165 43.3825 93.649 43.1665 93.349C42.9505 93.049 42.6085 92.899 42.1405 92.899C41.8525 92.899 41.5585 92.989 41.2585 93.169C40.9585 93.349 40.6345 93.625 40.2865 93.997V100.171H38.2165V94.897C38.2165 94.165 38.1025 93.649 37.8745 93.349C37.6585 93.049 37.3165 92.899 36.8485 92.899C36.2965 92.899 35.6785 93.265 34.9945 93.997V100.171H32.9245ZM50.5031 100.387C49.9871 100.387 49.5311 100.279 49.1351 100.063C48.7391 99.847 48.4271 99.547 48.1991 99.163C47.9831 98.767 47.8751 98.311 47.8751 97.795C47.8751 96.799 48.2891 96.049 49.1171 95.545C49.9571 95.029 51.2831 94.675 53.0951 94.483C53.0831 94.183 53.0231 93.907 52.9151 93.655C52.8191 93.403 52.6511 93.205 52.4111 93.061C52.1831 92.905 51.8711 92.827 51.4751 92.827C51.0431 92.827 50.6171 92.905 50.1971 93.061C49.7891 93.217 49.3871 93.415 48.9911 93.655L48.2351 92.251C48.5591 92.047 48.9131 91.861 49.2971 91.693C49.6811 91.513 50.0891 91.375 50.5211 91.279C50.9531 91.171 51.4031 91.117 51.8711 91.117C52.6031 91.117 53.2091 91.267 53.6891 91.567C54.1811 91.855 54.5471 92.287 54.7871 92.863C55.0391 93.427 55.1651 94.123 55.1651 94.951V100.171H53.4551L53.3111 99.199H53.2391C52.8311 99.535 52.4051 99.817 51.9611 100.045C51.5171 100.273 51.0311 100.387 50.5031 100.387ZM51.1511 98.695C51.5111 98.695 51.8411 98.623 52.1411 98.479C52.4531 98.323 52.7711 98.095 53.0951 97.795V95.923C52.2911 96.019 51.6551 96.145 51.1871 96.301C50.7191 96.457 50.3831 96.649 50.1791 96.877C49.9871 97.093 49.8911 97.351 49.8911 97.651C49.8911 98.023 50.0111 98.293 50.2511 98.461C50.4911 98.617 50.7911 98.695 51.1511 98.695ZM60.987 104.077C60.279 104.077 59.649 103.993 59.097 103.825C58.545 103.657 58.107 103.399 57.783 103.051C57.471 102.715 57.315 102.289 57.315 101.773C57.315 101.401 57.423 101.053 57.639 100.729C57.867 100.417 58.179 100.135 58.575 99.883V99.811C58.359 99.667 58.173 99.475 58.017 99.235C57.861 98.995 57.783 98.695 57.783 98.335C57.783 97.999 57.879 97.687 58.071 97.399C58.275 97.111 58.503 96.877 58.755 96.697V96.625C58.455 96.397 58.185 96.079 57.945 95.671C57.717 95.263 57.603 94.801 57.603 94.285C57.603 93.613 57.765 93.043 58.089 92.575C58.413 92.095 58.839 91.735 59.367 91.495C59.895 91.243 60.471 91.117 61.095 91.117C61.335 91.117 61.569 91.135 61.797 91.171C62.025 91.207 62.223 91.261 62.391 91.333H65.559V92.863H63.903V92.935C64.071 93.115 64.203 93.325 64.299 93.565C64.395 93.793 64.443 94.063 64.443 94.375C64.443 95.023 64.293 95.569 63.993 96.013C63.693 96.457 63.291 96.793 62.787 97.021C62.283 97.249 61.719 97.363 61.095 97.363C60.903 97.363 60.705 97.345 60.501 97.309C60.297 97.273 60.093 97.213 59.889 97.129C59.769 97.249 59.667 97.369 59.583 97.489C59.499 97.609 59.457 97.771 59.457 97.975C59.457 98.227 59.565 98.425 59.781 98.569C59.997 98.713 60.369 98.785 60.897 98.785H62.463C63.531 98.785 64.335 98.959 64.875 99.307C65.427 99.643 65.703 100.195 65.703 100.963C65.703 101.539 65.511 102.061 65.127 102.529C64.743 103.009 64.197 103.387 63.489 103.663C62.781 103.939 61.947 104.077 60.987 104.077ZM61.095 96.067C61.371 96.067 61.623 96.001 61.851 95.869C62.091 95.725 62.277 95.521 62.409 95.257C62.553 94.981 62.625 94.657 62.625 94.285C62.625 93.721 62.475 93.289 62.175 92.989C61.887 92.689 61.527 92.539 61.095 92.539C60.663 92.539 60.297 92.689 59.997 92.989C59.697 93.289 59.547 93.721 59.547 94.285C59.547 94.657 59.619 94.981 59.763 95.257C59.907 95.521 60.093 95.725 60.321 95.869C60.549 96.001 60.807 96.067 61.095 96.067ZM61.311 102.727C61.779 102.727 62.193 102.661 62.553 102.529C62.913 102.409 63.195 102.235 63.399 102.007C63.603 101.791 63.705 101.557 63.705 101.305C63.705 100.957 63.567 100.723 63.291 100.603C63.027 100.483 62.643 100.423 62.139 100.423H60.933C60.693 100.423 60.477 100.411 60.285 100.387C60.093 100.363 59.907 100.333 59.727 100.297C59.499 100.477 59.325 100.663 59.205 100.855C59.097 101.047 59.043 101.251 59.043 101.467C59.043 101.863 59.247 102.169 59.655 102.385C60.063 102.613 60.615 102.727 61.311 102.727ZM71.044 100.387C70.216 100.387 69.466 100.207 68.794 99.847C68.134 99.475 67.612 98.947 67.228 98.263C66.844 97.567 66.652 96.727 66.652 95.743C66.652 94.783 66.85 93.961 67.246 93.277C67.642 92.581 68.152 92.047 68.776 91.675C69.4 91.303 70.06 91.117 70.756 91.117C71.56 91.117 72.232 91.297 72.772 91.657C73.312 92.017 73.714 92.515 73.978 93.151C74.254 93.775 74.392 94.495 74.392 95.311C74.392 95.503 74.38 95.689 74.356 95.869C74.344 96.049 74.32 96.223 74.284 96.391H68.2V94.807H72.556C72.556 94.171 72.412 93.673 72.124 93.313C71.836 92.941 71.392 92.755 70.792 92.755C70.456 92.755 70.126 92.845 69.802 93.025C69.49 93.205 69.226 93.511 69.01 93.943C68.806 94.375 68.704 94.975 68.704 95.743C68.704 96.439 68.824 97.009 69.064 97.453C69.304 97.885 69.622 98.209 70.018 98.425C70.414 98.629 70.84 98.731 71.296 98.731C71.68 98.731 72.04 98.677 72.376 98.569C72.724 98.461 73.048 98.311 73.348 98.119L74.068 99.451C73.66 99.739 73.192 99.967 72.664 100.135C72.148 100.303 71.608 100.387 71.044 100.387ZM82.6479 100.387C82.1319 100.387 81.6759 100.279 81.2799 100.063C80.8839 99.847 80.5719 99.547 80.3439 99.163C80.1279 98.767 80.0199 98.311 80.0199 97.795C80.0199 96.799 80.4339 96.049 81.2619 95.545C82.1019 95.029 83.4279 94.675 85.2399 94.483C85.2279 94.183 85.1679 93.907 85.0599 93.655C84.9639 93.403 84.7959 93.205 84.5559 93.061C84.3279 92.905 84.0159 92.827 83.6199 92.827C83.1879 92.827 82.7619 92.905 82.3419 93.061C81.9339 93.217 81.5319 93.415 81.1359 93.655L80.3799 92.251C80.7039 92.047 81.0579 91.861 81.4419 91.693C81.8259 91.513 82.2339 91.375 82.6659 91.279C83.0979 91.171 83.5479 91.117 84.0159 91.117C84.7479 91.117 85.3539 91.267 85.8339 91.567C86.3259 91.855 86.6919 92.287 86.9319 92.863C87.1839 93.427 87.3099 94.123 87.3099 94.951V100.171H85.5999L85.4559 99.199H85.3839C84.9759 99.535 84.5499 99.817 84.1059 100.045C83.6619 100.273 83.1759 100.387 82.6479 100.387ZM83.2959 98.695C83.6559 98.695 83.9859 98.623 84.2859 98.479C84.5979 98.323 84.9159 98.095 85.2399 97.795V95.923C84.4359 96.019 83.7999 96.145 83.3319 96.301C82.8639 96.457 82.5279 96.649 82.3239 96.877C82.1319 97.093 82.0359 97.351 82.0359 97.651C82.0359 98.023 82.1559 98.293 82.3959 98.461C82.6359 98.617 82.9359 98.695 83.2959 98.695ZM92.0338 100.171L88.9558 91.333H91.0618L92.4658 95.923C92.5858 96.343 92.7058 96.781 92.8258 97.237C92.9578 97.681 93.0838 98.131 93.2038 98.587H93.2758C93.4078 98.131 93.5338 97.681 93.6538 97.237C93.7858 96.781 93.9118 96.343 94.0318 95.923L95.4358 91.333H97.4338L94.4278 100.171H92.0338ZM101.023 100.387C100.507 100.387 100.051 100.279 99.6551 100.063C99.2591 99.847 98.9471 99.547 98.7191 99.163C98.5031 98.767 98.3951 98.311 98.3951 97.795C98.3951 96.799 98.8091 96.049 99.6371 95.545C100.477 95.029 101.803 94.675 103.615 94.483C103.603 94.183 103.543 93.907 103.435 93.655C103.339 93.403 103.171 93.205 102.931 93.061C102.703 92.905 102.391 92.827 101.995 92.827C101.563 92.827 101.137 92.905 100.717 93.061C100.309 93.217 99.9071 93.415 99.5111 93.655L98.7551 92.251C99.0791 92.047 99.4331 91.861 99.8171 91.693C100.201 91.513 100.609 91.375 101.041 91.279C101.473 91.171 101.923 91.117 102.391 91.117C103.123 91.117 103.729 91.267 104.209 91.567C104.701 91.855 105.067 92.287 105.307 92.863C105.559 93.427 105.685 94.123 105.685 94.951V100.171H103.975L103.831 99.199H103.759C103.351 99.535 102.925 99.817 102.481 100.045C102.037 100.273 101.551 100.387 101.023 100.387ZM101.671 98.695C102.031 98.695 102.361 98.623 102.661 98.479C102.973 98.323 103.291 98.095 103.615 97.795V95.923C102.811 96.019 102.175 96.145 101.707 96.301C101.239 96.457 100.903 96.649 100.699 96.877C100.507 97.093 100.411 97.351 100.411 97.651C100.411 98.023 100.531 98.293 100.771 98.461C101.011 98.617 101.311 98.695 101.671 98.695ZM108.429 100.171V91.333H110.499V100.171H108.429ZM109.455 89.785C109.095 89.785 108.795 89.677 108.555 89.461C108.327 89.245 108.213 88.957 108.213 88.597C108.213 88.237 108.327 87.955 108.555 87.751C108.795 87.535 109.095 87.427 109.455 87.427C109.827 87.427 110.127 87.535 110.355 87.751C110.583 87.955 110.697 88.237 110.697 88.597C110.697 88.957 110.583 89.245 110.355 89.461C110.127 89.677 109.827 89.785 109.455 89.785ZM115.423 100.351C114.931 100.351 114.535 100.255 114.235 100.063C113.947 99.859 113.737 99.571 113.605 99.199C113.473 98.827 113.407 98.383 113.407 97.867V87.463H115.477V97.975C115.477 98.239 115.525 98.419 115.621 98.515C115.717 98.611 115.825 98.659 115.945 98.659C115.993 98.659 116.035 98.659 116.071 98.659C116.119 98.647 116.179 98.635 116.251 98.623L116.521 100.171C116.401 100.219 116.245 100.261 116.053 100.297C115.873 100.333 115.663 100.351 115.423 100.351ZM120.702 100.387C120.186 100.387 119.73 100.279 119.334 100.063C118.938 99.847 118.626 99.547 118.398 99.163C118.182 98.767 118.074 98.311 118.074 97.795C118.074 96.799 118.488 96.049 119.316 95.545C120.156 95.029 121.482 94.675 123.294 94.483C123.282 94.183 123.222 93.907 123.114 93.655C123.018 93.403 122.85 93.205 122.61 93.061C122.382 92.905 122.07 92.827 121.674 92.827C121.242 92.827 120.816 92.905 120.396 93.061C119.988 93.217 119.586 93.415 119.19 93.655L118.434 92.251C118.758 92.047 119.112 91.861 119.496 91.693C119.88 91.513 120.288 91.375 120.72 91.279C121.152 91.171 121.602 91.117 122.07 91.117C122.802 91.117 123.408 91.267 123.888 91.567C124.38 91.855 124.746 92.287 124.986 92.863C125.238 93.427 125.364 94.123 125.364 94.951V100.171H123.654L123.51 99.199H123.438C123.03 99.535 122.604 99.817 122.16 100.045C121.716 100.273 121.23 100.387 120.702 100.387ZM121.35 98.695C121.71 98.695 122.04 98.623 122.34 98.479C122.652 98.323 122.97 98.095 123.294 97.795V95.923C122.49 96.019 121.854 96.145 121.386 96.301C120.918 96.457 120.582 96.649 120.378 96.877C120.186 97.093 120.09 97.351 120.09 97.651C120.09 98.023 120.21 98.293 120.45 98.461C120.69 98.617 120.99 98.695 121.35 98.695ZM132.392 100.387C131.996 100.387 131.588 100.291 131.168 100.099C130.76 99.895 130.364 99.607 129.98 99.235H129.926L129.746 100.171H128.108V87.463H130.178V90.739L130.124 92.215C130.496 91.891 130.898 91.627 131.33 91.423C131.774 91.219 132.224 91.117 132.68 91.117C133.412 91.117 134.036 91.303 134.552 91.675C135.08 92.047 135.482 92.569 135.758 93.241C136.034 93.901 136.172 94.687 136.172 95.599C136.172 96.607 135.992 97.471 135.632 98.191C135.272 98.899 134.804 99.445 134.228 99.829C133.664 100.201 133.052 100.387 132.392 100.387ZM131.96 98.677C132.356 98.677 132.71 98.563 133.022 98.335C133.334 98.107 133.58 97.771 133.76 97.327C133.94 96.871 134.03 96.307 134.03 95.635C134.03 95.047 133.964 94.543 133.832 94.123C133.7 93.703 133.49 93.385 133.202 93.169C132.926 92.941 132.566 92.827 132.122 92.827C131.798 92.827 131.48 92.911 131.168 93.079C130.856 93.235 130.526 93.481 130.178 93.817V97.939C130.49 98.203 130.802 98.395 131.114 98.515C131.426 98.623 131.708 98.677 131.96 98.677ZM140.533 100.351C140.041 100.351 139.645 100.255 139.345 100.063C139.057 99.859 138.847 99.571 138.715 99.199C138.583 98.827 138.517 98.383 138.517 97.867V87.463H140.587V97.975C140.587 98.239 140.635 98.419 140.731 98.515C140.827 98.611 140.935 98.659 141.055 98.659C141.103 98.659 141.145 98.659 141.181 98.659C141.229 98.647 141.289 98.635 141.361 98.623L141.631 100.171C141.511 100.219 141.355 100.261 141.163 100.297C140.983 100.333 140.773 100.351 140.533 100.351ZM147.469 100.387C146.641 100.387 145.891 100.207 145.219 99.847C144.559 99.475 144.037 98.947 143.653 98.263C143.269 97.567 143.077 96.727 143.077 95.743C143.077 94.783 143.275 93.961 143.671 93.277C144.067 92.581 144.577 92.047 145.201 91.675C145.825 91.303 146.485 91.117 147.181 91.117C147.985 91.117 148.657 91.297 149.197 91.657C149.737 92.017 150.139 92.515 150.403 93.151C150.679 93.775 150.817 94.495 150.817 95.311C150.817 95.503 150.805 95.689 150.781 95.869C150.769 96.049 150.745 96.223 150.709 96.391H144.625V94.807H148.981C148.981 94.171 148.837 93.673 148.549 93.313C148.261 92.941 147.817 92.755 147.217 92.755C146.881 92.755 146.551 92.845 146.227 93.025C145.915 93.205 145.651 93.511 145.435 93.943C145.231 94.375 145.129 94.975 145.129 95.743C145.129 96.439 145.249 97.009 145.489 97.453C145.729 97.885 146.047 98.209 146.443 98.425C146.839 98.629 147.265 98.731 147.721 98.731C148.105 98.731 148.465 98.677 148.801 98.569C149.149 98.461 149.473 98.311 149.773 98.119L150.493 99.451C150.085 99.739 149.617 99.967 149.089 100.135C148.573 100.303 148.033 100.387 147.469 100.387Z" fill="#AAABB5"/>
</svg>
