<svg width="80" height="80" viewBox="0 0 80 80" fill="none" xmlns="http://www.w3.org/2000/svg">
<rect width="80" height="80" rx="4" fill="#D8D7F8"/>
<path fill-rule="evenodd" clip-rule="evenodd" d="M55.2727 50.9091C55.2727 51.5116 54.7843 52 54.1818 52H25.8182C25.2157 52 24.7273 51.5116 24.7273 50.9091V32.3636C24.7273 31.7611 25.2157 31.2727 25.8182 31.2727H32.8654L34.7309 28.4909C34.9316 28.1861 35.2714 28.0019 35.6364 28H44.3636C44.7286 28.0019 45.0684 28.1861 45.2691 28.4909L47.1345 31.2727H54.1818C54.7843 31.2727 55.2727 31.7611 55.2727 32.3636V50.9091ZM26.9091 49.8182H53.0909V33.4545H46.5454C46.1805 33.4527 45.8407 33.2684 45.64 32.9636L43.7745 30.1818H36.2254L34.36 32.9636C34.1593 33.2684 33.8195 33.4527 33.4545 33.4545H26.9091V49.8182ZM40 47.6364C36.385 47.6364 33.4545 44.7059 33.4545 41.0909C33.4545 37.476 36.385 34.5455 40 34.5455C43.6149 34.5455 46.5454 37.476 46.5454 41.0909C46.5454 44.7059 43.6149 47.6364 40 47.6364ZM40 36.7273C37.59 36.7273 35.6364 38.6809 35.6364 41.0909C35.6364 43.5009 37.59 45.4545 40 45.4545C42.41 45.4545 44.3636 43.5009 44.3636 41.0909C44.3636 38.6809 42.41 36.7273 40 36.7273Z" fill="#3E36DC"/>
</svg>
