<svg width="80" height="10" viewBox="0 0 80 10" fill="none" xmlns="http://www.w3.org/2000/svg">
<path fill-rule="evenodd" clip-rule="evenodd" d="M53.4951 2.32957V7.28957H54.9651V3.93957C55.1251 3.78624 55.2718 3.66957 55.4051 3.58957C55.5384 3.5029 55.6984 3.45957 55.8851 3.45957C56.0984 3.45957 56.2518 3.52624 56.3451 3.65957C56.4451 3.7929 56.4951 4.03957 56.4951 4.39957V7.28957H57.9651V4.20957C57.9651 3.58957 57.8451 3.1029 57.6051 2.74957C57.3651 2.38957 56.9718 2.20957 56.4251 2.20957C56.0918 2.20957 55.7951 2.2829 55.5351 2.42957C55.2751 2.57624 55.0418 2.7529 54.8351 2.95957H54.7951L54.6951 2.32957H53.4951ZM59.3778 9.19957C59.4911 9.21957 59.6211 9.22957 59.7677 9.22957C60.1611 9.22957 60.4877 9.15624 60.7477 9.00957C61.0144 8.86957 61.2378 8.65957 61.4177 8.37957C61.6044 8.09957 61.7777 7.7529 61.9377 7.33957L63.6577 2.32957H62.2477L61.6478 4.45957C61.5877 4.6929 61.5277 4.92957 61.4678 5.16957L61.3078 5.86957H61.2677C61.2011 5.6229 61.1377 5.3829 61.0777 5.14957C61.0177 4.91624 60.9511 4.68624 60.8778 4.45957L60.1677 2.32957H58.6877L60.5977 7.15957L60.5277 7.41957C60.4678 7.60624 60.3677 7.75957 60.2277 7.87957C60.0944 8.00624 59.9044 8.06957 59.6577 8.06957C59.6111 8.06957 59.5611 8.06624 59.5077 8.05957C59.4611 8.05957 59.4011 8.04957 59.3277 8.02957L59.0677 9.10957C59.1677 9.14957 59.2711 9.17957 59.3778 9.19957ZM64.4326 2.32957V7.28957H65.9026V4.40957C66.0359 4.06957 66.2026 3.8329 66.4026 3.69957C66.6093 3.56624 66.8059 3.49957 66.9926 3.49957C67.0993 3.49957 67.1893 3.50624 67.2626 3.51957C67.3359 3.52624 67.4126 3.53957 67.4926 3.55957L67.7726 2.30957C67.7059 2.27624 67.6259 2.2529 67.5326 2.23957C67.4393 2.21957 67.3226 2.20957 67.1826 2.20957C66.9226 2.20957 66.6659 2.2929 66.4126 2.45957C66.1659 2.61957 65.9526 2.86624 65.7726 3.19957H65.7326L65.6326 2.32957H64.4326ZM68.417 2.32957V7.28957H69.887V2.32957H68.417ZM68.547 1.38957C68.7003 1.52957 68.9003 1.59957 69.147 1.59957C69.3936 1.59957 69.5936 1.52957 69.747 1.38957C69.9003 1.24957 69.977 1.0629 69.977 0.829571C69.977 0.596237 69.9003 0.40957 69.747 0.269571C69.5936 0.12957 69.3936 0.0595703 69.147 0.0595703C68.9003 0.0595703 68.7003 0.12957 68.547 0.269571C68.3936 0.40957 68.317 0.596237 68.317 0.829571C68.317 1.0629 68.3936 1.24957 68.547 1.38957ZM71.6306 7.21957C71.9773 7.34624 72.314 7.40957 72.6406 7.40957C73.0873 7.40957 73.4606 7.33957 73.7606 7.19957C74.0606 7.0529 74.2873 6.85957 74.4406 6.61957C74.6006 6.37957 74.6806 6.10957 74.6806 5.80957C74.6806 5.53624 74.6206 5.3029 74.5006 5.10957C74.3806 4.91624 74.214 4.75624 74.0006 4.62957C73.794 4.49624 73.564 4.38624 73.3106 4.29957C73.104 4.2329 72.9306 4.1729 72.7906 4.11957C72.6573 4.05957 72.5573 3.99624 72.4906 3.92957C72.424 3.8629 72.3906 3.7829 72.3906 3.68957C72.3906 3.57624 72.4373 3.4829 72.5306 3.40957C72.624 3.33624 72.7673 3.29957 72.9606 3.29957C73.134 3.29957 73.3106 3.32957 73.4906 3.38957C73.6706 3.4429 73.8506 3.5329 74.0306 3.65957L74.6606 2.83957C74.4473 2.6529 74.1906 2.5029 73.8906 2.38957C73.5973 2.26957 73.2706 2.20957 72.9106 2.20957C72.344 2.20957 71.884 2.3529 71.5306 2.63957C71.184 2.91957 71.0106 3.2929 71.0106 3.75957C71.0106 4.01957 71.0706 4.2429 71.1906 4.42957C71.3173 4.61624 71.4806 4.77624 71.6806 4.90957C71.8806 5.0429 72.1006 5.1529 72.3406 5.23957C72.5206 5.30624 72.6806 5.36957 72.8206 5.42957C72.9673 5.4829 73.084 5.54624 73.1706 5.61957C73.264 5.6929 73.3106 5.78624 73.3106 5.89957C73.3106 6.02624 73.2606 6.12957 73.1606 6.20957C73.0606 6.2829 72.9006 6.31957 72.6806 6.31957C72.474 6.31957 72.2573 6.28624 72.0306 6.21957C71.8106 6.14624 71.5873 6.01957 71.3606 5.83957L70.7406 6.66957C70.9873 6.90957 71.284 7.0929 71.6306 7.21957ZM76.2742 3.91957C76.5742 4.0929 76.9076 4.17957 77.2742 4.17957C77.6342 4.17957 77.9642 4.0929 78.2642 3.91957C78.5709 3.74624 78.8109 3.50957 78.9842 3.20957C79.1642 2.9029 79.2542 2.5529 79.2542 2.15957C79.2542 1.76624 79.1642 1.41957 78.9842 1.11957C78.8109 0.812904 78.5709 0.572904 78.2642 0.399571C77.9642 0.226237 77.6342 0.13957 77.2742 0.13957C76.9076 0.13957 76.5742 0.226237 76.2742 0.399571C75.9742 0.572904 75.7342 0.812904 75.5542 1.11957C75.3742 1.41957 75.2842 1.76624 75.2842 2.15957C75.2842 2.5529 75.3742 2.9029 75.5542 3.20957C75.7342 3.50957 75.9742 3.74624 76.2742 3.91957ZM78.0142 3.49957C77.8009 3.62624 77.5542 3.68957 77.2742 3.68957C76.9942 3.68957 76.7442 3.62624 76.5242 3.49957C76.3109 3.3729 76.1409 3.19624 76.0142 2.96957C75.8942 2.73624 75.8342 2.46624 75.8342 2.15957C75.8342 1.8529 75.8942 1.58624 76.0142 1.35957C76.1409 1.12624 76.3109 0.946237 76.5242 0.819571C76.7442 0.692904 76.9942 0.629571 77.2742 0.629571C77.5542 0.629571 77.8009 0.692904 78.0142 0.819571C78.2276 0.946237 78.3942 1.12624 78.5142 1.35957C78.6409 1.58624 78.7042 1.8529 78.7042 2.15957C78.7042 2.46624 78.6409 2.73624 78.5142 2.96957C78.3942 3.19624 78.2276 3.3729 78.0142 3.49957ZM76.4642 1.15957V3.12957H77.0342V2.52957H77.3242L77.6242 3.12957H78.2242L77.8142 2.35957C77.9342 2.30624 78.0209 2.22957 78.0742 2.12957C78.1342 2.02957 78.1642 1.92624 78.1642 1.81957C78.1642 1.5929 78.0876 1.42624 77.9342 1.31957C77.7809 1.2129 77.5876 1.15957 77.3542 1.15957H76.4642ZM77.2442 2.12957H77.0342V1.58957H77.2442C77.3442 1.58957 77.4176 1.61624 77.4642 1.66957C77.5176 1.71624 77.5442 1.77624 77.5442 1.84957C77.5442 1.92957 77.5176 1.99624 77.4642 2.04957C77.4176 2.1029 77.3442 2.12957 77.2442 2.12957ZM0.745093 0.729571V7.28957H1.57509V4.68957H2.65509C3.13509 4.68957 3.55509 4.61624 3.91509 4.46957C4.28176 4.31624 4.56509 4.0929 4.76509 3.79957C4.97176 3.49957 5.07509 3.11957 5.07509 2.65957C5.07509 2.17957 4.97176 1.79957 4.76509 1.51957C4.55843 1.23957 4.27176 1.03957 3.90509 0.919571C3.53843 0.792904 3.10843 0.729571 2.61509 0.729571H0.745093ZM2.55509 4.00957H1.57509V1.39957H2.51509C3.08843 1.39957 3.51843 1.4929 3.80509 1.67957C4.09843 1.85957 4.24509 2.18624 4.24509 2.65957C4.24509 3.11957 4.10509 3.45957 3.82509 3.67957C3.55176 3.89957 3.12843 4.00957 2.55509 4.00957ZM6.86501 7.10957C7.21168 7.30957 7.58168 7.40957 7.97501 7.40957C8.37501 7.40957 8.74502 7.30957 9.08502 7.10957C9.42501 6.90957 9.69835 6.61957 9.90501 6.23957C10.1183 5.85957 10.225 5.4029 10.225 4.86957C10.225 4.3229 10.1183 3.85957 9.90501 3.47957C9.69835 3.09957 9.42501 2.80957 9.08502 2.60957C8.74502 2.40957 8.37501 2.30957 7.97501 2.30957C7.58168 2.30957 7.21168 2.40957 6.86501 2.60957C6.52501 2.80957 6.24835 3.09957 6.03501 3.47957C5.82835 3.85957 5.72501 4.3229 5.72501 4.86957C5.72501 5.4029 5.82835 5.85957 6.03501 6.23957C6.24835 6.61957 6.52501 6.90957 6.86501 7.10957ZM8.71501 6.49957C8.50168 6.6529 8.25501 6.72957 7.97501 6.72957C7.69501 6.72957 7.44835 6.6529 7.23501 6.49957C7.02835 6.33957 6.86501 6.11957 6.74501 5.83957C6.63168 5.55957 6.57501 5.23624 6.57501 4.86957C6.57501 4.49624 6.63168 4.16957 6.74501 3.88957C6.86501 3.6029 7.02835 3.3829 7.23501 3.22957C7.44835 3.06957 7.69501 2.98957 7.97501 2.98957C8.25501 2.98957 8.50168 3.06957 8.71501 3.22957C8.92835 3.3829 9.09168 3.6029 9.20502 3.88957C9.31835 4.16957 9.37502 4.49624 9.37502 4.86957C9.37502 5.23624 9.31835 5.55957 9.20502 5.83957C9.09168 6.11957 8.92835 6.33957 8.71501 6.49957ZM10.8859 2.42957L12.2359 7.28957H13.2559L13.9059 4.68957C13.9659 4.46957 14.0192 4.24624 14.0659 4.01957C14.1192 3.7929 14.1692 3.53624 14.2159 3.24957H14.2559C14.3092 3.53624 14.3592 3.7929 14.4059 4.01957C14.4592 4.23957 14.5125 4.4629 14.5659 4.68957L15.2159 7.28957H16.2859L17.5959 2.42957H16.7959L16.0859 5.23957L15.9459 5.89957C15.8992 6.11957 15.8492 6.35957 15.7959 6.61957H15.7559C15.7025 6.35957 15.6492 6.11957 15.5959 5.89957C15.5492 5.67957 15.4959 5.45957 15.4359 5.23957L14.7059 2.42957H13.8059L13.0859 5.23957L12.9259 5.89957C12.8792 6.11957 12.8292 6.35957 12.7759 6.61957H12.7359C12.6959 6.35957 12.6525 6.11957 12.6059 5.89957C12.5592 5.67957 12.5092 5.45957 12.4559 5.23957L11.7459 2.42957H10.8859ZM19.3943 7.10957C19.7543 7.30957 20.151 7.40957 20.5843 7.40957C20.9176 7.40957 21.2143 7.3629 21.4743 7.26957C21.741 7.17624 21.981 7.05624 22.1943 6.90957L21.8943 6.36957C21.7276 6.4829 21.541 6.5729 21.3343 6.63957C21.1343 6.70624 20.9176 6.73957 20.6843 6.73957C20.391 6.73957 20.121 6.66957 19.8743 6.52957C19.6276 6.3829 19.431 6.16957 19.2843 5.88957C19.1711 5.66316 19.1037 5.39316 19.082 5.07957H22.3343C22.3543 4.99957 22.3643 4.91957 22.3643 4.83957C22.371 4.75957 22.3743 4.67624 22.3743 4.58957C22.3743 4.12957 22.301 3.72957 22.1543 3.38957C22.0076 3.04957 21.7876 2.78624 21.4943 2.59957C21.2076 2.40624 20.8576 2.30957 20.4443 2.30957C20.071 2.30957 19.7176 2.4129 19.3843 2.61957C19.051 2.82624 18.7776 3.11957 18.5643 3.49957C18.351 3.87957 18.2443 4.3329 18.2443 4.85957C18.2443 5.39957 18.3476 5.85957 18.5543 6.23957C18.761 6.6129 19.041 6.9029 19.3943 7.10957ZM21.6343 4.42957H19.0962C19.1257 4.1659 19.185 3.94256 19.2743 3.75957C19.4143 3.48624 19.591 3.28957 19.8043 3.16957C20.0176 3.0429 20.2343 2.97957 20.4543 2.97957C20.8343 2.97957 21.1243 3.10624 21.3243 3.35957C21.531 3.60624 21.6343 3.9629 21.6343 4.42957ZM23.5752 2.42957V7.28957H24.3952V4.16957C24.5619 3.75624 24.7552 3.46624 24.9752 3.29957C25.2019 3.1329 25.4186 3.04957 25.6252 3.04957C25.7252 3.04957 25.8052 3.05624 25.8652 3.06957C25.9319 3.07624 26.0019 3.08957 26.0752 3.10957L26.2552 2.40957C26.1752 2.36957 26.0952 2.3429 26.0152 2.32957C25.9352 2.31624 25.8419 2.30957 25.7352 2.30957C25.4552 2.30957 25.1952 2.39957 24.9552 2.57957C24.7153 2.75957 24.5152 3.0029 24.3552 3.30957H24.3252L24.2552 2.42957H23.5752ZM27.7244 7.10957C28.0844 7.30957 28.4811 7.40957 28.9144 7.40957C29.2477 7.40957 29.5444 7.3629 29.8044 7.26957C30.0711 7.17624 30.3111 7.05624 30.5244 6.90957L30.2244 6.36957C30.0577 6.4829 29.8711 6.5729 29.6644 6.63957C29.4644 6.70624 29.2477 6.73957 29.0144 6.73957C28.7211 6.73957 28.4511 6.66957 28.2044 6.52957C27.9577 6.3829 27.7611 6.16957 27.6144 5.88957C27.5012 5.66316 27.4337 5.39316 27.4121 5.07957H30.6644C30.6844 4.99957 30.6944 4.91957 30.6944 4.83957C30.7011 4.75957 30.7044 4.67624 30.7044 4.58957C30.7044 4.12957 30.6311 3.72957 30.4844 3.38957C30.3377 3.04957 30.1177 2.78624 29.8244 2.59957C29.5377 2.40624 29.1877 2.30957 28.7744 2.30957C28.4011 2.30957 28.0477 2.4129 27.7144 2.61957C27.3811 2.82624 27.1077 3.11957 26.8944 3.49957C26.6811 3.87957 26.5744 4.3329 26.5744 4.85957C26.5744 5.39957 26.6777 5.85957 26.8844 6.23957C27.0911 6.6129 27.3711 6.9029 27.7244 7.10957ZM29.9644 4.42957H27.4262C27.4557 4.1659 27.5151 3.94256 27.6044 3.75957C27.7444 3.48624 27.9211 3.28957 28.1344 3.16957C28.3477 3.0429 28.5644 2.97957 28.7844 2.97957C29.1644 2.97957 29.4544 3.10624 29.6544 3.35957C29.8611 3.60624 29.9644 3.9629 29.9644 4.42957ZM32.0953 6.74957C32.462 7.18957 32.952 7.40957 33.5653 7.40957C33.852 7.40957 34.122 7.3429 34.3753 7.20957C34.6287 7.06957 34.8487 6.90624 35.0353 6.71957H35.0653L35.1353 7.28957H35.8153V0.169571H34.9853V2.03957L35.0253 2.86957C34.812 2.68957 34.602 2.5529 34.3953 2.45957C34.1953 2.35957 33.952 2.30957 33.6653 2.30957C33.292 2.30957 32.9453 2.4129 32.6253 2.61957C32.3053 2.82624 32.0453 3.1229 31.8453 3.50957C31.652 3.88957 31.5553 4.3429 31.5553 4.86957C31.5553 5.67624 31.7353 6.3029 32.0953 6.74957ZM34.3853 6.54957C34.1853 6.6629 33.972 6.71957 33.7453 6.71957C33.3187 6.71957 32.9887 6.55624 32.7553 6.22957C32.522 5.89624 32.4053 5.43957 32.4053 4.85957C32.4053 4.48624 32.4687 4.1629 32.5953 3.88957C32.722 3.60957 32.8887 3.3929 33.0953 3.23957C33.3087 3.07957 33.5453 2.99957 33.8053 2.99957C34.0053 2.99957 34.202 3.03957 34.3953 3.11957C34.5887 3.1929 34.7853 3.3229 34.9853 3.50957V6.04957C34.7853 6.26957 34.5853 6.43624 34.3853 6.54957ZM40.9042 7.24957C41.1442 7.35624 41.3775 7.40957 41.6042 7.40957C41.9708 7.40957 42.3142 7.30624 42.6342 7.09957C42.9542 6.8929 43.2108 6.5929 43.4042 6.19957C43.6042 5.80624 43.7042 5.3329 43.7042 4.77957C43.7042 4.27957 43.6308 3.84624 43.4842 3.47957C43.3375 3.10624 43.1208 2.81957 42.8342 2.61957C42.5475 2.4129 42.1942 2.30957 41.7742 2.30957C41.5075 2.30957 41.2408 2.37624 40.9742 2.50957C40.7142 2.63624 40.4742 2.79624 40.2542 2.98957L40.2742 2.10957V0.169571H39.4542V7.28957H40.1142L40.1842 6.78957H40.2142C40.4342 6.9829 40.6642 7.13624 40.9042 7.24957ZM42.1742 6.48957C41.9675 6.6429 41.7308 6.71957 41.4642 6.71957C41.3042 6.71957 41.1175 6.6829 40.9042 6.60957C40.6975 6.52957 40.4875 6.39624 40.2742 6.20957V3.65957C40.5075 3.43957 40.7308 3.27624 40.9442 3.16957C41.1642 3.05624 41.3742 2.99957 41.5742 2.99957C41.8808 2.99957 42.1275 3.07624 42.3142 3.22957C42.5008 3.37624 42.6375 3.58624 42.7242 3.85957C42.8108 4.12624 42.8542 4.43624 42.8542 4.78957C42.8542 5.18957 42.7942 5.53624 42.6742 5.82957C42.5542 6.11624 42.3875 6.33624 42.1742 6.48957ZM44.7124 9.34957C44.8124 9.36957 44.9158 9.37957 45.0224 9.37957C45.3491 9.37957 45.6258 9.30624 45.8524 9.15957C46.0791 9.0129 46.2724 8.80957 46.4324 8.54957C46.5924 8.29624 46.7291 8.00957 46.8424 7.68957L48.6724 2.42957H47.8724L47.0024 5.11957C46.9424 5.3329 46.8758 5.55957 46.8024 5.79957C46.7358 6.0329 46.6658 6.2629 46.5924 6.48957H46.5524C46.4791 6.2629 46.4024 6.02957 46.3224 5.78957C46.2424 5.54957 46.1624 5.32624 46.0824 5.11957L45.0924 2.42957H44.2424L46.1924 7.29957L46.0824 7.65957C45.9824 7.95957 45.8424 8.20624 45.6624 8.39957C45.4891 8.59957 45.2624 8.69957 44.9824 8.69957C44.9291 8.69957 44.8724 8.6929 44.8124 8.67957C44.7524 8.6729 44.6924 8.65957 44.6324 8.63957L44.4524 9.27957C44.5324 9.30624 44.6191 9.32957 44.7124 9.34957Z" fill="currentColor"/>
</svg>
