<svg width="80" height="10" viewBox="0 0 80 10" fill="none" xmlns="http://www.w3.org/2000/svg">
<path fill-rule="evenodd" clip-rule="evenodd" d="M53.4951 2.66941V7.62941H54.9651V4.27941C55.1251 4.12608 55.2718 4.00941 55.4051 3.92941C55.5384 3.84275 55.6984 3.79941 55.8851 3.79941C56.0984 3.79941 56.2518 3.86608 56.3451 3.99941C56.4451 4.13275 56.4951 4.37941 56.4951 4.73941V7.62941H57.9651V4.54941C57.9651 3.92941 57.8451 3.44275 57.6051 3.08941C57.3651 2.72941 56.9718 2.54941 56.4251 2.54941C56.0918 2.54941 55.7951 2.62275 55.5351 2.76941C55.2751 2.91608 55.0418 3.09275 54.8351 3.29941H54.7951L54.6951 2.66941H53.4951ZM59.3778 9.53941C59.4911 9.55941 59.6211 9.56941 59.7677 9.56941C60.1611 9.56941 60.4877 9.49608 60.7477 9.34941C61.0144 9.20941 61.2378 8.99941 61.4177 8.71941C61.6044 8.43941 61.7777 8.09275 61.9377 7.67941L63.6577 2.66941H62.2477L61.6478 4.79941C61.5877 5.03275 61.5277 5.26941 61.4678 5.50941L61.3078 6.20941H61.2677C61.2011 5.96275 61.1377 5.72275 61.0777 5.48941C61.0177 5.25608 60.9511 5.02608 60.8778 4.79941L60.1677 2.66941H58.6877L60.5977 7.49941L60.5277 7.75941C60.4678 7.94608 60.3677 8.09941 60.2277 8.21941C60.0944 8.34608 59.9044 8.40941 59.6577 8.40941C59.6111 8.40941 59.5611 8.40608 59.5077 8.39942C59.4611 8.39942 59.4011 8.38941 59.3277 8.36941L59.0677 9.44941C59.1677 9.48941 59.2711 9.51941 59.3778 9.53941ZM64.4326 2.66941V7.62941H65.9026V4.74941C66.0359 4.40941 66.2026 4.17275 66.4026 4.03941C66.6093 3.90608 66.8059 3.83941 66.9926 3.83941C67.0993 3.83941 67.1893 3.84608 67.2626 3.85941C67.3359 3.86608 67.4126 3.87941 67.4926 3.89941L67.7726 2.64941C67.7059 2.61608 67.6259 2.59275 67.5326 2.57941C67.4393 2.55941 67.3226 2.54941 67.1826 2.54941C66.9226 2.54941 66.6659 2.63275 66.4126 2.79941C66.1659 2.95941 65.9526 3.20608 65.7726 3.53941H65.7326L65.6326 2.66941H64.4326ZM68.417 2.66941V7.62941H69.887V2.66941H68.417ZM68.547 1.72941C68.7003 1.86941 68.9003 1.93941 69.147 1.93941C69.3936 1.93941 69.5936 1.86941 69.747 1.72941C69.9003 1.58941 69.977 1.40275 69.977 1.16941C69.977 0.936081 69.9003 0.749414 69.747 0.609414C69.5936 0.469414 69.3936 0.399414 69.147 0.399414C68.9003 0.399414 68.7003 0.469414 68.547 0.609414C68.3936 0.749414 68.317 0.936081 68.317 1.16941C68.317 1.40275 68.3936 1.58941 68.547 1.72941ZM71.6306 7.55941C71.9773 7.68608 72.314 7.74941 72.6406 7.74941C73.0873 7.74941 73.4606 7.67941 73.7606 7.53941C74.0606 7.39275 74.2873 7.19941 74.4406 6.95941C74.6006 6.71941 74.6806 6.44941 74.6806 6.14941C74.6806 5.87608 74.6206 5.64275 74.5006 5.44941C74.3806 5.25608 74.214 5.09608 74.0006 4.96941C73.794 4.83608 73.564 4.72608 73.3106 4.63941C73.104 4.57275 72.9306 4.51275 72.7906 4.45941C72.6573 4.39941 72.5573 4.33608 72.4906 4.26941C72.424 4.20275 72.3906 4.12275 72.3906 4.02941C72.3906 3.91608 72.4373 3.82275 72.5306 3.74941C72.624 3.67608 72.7673 3.63941 72.9606 3.63941C73.134 3.63941 73.3106 3.66941 73.4906 3.72941C73.6706 3.78275 73.8506 3.87275 74.0306 3.99941L74.6606 3.17941C74.4473 2.99275 74.1906 2.84275 73.8906 2.72941C73.5973 2.60941 73.2706 2.54941 72.9106 2.54941C72.344 2.54941 71.884 2.69275 71.5306 2.97941C71.184 3.25941 71.0106 3.63275 71.0106 4.09941C71.0106 4.35941 71.0706 4.58275 71.1906 4.76941C71.3173 4.95608 71.4806 5.11608 71.6806 5.24941C71.8806 5.38275 72.1006 5.49275 72.3406 5.57941C72.5206 5.64608 72.6806 5.70941 72.8206 5.76941C72.9673 5.82275 73.084 5.88608 73.1706 5.95941C73.264 6.03275 73.3106 6.12608 73.3106 6.23941C73.3106 6.36608 73.2606 6.46941 73.1606 6.54941C73.0606 6.62275 72.9006 6.65941 72.6806 6.65941C72.474 6.65941 72.2573 6.62608 72.0306 6.55941C71.8106 6.48608 71.5873 6.35941 71.3606 6.17941L70.7406 7.00941C70.9873 7.24941 71.284 7.43275 71.6306 7.55941ZM76.2742 4.25941C76.5742 4.43275 76.9076 4.51941 77.2742 4.51941C77.6342 4.51941 77.9642 4.43275 78.2642 4.25941C78.5709 4.08608 78.8109 3.84941 78.9842 3.54941C79.1642 3.24275 79.2542 2.89275 79.2542 2.49941C79.2542 2.10608 79.1642 1.75941 78.9842 1.45941C78.8109 1.15275 78.5709 0.912748 78.2642 0.739414C77.9642 0.566081 77.6342 0.479414 77.2742 0.479414C76.9076 0.479414 76.5742 0.566081 76.2742 0.739414C75.9742 0.912748 75.7342 1.15275 75.5542 1.45941C75.3742 1.75941 75.2842 2.10608 75.2842 2.49941C75.2842 2.89275 75.3742 3.24275 75.5542 3.54941C75.7342 3.84941 75.9742 4.08608 76.2742 4.25941ZM78.0142 3.83941C77.8009 3.96608 77.5542 4.02941 77.2742 4.02941C76.9942 4.02941 76.7442 3.96608 76.5242 3.83941C76.3109 3.71275 76.1409 3.53608 76.0142 3.30941C75.8942 3.07608 75.8342 2.80608 75.8342 2.49941C75.8342 2.19275 75.8942 1.92608 76.0142 1.69941C76.1409 1.46608 76.3109 1.28608 76.5242 1.15941C76.7442 1.03275 76.9942 0.969414 77.2742 0.969414C77.5542 0.969414 77.8009 1.03275 78.0142 1.15941C78.2276 1.28608 78.3942 1.46608 78.5142 1.69941C78.6409 1.92608 78.7042 2.19275 78.7042 2.49941C78.7042 2.80608 78.6409 3.07608 78.5142 3.30941C78.3942 3.53608 78.2276 3.71275 78.0142 3.83941ZM76.4642 1.49941V3.46941H77.0342V2.86941H77.3242L77.6242 3.46941H78.2242L77.8142 2.69941C77.9342 2.64608 78.0209 2.56941 78.0742 2.46941C78.1342 2.36941 78.1642 2.26608 78.1642 2.15941C78.1642 1.93275 78.0876 1.76608 77.9342 1.65941C77.7809 1.55275 77.5876 1.49941 77.3542 1.49941H76.4642ZM77.2442 2.46941H77.0342V1.92941H77.2442C77.3442 1.92941 77.4176 1.95608 77.4642 2.00941C77.5176 2.05608 77.5442 2.11608 77.5442 2.18941C77.5442 2.26941 77.5176 2.33608 77.4642 2.38941C77.4176 2.44275 77.3442 2.46941 77.2442 2.46941ZM0.745093 1.06941V7.62941H1.57509V5.02941H2.65509C3.13509 5.02941 3.55509 4.95608 3.91509 4.80941C4.28176 4.65608 4.56509 4.43275 4.76509 4.13941C4.97176 3.83941 5.07509 3.45941 5.07509 2.99941C5.07509 2.51941 4.97176 2.13941 4.76509 1.85941C4.55843 1.57941 4.27176 1.37941 3.90509 1.25941C3.53843 1.13275 3.10843 1.06941 2.61509 1.06941H0.745093ZM2.55509 4.34941H1.57509V1.73941H2.51509C3.08843 1.73941 3.51843 1.83275 3.80509 2.01941C4.09843 2.19941 4.24509 2.52608 4.24509 2.99941C4.24509 3.45941 4.10509 3.79941 3.82509 4.01941C3.55176 4.23941 3.12843 4.34941 2.55509 4.34941ZM6.86501 7.44941C7.21168 7.64941 7.58168 7.74941 7.97501 7.74941C8.37501 7.74941 8.74502 7.64941 9.08502 7.44941C9.42501 7.24941 9.69835 6.95941 9.90501 6.57941C10.1183 6.19941 10.225 5.74275 10.225 5.20941C10.225 4.66275 10.1183 4.19941 9.90501 3.81941C9.69835 3.43941 9.42501 3.14941 9.08502 2.94941C8.74502 2.74941 8.37501 2.64941 7.97501 2.64941C7.58168 2.64941 7.21168 2.74941 6.86501 2.94941C6.52501 3.14941 6.24835 3.43941 6.03501 3.81941C5.82835 4.19941 5.72501 4.66275 5.72501 5.20941C5.72501 5.74275 5.82835 6.19941 6.03501 6.57941C6.24835 6.95941 6.52501 7.24941 6.86501 7.44941ZM8.71501 6.83941C8.50168 6.99275 8.25501 7.06941 7.97501 7.06941C7.69501 7.06941 7.44835 6.99275 7.23501 6.83941C7.02835 6.67941 6.86501 6.45941 6.74501 6.17941C6.63168 5.89941 6.57501 5.57608 6.57501 5.20941C6.57501 4.83608 6.63168 4.50941 6.74501 4.22941C6.86501 3.94275 7.02835 3.72275 7.23501 3.56941C7.44835 3.40941 7.69501 3.32941 7.97501 3.32941C8.25501 3.32941 8.50168 3.40941 8.71501 3.56941C8.92835 3.72275 9.09168 3.94275 9.20502 4.22941C9.31835 4.50941 9.37502 4.83608 9.37502 5.20941C9.37502 5.57608 9.31835 5.89941 9.20502 6.17941C9.09168 6.45941 8.92835 6.67941 8.71501 6.83941ZM10.8859 2.76941L12.2359 7.62941H13.2559L13.9059 5.02941C13.9659 4.80941 14.0192 4.58608 14.0659 4.35941C14.1192 4.13275 14.1692 3.87608 14.2159 3.58941H14.2559C14.3092 3.87608 14.3592 4.13275 14.4059 4.35941C14.4592 4.57941 14.5125 4.80275 14.5659 5.02941L15.2159 7.62941H16.2859L17.5959 2.76941H16.7959L16.0859 5.57941L15.9459 6.23941C15.8992 6.45941 15.8492 6.69941 15.7959 6.95941H15.7559C15.7025 6.69941 15.6492 6.45941 15.5959 6.23941C15.5492 6.01941 15.4959 5.79941 15.4359 5.57941L14.7059 2.76941H13.8059L13.0859 5.57941L12.9259 6.23941C12.8792 6.45941 12.8292 6.69941 12.7759 6.95941H12.7359C12.6959 6.69941 12.6525 6.45941 12.6059 6.23941C12.5592 6.01941 12.5092 5.79941 12.4559 5.57941L11.7459 2.76941H10.8859ZM19.3943 7.44941C19.7543 7.64941 20.151 7.74941 20.5843 7.74941C20.9176 7.74941 21.2143 7.70275 21.4743 7.60941C21.741 7.51608 21.981 7.39608 22.1943 7.24941L21.8943 6.70941C21.7276 6.82275 21.541 6.91275 21.3343 6.97941C21.1343 7.04608 20.9176 7.07941 20.6843 7.07941C20.391 7.07941 20.121 7.00941 19.8743 6.86941C19.6276 6.72275 19.431 6.50941 19.2843 6.22941C19.1711 6.003 19.1037 5.733 19.082 5.41941H22.3343C22.3543 5.33941 22.3643 5.25941 22.3643 5.17941C22.371 5.09941 22.3743 5.01608 22.3743 4.92941C22.3743 4.46941 22.301 4.06941 22.1543 3.72941C22.0076 3.38941 21.7876 3.12608 21.4943 2.93941C21.2076 2.74608 20.8576 2.64941 20.4443 2.64941C20.071 2.64941 19.7176 2.75275 19.3843 2.95941C19.051 3.16608 18.7776 3.45941 18.5643 3.83941C18.351 4.21941 18.2443 4.67275 18.2443 5.19941C18.2443 5.73941 18.3476 6.19941 18.5543 6.57941C18.761 6.95275 19.041 7.24275 19.3943 7.44941ZM21.6343 4.76941H19.0962C19.1257 4.50574 19.185 4.28241 19.2743 4.09941C19.4143 3.82608 19.591 3.62941 19.8043 3.50941C20.0176 3.38275 20.2343 3.31941 20.4543 3.31941C20.8343 3.31941 21.1243 3.44608 21.3243 3.69941C21.531 3.94608 21.6343 4.30275 21.6343 4.76941ZM23.5752 2.76941V7.62941H24.3952V4.50941C24.5619 4.09608 24.7552 3.80608 24.9752 3.63941C25.2019 3.47275 25.4186 3.38941 25.6252 3.38941C25.7252 3.38941 25.8052 3.39608 25.8652 3.40941C25.9319 3.41608 26.0019 3.42941 26.0752 3.44941L26.2552 2.74941C26.1752 2.70941 26.0952 2.68275 26.0152 2.66941C25.9352 2.65608 25.8419 2.64941 25.7352 2.64941C25.4552 2.64941 25.1952 2.73941 24.9552 2.91941C24.7153 3.09941 24.5152 3.34275 24.3552 3.64941H24.3252L24.2552 2.76941H23.5752ZM27.7244 7.44941C28.0844 7.64941 28.4811 7.74941 28.9144 7.74941C29.2477 7.74941 29.5444 7.70275 29.8044 7.60941C30.0711 7.51608 30.3111 7.39608 30.5244 7.24941L30.2244 6.70941C30.0577 6.82275 29.8711 6.91275 29.6644 6.97941C29.4644 7.04608 29.2477 7.07941 29.0144 7.07941C28.7211 7.07941 28.4511 7.00941 28.2044 6.86941C27.9577 6.72275 27.7611 6.50941 27.6144 6.22941C27.5012 6.003 27.4337 5.733 27.4121 5.41941H30.6644C30.6844 5.33941 30.6944 5.25941 30.6944 5.17941C30.7011 5.09941 30.7044 5.01608 30.7044 4.92941C30.7044 4.46941 30.6311 4.06941 30.4844 3.72941C30.3377 3.38941 30.1177 3.12608 29.8244 2.93941C29.5377 2.74608 29.1877 2.64941 28.7744 2.64941C28.4011 2.64941 28.0477 2.75275 27.7144 2.95941C27.3811 3.16608 27.1077 3.45941 26.8944 3.83941C26.6811 4.21941 26.5744 4.67275 26.5744 5.19941C26.5744 5.73941 26.6777 6.19941 26.8844 6.57941C27.0911 6.95275 27.3711 7.24275 27.7244 7.44941ZM29.9644 4.76941H27.4262C27.4557 4.50574 27.5151 4.28241 27.6044 4.09941C27.7444 3.82608 27.9211 3.62941 28.1344 3.50941C28.3477 3.38275 28.5644 3.31941 28.7844 3.31941C29.1644 3.31941 29.4544 3.44608 29.6544 3.69941C29.8611 3.94608 29.9644 4.30275 29.9644 4.76941ZM32.0953 7.08941C32.462 7.52941 32.952 7.74941 33.5653 7.74941C33.852 7.74941 34.122 7.68275 34.3753 7.54941C34.6287 7.40941 34.8487 7.24608 35.0353 7.05941H35.0653L35.1353 7.62941H35.8153V0.509414H34.9853V2.37941L35.0253 3.20941C34.812 3.02941 34.602 2.89275 34.3953 2.79941C34.1953 2.69941 33.952 2.64941 33.6653 2.64941C33.292 2.64941 32.9453 2.75275 32.6253 2.95941C32.3053 3.16608 32.0453 3.46275 31.8453 3.84941C31.652 4.22941 31.5553 4.68275 31.5553 5.20941C31.5553 6.01608 31.7353 6.64275 32.0953 7.08941ZM34.3853 6.88941C34.1853 7.00275 33.972 7.05941 33.7453 7.05941C33.3187 7.05941 32.9887 6.89608 32.7553 6.56941C32.522 6.23608 32.4053 5.77941 32.4053 5.19941C32.4053 4.82608 32.4687 4.50275 32.5953 4.22941C32.722 3.94941 32.8887 3.73275 33.0953 3.57941C33.3087 3.41941 33.5453 3.33941 33.8053 3.33941C34.0053 3.33941 34.202 3.37941 34.3953 3.45941C34.5887 3.53275 34.7853 3.66275 34.9853 3.84941V6.38941C34.7853 6.60941 34.5853 6.77608 34.3853 6.88941ZM40.9042 7.58941C41.1442 7.69608 41.3775 7.74941 41.6042 7.74941C41.9708 7.74941 42.3142 7.64608 42.6342 7.43941C42.9542 7.23275 43.2108 6.93275 43.4042 6.53941C43.6042 6.14608 43.7042 5.67275 43.7042 5.11941C43.7042 4.61941 43.6308 4.18608 43.4842 3.81941C43.3375 3.44608 43.1208 3.15941 42.8342 2.95941C42.5475 2.75275 42.1942 2.64941 41.7742 2.64941C41.5075 2.64941 41.2408 2.71608 40.9742 2.84941C40.7142 2.97608 40.4742 3.13608 40.2542 3.32941L40.2742 2.44941V0.509414H39.4542V7.62941H40.1142L40.1842 7.12941H40.2142C40.4342 7.32275 40.6642 7.47608 40.9042 7.58941ZM42.1742 6.82941C41.9675 6.98275 41.7308 7.05941 41.4642 7.05941C41.3042 7.05941 41.1175 7.02275 40.9042 6.94941C40.6975 6.86941 40.4875 6.73608 40.2742 6.54941V3.99941C40.5075 3.77941 40.7308 3.61608 40.9442 3.50941C41.1642 3.39608 41.3742 3.33941 41.5742 3.33941C41.8808 3.33941 42.1275 3.41608 42.3142 3.56941C42.5008 3.71608 42.6375 3.92608 42.7242 4.19941C42.8108 4.46608 42.8542 4.77608 42.8542 5.12941C42.8542 5.52941 42.7942 5.87608 42.6742 6.16941C42.5542 6.45608 42.3875 6.67608 42.1742 6.82941ZM44.7124 9.68941C44.8124 9.70941 44.9158 9.71941 45.0224 9.71941C45.3491 9.71941 45.6258 9.64608 45.8524 9.49941C46.0791 9.35275 46.2724 9.14942 46.4324 8.88941C46.5924 8.63608 46.7291 8.34941 46.8424 8.02941L48.6724 2.76941H47.8724L47.0024 5.45941C46.9424 5.67275 46.8758 5.89941 46.8024 6.13941C46.7358 6.37275 46.6658 6.60275 46.5924 6.82941H46.5524C46.4791 6.60275 46.4024 6.36941 46.3224 6.12941C46.2424 5.88941 46.1624 5.66608 46.0824 5.45941L45.0924 2.76941H44.2424L46.1924 7.63941L46.0824 7.99941C45.9824 8.29941 45.8424 8.54608 45.6624 8.73941C45.4891 8.93941 45.2624 9.03941 44.9824 9.03941C44.9291 9.03941 44.8724 9.03275 44.8124 9.01941C44.7524 9.01275 44.6924 8.99941 44.6324 8.97941L44.4524 9.61941C44.5324 9.64608 44.6191 9.66941 44.7124 9.68941Z" fill="url(#paint0_linear_5277_64421)"/>
<defs>
<linearGradient id="paint0_linear_5277_64421" x1="53" y1="12.0596" x2="80" y2="12.0596" gradientUnits="userSpaceOnUse">
<stop stop-color="#3E36DC"/>
<stop offset="1" stop-color="#E31B5D"/>
</linearGradient>
</defs>
</svg>
