<?xml version="1.0" encoding="UTF-8"?>
<svg width="1440px" height="42px" viewBox="0 0 1440 42" version="1.1" xmlns="http://www.w3.org/2000/svg" xmlns:xlink="http://www.w3.org/1999/xlink">
    <!-- Generator: Sketch 42 (36781) - http://www.bohemiancoding.com/sketch -->
    <title>sectionTransBack</title>
    <desc>Created with Sketch.</desc>
    <defs></defs>
    <g id="Page-1" stroke="none" stroke-width="1" fill="none" fill-rule="evenodd">
        <g id="sectionTransBack">
            <polygon id="Shape" fill-opacity="0.25" fill="#F4F6F8" points="0 16.7892078 29 27.6213359 138 28.2983439 247.5 20.8512558 301 2.91054365 438.5 28.9753519 521 36.42244 626 17.8047198 722.5 29.9908639 786 18.4817278 879 18.4817278 997.5 8.3266077 1095 20.1742478 1279.5 14.4196798 1334.5 8.3266077 1440 16.7892078 1440 40.145984 0 40.145984"></polygon>
            <path d="M0,13.0656637 L92.5,0.541015625 L153.5,21.5282638 L232.5,14.4196798 L430,5.95707967 L508.5,25.9288159 C508.5,25.9288159 632,20.8512558 637.5,21.1897598 C643,21.5282638 793,3.24904765 793,3.24904765 C793,3.24904765 851.5,10.8653877 858.5,12.0501517 C865.5,13.2349157 995,19.4972398 995,19.4972398 C995,19.4972398 1090,3.92605566 1095.5,3.92605566 C1101,3.92605566 1300,17.1277118 1300,17.1277118 L1372.806,21.7042859 L1440,13.0656637 L1440,41.5 L0,41.5 L0,13.0656637 Z" id="Shape" fill-opacity="0.15" fill="#F4F6F8"></path>
            <polygon id="Shape" fill-opacity="0.141" fill="#D8D8D8" points="0 27.9598399 31 16.4507038 63 32.3603919 136.5 13.7426717 171.5 27.9598399 233.5 11.0346397 296 16.1121998 345.5 11.3731437 377 3.58755165 401.5 17.8047198 474 11.7116477 496 22.5437758 514.5 13.4041677 578 27.9598399 606.5 18.4817278 679 22.2052718 692.5 10.0191277 752 23.5592878 785 13.7426717 846 28.9753519 903.5 13.4041677 923 20.5127518 942.5 10.0191277 971 17.8047198 1046 5.28007167 1088 32.6988959 1124.5 11.3731437 1181.5 25.9288159 1220.5 16.1121998 1247.5 22.2052718 1277 40.484488 1309.5 23.2207838 1339.5 3.58755165 1366.5 13.4041677 1440 27.9598399 1440 40.484488 0 40.484488"></polygon>
        </g>
    </g>
</svg>