<?xml version="1.0" encoding="UTF-8" standalone="no"?>
<svg
   xmlns:dc="http://purl.org/dc/elements/1.1/"
   xmlns:cc="http://creativecommons.org/ns#"
   xmlns:rdf="http://www.w3.org/1999/02/22-rdf-syntax-ns#"
   xmlns:svg="http://www.w3.org/2000/svg"
   xmlns="http://www.w3.org/2000/svg"
   xmlns:sodipodi="http://sodipodi.sourceforge.net/DTD/sodipodi-0.dtd"
   xmlns:inkscape="http://www.inkscape.org/namespaces/inkscape"
   width="106"
   height="66.987"
   viewBox="0 0 106 66.986999"
   version="1.1"
   xml:space="preserve"
   style="clip-rule:evenodd;fill-rule:evenodd;stroke-linejoin:round;stroke-miterlimit:1.41420996"
   id="svg3763"
   sodipodi:docname="nyris-logo.svg"
   inkscape:version="0.92.4 (5da689c313, 2019-01-14)"><metadata
     id="metadata3769"><rdf:RDF><cc:Work
         rdf:about=""><dc:format>image/svg+xml</dc:format><dc:type
           rdf:resource="http://purl.org/dc/dcmitype/StillImage" /><dc:title></dc:title></cc:Work></rdf:RDF></metadata><defs
     id="defs3767" /><sodipodi:namedview
     pagecolor="#ffffff"
     bordercolor="#666666"
     borderopacity="1"
     objecttolerance="10"
     gridtolerance="10"
     guidetolerance="10"
     inkscape:pageopacity="0"
     inkscape:pageshadow="2"
     inkscape:window-width="3440"
     inkscape:window-height="1376"
     id="namedview3765"
     showgrid="false"
     inkscape:pagecheckerboard="true"
     fit-margin-top="20"
     fit-margin-bottom="20.1"
     fit-margin-left="0"
     fit-margin-right="0"
     inkscape:zoom="5.4200402"
     inkscape:cx="6.4175606"
     inkscape:cy="-27.484906"
     inkscape:window-x="0"
     inkscape:window-y="27"
     inkscape:window-maximized="1"
     inkscape:current-layer="svg3763" /><path
     d="M 44.198,23.887 35.825,34.571 27.456,23.887 H 25.159 L 34.702,36.2 v 10.151 h 1.872 V 36.28 l 9.914,-12.393 z m 54.375,10.032 c -3.287,-0.744 -5.303,-1.32 -5.303,-3.69 0,-2.789 2.414,-4.058 4.656,-4.058 2.359,0 4.038,0.83 5.329,2.424 l 1.346,-1.054 c -1.713,-2.112 -3.776,-3.079 -6.675,-3.079 -3.162,0 -6.364,1.98 -6.364,5.767 0,3.855 3.524,4.653 6.634,5.357 3.793,0.858 6.096,1.606 6.096,4.766 0,3.99 -3.299,4.826 -6.067,4.826 -3.206,0 -5.2,-1.169 -6.542,-3.873 l -1.408,0.992 c 1.641,3.122 4.191,4.59 7.95,4.59 4.941,0 7.775,-2.381 7.775,-6.535 0,-4.752 -4.119,-5.684 -7.427,-6.433 z M 82.712,26.441 80.911,27.342 V 23.36 l -2.219,-1.281 -2.219,1.281 v 3.982 l -1.8,-0.901 V 22.32 l 4.019,-2.32 4.02,2.32 z m -3.119,1.917 -0.901,0.451 -0.901,-0.451 v 18.158 h 1.802 z m -24.861,6.915 c 0,-4.614 1.965,-9.545 7.475,-9.545 2.269,0 4.075,0.836 5.365,2.484 l 1.418,-1.109 c -1.627,-2.078 -3.972,-3.176 -6.783,-3.176 -6.847,0 -9.276,6.112 -9.276,11.346 v 11.243 h 1.801 z M 18.504,46.516 H 16.703 V 35.273 c 0,-4.614 -1.952,-9.545 -7.429,-9.545 -5.51,0 -7.474,4.931 -7.474,9.545 V 46.516 H 0 V 35.273 c 0,-5.234 2.429,-11.346 9.274,-11.346 6.812,0 9.23,6.112 9.23,11.346 z"
     style="fill:#ffffff;fill-rule:nonzero"
     id="path3761"
     inkscape:connector-curvature="0" /></svg>