<svg width="18" height="18" viewBox="0 0 18 18" fill="none" xmlns="http://www.w3.org/2000/svg">
<path fill-rule="evenodd" clip-rule="evenodd" d="M17.3571 16.0714H0.642857C0.287817 16.0714 0 15.7836 0 15.4286V4.50002C0 4.14498 0.287817 3.85716 0.642857 3.85716H4.79571L5.895 2.21787C6.01327 2.03827 6.21352 1.9297 6.42857 1.92859H11.5714C11.7865 1.9297 11.9867 2.03827 12.105 2.21787L13.2043 3.85716H17.3571C17.7122 3.85716 18 4.14498 18 4.50002V15.4286C18 15.7836 17.7122 16.0714 17.3571 16.0714ZM1.28597 14.7857H16.7145V5.14289H12.8574C12.6424 5.14177 12.4421 5.03321 12.3238 4.8536L11.2245 3.21431H6.77597L5.67668 4.8536C5.55841 5.03321 5.35816 5.14177 5.14311 5.14289H1.28597V14.7857ZM9.00013 13.5001C6.86989 13.5001 5.14299 11.7732 5.14299 9.64291C5.14299 7.51267 6.86989 5.78577 9.00013 5.78577C11.1304 5.78577 12.8573 7.51267 12.8573 9.64291C12.8573 11.7732 11.1304 13.5001 9.00013 13.5001ZM9.00042 7.07141C7.58026 7.07141 6.429 8.22268 6.429 9.64284C6.429 11.063 7.58026 12.2143 9.00042 12.2143C10.4206 12.2143 11.5719 11.063 11.5719 9.64284C11.5719 8.22268 10.4206 7.07141 9.00042 7.07141Z" fill="currentColor"/>
</svg>
