<svg width="16" height="16" viewBox="0 0 16 16" fill="none" xmlns="http://www.w3.org/2000/svg">
<path fill-rule="evenodd" clip-rule="evenodd" d="M13.475 3.575C13.7649 3.28505 13.7649 2.81495 13.475 2.525C13.1851 2.23505 12.715 2.23505 12.425 2.525L8.70711 6.24289C8.31658 6.63342 7.68342 6.63342 7.29289 6.24289L3.575 2.525C3.28505 2.23505 2.81495 2.23505 2.525 2.525C2.23505 2.81495 2.23505 3.28505 2.525 3.575L6.24289 7.29289C6.63342 7.68342 6.63342 8.31658 6.24289 8.70711L2.525 12.425C2.23505 12.7149 2.23505 13.1851 2.525 13.475C2.81495 13.7649 3.28505 13.7649 3.575 13.475L7.29289 9.75711C7.68342 9.36658 8.31658 9.36658 8.70711 9.75711L12.425 13.475C12.7149 13.7649 13.1851 13.7649 13.475 13.475C13.7649 13.1851 13.7649 12.715 13.475 12.425L9.75711 8.70711C9.36658 8.31658 9.36658 7.68342 9.75711 7.29289L13.475 3.575Z" fill="currentColor"/>
</svg>
