<svg width="48" height="48" viewBox="0 0 48 48" fill="none" xmlns="http://www.w3.org/2000/svg">
<path fill-rule="evenodd" clip-rule="evenodd" d="M22.7016 39.816L22.6416 39.7584H22.6392L11.1192 28.2384C10.3704 27.4896 10.3704 26.2728 11.1192 25.524C11.4816 25.1616 11.964 24.9624 12.4776 24.9624C12.9912 24.9624 13.4736 25.1616 13.836 25.524L22.0776 33.7656V1.92C22.0776 0.8616 22.9392 0 23.9976 0C25.056 0 25.9176 0.8616 25.9176 1.92V33.7656L34.1592 25.524C34.5216 25.1616 35.004 24.9624 35.5176 24.9624C36.0312 24.9624 36.5136 25.1616 36.876 25.524C37.6248 26.2728 37.6248 27.4896 36.876 28.2384L25.356 39.7584C25.2672 39.8472 25.1688 39.9288 25.0632 39.9984C25.0176 40.0296 24.9648 40.0584 24.912 40.0848L24.9081 40.0869C24.8472 40.1197 24.7907 40.1501 24.732 40.1736C24.672 40.1976 24.6072 40.2192 24.5448 40.236C24.4872 40.2552 24.432 40.2696 24.3744 40.2816C24.2496 40.308 24.1224 40.32 23.9976 40.32C23.8728 40.32 23.7456 40.3056 23.6208 40.2816C23.5632 40.2696 23.508 40.2552 23.4528 40.236C23.388 40.2192 23.3256 40.2 23.2632 40.1736C23.2032 40.1496 23.148 40.1208 23.0928 40.0896C23.0328 40.0608 22.9824 40.032 22.932 39.9984C22.8504 39.9432 22.7736 39.8808 22.7016 39.816ZM44.16 34.56C44.16 33.5016 45.0216 32.64 46.08 32.64C47.1384 32.64 48 33.5016 48 34.56V46.08C48 47.1384 47.1384 48 46.08 48H1.92C0.8616 48 0 47.1384 0 46.08V34.56C0 33.5016 0.8616 32.64 1.92 32.64C2.9784 32.64 3.84 33.5016 3.84 34.56V44.16H44.16V34.56Z" fill="currentColor"/>
</svg>
