<svg width="16" height="13" viewBox="0 0 16 13" fill="none" xmlns="http://www.w3.org/2000/svg">
<path d="M10.6571 2.43183C10.4497 2.63925 10.4497 2.97899 10.6571 3.18641L13.5539 6.08315C13.7827 6.31202 13.6218 6.70898 13.2964 6.70898H3.50827C3.50827 6.70898 2.42468 6.73759 1.72016 6.06884C1.28744 5.654 1.06571 5.04247 1.06214 4.24497V0.532856C1.06571 0.239607 0.826106 0 0.532857 0C0.239607 0 0 0.239607 0 0.532856V4.24139C0 5.34287 0.336164 6.21547 0.987036 6.83773C1.9097 7.71748 3.17211 7.7747 3.46893 7.7747C3.50827 7.7747 3.52973 7.7747 3.5333 7.7747H13.2964C13.6218 7.7747 13.7863 8.16808 13.5539 8.40054L10.5999 11.3545C10.3925 11.5619 10.3925 11.9017 10.5999 12.1091C10.8073 12.3165 11.1471 12.3165 11.3545 12.1091L15.8426 7.62092C16.0501 7.4135 16.0501 7.07376 15.8426 6.86634L11.4117 2.4354C11.2043 2.22798 10.8646 2.22798 10.6571 2.4354V2.43183Z" fill="#AAABB5"/>
</svg>
