<svg width="24" height="24" viewBox="0 0 24 24" fill="none" xmlns="http://www.w3.org/2000/svg">
<path fill-rule="evenodd" clip-rule="evenodd" d="M1.99513 0H21.9465C22.4756 0 22.9831 0.207268 23.3572 0.576207C23.7314 0.945147 23.9416 1.44554 23.9416 1.9673V21.6403C23.9416 22.162 23.7314 22.6624 23.3572 23.0313C22.9831 23.4003 22.4756 23.6075 21.9465 23.6075H1.99513C1.46599 23.6075 0.958521 23.4003 0.584361 23.0313C0.210201 22.6624 0 22.162 0 21.6403V1.9673C0 1.44554 0.210201 0.945147 0.584361 0.576207C0.958521 0.207268 1.46599 0 1.99513 0ZM1.99513 15.7384V21.6403H21.9465V19.673L16.9586 14.7547L15.3725 16.3187C14.9987 16.6851 14.493 16.8908 13.9659 16.8908C13.4389 16.8908 12.9332 16.6851 12.5594 16.3187L6.98297 10.8201L1.99513 15.7384ZM18.3652 13.3579L21.9465 16.8892V1.9673H1.99513V12.9546L5.5764 9.42335C5.95021 9.05694 6.45588 8.85127 6.98297 8.85127C7.51005 8.85127 8.01572 9.05694 8.38954 9.42335L13.9659 14.9219L15.5521 13.3579C15.9259 12.9915 16.4316 12.7859 16.9586 12.7859C17.4857 12.7859 17.9914 12.9915 18.3652 13.3579ZM16.6262 9.33906C16.134 9.66331 15.5554 9.83638 14.9635 9.83638C14.1698 9.83638 13.4086 9.52548 12.8473 8.97207C12.2861 8.41866 11.9708 7.66808 11.9708 6.88544C11.9708 6.3018 12.1463 5.73126 12.4752 5.24598C12.804 4.7607 13.2714 4.38247 13.8182 4.15912C14.3651 3.93577 14.9668 3.87733 15.5474 3.9912C16.1279 4.10506 16.6611 4.38611 17.0797 4.79881C17.4982 5.2115 17.7832 5.73731 17.8987 6.30974C18.0142 6.88217 17.9549 7.4755 17.7284 8.01472C17.5019 8.55393 17.1183 9.0148 16.6262 9.33906ZM15.5177 6.06757C15.3537 5.95948 15.1608 5.90179 14.9635 5.90179C14.6989 5.90179 14.4452 6.00543 14.2581 6.1899C14.071 6.37437 13.9659 6.62456 13.9659 6.88544C13.9659 7.07999 14.0244 7.27016 14.1341 7.43193C14.2437 7.59369 14.3995 7.71976 14.5818 7.79421C14.764 7.86866 14.9646 7.88814 15.1581 7.85019C15.3516 7.81223 15.5294 7.71855 15.6689 7.58098C15.8084 7.44342 15.9034 7.26815 15.9419 7.07734C15.9804 6.88653 15.9606 6.68875 15.8851 6.50901C15.8096 6.32928 15.6818 6.17565 15.5177 6.06757Z" fill="currentColor"/>
</svg>
