<svg width="16" height="16" viewBox="0 0 16 16" fill="none" xmlns="http://www.w3.org/2000/svg">
<path fill-rule="evenodd" clip-rule="evenodd" d="M9.12811 0.815513C12.5139 0.938413 15.4056 3.54889 15.9206 6.94763C16.4207 10.2472 14.5192 13.4998 11.3846 14.7069C8.23889 15.9182 4.68094 14.788 2.82598 11.9882C2.54636 11.5661 2.55716 11.2515 2.85805 11.0482C3.15703 10.8463 3.45261 10.9598 3.74295 11.3682C5.24185 13.4768 7.294 14.4131 9.8331 13.9719C12.4455 13.5177 14.0999 11.8893 14.7326 9.31679C15.501 6.19336 13.5092 2.95658 10.3738 2.12628C7.22362 1.29199 3.91862 3.1128 3.00688 6.18521C2.99789 6.21552 2.99049 6.24627 2.97824 6.29716C2.97067 6.32861 2.96125 6.36774 2.94846 6.41922C3.0122 6.35906 3.06829 6.30499 3.11971 6.25542C3.22098 6.15779 3.30412 6.07764 3.39187 6.0029C3.64996 5.78311 3.92568 5.76641 4.16599 6.01204C4.40656 6.25793 4.3916 6.54295 4.15652 6.78542C3.63875 7.31948 3.11158 7.84482 2.57935 8.36459C2.30488 8.63258 2.01105 8.61729 1.7409 8.35104C1.23061 7.84814 0.721557 7.34383 0.221731 6.83054C-0.0603822 6.54087 -0.0732622 6.22086 0.182925 5.99617C0.459055 5.75394 0.742165 5.79134 0.988546 6.0457C1.13741 6.19942 1.27758 6.36149 1.43494 6.54345C1.5093 6.62943 1.5875 6.71985 1.67226 6.81592C1.69673 6.73491 1.7171 6.67027 1.73425 6.61582C1.76358 6.52271 1.78352 6.45939 1.79857 6.39495C2.58932 3.00511 5.63182 0.688625 9.12811 0.815513ZM9.35188 6.16397C9.35183 6.42597 9.35177 6.68797 9.35211 6.94996C9.35222 7.04557 9.35219 7.14117 9.35215 7.24938C9.35213 7.3085 9.35211 7.37137 9.35211 7.44007C9.50799 7.44007 9.65831 7.44005 9.80497 7.44003C10.0878 7.43999 10.3571 7.43996 10.6264 7.44007C10.667 7.44009 10.7077 7.43953 10.7484 7.43896C10.8454 7.43762 10.9424 7.43628 11.0389 7.44289C11.3863 7.46666 11.6265 7.637 11.6266 8.0008C11.6269 8.36518 11.3852 8.55032 11.0386 8.55639C10.31 8.56918 9.58071 8.57093 8.85228 8.55489C8.4501 8.54608 8.25474 8.33261 8.25233 7.92203C8.24493 6.68447 8.24476 5.44674 8.25058 4.2091C8.25241 3.8168 8.47768 3.57973 8.80899 3.5843C9.13863 3.58887 9.34297 3.81988 9.34646 4.22714C9.35213 4.87272 9.35201 5.51835 9.35188 6.16397Z" fill="currentColor"/>
</svg>
