<svg width="16" height="17" viewBox="0 0 16 17" fill="none" xmlns="http://www.w3.org/2000/svg">
<path fill-rule="evenodd" clip-rule="evenodd" d="M14.7972 0.743375C14.7887 0.740302 14.7801 0.737234 14.7715 0.734443L14.7718 0.734131H10.1658C10.1495 0.739637 10.1332 0.745055 10.1168 0.750468C10.0897 0.759493 10.0625 0.768504 10.0355 0.77788C9.7444 0.879441 9.55892 1.07944 9.51318 1.38349C9.46744 1.68661 9.57835 1.93567 9.82963 2.11723C9.98534 2.22973 10.1642 2.25191 10.3504 2.25191C11.0032 2.25124 11.6559 2.25137 12.3085 2.2515C12.5695 2.25155 12.8305 2.2516 13.0915 2.2516H13.2639C13.269 2.26393 13.2743 2.27614 13.2796 2.28831C13.2832 2.29682 13.2869 2.3053 13.2905 2.31379C13.2689 2.33102 13.2468 2.34767 13.2246 2.36432C13.1757 2.40113 13.1267 2.43794 13.084 2.48097C11.6554 3.92237 10.2274 5.36477 8.79949 6.80705C8.44459 7.16552 8.0897 7.52399 7.73481 7.88243C7.5428 8.07633 7.35058 8.27007 7.15835 8.46381C6.77404 8.85113 6.3897 9.2385 6.00688 9.62739C5.73712 9.90176 5.68824 10.2671 5.87184 10.5696C6.13942 11.0105 6.71027 11.0524 7.10129 10.6577L14.5306 3.15565C14.5571 3.12903 14.5844 3.10326 14.6166 3.07295C14.632 3.05842 14.6485 3.04286 14.6666 3.02565C14.6666 3.04497 14.6669 3.06119 14.6673 3.07538C14.6678 3.10043 14.6683 3.11917 14.6663 3.13752C14.5466 4.22969 14.4516 5.32342 14.4394 6.42308C14.4344 6.87964 14.7346 7.22557 15.1625 7.24057C15.6049 7.25619 15.9405 6.93588 15.9508 6.47246C15.9547 6.29973 15.9587 6.12699 15.9627 5.95424C15.9814 5.15348 16 4.35258 16 3.55189C16 2.94378 15.969 2.33441 15.9255 1.72755C15.8847 1.16319 15.6463 0.91694 15.0899 0.799442C15.0463 0.79015 15.0021 0.783719 14.9578 0.777286C14.9246 0.772469 14.8915 0.767651 14.8586 0.76163C14.8377 0.757899 14.8174 0.750624 14.7972 0.743375ZM6.65735 0.745738C6.6465 0.741913 6.63564 0.738085 6.62471 0.734452H2.08166C2.04398 0.741697 2.00622 0.748554 1.96845 0.75541C1.88406 0.770733 1.79967 0.786054 1.71634 0.8057C0.751956 1.03445 0.0510725 1.87974 0.00595529 2.86753C0.00282215 2.93503 0.00219552 3.00284 0.00219552 3.07034C0.00210456 4.16746 0.00225127 5.26461 0.00239798 6.36176C0.00275661 9.04372 0.00311526 11.7257 2.32127e-06 14.4076C-0.000937621 15.1839 0.283551 15.8145 0.900467 16.2895C1.1906 16.5126 1.52114 16.6485 1.88365 16.7054C1.90744 16.709 1.93052 16.7163 1.95366 16.7237C1.96495 16.7273 1.97626 16.731 1.98767 16.7341H13.9882C13.9923 16.7316 13.9963 16.7287 14.0003 16.7258C14.009 16.7193 14.0177 16.7129 14.0274 16.711C15.2603 16.4588 15.9524 15.6173 15.9524 14.3673C15.9524 14.0973 15.9524 13.8274 15.9524 13.5574C15.9525 12.4784 15.9525 11.3996 15.9518 10.3205C15.9518 10.2374 15.9493 10.1533 15.937 10.0715C15.885 9.72021 15.6093 9.4674 15.2471 9.43428C14.9125 9.40366 14.5788 9.62428 14.4807 9.95583C14.4475 10.0683 14.4397 10.1918 14.4397 10.3102C14.4384 11.0241 14.4384 11.7379 14.4383 12.4517C14.4383 13.118 14.4383 13.7844 14.4372 14.4507C14.4366 14.932 14.1352 15.2298 13.6536 15.2298C9.86751 15.2304 6.08143 15.2307 2.29534 15.2298C1.81284 15.2298 1.513 14.9304 1.513 14.4498C1.51237 10.6427 1.51268 6.83527 1.51362 3.02816C1.51362 2.95066 1.51644 2.87066 1.53555 2.79629C1.62454 2.44911 1.90526 2.25255 2.31289 2.25223C3.07025 2.25171 3.82752 2.25167 4.58475 2.25164C5.1905 2.25161 5.79622 2.25157 6.40195 2.2513C6.47464 2.25098 6.54826 2.25036 6.62064 2.24223C6.98283 2.20192 7.26168 1.91787 7.28706 1.56631C7.31463 1.18663 7.08779 0.864449 6.72591 0.767888C6.70279 0.761753 6.6801 0.753755 6.65735 0.745738Z" fill="white"/>
</svg>
