<svg width="40" height="40" viewBox="0 0 40 40" fill="none" xmlns="http://www.w3.org/2000/svg">
<rect width="40" height="40" rx="20" fill="#E0E0E0"/>
<g clip-path="url(#clip0_8278_65174)">
<path d="M20 36C28.8366 36 36 28.8366 36 20C36 11.1634 28.8366 4 20 4C11.1634 4 4 11.1634 4 20C4 28.8366 11.1634 36 20 36Z" fill="#2B2C46"/>
<path d="M20.0003 33.3024C12.6636 33.3024 6.69769 27.3365 6.69769 19.9998C6.69769 12.6632 12.6636 6.69727 20.0003 6.69727C27.3369 6.69727 33.3029 12.6676 33.3029 19.9998C33.3029 27.3321 27.3369 33.3024 20.0003 33.3024ZM20.0003 8.42379C13.617 8.42379 8.42422 13.6165 8.42422 19.9998C8.42422 26.3832 13.617 31.5759 20.0003 31.5759C26.3836 31.5759 31.5763 26.3832 31.5763 19.9998C31.5763 13.6165 26.3836 8.42379 20.0003 8.42379Z" fill="white"/>
<path d="M19.5563 27.9213C19.3147 27.9126 19.0686 27.895 18.827 27.8598C15.2773 27.4073 12.4613 24.6133 11.978 21.0636C11.9429 20.8 11.9209 20.5364 11.9121 20.2728C11.9033 19.9916 11.6749 19.7676 11.3981 19.7676H10.8797C10.7392 19.7676 10.603 19.8247 10.5063 19.9257C10.4097 20.0268 10.3569 20.1586 10.3613 20.2992C10.5239 25.2766 14.5524 29.3052 19.5299 29.4677C19.5343 29.4677 19.5431 29.4677 19.5475 29.4677C19.6793 29.4677 19.8067 29.415 19.9033 29.3228C20.0044 29.2261 20.0615 29.0899 20.0615 28.9493V28.431C20.0615 28.1498 19.8418 27.9257 19.5563 27.9126V27.9213Z" fill="white"/>
<path d="M25.4124 12.3031C25.2982 12.2196 25.162 12.1889 25.0214 12.2152C24.8808 12.2416 24.7578 12.3207 24.6788 12.4393L24.3888 12.8654C24.2306 13.0983 24.2878 13.4102 24.5162 13.5727C26.5019 15.0181 27.6881 17.2542 27.776 19.7056C27.7847 19.9868 28.0132 20.2108 28.29 20.2108H28.8084C28.9489 20.2108 29.0851 20.1537 29.1862 20.0527C29.2828 19.9516 29.3355 19.8198 29.3311 19.6793C29.2345 16.7314 27.8067 14.0428 25.4124 12.3075V12.3031Z" fill="white"/>
<path d="M24.1076 26.7081C25.7648 26.7081 27.1082 25.3647 27.1082 23.7076C27.1082 22.0504 25.7648 20.707 24.1076 20.707C22.4505 20.707 21.1071 22.0504 21.1071 23.7076C21.1071 25.3647 22.4505 26.7081 24.1076 26.7081Z" fill="white"/>
<path d="M19.6441 23.7076C19.6441 21.2431 21.643 19.2441 24.1076 19.2441C24.5997 19.2441 25.0741 19.3276 25.5178 19.4726C25.2499 16.6653 22.8907 14.4688 20.0132 14.4688C16.9599 14.4688 14.4821 16.9465 14.4821 19.9998C14.4821 23.053 16.9599 25.5308 20.0132 25.5308C20.022 25.5308 20.0264 25.5308 20.0351 25.5308C19.7847 24.9729 19.6441 24.3578 19.6441 23.7076Z" fill="white"/>
</g>
<defs>
<clipPath id="clip0_8278_65174">
<rect width="32" height="32" fill="white" transform="translate(4 4)"/>
</clipPath>
</defs>
</svg>
