<svg width="40" height="40" viewBox="0 0 40 40" fill="none" xmlns="http://www.w3.org/2000/svg">
<rect width="40" height="40" rx="20" fill="#55566B"/>
<g clip-path="url(#clip0_8518_62118)">
<path d="M20 36C28.8366 36 36 28.8366 36 20C36 11.1634 28.8366 4 20 4C11.1634 4 4 11.1634 4 20C4 28.8366 11.1634 36 20 36Z" fill="url(#paint0_radial_8518_62118)"/>
<path fill-rule="evenodd" clip-rule="evenodd" d="M19.9998 33.3024C12.6632 33.3024 6.69727 27.3365 6.69727 19.9998C6.69727 12.6632 12.6632 6.69727 19.9998 6.69727C27.3365 6.69727 33.3024 12.6676 33.3024 19.9998C33.3024 27.3321 27.3365 33.3024 19.9998 33.3024ZM19.9998 8.42379C13.6165 8.42379 8.42379 13.6165 8.42379 19.9998C8.42379 26.3832 13.6165 31.5759 19.9998 31.5759C26.3832 31.5759 31.5759 26.3832 31.5759 19.9998C31.5759 13.6165 26.3832 8.42379 19.9998 8.42379ZM19.5565 27.9213C19.3149 27.9126 19.0689 27.895 18.8273 27.8598C15.2776 27.4073 12.4615 24.6133 11.9783 21.0636C11.9431 20.8 11.9212 20.5364 11.9124 20.2728C11.9036 19.9916 11.6751 19.7676 11.3984 19.7676H10.88C10.7394 19.7676 10.6032 19.8247 10.5066 19.9257C10.4099 20.0268 10.3572 20.1586 10.3616 20.2992C10.5241 25.2766 14.5527 29.3052 19.5302 29.4677H19.5477C19.6795 29.4677 19.8069 29.415 19.9036 29.3228C20.0046 29.2261 20.0617 29.0899 20.0617 28.9493V28.431C20.0617 28.1498 19.8421 27.9257 19.5565 27.9126V27.9213ZM25.0209 12.2162C25.1615 12.1899 25.2977 12.2206 25.4119 12.3041V12.3085C27.8062 14.0438 29.234 16.7324 29.3306 19.6802C29.335 19.8208 29.2823 19.9526 29.1856 20.0537C29.0846 20.1547 28.9484 20.2118 28.8078 20.2118H28.2894C28.0127 20.2118 27.7842 19.9878 27.7754 19.7066C27.6876 17.2552 26.5014 15.0191 24.5157 13.5737C24.2872 13.4112 24.2301 13.0992 24.3883 12.8664L24.6782 12.4403C24.7573 12.3216 24.8803 12.2426 25.0209 12.2162ZM24.108 26.7081C25.7651 26.7081 27.1085 25.3647 27.1085 23.7076C27.1085 22.0504 25.7651 20.707 24.108 20.707C22.4508 20.707 21.1074 22.0504 21.1074 23.7076C21.1074 25.3647 22.4508 26.7081 24.108 26.7081ZM24.1079 19.2441C21.6433 19.2441 19.6444 21.2431 19.6444 23.7076C19.6444 24.3578 19.785 24.9729 20.0354 25.5308H20.0134C16.9602 25.5308 14.4824 23.053 14.4824 19.9998C14.4824 16.9465 16.9602 14.4688 20.0134 14.4688C22.891 14.4688 25.2501 16.6653 25.5181 19.4726C25.0744 19.3276 24.5999 19.2441 24.1079 19.2441Z" fill="white"/>
</g>
<defs>
<radialGradient id="paint0_radial_8518_62118" cx="0" cy="0" r="1" gradientUnits="userSpaceOnUse" gradientTransform="translate(20 20) rotate(90) scale(16)">
<stop offset="0.3125" stop-color="#655EE3"/>
<stop offset="1" stop-color="#2B2C46"/>
</radialGradient>
<clipPath id="clip0_8518_62118">
<rect width="32" height="32" fill="white" transform="translate(4 4)"/>
</clipPath>
</defs>
</svg>
