<svg xmlns="http://www.w3.org/2000/svg" xmlns:xlink="http://www.w3.org/1999/xlink" width="32" height="32" viewBox="0 0 32 32"><defs><linearGradient id="a" x1="6.13" y1="9.29" x2="25.85" y2="9.29" gradientUnits="userSpaceOnUse"><stop offset="0" stop-color="#bfbfbf"/><stop offset="1" stop-color="#333"/></linearGradient><linearGradient id="b" x1="6.01" y1="18.9" x2="25.99" y2="18.9" gradientUnits="userSpaceOnUse"><stop offset="0" stop-color="#333"/><stop offset="1" stop-color="#bfbfbf"/></linearGradient></defs><path d="M6.77,23.25c.11-1.23.64-2.05,2.46-2.87a18.35,18.35,0,0,1,13.5,0c1.86.85,2.57,1.68,2.58,2.81" fill="none" stroke="#5c6062" stroke-linecap="round" stroke-linejoin="round" stroke-dasharray="2.5 1.5"/><g opacity="0.75"><path d="M25.81,9.27l0,0c0,1.34-.73,2.64-2.67,3.66A17,17,0,0,1,9.07,13c-2-1-2.94-2.36-2.94-3.7A6.34,6.34,0,0,1,9.26,5.65a15.43,15.43,0,0,1,13.88.16A5,5,0,0,1,25.81,9.27Z" fill="url(#a)"/></g><path d="M25.73,9.81,26,22v.09c.11,1.56-.85,3.05-2.9,4.24A15.55,15.55,0,0,1,9,26.33c-2.05-1.19-3-2.72-2.94-4.28V22L6.21,9.77C6.22,11.25,7,12,9,13.15a15.55,15.55,0,0,0,14.12,0C25,12,25.73,11.29,25.73,9.81Z" opacity="0.75" fill="url(#b)"/><path d="M16,5a13.33,13.33,0,0,1,6.57,1.56C24.11,7.48,25,8.62,25,9.79V22.11c0,1.24-.39,2.19-2.39,3.36A13.33,13.33,0,0,1,16,27a13.23,13.23,0,0,1-6.56-1.56C7.84,24.52,7,23.28,7,22.06V9.78c0-1.17.84-2.31,2.4-3.22A13.22,13.22,0,0,1,16,5m0-1A14.27,14.27,0,0,0,8.91,5.7C7,6.83,6,8.31,6,9.79V22c-.1,1.56.88,3.14,2.93,4.33A14.44,14.44,0,0,0,16,28a14.31,14.31,0,0,0,7-1.69C25.13,25.14,26,24,26,22.11V9.79c0-1.48-1-3-2.94-4.09A14.33,14.33,0,0,0,16,4Z" fill="#5c6062"/><path d="M25.48,9.81c0,1.19-.86,2.37-2.71,3.28a17.37,17.37,0,0,1-13.5,0C7.4,12.18,6.53,11,6.52,9.81" fill="none" stroke="#5c6062" stroke-miterlimit="10"/></svg>