<svg xmlns="http://www.w3.org/2000/svg" xmlns:xlink="http://www.w3.org/1999/xlink" width="32" height="32" viewBox="0 0 32 32"><defs><clipPath id="a"><path d="M16.14,13.28a16.75,16.75,0,0,0-4.83.63,9.55,9.55,0,0,0-1.9.79,3.38,3.38,0,0,0-1,.76v0a.71.71,0,0,0,0-.2,3.35,3.35,0,0,1-3.57,3c.11-3.06,5.15-5.49,11.26-5.44S27,15.32,27,18.33a3.35,3.35,0,0,1-3.56-3.08.58.58,0,0,0,0,.22h0a6.1,6.1,0,0,0-2.78-1.54A16.24,16.24,0,0,0,16.14,13.28Z" fill="none"/></clipPath><clipPath id="b"><path d="M1.35,15.25v-.13a3.38,3.38,0,0,0,3.56,3.12v.1c0,3,4.83,5.47,10.87,5.52S26.93,21.48,27,18.43v-.1c0-3-4.83-5.48-10.87-5.53S5,15.18,4.91,18.24a3.38,3.38,0,0,1-3.56-3.12V15a6.56,6.56,0,0,1,1-3.2,8.27,8.27,0,0,1,1.05-1.37A9.15,9.15,0,0,1,4.62,9.34a14,14,0,0,1,3-1.67,20.69,20.69,0,0,1,4.5-1.22A26.31,26.31,0,0,1,17,6.18,23.49,23.49,0,0,1,22,6.89a14.09,14.09,0,0,1,6.75,3.7,6.75,6.75,0,0,1,1.89,4.65,6.42,6.42,0,0,1-.48,2.46,7.62,7.62,0,0,1-1.54,2.35,10.7,10.7,0,0,1-2.67,2,18.32,18.32,0,0,1-3.28,1.35,23.73,23.73,0,0,1-7.71.89A19.56,19.56,0,0,1,5,21.45,7.7,7.7,0,0,1,1.35,15.25Z" fill="none"/></clipPath><clipPath id="c"><path d="M23.48,15.25a.82.82,0,0,0,0,.23h0a1.53,1.53,0,0,0-.33-.34,4.48,4.48,0,0,0-.55-.39A9.28,9.28,0,0,0,20.78,14a16.49,16.49,0,0,0-4.64-.68,16.79,16.79,0,0,0-4.79.62,9.55,9.55,0,0,0-1.85.75,3.25,3.25,0,0,0-1.06.83h0a.81.81,0,0,0,0-.19v-.1c.07-2.07,3.49-3.72,7.63-3.68S23.48,13.2,23.48,15.25Z" fill="none"/></clipPath><clipPath id="d"><path d="M8.48,15.25a3.37,3.37,0,0,1-3.57,3.09v-.1a3.35,3.35,0,0,0,3.57-3Z" fill="none"/></clipPath><clipPath id="e"><path d="M27,12.17a3.35,3.35,0,0,0-3.56,3.08c0-2.05-3.28-3.72-7.37-3.75s-7.56,1.61-7.63,3.68a3.39,3.39,0,0,0-3.57-3.11C5,9,10.06,6.58,16.17,6.64S27,9.16,27,12.17Z" fill="none"/></clipPath><clipPath id="f"><path d="M8.48,15.25a3.36,3.36,0,0,0-3.57-3.08v-.1a3.39,3.39,0,0,1,3.57,3.11Z" fill="none"/></clipPath><clipPath id="g"><path d="M8.48,15.25c0,2,3.27,3.71,7.37,3.75s7.55-1.62,7.62-3.69a.13.13,0,0,0,0-.06A3.35,3.35,0,0,0,27,18.33v.1c-.11,3.05-5.15,5.49-11.26,5.43S4.91,21.35,4.91,18.34A3.37,3.37,0,0,0,8.48,15.25Z" fill="none"/></clipPath><clipPath id="h"><path d="M15.81,17.22a16.75,16.75,0,0,0,4.83-.63,9.28,9.28,0,0,0,1.9-.79,5.52,5.52,0,0,0,.59-.39,2.5,2.5,0,0,0,.24-.22l.07-.08.07-.09a.8.8,0,0,0,0,.23.13.13,0,0,1,0,.06C23.4,17.38,20,19,15.85,19s-7.37-1.71-7.37-3.75a1.07,1.07,0,0,0,0-.23h0C8.86,15.6,11,17.13,15.81,17.22Z" fill="none"/></clipPath><clipPath id="i"><path d="M8.48,15.25a1.85,1.85,0,0,0,0-.23h0a1.67,1.67,0,0,0,.32.33,3.53,3.53,0,0,0,.56.39,9.18,9.18,0,0,0,1.85.8,16.68,16.68,0,0,0,4.63.67,16.44,16.44,0,0,0,4.79-.62,9.55,9.55,0,0,0,1.85-.75A3.2,3.2,0,0,0,23.51,15h0a.67.67,0,0,0,0,.22A3.35,3.35,0,0,1,27,12.17v.09c-.11,3.06-5.15,5.49-11.26,5.44S4.91,15.18,4.91,12.17A3.36,3.36,0,0,1,8.48,15.25Z" fill="none"/></clipPath><clipPath id="j"><path d="M15.75,24.34A23.71,23.71,0,0,1,10,23.61a15.82,15.82,0,0,1-4.77-2,9,9,0,0,1-3-3.08A6.51,6.51,0,0,1,1.35,15a3.33,3.33,0,0,1,3.56-2.95v.1c0,3,4.83,5.48,10.87,5.53S26.93,15.32,27,12.26v-.09c0-3-4.83-5.48-10.87-5.53S5,9,4.91,12.07A3.33,3.33,0,0,0,1.35,15a6.73,6.73,0,0,1,.84-3A8.39,8.39,0,0,1,4.33,9.57a16.41,16.41,0,0,1,7.75-3.11,24.65,24.65,0,0,1,9.85.42,14.26,14.26,0,0,1,6.79,3.71,6.73,6.73,0,0,1-.16,9.49C25.48,23.35,19.73,24.42,15.75,24.34Z" fill="none"/></clipPath></defs><title>torus</title><g style="isolation:isolate"><g style="isolation:isolate"><g clip-path="url(#a)"><g style="isolation:isolate"><path d="M16.14,13.28c4.49.08,6.78,1.47,7.37,2.19a.89.89,0,0,1,0-.22A3.35,3.35,0,0,0,27,18.33c0-3-4.83-5.48-10.87-5.53S5,15.18,4.91,18.24a3.35,3.35,0,0,0,3.57-3l0,.15c1.84-1.78,5.7-2.19,7.69-2.15" fill="#8d9092"/><path d="M8.48,15.28a1.62,1.62,0,0,1,0,.19h0l0,0,0-.07.15-.16.16-.13.3-.22.29-.18.43-.22.42-.19c.15-.06.36-.15.52-.2l.53-.18.61-.16.62-.14.67-.12.7-.1.72-.06.75,0h.76l.76,0,.58,0,.72.07.69.1.65.12.64.15.55.16.56.19.45.18.47.21.32.18.37.22.19.14.24.21.07.07.11.13h0v0l0-.05c0-.05,0-.11,0-.16A3.35,3.35,0,0,0,27,18.33c0-3-4.83-5.48-10.87-5.53S5,15.18,4.91,18.24a3.35,3.35,0,0,0,3.57-3" fill="#8d9092"/><path d="M8.48,15.28a1.62,1.62,0,0,1,0,.19h0l0,0,0-.07.15-.16.16-.13.3-.22.29-.18.43-.22.42-.19c.15-.06.36-.15.52-.2l.53-.18.61-.16.62-.14.67-.12.7-.1.72-.06.75,0h.76l.76,0,.58,0,.72.07.69.1.65.12.64.15.55.16.56.19.45.18.47.21.32.18.37.22.19.14.24.21.07.07.11.13h0v0l0-.05c0-.05,0-.11,0-.16A3.35,3.35,0,0,0,27,18.33c0-3-4.83-5.48-10.87-5.53S5,15.18,4.91,18.24a3.35,3.35,0,0,0,3.57-3" fill="#8a8c8e"/><path d="M8.48,15.28a1.62,1.62,0,0,1,0,.19h0l0,0,0-.07.15-.16.16-.13.3-.22.29-.18.43-.22.42-.19c.15-.06.36-.15.52-.2l.53-.18.61-.16.62-.14.67-.12.7-.1.72-.06.75,0h.76l.76,0,.58,0,.72.07.69.1.65.12.64.15.55.16.56.19.45.18.47.21.32.18.37.22.19.14.24.21.07.07.11.13h0v0l0-.05c0-.05,0-.11,0-.16A3.35,3.35,0,0,0,27,18.33c0-3-4.83-5.48-10.87-5.53S5,15.18,4.91,18.24a3.35,3.35,0,0,0,3.57-3" fill="#86898b"/><path d="M8.48,15.28a1.62,1.62,0,0,1,0,.19h0l0,0,0-.07.15-.16.16-.13.3-.22.29-.18.43-.22.42-.19c.15-.06.36-.15.52-.2l.53-.18.61-.16.62-.14.67-.12.7-.1.72-.06.75,0h.76l.76,0,.58,0,.72.07.69.1.65.12.64.15.55.16.56.19.45.18.47.21.32.18.37.22.19.14.24.21.07.07.11.13h0v0l0-.05c0-.05,0-.11,0-.16A3.35,3.35,0,0,0,27,18.33c0-3-4.83-5.48-10.87-5.53S5,15.18,4.91,18.24a3.35,3.35,0,0,0,3.57-3" fill="#838587"/><path d="M8.48,15.28a1.62,1.62,0,0,1,0,.19h0l0,0,0-.07.15-.16.16-.13.3-.22.29-.18.43-.22.42-.19c.15-.06.36-.15.52-.2l.53-.18.61-.16.62-.14.67-.12.7-.1.72-.06.75,0h.76l.76,0,.58,0,.72.07.69.1.65.12.64.15.55.16.56.19.45.18.47.21.32.18.37.22.19.14.24.21.07.07.11.13h0v0l0-.05c0-.05,0-.11,0-.16a2.78,2.78,0,0,0,.45,1.51l0,0c1.23-.53.72-1.85-1.8-2.84-6.31-2.47-16.86-.45-17,4.33a3.31,3.31,0,0,0,3.37-3" fill="#7f8284"/><path d="M8.48,15.28a1.62,1.62,0,0,1,0,.19h0l0,0,0-.07.15-.16.16-.13.3-.22.29-.18.43-.22.42-.19c.15-.06.36-.15.52-.2l.53-.18.61-.16.62-.14.67-.12.7-.1.72-.06.75,0h.76l.76,0,.58,0,.72.07.69.1.65.12.64.15.55.16.56.19.45.18.47.21.32.18.37.22.19.14.24.21.07.07.11.13h0v0l0-.05c0-.05,0-.11,0-.16a2.67,2.67,0,0,0,.35,1.33l.08-.06c1.09-.72-.44-2.45-4.39-3.23-6.17-1.21-14.15,1-14.18,4.93a3.28,3.28,0,0,0,3.14-2.94" fill="#7c7e80"/><path d="M8.48,15.28a1.62,1.62,0,0,1,0,.19h0l0,0,0-.07.15-.16.16-.13.3-.22.29-.18.43-.22.42-.19c.15-.06.36-.15.52-.2l.53-.18.61-.16.62-.14.67-.12.7-.1.72-.06.75,0h.76l.76,0,.58,0,.72.07.69.1.65.12.64.15.55.16.56.19.45.18.47.21.32.18.37.22.19.14.24.21.07.07.11.13h0v0l0-.05c0-.05,0-.11,0-.16a2.83,2.83,0,0,0,.25,1.15l0,0c1.06-.9-1.71-2.9-6.31-3.28-5.66-.48-11.95,1.61-11.89,5.1a3.24,3.24,0,0,0,2.92-2.91" fill="#787a7d"/><path d="M8.48,15.28a1.62,1.62,0,0,1,0,.19h0l0,0,0-.07.15-.16.16-.13.3-.22.29-.18.43-.22.42-.19c.15-.06.36-.15.52-.2l.53-.18.61-.16.62-.14.67-.12.7-.1.72-.06.75,0h.76l.76,0,.58,0,.72.07.69.1.65.12.64.15.55.16.56.19.45.18.47.21.32.18.37.22.19.14.24.21.07.07.11.13h0v0l0-.05c0-.05,0-.11,0-.16a2.61,2.61,0,0,0,.18,1l.05-.06c.86-1-3.49-3.57-9.66-3-4.07.37-8.4,2.09-8.29,5a3.21,3.21,0,0,0,2.72-2.88" fill="#757779"/><path d="M8.48,15.28a1.62,1.62,0,0,1,0,.19h0l0,0,0-.07.15-.16.16-.13.3-.22.29-.18.43-.22.42-.19c.15-.06.36-.15.52-.2l.53-.18.61-.16.62-.14.67-.12.7-.1.72-.06.75,0h.76l.76,0,.58,0,.72.07.69.1.65.12.64.15.55.16.56.19.45.18.47.21.32.18.37.22.19.14.24.21.07.07.11.13h0v0l0-.05c0-.05,0-.11,0-.16a3,3,0,0,0,.11.79v0c.79-1.31-5.36-4.07-12.21-2.38C10.08,14,5.84,15.23,6,18.11a3.18,3.18,0,0,0,2.51-2.83" fill="#727475"/><path d="M8.48,15.28a1.62,1.62,0,0,1,0,.19h0l0,0,0-.07.15-.16.16-.13.3-.22.29-.18.43-.22.42-.19c.15-.06.36-.15.52-.2l.53-.18.61-.16.62-.14.67-.12.7-.1.72-.06.75,0h.76l.76,0,.58,0,.72.07.69.1.65.12.64.15.55.16.56.19.45.18.47.21.32.18.37.22.19.14.24.21.07.07.11.13h0v0l0-.05c0-.05,0-.11,0-.16a2.54,2.54,0,0,0,.07.61l0-.07c.33-1.91-10.67-4.44-15.91-.47-1.61,1.22-1.53,2.28-1.49,2.73a3.14,3.14,0,0,0,2.31-2.77" fill="#6e7072"/><path d="M23.51,15.46a.56.56,0,0,1,0-.21,2.73,2.73,0,0,0,0,.41h0a.3.3,0,0,0,0-.19h0" fill="#6b6d6e"/><path d="M8.48,15.28a1.62,1.62,0,0,1,0,.19h0l0,0,0-.07.15-.16.16-.13.3-.22.29-.18.43-.22.42-.19c.15-.06.36-.15.52-.2l.53-.18.61-.16.62-.14.67-.12.7-.1.72-.06.75,0h.76l.76,0,.58,0,.72.07.69.1.65.12.64.15.55.16.56.19.45.18.47.21.32.18,0,0-.23-.12C16.48,11.54,6,13.75,6.37,18a3.1,3.1,0,0,0,2.11-2.7" fill="#6b6d6e"/><path d="M23.48,15.25v0" fill="#67696b"/><path d="M8.48,15.28a1.62,1.62,0,0,1,0,.19h0l0,0,0-.07.15-.16.16-.13.3-.22.29-.18.43-.22.42-.19c.15-.06.36-.15.52-.2l.53-.18.61-.16.62-.14.67-.12.7-.1.72-.06.75,0h.76l.76,0,.58,0,.72.07.69.1.65.12.64.15.55.16.35.12-.46-.15c-6.43-1.8-14.44.47-14,4a3.07,3.07,0,0,0,1.91-2.62" fill="#67696b"/><path d="M8.48,15.28a1.62,1.62,0,0,1,0,.19h0l0,0,0-.07.15-.16.16-.13.3-.22.29-.18.43-.22.42-.19c.15-.06.36-.15.52-.2l.53-.18.61-.16.62-.14.67-.12.7-.1.72-.06.75,0h.76l.76,0,.58,0,.72.07.63.09-.34-.05c-6.17-.79-12.08,1.4-11.71,4.35a3,3,0,0,0,1.7-2.52" fill="#646667"/><path d="M8.48,15.28a.65.65,0,0,1,0,.19h0l0,0,0-.07.15-.16.16-.13.3-.22.29-.18.43-.22.42-.19c.15-.06.36-.15.52-.2l.53-.18.61-.16.62-.14.67-.12.7-.1.72-.06.75,0h.76c-6.08.06-9.42,2.28-9.14,4.39a3,3,0,0,0,1.48-2.39" fill="#606264"/><path d="M8.48,15.28a.65.65,0,0,1,0,.19h0l0,0,0-.07.15-.16.16-.13.3-.22.29-.18.43-.22.42-.19c.15-.06.36-.15.52-.2l.53-.18.61-.16.62-.14.64-.12-.66.12c-3.58.8-5.5,2.22-5.28,3.9a3,3,0,0,0,1.24-2.23" fill="#5d5f60"/><path d="M8.48,15.28a.65.65,0,0,1,0,.19h0l0,0,0-.07.15-.16.16-.13.3-.22.29-.18.43-.22.42-.19.35-.14-.53.21c-1.91.88-2.77,1.86-2.56,2.92a2.89,2.89,0,0,0,1-2" fill="#595b5d"/><path d="M25.2,16.14s-.05.14-.1.17l-.08.05a1.62,1.62,0,0,0-.19.18,1.84,1.84,0,0,1-.76.41A3.72,3.72,0,0,0,27,18.33l-.06-.45C26.47,16.24,25.48,16,25.47,16s-.2.1-.27.17" fill="#838587"/><path d="M25.33,16.84l-1,.27-.14,0a3.78,3.78,0,0,0,2.46,1.18l-.1-.43a1.24,1.24,0,0,0-.28-.56,3.59,3.59,0,0,0-.57-.46.9.9,0,0,0-.4,0" fill="#86898b"/><path d="M25.16,17.3a4.53,4.53,0,0,0-.71.06,3.73,3.73,0,0,0,1.89.91l-.17-.38a1.16,1.16,0,0,0-.14-.24,4,4,0,0,0-.49-.3.8.8,0,0,0-.38-.05" fill="#8a8c8e"/><path d="M24.86,17.63h-.07a3.92,3.92,0,0,0,1.09.52l-.23-.28s-.41-.19-.42-.19a1.43,1.43,0,0,0-.37-.06" fill="#8d9092"/></g></g></g><g style="isolation:isolate"><g clip-path="url(#b)"><g style="isolation:isolate"><path d="M1.35,15.25c.12,10.12,20.37,12.07,27.23,4.8,5.62-6-.49-14.29-13.43-13.88C8.58,6.38,1.77,9.2,1.35,15v.1a3.38,3.38,0,0,0,3.56,3.12c.11-3.06,5.15-5.49,11.26-5.44S27,15.32,27,18.33v.1c-.11,3.05-5.15,5.49-11.26,5.43S4.91,21.35,4.91,18.34v-.1a3.38,3.38,0,0,1-3.56-3.12v.13" fill="#8d9092"/><path d="M1.35,15.12a3,3,0,0,0,1.16,2.29l-.11-.25c-1.91-7,10.78-10.74,17.68-6.89,1.62.9,1.48,1.84,1.48,1.85-.12.33-.27.34-1.23.39-8.75.43-8.75.43-9.62.66-4.59,1.2-5.61,2.93-6.79,4.94a4.55,4.55,0,0,0,1,.13c.11-3.06,5.15-5.49,11.26-5.44S27,15.32,27,18.33s-5.15,5.59-11.26,5.53S4.91,21.35,4.91,18.34c-.34-.11-.68-.15-1-.23l-.23.19s-.09.12-.15.13-.51.05-1-1a3,3,0,0,1-1.16-2.29l0,.65a6.47,6.47,0,0,0,.3,1.48l.19.51A7.61,7.61,0,0,0,2.5,19l.35.48c.24.28.56.64.81.9l.5.45c.26.2.6.46.87.65l.63.41.89.48.74.35.92.37.83.28c.29.08.66.2,1,.27l.92.22,1,.18,1,.15,1,.1,1,.06.83,0h1.06l1,0,1-.1c.3,0,.69-.08,1-.13l.95-.17,1-.21.88-.24c.27-.09.64-.2.91-.3l.8-.3.87-.39.7-.36.84-.51.58-.4.81-.68.44-.44c.23-.26.53-.63.75-.91l.3-.46a7,7,0,0,0,.58-1.22l.16-.49a7,7,0,0,0,.23-1.5c0-.23,0-.52,0-.75a7,7,0,0,0-.29-1.47l-.19-.51a7.09,7.09,0,0,0-.65-1.2l-.35-.49c-.23-.27-.56-.63-.81-.9l-.5-.44c-.25-.21-.6-.47-.86-.66l-.64-.41c-.26-.14-.61-.34-.89-.48l-.74-.35-.91-.37-.84-.28c-.28-.08-.66-.2-.95-.27l-.91-.22-1-.18-1-.14-1-.11-1-.06-.83,0h-1l-1,0-1,.1-1,.13-.95.17-.95.21-.89.24-.91.3-.8.3-.87.39L6,8.42l-.84.51-.58.41c-.24.19-.57.46-.81.67l-.44.44c-.23.26-.53.63-.75.91l-.3.46A7,7,0,0,0,1.74,13l-.16.49A7.42,7.42,0,0,0,1.35,15v.1" fill="#8d9092"/><path d="M1.35,15.12a2.82,2.82,0,0,0,.89,2l-.13-.45c-1.13-8.53,14.47-9.77,19-6,.19.15,1.77,1.49,1.23,2.05-.26.27-.62.22-2.38,0C12.05,11.86,5,14.29,4.29,18.18a4.2,4.2,0,0,0,.62.06c.11-3.06,5.15-5.49,11.26-5.44S27,15.32,27,18.33s-5.15,5.59-11.26,5.53S4.91,21.35,4.91,18.34a2.1,2.1,0,0,0-.62-.16l-.15.37c0,.12,0,.29-.09.37a.53.53,0,0,1-.38.14s-.82-.2-1.43-1.9a2.82,2.82,0,0,1-.89-2l0,.65a6.47,6.47,0,0,0,.3,1.48l.19.51A7.61,7.61,0,0,0,2.5,19l.35.48c.24.28.56.64.81.9l.5.45c.26.2.6.46.87.65l.63.41.89.48.74.35.92.37.83.28c.29.08.66.2,1,.27l.92.22,1,.18,1,.15,1,.1,1,.06.83,0h1.06l1,0,1-.1c.3,0,.69-.08,1-.13l.95-.17,1-.21.88-.24c.27-.09.64-.2.91-.3l.8-.3.87-.39.7-.36.84-.51.58-.4.81-.68.44-.44c.23-.26.53-.63.75-.91l.3-.46a7,7,0,0,0,.58-1.22l.16-.49a7,7,0,0,0,.23-1.5c0-.23,0-.52,0-.75a7,7,0,0,0-.29-1.47l-.19-.51a7.09,7.09,0,0,0-.65-1.2l-.35-.49c-.23-.27-.56-.63-.81-.9l-.5-.44c-.25-.21-.6-.47-.86-.66l-.64-.41c-.26-.14-.61-.34-.89-.48l-.74-.35-.91-.37-.84-.28c-.28-.08-.66-.2-.95-.27l-.91-.22-1-.18-1-.14-1-.11-1-.06-.83,0h-1l-1,0-1,.1-1,.13-.95.17-.95.21-.89.24-.91.3-.8.3-.87.39L6,8.42l-.84.51-.58.41c-.24.19-.57.46-.81.67l-.44.44c-.23.26-.53.63-.75.91l-.3.46A7,7,0,0,0,1.74,13l-.16.49A7.42,7.42,0,0,0,1.35,15v.1" fill="#8a8c8e"/><path d="M1.35,15.12A2.84,2.84,0,0,0,2,17L2,16.44c-.8-8,14.75-10.35,20.39-5a3.69,3.69,0,0,1,1,1.65.51.51,0,0,1-.19.34c-.29.17-.78,0-1.11-.08C6.29,11.29,4.74,17.05,4.59,18.22l.32,0c.11-3.06,5.15-5.49,11.26-5.44S27,15.32,27,18.33s-5.15,5.59-11.26,5.53S4.91,21.35,4.91,18.34a.46.46,0,0,0-.32-.12l0,.45c0,.49,0,1.06-.14,1.16S2.56,19,2,17a2.84,2.84,0,0,1-.69-1.83l0,.65a6.47,6.47,0,0,0,.3,1.48l.19.51A7.61,7.61,0,0,0,2.5,19l.35.48c.24.28.56.64.81.9l.5.45c.26.2.6.46.87.65l.63.41.89.48.74.35.92.37.83.28c.29.08.66.2,1,.27l.92.22,1,.18,1,.15,1,.1,1,.06.83,0h1.06l1,0,1-.1c.3,0,.69-.08,1-.13l.95-.17,1-.21.88-.24c.27-.09.64-.2.91-.3l.8-.3.87-.39.7-.36.84-.51.58-.4.81-.68.44-.44c.23-.26.53-.63.75-.91l.3-.46a7,7,0,0,0,.58-1.22l.16-.49a7,7,0,0,0,.23-1.5c0-.23,0-.52,0-.75a7,7,0,0,0-.29-1.47l-.19-.51a7.09,7.09,0,0,0-.65-1.2l-.35-.49c-.23-.27-.56-.63-.81-.9l-.5-.44c-.25-.21-.6-.47-.86-.66l-.64-.41c-.26-.14-.61-.34-.89-.48l-.74-.35-.91-.37-.84-.28c-.28-.08-.66-.2-.95-.27l-.91-.22-1-.18-1-.14-1-.11-1-.06-.83,0h-1l-1,0-1,.1-1,.13-.95.17-.95.21-.89.24-.91.3-.8.3-.87.39L6,8.42l-.84.51-.58.41c-.24.19-.57.46-.81.67l-.44.44c-.23.26-.53.63-.75.91l-.3.46A7,7,0,0,0,1.74,13l-.16.49A7.42,7.42,0,0,0,1.35,15v.1" fill="#86898b"/><path d="M1.35,15.12a2.82,2.82,0,0,0,.54,1.64l0-.25C1.24,8.5,16.19,6,22.56,11.26c1.13.93,2.36,2.76,1.94,3.1,0,0,0,0-2.11-.61-8.49-2.6-17.21.37-17.52,4.49.15-3.06,5.19-5.49,11.3-5.44S27,15.32,27,18.33s-5.15,5.59-11.26,5.53S4.91,21.35,4.91,18.34l0,.35a3.93,3.93,0,0,0,.48,1.52c.09.15.33.41.23.55s-2.93-.7-3.69-4a2.82,2.82,0,0,1-.54-1.64l0,.65a6.47,6.47,0,0,0,.3,1.48l.19.51A7.61,7.61,0,0,0,2.5,19l.35.48c.24.28.56.64.81.9l.5.45c.26.2.6.46.87.65l.63.41.89.48.74.35.92.37.83.28c.29.08.66.2,1,.27l.92.22,1,.18,1,.15,1,.1,1,.06.83,0h1.06l1,0,1-.1c.3,0,.69-.08,1-.13l.95-.17,1-.21.88-.24c.27-.09.64-.2.91-.3l.8-.3.87-.39.7-.36.84-.51.58-.4.81-.68.44-.44c.23-.26.53-.63.75-.91l.3-.46a7,7,0,0,0,.58-1.22l.16-.49a7,7,0,0,0,.23-1.5c0-.23,0-.52,0-.75a7,7,0,0,0-.29-1.47l-.19-.51a7.09,7.09,0,0,0-.65-1.2l-.35-.49c-.23-.27-.56-.63-.81-.9l-.5-.44c-.25-.21-.6-.47-.86-.66l-.64-.41c-.26-.14-.61-.34-.89-.48l-.74-.35-.91-.37-.84-.28c-.28-.08-.66-.2-.95-.27l-.91-.22-1-.18-1-.14-1-.11-1-.06-.83,0h-1l-1,0-1,.1-1,.13-.95.17-.95.21-.89.24-.91.3-.8.3-.87.39L6,8.42l-.84.51-.58.41c-.24.19-.57.46-.81.67l-.44.44c-.23.26-.53.63-.75.91l-.3.46A7,7,0,0,0,1.74,13l-.16.49A7.42,7.42,0,0,0,1.35,15v.1" fill="#838587"/><path d="M1.35,15.12a2.76,2.76,0,0,0,.42,1.46L1.72,16C1.55,7.73,18.09,6,23.56,11.79c11.62,12.3-8.49,12.13-8.7,12.12S3,23.19,1.77,16.58a2.76,2.76,0,0,1-.42-1.46l0,.65a6.47,6.47,0,0,0,.3,1.48l.19.51A7.61,7.61,0,0,0,2.5,19l.35.48c.24.28.56.64.81.9l.5.45c.26.2.6.46.87.65l.63.41.89.48.74.35.92.37.83.28c.29.08.66.2,1,.27l.92.22,1,.18,1,.15,1,.1,1,.06.83,0h1.06l1,0,1-.1c.3,0,.69-.08,1-.13l.95-.17,1-.21.88-.24c.27-.09.64-.2.91-.3l.8-.3.87-.39.7-.36.84-.51.58-.4.81-.68.44-.44c.23-.26.53-.63.75-.91l.3-.46a7,7,0,0,0,.58-1.22l.16-.49a7,7,0,0,0,.23-1.5c0-.23,0-.52,0-.75a7,7,0,0,0-.29-1.47l-.19-.51a7.09,7.09,0,0,0-.65-1.2l-.35-.49c-.23-.27-.56-.63-.81-.9l-.5-.44c-.25-.21-.6-.47-.86-.66l-.64-.41c-.26-.14-.61-.34-.89-.48l-.74-.35-.91-.37-.84-.28c-.28-.08-.66-.2-.95-.27l-.91-.22-1-.18-1-.14-1-.11-1-.06-.83,0h-1l-1,0-1,.1-1,.13-.95.17-.95.21-.89.24-.91.3-.8.3-.87.39L6,8.42l-.84.51-.58.41c-.24.19-.57.46-.81.67l-.44.44c-.23.26-.53.63-.75.91l-.3.46A7,7,0,0,0,1.74,13l-.16.49A7.42,7.42,0,0,0,1.35,15v.1" fill="#7f8284"/><path d="M1.35,15.12a2.67,2.67,0,0,0,.32,1.28l0-.27C1.55,7.9,17,5.1,24.24,12s1.51,11.76-8,12c-5.13.11-13.62-1.86-14.58-7.61a2.67,2.67,0,0,1-.32-1.28l0,.65a6.47,6.47,0,0,0,.3,1.48l.19.51A7.61,7.61,0,0,0,2.5,19l.35.48c.24.28.56.64.81.9l.5.45c.26.2.6.46.87.65l.63.41.89.48.74.35.92.37.83.28c.29.08.66.2,1,.27l.92.22,1,.18,1,.15,1,.1,1,.06.83,0h1.06l1,0,1-.1c.3,0,.69-.08,1-.13l.95-.17,1-.21.88-.24c.27-.09.64-.2.91-.3l.8-.3.87-.39.7-.36.84-.51.58-.4.81-.68.44-.44c.23-.26.53-.63.75-.91l.3-.46a7,7,0,0,0,.58-1.22l.16-.49a7,7,0,0,0,.23-1.5c0-.23,0-.52,0-.75a7,7,0,0,0-.29-1.47l-.19-.51a7.09,7.09,0,0,0-.65-1.2l-.35-.49c-.23-.27-.56-.63-.81-.9l-.5-.44c-.25-.21-.6-.47-.86-.66l-.64-.41c-.26-.14-.61-.34-.89-.48l-.74-.35-.91-.37-.84-.28c-.28-.08-.66-.2-.95-.27l-.91-.22-1-.18-1-.14-1-.11-1-.06-.83,0h-1l-1,0-1,.1-1,.13-.95.17-.95.21-.89.24-.91.3-.8.3-.87.39L6,8.42l-.84.51-.58.41c-.24.19-.57.46-.81.67l-.44.44c-.23.26-.53.63-.75.91l-.3.46A7,7,0,0,0,1.74,13l-.16.49A7.42,7.42,0,0,0,1.35,15v.1" fill="#7c7e80"/><path d="M1.35,15.12a2.79,2.79,0,0,0,.23,1.11l0-.59C2,7.59,18.1,5.26,24.87,12.26c7.65,7.9-1.71,11.84-9.1,11.82-4.52,0-13.31-1.66-14.19-7.85a2.79,2.79,0,0,1-.23-1.11l0,.65a6.47,6.47,0,0,0,.3,1.48l.19.51A7.61,7.61,0,0,0,2.5,19l.35.48c.24.28.56.64.81.9l.5.45c.26.2.6.46.87.65l.63.41.89.48.74.35.92.37.83.28c.29.08.66.2,1,.27l.92.22,1,.18,1,.15,1,.1,1,.06.83,0h1.06l1,0,1-.1c.3,0,.69-.08,1-.13l.95-.17,1-.21.88-.24c.27-.09.64-.2.91-.3l.8-.3.87-.39.7-.36.84-.51.58-.4.81-.68.44-.44c.23-.26.53-.63.75-.91l.3-.46a7,7,0,0,0,.58-1.22l.16-.49a7,7,0,0,0,.23-1.5c0-.23,0-.52,0-.75a7,7,0,0,0-.29-1.47l-.19-.51a7.09,7.09,0,0,0-.65-1.2l-.35-.49c-.23-.27-.56-.63-.81-.9l-.5-.44c-.25-.21-.6-.47-.86-.66l-.64-.41c-.26-.14-.61-.34-.89-.48l-.74-.35-.91-.37-.84-.28c-.28-.08-.66-.2-.95-.27l-.91-.22-1-.18-1-.14-1-.11-1-.06-.83,0h-1l-1,0-1,.1-1,.13-.95.17-.95.21-.89.24-.91.3-.8.3-.87.39L6,8.42l-.84.51-.58.41c-.24.19-.57.46-.81.67l-.44.44c-.23.26-.53.63-.75.91l-.3.46A7,7,0,0,0,1.74,13l-.16.49A7.42,7.42,0,0,0,1.35,15v.1" fill="#787a7d"/><path d="M1.35,15.12a2.64,2.64,0,0,0,.17.93l0-.41c.58-9.28,18-10,24-3.07C33,21.1,21.74,24.64,13.87,24.08c-5.33-.39-11.77-2.72-12.35-8a2.64,2.64,0,0,1-.17-.93l0,.65a6.47,6.47,0,0,0,.3,1.48l.19.51A7.61,7.61,0,0,0,2.5,19l.35.48c.24.28.56.64.81.9l.5.45c.26.2.6.46.87.65l.63.41.89.48.74.35.92.37.83.28c.29.08.66.2,1,.27l.92.22,1,.18,1,.15,1,.1,1,.06.83,0h1.06l1,0,1-.1c.3,0,.69-.08,1-.13l.95-.17,1-.21.88-.24c.27-.09.64-.2.91-.3l.8-.3.87-.39.7-.36.84-.51.58-.4.81-.68.44-.44c.23-.26.53-.63.75-.91l.3-.46a7,7,0,0,0,.58-1.22l.16-.49a7,7,0,0,0,.23-1.5c0-.23,0-.52,0-.75a7,7,0,0,0-.29-1.47l-.19-.51a7.09,7.09,0,0,0-.65-1.2l-.35-.49c-.23-.27-.56-.63-.81-.9l-.5-.44c-.25-.21-.6-.47-.86-.66l-.64-.41c-.26-.14-.61-.34-.89-.48l-.74-.35-.91-.37-.84-.28c-.28-.08-.66-.2-.95-.27l-.91-.22-1-.18-1-.14-1-.11-1-.06-.83,0h-1l-1,0-1,.1-1,.13-.95.17-.95.21-.89.24-.91.3-.8.3-.87.39L6,8.42l-.84.51-.58.41c-.24.19-.57.46-.81.67l-.44.44c-.23.26-.53.63-.75.91l-.3.46A7,7,0,0,0,1.74,13l-.16.49A7.42,7.42,0,0,0,1.35,15v.1" fill="#757779"/><path d="M1.35,15.12a2.79,2.79,0,0,0,.11.76v-.62C2.44,6.54,19.58,5,26.24,13c6.18,7.43-3.31,12-12.77,11.13-7-.68-11.71-3.91-12-8.22a2.79,2.79,0,0,1-.11-.76l0,.65a6.47,6.47,0,0,0,.3,1.48l.19.51A7.61,7.61,0,0,0,2.5,19l.35.48c.24.28.56.64.81.9l.5.45c.26.2.6.46.87.65l.63.41.89.48.74.35.92.37.83.28c.29.08.66.2,1,.27l.92.22,1,.18,1,.15,1,.1,1,.06.83,0h1.06l1,0,1-.1c.3,0,.69-.08,1-.13l.95-.17,1-.21.88-.24c.27-.09.64-.2.91-.3l.8-.3.87-.39.7-.36.84-.51.58-.4.81-.68.44-.44c.23-.26.53-.63.75-.91l.3-.46a7,7,0,0,0,.58-1.22l.16-.49a7,7,0,0,0,.23-1.5c0-.23,0-.52,0-.75a7,7,0,0,0-.29-1.47l-.19-.51a7.09,7.09,0,0,0-.65-1.2l-.35-.49c-.23-.27-.56-.63-.81-.9l-.5-.44c-.25-.21-.6-.47-.86-.66l-.64-.41c-.26-.14-.61-.34-.89-.48l-.74-.35-.91-.37-.84-.28c-.28-.08-.66-.2-.95-.27l-.91-.22-1-.18-1-.14-1-.11-1-.06-.83,0h-1l-1,0-1,.1-1,.13-.95.17-.95.21-.89.24-.91.3-.8.3-.87.39L6,8.42l-.84.51-.58.41c-.24.19-.57.46-.81.67l-.44.44c-.23.26-.53.63-.75.91l-.3.46A7,7,0,0,0,1.74,13l-.16.49A7.42,7.42,0,0,0,1.35,15v.1" fill="#727475"/><path d="M1.35,15.12a2.78,2.78,0,0,0,.06.58l0-.61c1.23-9,19-10.31,25.38-1.83,5.66,7.55-5,12-14.42,10.76C5.87,23.14,1.67,20,1.41,15.7a2.78,2.78,0,0,1-.06-.58l0,.65a6.47,6.47,0,0,0,.3,1.48l.19.51A7.61,7.61,0,0,0,2.5,19l.35.48c.24.28.56.64.81.9l.5.45c.26.2.6.46.87.65l.63.41.89.48.74.35.92.37.83.28c.29.08.66.2,1,.27l.92.22,1,.18,1,.15,1,.1,1,.06.83,0h1.06l1,0,1-.1c.3,0,.69-.08,1-.13l.95-.17,1-.21.88-.24c.27-.09.64-.2.91-.3l.8-.3.87-.39.7-.36.84-.51.58-.4.81-.68.44-.44c.23-.26.53-.63.75-.91l.3-.46a7,7,0,0,0,.58-1.22l.16-.49a7,7,0,0,0,.23-1.5c0-.23,0-.52,0-.75a7,7,0,0,0-.29-1.47l-.19-.51a7.09,7.09,0,0,0-.65-1.2l-.35-.49c-.23-.27-.56-.63-.81-.9l-.5-.44c-.25-.21-.6-.47-.86-.66l-.64-.41c-.26-.14-.61-.34-.89-.48l-.74-.35-.91-.37-.84-.28c-.28-.08-.66-.2-.95-.27l-.91-.22-1-.18-1-.14-1-.11-1-.06-.83,0h-1l-1,0-1,.1-1,.13-.95.17-.95.21-.89.24-.91.3-.8.3-.87.39L6,8.42l-.84.51-.58.41c-.24.19-.57.46-.81.67l-.44.44c-.23.26-.53.63-.75.91l-.3.46A7,7,0,0,0,1.74,13l-.16.49A7.42,7.42,0,0,0,1.35,15v.1" fill="#6e7072"/><path d="M1.76,17.52a6.11,6.11,0,0,1-.38-2,2.56,2.56,0,0,1,0-.39V15c0,.23,0,.53,0,.75a6.08,6.08,0,0,0,.3,1.48l.12.34,0-.07" fill="#6b6d6e"/><path d="M1.35,15.12a2.56,2.56,0,0,0,0,.39l0-.63c1.36-8.8,19.87-10,25.71-1.65C32.56,21,21.48,25.59,11.72,24a18.1,18.1,0,0,1-6-2.05l.68.37.12.06.74.35.92.37.83.28c.29.08.66.2,1,.27l.92.22,1,.18,1,.15,1,.1,1,.06.83,0h1.06l1,0,1-.1c.3,0,.69-.08,1-.13l.95-.17,1-.21.88-.24c.27-.09.64-.2.91-.3l.8-.3.87-.39.7-.36.84-.51.58-.4.81-.68.44-.44c.23-.26.53-.63.75-.91l.3-.46a7,7,0,0,0,.58-1.22l.16-.49a7,7,0,0,0,.23-1.5c0-.23,0-.52,0-.75a7,7,0,0,0-.29-1.47l-.19-.51a7.09,7.09,0,0,0-.65-1.2l-.35-.49c-.23-.27-.56-.63-.81-.9l-.5-.44c-.25-.21-.6-.47-.86-.66l-.64-.41c-.26-.14-.61-.34-.89-.48l-.74-.35-.91-.37-.84-.28c-.28-.08-.66-.2-.95-.27l-.91-.22-1-.18-1-.14-1-.11-1-.06-.83,0h-1l-1,0-1,.1-1,.13-.95.17-.95.21-.89.24-.91.3-.8.3-.87.39L6,8.42l-.84.51-.58.41c-.24.19-.57.46-.81.67l-.44.44c-.23.26-.53.63-.75.91l-.3.46A7,7,0,0,0,1.74,13l-.16.49A7.42,7.42,0,0,0,1.35,15v.1" fill="#6b6d6e"/><path d="M1.42,16.23c0-.28-.06-.64-.06-.92a1.21,1.21,0,0,1,0-.19V15c0,.23,0,.53,0,.75s0,.38.07.54l0-.08" fill="#67696b"/><path d="M1.35,15.12a1.21,1.21,0,0,0,0,.19l0-.63c1.87-9.85,20.73-9.33,26-1.48,5.42,8-6.06,12.55-16.05,10.72a21,21,0,0,1-2.81-.74l.85.27.58.16.92.22,1,.18,1,.15,1,.1,1,.06.83,0h1.06l1,0,1-.1c.3,0,.69-.08,1-.13l.95-.17,1-.21.88-.24c.27-.09.64-.2.91-.3l.8-.3.87-.39.7-.36.84-.51.58-.4.81-.68.44-.44c.23-.26.53-.63.75-.91l.3-.46a7,7,0,0,0,.58-1.22l.16-.49a7,7,0,0,0,.23-1.5c0-.23,0-.52,0-.75a7,7,0,0,0-.29-1.47l-.19-.51a7.09,7.09,0,0,0-.65-1.2l-.35-.49c-.23-.27-.56-.63-.81-.9l-.5-.44c-.25-.21-.6-.47-.86-.66l-.64-.41c-.26-.14-.61-.34-.89-.48l-.74-.35-.91-.37-.84-.28c-.28-.08-.66-.2-.95-.27l-.91-.22-1-.18-1-.14-1-.11-1-.06-.83,0h-1l-1,0-1,.1-1,.13-.95.17-.95.21-.89.24-.91.3-.8.3-.87.39L6,8.42l-.84.51-.58.41c-.24.19-.57.46-.81.67l-.44.44c-.23.26-.53.63-.75.91l-.3.46A7,7,0,0,0,1.74,13l-.16.49A7.42,7.42,0,0,0,1.35,15v.1" fill="#67696b"/><path d="M1.35,15.17v0" fill="#646667"/><path d="M1.35,15.1C2.1,6.19,20.22,4.33,27.19,12.44c5.46,6.35-1.83,12.75-13.44,11.81-.47,0-1.06-.11-1.77-.22l1,.14.92.09,1,.06.83,0h1.06l1,0,1-.1c.3,0,.69-.08,1-.13l.95-.17,1-.21.88-.24c.27-.09.64-.2.91-.3l.8-.3.87-.39.7-.36.84-.51.58-.4.81-.68.44-.44c.23-.26.53-.63.75-.91l.3-.46a7,7,0,0,0,.58-1.22l.16-.49a7,7,0,0,0,.23-1.5c0-.23,0-.52,0-.75a7,7,0,0,0-.29-1.47l-.19-.51a7.09,7.09,0,0,0-.65-1.2l-.35-.49c-.23-.27-.56-.63-.81-.9l-.5-.44c-.25-.21-.6-.47-.86-.66l-.64-.41c-.26-.14-.61-.34-.89-.48l-.74-.35-.91-.37-.84-.28c-.28-.08-.66-.2-.95-.27l-.91-.22-1-.18-1-.14-1-.11-1-.06-.83,0h-1l-1,0-1,.1-1,.13-.95.17-.95.21-.89.24-.91.3-.8.3-.87.39L6,8.42l-.84.51-.58.41c-.24.19-.57.46-.81.67l-.44.44c-.23.26-.53.63-.75.91l-.3.46A7,7,0,0,0,1.74,13l-.16.49A7.42,7.42,0,0,0,1.35,15v.08" fill="#646667"/><path d="M1.44,14.16C3.58,5,23.18,4.63,28.33,13.6,32,20,24.64,24.43,15.7,24.34h1.11l1,0,1-.1c.3,0,.69-.08,1-.13l.95-.17,1-.21.88-.24c.27-.09.64-.2.91-.3l.8-.3.87-.39.7-.36.84-.51.58-.4.81-.68.44-.44c.23-.26.53-.63.75-.91l.3-.46a7,7,0,0,0,.58-1.22l.16-.49a7,7,0,0,0,.23-1.5c0-.23,0-.52,0-.75a7,7,0,0,0-.29-1.47l-.19-.51a7.09,7.09,0,0,0-.65-1.2l-.35-.49c-.23-.27-.56-.63-.81-.9l-.5-.44c-.25-.21-.6-.47-.86-.66l-.64-.41c-.26-.14-.61-.34-.89-.48l-.74-.35-.91-.37-.84-.28c-.28-.08-.66-.2-.95-.27l-.91-.22-1-.18-1-.14-1-.11-1-.06-.83,0h-1l-1,0-1,.1-1,.13-.95.17-.95.21-.89.24-.91.3-.8.3-.87.39L6,8.42l-.84.51-.58.41c-.24.19-.57.46-.81.67l-.44.44c-.23.26-.53.63-.75.91l-.3.46A7,7,0,0,0,1.74,13l-.16.49c-.06.24-.13.57-.17.81l0-.18" fill="#606264"/><path d="M1.67,13.23C5,4.45,24.53,4.87,28.8,13.82c2.3,4.82-1.19,8.83-8.9,10.22l1-.17.9-.2.88-.24c.27-.09.64-.2.91-.3l.8-.3.87-.39.7-.36.84-.51.58-.4.81-.68.44-.44c.23-.26.53-.63.75-.91l.3-.46a7,7,0,0,0,.58-1.22l.16-.49a7,7,0,0,0,.23-1.5c0-.23,0-.52,0-.75a7,7,0,0,0-.29-1.47l-.19-.51a7.09,7.09,0,0,0-.65-1.2l-.35-.49c-.23-.27-.56-.63-.81-.9l-.5-.44c-.25-.21-.6-.47-.86-.66l-.64-.41c-.26-.14-.61-.34-.89-.48l-.74-.35-.91-.37-.84-.28c-.28-.08-.66-.2-.95-.27l-.91-.22-1-.18-1-.14-1-.11-1-.06-.83,0h-1l-1,0-1,.1-1,.13-.95.17-.95.21-.89.24-.91.3-.8.3-.87.39L6,8.42l-.84.51-.58.41c-.24.19-.57.46-.81.67l-.44.44c-.23.26-.53.63-.75.91l-.3.46A7,7,0,0,0,1.74,13l-.09.26a.19.19,0,0,0,0-.07" fill="#5d5f60"/><path d="M3,10.91c6.13-7.1,26.29-4.84,26.8,5.37.08,1.61-.58,4.63-5.95,6.74l.78-.31.59-.27.7-.36.84-.51.58-.4.81-.68.44-.44c.23-.26.53-.63.75-.91l.3-.46a7,7,0,0,0,.58-1.22l.16-.49a7,7,0,0,0,.23-1.5c0-.23,0-.52,0-.75a7,7,0,0,0-.29-1.47l-.19-.51a7.09,7.09,0,0,0-.65-1.2l-.35-.49c-.23-.27-.56-.63-.81-.9l-.5-.44c-.25-.21-.6-.47-.86-.66l-.64-.41c-.26-.14-.61-.34-.89-.48l-.74-.35-.91-.37-.84-.28c-.28-.08-.66-.2-.95-.27l-.91-.22-1-.18-1-.14-1-.11-1-.06-.83,0h-1l-1,0-1,.1-1,.13-.95.17-.95.21-.89.24-.91.3-.8.3-.87.39L6,8.42l-.84.51-.58.41c-.24.19-.57.46-.81.67l-.44.44c-.23.26-.53.63-.75.91l-.3.46L2.21,12l.36-.57c.13-.16.29-.38.42-.53" fill="#595b5d"/><path d="M3.54,17.73l.76-.93a10.53,10.53,0,0,1,5.31-3.42,26.82,26.82,0,0,1,8.23-1.09c2.57,0,2.73-.15,2.93-.35.95-.91-2.47-3.11-7.47-3.08-11.06.05-12.2,8-10.18,8.88a.55.55,0,0,0,.42,0" fill="#909396"/><path d="M3.74,16.93c1.12-.69,1.88-1.82,3-2.46a17.17,17.17,0,0,1,4.35-1.62,27.11,27.11,0,0,1,4.21-.62c4.72-.27,4.91-.28,5.08-.78.37-1.1-7-4.42-14.09-.86-4.68,2.35-4.16,6.35-3.12,6.52a.87.87,0,0,0,.53-.18" fill="#949799"/><path d="M3.39,16.49c.3,0,1-.59,1.35-.83a15,15,0,0,1,6.33-2.91c1.49-.36,1.49-.36,7.33-.92,1.15-.11,1.42-.36,1.49-.47a.56.56,0,0,0,0-.44C19,8.78,6.1,7.48,3.09,13.89c0,0-.86,2.07.3,2.6" fill="#979a9d"/><path d="M3.78,15.86a7.79,7.79,0,0,0,1.09-.59,17.49,17.49,0,0,1,6.57-2.72c.88-.18,1.2-.25,2.28-.39,5.5-.73,5.5-.73,5.63-.87a.51.51,0,0,0,.1-.43c-.72-2.2-12.74-3-15.9,2.56C3,14.4,3,15.49,3.3,15.76a.67.67,0,0,0,.48.1" fill="#9b9ea0"/><path d="M4.16,15.26a1.57,1.57,0,0,0,.59-.3,26.16,26.16,0,0,1,5.35-2.2A28.2,28.2,0,0,1,13.7,12a30.4,30.4,0,0,0,4.13-.49c.3-.09.76-.11,1-.33a.59.59,0,0,0,.18-.41C18.77,9,7.73,7.64,4.08,13c-.79,1.16-.75,2.06-.41,2.26.12.08.34,0,.49,0" fill="#9ea1a4"/><path d="M5,14.6a4.79,4.79,0,0,0,.56-.26,27.21,27.21,0,0,1,6.73-2.18c1.61-.33,3.27-.31,4.87-.65,1.34-.29,1.58-.34,1.58-.74,0-1.66-10.33-3-14.09,1.83-.72.93-.95,2-.47,2.13.23.09.58-.06.82-.13" fill="#a2a4a7"/><path d="M4.68,14.24a4.24,4.24,0,0,0,1.74-.52,33.12,33.12,0,0,1,4.44-1.36c2.36-.53,4.8-.61,7.15-1.21a.6.6,0,0,0,.39-.4c.08-1.05-7.8-3.19-12.91,1.19a3.1,3.1,0,0,0-1.16,2,.57.57,0,0,0,.35.31" fill="#a5a8ab"/><path d="M5.26,13.8l1.45-.35c1.52-.41,3-.95,4.57-1.26s3.29-.43,4.92-.78c1.86-.4,1.86-.4,1.9-.69.15-.91-7-2.89-12,.88-.78.58-1.46,1.5-1.25,1.93a.6.6,0,0,0,.4.27" fill="#a9abae"/><path d="M5.78,13.46A27.24,27.24,0,0,0,9,12.62a39.89,39.89,0,0,1,4.08-.86c4.26-.64,4.61-.69,4.69-1.06.2-1-6.32-2.53-11.06.6-1.06.7-1.75,1.6-1.51,2a.72.72,0,0,0,.54.19" fill="#acafb2"/><path d="M6.34,13.15a6,6,0,0,0,1.25-.31c.13,0,3.12-.71,3.14-.72,1.82-.36,3.67-.51,5.48-.91,1.22-.27,1.3-.52,1.3-.53.27-1-5.9-2.19-10,.27C5.69,12,5.51,12.85,5.64,13s.49.13.7.13" fill="#b6b9bb"/><path d="M6.73,12.85a9.66,9.66,0,0,0,2.2-.4c.26,0,.6-.16.87-.22s.66-.15.95-.2l.43-.07.48-.11,4.55-.75a6.87,6.87,0,0,0,1-.43c.27-.91-4.84-2-9-.05-2.09,1-2.26,2-2.15,2.16s.47.05.67.07" fill="#babdbf"/><path d="M6.55,12.56a5.25,5.25,0,0,0,2.32-.19c.27,0,.62-.15.89-.21l.9-.18c6.15-1,6.2-1.18,6.25-1.33.27-.87-4.64-1.89-8.68,0-1.59.76-2,1.66-1.68,1.87" fill="#bdc0c2"/><path d="M7.81,12.48a7.32,7.32,0,0,0,1-.19c.26,0,.6-.14.86-.2s.63-.13.91-.17,5.87-.9,6-1.28c.23-.73-2.82-1-3.25-1a11.72,11.72,0,0,0-5.1,1.14,4.35,4.35,0,0,0-1.5,1.17.53.53,0,0,0,0,.48c.23.2.71.07,1,.06" fill="#c0c2c4"/><path d="M8.3,12.29a4.33,4.33,0,0,0,.5-.08L9.67,12l.9-.16c1.71-.24,5.65-.95,5.73-1.22.23-.75-3.82-1.81-8,.2a8.73,8.73,0,0,0-1.24,1,.47.47,0,0,0,.07.46H8.3" fill="#c2c4c7"/><path d="M8.76,12.13l2.34-.4c4.84-1,4.84-1,4.89-1.09s-.1-.35-.22-.45S14.5,9.33,10.66,10a7.43,7.43,0,0,0-3.35,1.69.45.45,0,0,0,.08.45l1.37,0" fill="#c4c7c9"/><path d="M8.71,12l2.37-.36c4.53-.9,4.53-.9,4.59-1s-.07-.35-.18-.45a13,13,0,0,0-2.13-.4c-.07,0-1.73.11-2.69.28A7.43,7.43,0,0,0,7.59,11.6.46.46,0,0,0,7.7,12c.24.19.71,0,1,0" fill="#c6c8ca"/><path d="M8.66,11.92l2.4-.3c.82-.16,1.66-.25,2.47-.43l1.83-.55c.07-.12,0-.35-.14-.44s-1.63-.36-1.85-.36c0,0-1.61.09-2.69.28a8.16,8.16,0,0,0-2.79,1.37.45.45,0,0,0,.12.44c.16.11.46,0,.65,0" fill="#c8cacc"/><path d="M8.61,11.81C10,11.72,14.84,11,15,10.66a.44.44,0,0,0-.09-.45s-.89-.62-4.25,0a9.35,9.35,0,0,0-2.51,1.22.47.47,0,0,0,.15.43c.07,0,.2,0,.28,0" fill="#caccce"/><path d="M8.66,11.7,11,11.5a24,24,0,0,0,3.72-.84.44.44,0,0,0-.07-.44c-.17-.16-1.58-.41-4,0a19.55,19.55,0,0,0-2.21,1.06.44.44,0,0,0,.17.42" fill="#cbcdcf"/><path d="M9,11.59l2-.16a22.36,22.36,0,0,0,3.43-.75.41.41,0,0,0,0-.44c-.24-.27-2.22-.2-3.68,0a18.37,18.37,0,0,0-1.88.89.45.45,0,0,0,.21.41" fill="#cdcfd1"/><path d="M9.42,11.48a20.7,20.7,0,0,0,4.71-.78.43.43,0,0,0,0-.45c-.26-.31-3.09.06-3.4.11-.09,0-1.54.69-1.55.72s.13.34.25.4" fill="#cfd0d2"/><path d="M9.81,11.37a24.13,24.13,0,0,0,4-.65.43.43,0,0,0,0-.45c-.17-.22-3.08.16-3.11.17-.4.06-1.12.16-1.22.55,0,.14.16.32.29.38" fill="#d0d2d3"/><path d="M10.21,11.28a1.65,1.65,0,0,0,.73,0c.29-.05.68-.16,1-.22.47-.09,1.09-.19,1.56-.25l.06,0a.45.45,0,0,0,.05-.46,18.91,18.91,0,0,0-2.83.22c-.28,0-.82.1-.88.39s.2.32.34.38" fill="#d1d3d5"/><path d="M10.62,11.19a7.37,7.37,0,0,0,1.45-.27,4.84,4.84,0,0,0,.83-.56c-2,.16-2,.16-2.67.45.12.11.24.32.39.38" fill="#d3d4d6"/><path d="M10.87,11c.22,0,.45-.29.64-.41a3.49,3.49,0,0,0-.91.17c.08.07.16.23.27.24" fill="#d4d5d7"/></g></g></g><g style="isolation:isolate"><g clip-path="url(#c)"><g style="isolation:isolate"><path d="M23.48,15.25a.82.82,0,0,0,0,.21c-2.79-3.08-13-2.61-15,0a1,1,0,0,1,0-.18v-.1c.07-2.07,3.49-3.72,7.63-3.68s7.37,1.7,7.37,3.75" fill="#8d9092"/><path d="M8.48,15.18c.07-2.07,3.49-3.72,7.63-3.68s7.37,1.7,7.37,3.75v.06a1,1,0,0,0,0,.15h0l-.05-.06a.86.86,0,0,0-.13-.14l-.15-.13-.28-.22-.27-.17-.42-.23-.4-.18-.52-.21L20.78,14l-.6-.18-.62-.14-.67-.13-.69-.1-.72-.07-.74-.05H15.38l-.75,0-.72.06-.7.1-.65.11-.64.15-.57.15-.57.19-.46.17-.48.22-.34.17-.38.23-.2.14-.26.21-.09.09a1.71,1.71,0,0,0-.11.14h0v0l0-.15v-.1" fill="#8d9092"/><path d="M8.48,15.18c.07-2.07,3.49-3.72,7.63-3.68s7.37,1.7,7.37,3.75v.06a1,1,0,0,0,0,.15h0l-.05-.06a.86.86,0,0,0-.13-.14l-.15-.13-.28-.22-.27-.17-.42-.23-.4-.18-.52-.21L20.78,14l-.6-.18-.62-.14-.67-.13-.69-.1-.72-.07-.74-.05H15.38l-.75,0-.72.06-.7.1-.65.11-.64.15-.57.15-.57.19-.46.17-.48.22-.34.17-.38.23-.2.14-.26.21-.09.09a1.71,1.71,0,0,0-.11.14h0v0l0-.15v-.1" fill="#8a8c8e"/><path d="M8.48,15.18c.07-2.07,3.49-3.72,7.63-3.68s7.37,1.7,7.37,3.75v.06a1,1,0,0,0,0,.15h0l-.05-.06a.86.86,0,0,0-.13-.14l-.15-.13-.28-.22-.27-.17-.42-.23-.4-.18-.52-.21L20.78,14l-.6-.18-.62-.14-.67-.13-.69-.1-.72-.07-.74-.05H15.38l-.75,0-.72.06-.7.1-.65.11-.64.15-.57.15-.57.19-.46.17-.48.22-.34.17-.38.23-.2.14-.26.21-.09.09a1.71,1.71,0,0,0-.11.14h0v0l0-.15v-.1" fill="#86898b"/><path d="M8.48,15.18c.07-2.07,3.49-3.72,7.63-3.68s7.37,1.7,7.37,3.75v.06a1,1,0,0,0,0,.15h0l-.05-.06a.86.86,0,0,0-.13-.14l-.15-.13-.28-.22-.27-.17-.42-.23-.4-.18-.52-.21L20.78,14l-.6-.18-.62-.14-.67-.13-.69-.1-.72-.07-.74-.05H15.38l-.75,0-.72.06-.7.1-.65.11-.64.15-.57.15-.57.19-.46.17-.48.22-.34.17-.38.23-.2.14-.26.21-.09.09a1.71,1.71,0,0,0-.11.14h0v0l0-.15v-.1" fill="#838587"/><path d="M8.48,15.18c0-1.28,1.37-2.4,3.35-3.06l.06,0a13.33,13.33,0,0,1,4.22-.6c4.09,0,7.37,1.7,7.37,3.75v.06a1,1,0,0,0,0,.15h0l-.05-.06a.86.86,0,0,0-.13-.14l-.15-.13-.28-.22-.27-.17-.42-.23-.4-.18-.52-.21L20.78,14l-.6-.18-.62-.14-.67-.13-.69-.1-.72-.07-.74-.05H15.38l-.75,0-.72.06-.7.1-.65.11-.64.15-.57.15-.57.19-.46.17-.48.22-.34.17-.38.23-.2.14-.26.21-.09.09a1.71,1.71,0,0,0-.11.14h0v0l0-.15v-.1" fill="#7f8284"/><path d="M8.48,15.18a3,3,0,0,1,1.71-2.32l.37-.15c1.42-.5,1.42-.5,3.11-1a13.73,13.73,0,0,1,2.44-.18c4.09,0,7.37,1.7,7.37,3.75v.06a1,1,0,0,0,0,.15h0l-.05-.06a.86.86,0,0,0-.13-.14l-.15-.13-.28-.22-.27-.17-.42-.23-.4-.18-.52-.21L20.78,14l-.6-.18-.62-.14-.67-.13-.69-.1-.72-.07-.74-.05H15.38l-.75,0-.72.06-.7.1-.65.11-.64.15-.57.15-.57.19-.46.17-.48.22-.34.17-.38.23-.2.14-.26.21-.09.09a1.71,1.71,0,0,0-.11.14h0v0l0-.15v-.1" fill="#7c7e80"/><path d="M8.48,15.18a2.61,2.61,0,0,1,1.11-1.9l.24-.11c1.08-.53,1.08-.53,4.85-1.62a13.38,13.38,0,0,1,1.43-.05c4.09,0,7.37,1.7,7.37,3.75v.06a1,1,0,0,0,0,.15h0l-.05-.06a.86.86,0,0,0-.13-.14l-.15-.13-.28-.22-.27-.17-.42-.23-.4-.18-.52-.21L20.78,14l-.6-.18-.62-.14-.67-.13-.69-.1-.72-.07-.74-.05H15.38l-.75,0-.72.06-.7.1-.65.11-.64.15-.57.15-.57.19-.46.17-.48.22-.34.17-.38.23-.2.14-.26.21-.09.09a1.71,1.71,0,0,0-.11.14h0v0l0-.15v-.1" fill="#787a7d"/><path d="M8.48,15.18a2.39,2.39,0,0,1,.73-1.55l.25-.15a23.81,23.81,0,0,1,5.95-2h.7c4.09,0,7.37,1.7,7.37,3.75v.06a1,1,0,0,0,0,.15h0l-.05-.06a.86.86,0,0,0-.13-.14l-.15-.13-.28-.22-.27-.17-.42-.23-.4-.18-.52-.21L20.78,14l-.6-.18-.62-.14-.67-.13-.69-.1-.72-.07-.74-.05H15.38l-.75,0-.72.06-.7.1-.65.11-.64.15-.57.15-.57.19-.46.17-.48.22-.34.17-.38.23-.2.14-.26.21-.09.09a1.71,1.71,0,0,0-.11.14h0v0l0-.15v-.1" fill="#757779"/><path d="M8.48,15.18A2.13,2.13,0,0,1,8.94,14l.18-.11c1.94-1.3,5.84-2.11,7-2.33,4.12,0,7.37,1.7,7.37,3.74v.06a1,1,0,0,0,0,.15h0l-.05-.06a.86.86,0,0,0-.13-.14l-.15-.13-.28-.22-.27-.17-.42-.23-.4-.18-.52-.21L20.78,14l-.6-.18-.62-.14-.67-.13-.69-.1-.72-.07-.74-.05H15.38l-.75,0-.72.06-.7.1-.65.11-.64.15-.57.15-.57.19-.46.17-.48.22-.34.17-.38.23-.2.14-.26.21-.09.09a1.71,1.71,0,0,0-.11.14h0v0l0-.15v-.1" fill="#727475"/><path d="M8.48,15.18a2.14,2.14,0,0,1,.25-.91l.15-.13c2-1.36,4.34-1.9,7.94-2.62,3.76.21,6.66,1.8,6.66,3.73v.06a1,1,0,0,0,0,.15h0l-.05-.06a.86.86,0,0,0-.13-.14l-.15-.13-.28-.22-.27-.17-.42-.23-.4-.18-.52-.21L20.78,14l-.6-.18-.62-.14-.67-.13-.69-.1-.72-.07-.74-.05H15.38l-.75,0-.72.06-.7.1-.65.11-.64.15-.57.15-.57.19-.46.17-.48.22-.34.17-.38.23-.2.14-.26.21-.09.09a1.71,1.71,0,0,0-.11.14h0v0l0-.15v-.1" fill="#6e7072"/><path d="M8.48,15.18a1.77,1.77,0,0,1,.11-.6l.06-.06c1.61-1.75,6.84-2.62,8.81-2.95,3.44.35,6,1.87,6,3.68v.06a1,1,0,0,0,0,.15h0l-.05-.06a.86.86,0,0,0-.13-.14l-.15-.13-.28-.22-.27-.17-.42-.23-.4-.18-.52-.21L20.78,14l-.6-.18-.62-.14-.67-.13-.69-.1-.72-.07-.74-.05H15.38l-.75,0-.72.06-.7.1-.65.11-.64.15-.57.15-.57.19-.46.17-.48.22-.34.17-.38.23-.2.14-.26.21-.09.09a1.71,1.71,0,0,0-.11.14h0v0l0-.15v-.1" fill="#6b6d6e"/><path d="M8.48,15.18a1.36,1.36,0,0,1,0-.29l.06-.1c1.49-1.74,4.86-2.33,9.52-3.14,3.13.46,5.39,1.9,5.39,3.6v.06a1,1,0,0,0,0,.15h0l-.05-.06a.86.86,0,0,0-.13-.14l-.15-.13-.28-.22-.27-.17-.42-.23-.4-.18-.52-.21L20.78,14l-.6-.18-.62-.14-.67-.13-.69-.1-.72-.07-.74-.05H15.38l-.75,0-.72.06-.7.1-.65.11-.64.15-.57.15-.57.19-.46.17-.48.22-.34.17-.38.23-.2.14-.26.21-.09.09a1.71,1.71,0,0,0-.11.14h0v0l0-.15v-.1" fill="#67696b"/><path d="M8.48,15.2c.14-1.37,3.59-2.53,10.24-3.44,2.79.55,4.76,1.9,4.76,3.49v.06a1,1,0,0,0,0,.15h0l-.05-.06a.86.86,0,0,0-.13-.14l-.15-.13-.28-.22-.27-.17-.42-.23-.4-.18-.52-.21L20.78,14l-.6-.18-.62-.14-.67-.13-.69-.1-.72-.07-.74-.05H15.38l-.75,0-.72.06-.7.1-.65.11-.64.15-.57.15-.57.19-.46.17-.48.22-.34.17-.38.23-.2.14-.26.21-.09.09a1.71,1.71,0,0,0-.11.14h0v0l0-.15V15.2" fill="#646667"/><path d="M8.47,15.32c.69-2.07,5.89-2.75,10.92-3.41,2.43.62,4.09,1.88,4.09,3.34v.06a1,1,0,0,0,0,.15h0l-.05-.06a.86.86,0,0,0-.13-.14l-.15-.13-.28-.22-.27-.17-.42-.23-.4-.18-.52-.21L20.78,14l-.6-.18-.62-.14-.67-.13-.69-.1-.72-.07-.74-.05H15.38l-.75,0-.72.06-.7.1-.65.11-.64.15-.57.15-.57.19-.46.17-.48.22-.34.17-.38.23-.2.14-.26.21-.09.09a1.71,1.71,0,0,0-.11.14h0v0l0-.08v0" fill="#606264"/><path d="M8.45,15.44c1.06-2.43,7.94-3,11.64-3.33,2,.67,3.39,1.83,3.39,3.14v.06a1,1,0,0,0,0,.15h0l-.05-.06a.86.86,0,0,0-.13-.14l-.15-.13-.28-.22-.27-.17-.42-.23-.4-.18-.52-.21L20.78,14l-.6-.18-.62-.14-.67-.13-.69-.1-.72-.07-.74-.05H15.38l-.75,0-.72.06-.7.1-.65.11-.64.15-.57.15-.57.19-.46.17-.48.22-.34.17-.38.23-.2.14-.26.21-.09.09a1.71,1.71,0,0,0-.11.14h0v0" fill="#5d5f60"/><path d="M8.73,15.11c2.2-2.31,8-2.51,12.25-2.66,1.53.69,2.5,1.69,2.5,2.8v.06a1,1,0,0,0,0,.15h0l-.05-.06a.86.86,0,0,0-.13-.14l-.15-.13-.28-.22-.27-.17-.42-.23-.4-.18-.52-.21L20.78,14l-.6-.18-.62-.14-.67-.13-.69-.1-.72-.07-.74-.05H15.38l-.75,0-.72.06-.7.1-.65.11-.64.15-.57.15-.57.19-.46.17-.48.22-.34.17-.38.23-.2.14-.26.21-.09.09a1.71,1.71,0,0,0-.11.14h0l.13-.18a1.37,1.37,0,0,1,.16-.18" fill="#595b5d"/></g></g></g><g style="isolation:isolate"><g clip-path="url(#d)"><g style="isolation:isolate"><path d="M8.48,15.25v0a3.35,3.35,0,0,1-3.57,3v.1a3.37,3.37,0,0,0,3.57-3.09" fill="#8d9092"/><path d="M8.48,15.25v0a3.35,3.35,0,0,1-3.57,3v.1a3.37,3.37,0,0,0,3.57-3.09" fill="#8d9092"/><path d="M8.48,15.25v0a3.35,3.35,0,0,1-3.57,3v.1a3.37,3.37,0,0,0,3.57-3.09" fill="#8a8c8e"/><path d="M8.48,15.25v0a3.35,3.35,0,0,1-3.57,3v.1a3.37,3.37,0,0,0,3.57-3.09" fill="#86898b"/><path d="M8.48,15.25v0a3.35,3.35,0,0,1-3.57,3v.1a3.37,3.37,0,0,0,3.57-3.09" fill="#838587"/><path d="M8.48,15.25v0a3.31,3.31,0,0,1-3.37,3s0,.08,0,.1a3.33,3.33,0,0,0,3.37-3.08" fill="#7f8284"/><path d="M8.48,15.25v0a3.28,3.28,0,0,1-3.14,2.94s0,.07,0,.09.2,0,.28,0a3.22,3.22,0,0,0,2.85-3" fill="#7c7e80"/><path d="M8.48,15.25v0a3.24,3.24,0,0,1-2.92,2.91s0,.08,0,.09a3.25,3.25,0,0,0,2.91-3" fill="#787a7d"/><path d="M8.48,15.25v0a3.21,3.21,0,0,1-2.72,2.88s0,.07,0,.08a3.21,3.21,0,0,0,2.7-3" fill="#757779"/><path d="M8.48,15.25v0A3.18,3.18,0,0,1,6,18.11s0,.07,0,.08a3.17,3.17,0,0,0,2.49-2.94" fill="#727475"/><path d="M8.48,15.25v0a3.14,3.14,0,0,1-2.31,2.77s0,.07,0,.08a3.15,3.15,0,0,0,2.29-2.88" fill="#6e7072"/><path d="M8.48,15.25v0A3.1,3.1,0,0,1,6.37,18s0,.07,0,.08a3.11,3.11,0,0,0,2.09-2.81" fill="#6b6d6e"/><path d="M8.48,15.25v0A3.07,3.07,0,0,1,6.57,17.9s0,.06,0,.07a3.07,3.07,0,0,0,1.88-2.72" fill="#67696b"/><path d="M8.48,15.25v0a3,3,0,0,1-1.7,2.52s0,.06,0,.06a3,3,0,0,0,1.67-2.61" fill="#646667"/><path d="M8.48,15.25v0A3,3,0,0,1,7,17.67s0,.06,0,.06a3,3,0,0,0,1.46-2.48" fill="#606264"/><path d="M8.48,15.25v0a3,3,0,0,1-1.24,2.23s0,0,0,0a2.91,2.91,0,0,0,1.21-2.31" fill="#5d5f60"/><path d="M8.48,15.25v0a2.89,2.89,0,0,1-1,2s0,0,0,0a2.9,2.9,0,0,0,.93-2.08" fill="#595b5d"/></g></g></g><g style="isolation:isolate"><g clip-path="url(#e)"><g style="isolation:isolate"><path d="M27,12.17a3.35,3.35,0,0,0-3.56,3.08c0-2.05-3.28-3.72-7.37-3.75s-7.56,1.61-7.63,3.68a3.39,3.39,0,0,0-3.57-3.11C5,9,10.06,6.58,16.17,6.64S27,9.16,27,12.17" fill="#8d9092"/><path d="M7.31,12.9c1.13,0,9.64-2.68,9.71-2.71.91-.34,3.32-1.27,3-2.17C19.56,6.58,8.5,6.17,6.14,10.48a2.09,2.09,0,0,0-.23,1.72,4.09,4.09,0,0,0-1-.13C5,9,10.06,6.58,16.17,6.64S27,9.16,27,12.17a3.35,3.35,0,0,0-3.56,3.08c0-2.05-3.28-3.72-7.37-3.75s-7.56,1.61-7.63,3.68A2.91,2.91,0,0,0,7.31,12.9" fill="#8d9092"/><path d="M7.59,13.15C8.27,13,18.22,9.9,18.29,9.87A12.92,12.92,0,0,0,20.9,8.24c.32-1.52-8.63-2.49-13.46.7a3.56,3.56,0,0,0-1.9,3.18,4.34,4.34,0,0,0-.63,0C5,9,10.06,6.58,16.17,6.64S27,9.16,27,12.17a3.35,3.35,0,0,0-3.56,3.08c0-2.05-3.28-3.72-7.37-3.75s-7.56,1.61-7.63,3.68a2.86,2.86,0,0,0-.89-2" fill="#8a8c8e"/><path d="M7.79,13.36C11.34,12.09,15,11.2,18.56,9.93c0,0,3.48-1.63,3.49-1.7.15-1.14-9.91-2.94-15,.82-1.81,1.34-1.83,2.53-1.84,3l-.32,0C5,9,10.06,6.58,16.17,6.64S27,9.16,27,12.17a3.35,3.35,0,0,0-3.56,3.08c0-2.05-3.28-3.72-7.37-3.75s-7.56,1.61-7.63,3.68a2.82,2.82,0,0,0-.69-1.82" fill="#86898b"/><path d="M7.94,13.55a36.42,36.42,0,0,1,4.44-1.74c2-.64,4-1.05,6-1.67.91-.29,1.76-.72,2.68-1a13.23,13.23,0,0,1,1.85-.38,2.65,2.65,0,0,0,.82-.15.21.21,0,0,0,0-.19C23.58,8.21,19.43,5.83,12.26,7c-3,.48-6.57,2.07-7.2,4.43a3.1,3.1,0,0,0-.1.67C5,9,10.06,6.58,16.17,6.64S27,9.16,27,12.17a3.35,3.35,0,0,0-3.56,3.08c0-2.05-3.28-3.72-7.37-3.75s-7.56,1.61-7.63,3.68a2.82,2.82,0,0,0-.54-1.63" fill="#838587"/><path d="M13.18,11.71c9-2.55,9-2.55,9.58-2.52,3.47.11,4,2.12,4.08,3a3.32,3.32,0,0,0-3.36,3.08c0-2.05-3.28-3.72-7.37-3.75a13.19,13.19,0,0,0-4.18.59l.5-.17.75-.21" fill="#7f8284"/><path d="M8.06,13.73a27.6,27.6,0,0,1,3.77-1.61c-2,.66-3.31,1.78-3.35,3.06a2.75,2.75,0,0,0-.42-1.45" fill="#7f8284"/><path d="M14.59,11.45c7.65-2,7.65-2,8.32-1.94,3.18.2,3.63,2.1,3.69,2.68a3.28,3.28,0,0,0-3.12,3.06c0-2.05-3.28-3.72-7.37-3.75a13.73,13.73,0,0,0-2.44.18l.55-.15.37-.08" fill="#7c7e80"/><path d="M8.16,13.91a21.2,21.2,0,0,1,2-1.05,3,3,0,0,0-1.7,2.32,2.78,2.78,0,0,0-.32-1.27" fill="#7c7e80"/><path d="M16.11,11.21c1.54-.34,3-.9,4.58-1.19a6.92,6.92,0,0,1,2.64-.19c.44,0,2.65.36,3.05,2.39a3.24,3.24,0,0,0-2.9,3c0-2.05-3.28-3.72-7.37-3.75a13.38,13.38,0,0,0-1.43.05l.54-.14.89-.2" fill="#787a7d"/><path d="M8.24,14.08a11.2,11.2,0,0,1,1.35-.8,2.61,2.61,0,0,0-1.11,1.9,2.79,2.79,0,0,0-.24-1.1" fill="#787a7d"/><path d="M16.11,11.36c1.51-.33,3-.81,4.5-1.1A7.71,7.71,0,0,1,23,10.05c2.67.24,3.08,1.72,3.22,2.21a3.21,3.21,0,0,0-2.69,3c0-2.05-3.28-3.72-7.37-3.75h-.7l.56-.12.14,0" fill="#757779"/><path d="M8.31,14.26a1.2,1.2,0,0,1,.24-.21c.21-.15.44-.28.66-.42a2.39,2.39,0,0,0-.73,1.55,2.59,2.59,0,0,0-.17-.92" fill="#757779"/><path d="M17.62,11.18c4.72-1,4.72-1,5.85-.83a2.94,2.94,0,0,1,2.49,2,3.17,3.17,0,0,0-2.48,2.94c0-2-3.25-3.7-7.32-3.75l.52-.13.94-.19" fill="#727475"/><path d="M8.37,14.43A3.38,3.38,0,0,1,8.94,14a2.13,2.13,0,0,0-.46,1.23,2.67,2.67,0,0,0-.11-.75" fill="#727475"/><path d="M17.62,11.36c4.62-.92,4.62-.92,5.62-.79.22,0,2.11.3,2.51,1.8a3.14,3.14,0,0,0-2.27,2.88c0-1.93-2.9-3.52-6.66-3.73l.5-.1.3-.06" fill="#6e7072"/><path d="M8.42,14.61s0,0,.31-.34a2.14,2.14,0,0,0-.25.91,2.76,2.76,0,0,0-.06-.57" fill="#6e7072"/><path d="M17.62,11.54c3.94-.83,7.05-1.49,7.92.91a3.09,3.09,0,0,0-2.06,2.8c0-1.81-2.58-3.33-6-3.68l.16,0" fill="#6b6d6e"/><path d="M8.45,14.8s0-.1.14-.22a1.77,1.77,0,0,0-.11.6,2.34,2.34,0,0,0,0-.38" fill="#6b6d6e"/><path d="M19,11.48c3.2-.53,5.5-.91,6.32,1.06a3,3,0,0,0-1.86,2.71c0-1.7-2.26-3.14-5.38-3.6l.44-.09.48-.08" fill="#67696b"/><path d="M8.47,15a.42.42,0,0,1,0-.1,1.36,1.36,0,0,0,0,.29c0-.06,0-.12,0-.19" fill="#67696b"/><path d="M19,11.71c2.85-.47,5.32-.87,6.1.94a3,3,0,0,0-1.64,2.6c0-1.59-2-2.94-4.76-3.49l.3,0" fill="#646667"/><path d="M20.29,11.77c1.68-.21,4-.49,4.61,1a3,3,0,0,0-1.42,2.46c0-1.46-1.66-2.72-4.09-3.34l.39-.07.51-.07" fill="#606264"/><path d="M20.28,12.08c2.12-.2,3.79-.36,4.36.89a2.9,2.9,0,0,0-1.16,2.28c0-1.31-1.35-2.47-3.39-3.14l.19,0" fill="#5d5f60"/><path d="M21.38,12.41c1.35-.08,2.5-.06,3,.82a2.84,2.84,0,0,0-.87,2c0-1.11-1-2.11-2.5-2.8l.3,0h.1" fill="#595b5d"/><path d="M6.31,12.13c-1.48-2.26,4.74-6,11.24-4.85.43.08,1.82.37,1.88,1,0,.29-.17,1.06-2.7,1.89L8.89,12.43a3.35,3.35,0,0,1-2.18,0,1.16,1.16,0,0,1-.4-.33" fill="#909396"/><path d="M6.47,11.51c-1-3,8.77-5.43,11.77-3.81,2.4,1.3-2.08,2.56-2.13,2.57l-7.6,2c-1.71.22-2-.53-2-.78" fill="#949799"/><path d="M7,11.6c-1.22-1.85,4.4-5.13,9.89-4.07.51.09,1.71.39,1.75,1,0,.85-2.12,1.49-4,2-1.47.43-6.33,1.78-7.29,1.26A2.69,2.69,0,0,1,7,11.6" fill="#979a9d"/><path d="M7.19,11.11c-.75-2.42,7.59-4.83,10.62-3.06a1.84,1.84,0,0,1,.43.46c.23.94-2.12,1.59-3.68,2l-3.22.74c-2.16.48-2.16.48-2.39.51a2.38,2.38,0,0,1-1.48-.27,1,1,0,0,1-.28-.41" fill="#9b9ea0"/><path d="M7.56,10.75c-.08-.24.3-1.77,3.7-2.73,2.06-.58,4.94-.59,6,0a1.23,1.23,0,0,1,.58.47c.75,1.66-8.89,3.35-9.79,2.95-.38-.16-.41-.26-.53-.67" fill="#9ea1a4"/><path d="M8,10.2c.64-2,8.32-3.48,9.56-1.77s-7.95,2.9-8,2.9c-1.21,0-1.47-.39-1.52-.51a1.09,1.09,0,0,1,0-.62" fill="#a2a4a7"/><path d="M8.39,10.49C8.24,9.74,9.57,8.62,12,8s4.89-.08,5.3.38a.65.65,0,0,1,.16.44c-.09.75-2.4,1.36-4.39,1.82-1.36.31-3.75.74-4.46.19a.77.77,0,0,1-.26-.38" fill="#a5a8ab"/><path d="M8.79,10.2c0-1.76,6.69-3.2,8.27-1.8a.65.65,0,0,1,.25.45c0,.81-2.84,1.41-5.56,2,0,0-2.19.43-2.77-.23a.68.68,0,0,1-.19-.41" fill="#a9abae"/><path d="M9.14,10c.17-.73,2-1.67,3.31-1.85,4.33-.62,4.68.7,4.68.72.06,1.12-7.25,2.62-7.91,1.61A.67.67,0,0,1,9.14,10" fill="#acafb2"/><path d="M9.52,9.76s.79-1.3,3.66-1.66c1.85-.23,3.68.12,3.76.72.15,1.07-5.77,2.28-7.07,1.77a.79.79,0,0,1-.4-.29.73.73,0,0,1,0-.54" fill="#b6b9bb"/><path d="M9.85,9.69s.34-1.12,3.65-1.55c1.33-.16,3.14.13,3.25.67s-2.19,1.29-2.22,1.29c-2.19.55-3.67.67-4.4.36-.14-.06-.34-.17-.39-.31s.08-.32.11-.46" fill="#babdbf"/><path d="M10,10c.17-.6.17-.6,1-1.13a13.63,13.63,0,0,1,1.53-.52c2.81-.5,4,.23,4,.48.16.66-2,1.24-2,1.24-.56.14-3.37.81-4.18.31L10,10v0" fill="#bdc0c2"/><path d="M10.51,9.31c.17-.2.94-.87,3.42-1.09a3.25,3.25,0,0,1,2.44.58c.29,1-5.06,2-5.88,1.49a.6.6,0,0,1-.28-.37.89.89,0,0,1,.3-.61" fill="#c0c2c4"/><path d="M10.84,9.18c.23-.22,1-.75,3.1-.9a3.15,3.15,0,0,1,2.24.52L16,9.24a5.09,5.09,0,0,1-1.51.71l-1.47.32a6.48,6.48,0,0,1-2.39,0,.63.63,0,0,1-.27-.38,7.07,7.07,0,0,1,.45-.66" fill="#c2c4c7"/><path d="M11.14,9.09a6.19,6.19,0,0,1,3.18-.77A3.51,3.51,0,0,1,16,8.8a.49.49,0,0,1-.12.44,5.55,5.55,0,0,1-1.35.65L13,10.22a6,6,0,0,1-2.22-.07.57.57,0,0,1-.24-.39,7.35,7.35,0,0,1,.56-.67" fill="#c4c7c9"/><path d="M11.19,9.2A5.11,5.11,0,0,1,14,8.4a3.28,3.28,0,0,1,1.81.4.49.49,0,0,1-.08.45,9,9,0,0,1-1.19.59L13,10.17a5.94,5.94,0,0,1-2-.09.54.54,0,0,1-.22-.4c0-.19.27-.36.42-.48" fill="#c6c8ca"/><path d="M11.24,9.3a3.9,3.9,0,0,1,2.06-.77,5.09,5.09,0,0,1,1-.09,11.85,11.85,0,0,1,1.26.36.46.46,0,0,1-.05.45l-1,.54L13,10.12a7.1,7.1,0,0,1-1.85-.1.54.54,0,0,1-.2-.41c0-.12.18-.23.27-.31" fill="#c8cacc"/><path d="M11.29,9.41a4.69,4.69,0,0,1,1.6-.77c.35-.05,1.31-.14,1.46-.13.32,0,.84,0,1,.3a.46.46,0,0,1,0,.44l-.87.47L13,10.06a7.71,7.71,0,0,1-1.67-.1.57.57,0,0,1-.17-.42c0-.06.08-.1.12-.13" fill="#caccce"/><path d="M11.38,9.47a10.55,10.55,0,0,1,1.3-.73,14.82,14.82,0,0,1,1.68-.16c.26,0,.68,0,.83.23a.48.48,0,0,1,0,.45A6,6,0,0,1,13,10c-.15,0-1.47-.11-1.47-.11a.48.48,0,0,1-.15-.43" fill="#cbcdcf"/><path d="M11.62,9.39A10.9,10.9,0,0,1,12.7,8.8c.43-.07,1.43-.15,1.67-.15s.51,0,.63.17a.45.45,0,0,1,0,.45c-.09.17-.37.25-.56.31L13,10l-1.27-.12a.46.46,0,0,1-.1-.44" fill="#cdcfd1"/><path d="M11.86,9.32a1.22,1.22,0,0,1,.86-.45s1.84-.31,2.09,0a.47.47,0,0,1,.07.44c-.06.13-.27.18-.4.23L13,9.88l-1-.11a.45.45,0,0,1-.07-.45" fill="#cfd0d2"/><path d="M12.11,9.26c.24-.44,2.38-.55,2.51-.41a.48.48,0,0,1,.1.44c0,.08-.17.12-.25.14L13,9.8c-.25,0-.65.1-.83-.08a.47.47,0,0,1,0-.46" fill="#d0d2d3"/><path d="M12.36,9.2a.57.57,0,0,1,.4-.2,12.71,12.71,0,0,1,1.67-.13.47.47,0,0,1,.13.43s-.06,0-.1.06l-1.52.37c-.18,0-.48.07-.6-.07a.47.47,0,0,1,0-.46" fill="#d1d3d5"/><path d="M12.62,9.14c.1-.15.85-.16.86-.16a2.64,2.64,0,0,1,.71.36c-.36.08-.84.19-1.19.29l-.07,0c-.11,0-.3,0-.37-.05s0-.35.06-.47" fill="#d3d4d6"/><path d="M12.83,9.26c.15-.08.37.14.53.2-.17,0-.48.25-.59.11a.27.27,0,0,1,.06-.31" fill="#d4d5d7"/></g></g></g><g style="isolation:isolate"><g clip-path="url(#f)"><g style="isolation:isolate"><path d="M8.48,15.25a3.36,3.36,0,0,0-3.57-3.08v-.1a3.39,3.39,0,0,1,3.57,3.11v.07" fill="#8d9092"/><path d="M4.91,12.17v-.1a4.09,4.09,0,0,1,1,.13l.09.12a3.88,3.88,0,0,0-1.09-.15" fill="#8d9092"/><path d="M7.21,12.9h.1a2.91,2.91,0,0,1,1.17,2.28v.07A2.93,2.93,0,0,0,7.21,12.9" fill="#8d9092"/><path d="M4.91,12.17v-.1a4.34,4.34,0,0,1,.63,0l0,.1a4.91,4.91,0,0,0-.67-.05" fill="#8a8c8e"/><path d="M7.53,13.16s0,0,.06,0a2.86,2.86,0,0,1,.89,2v.07l0-.25a2.84,2.84,0,0,0-.93-1.84" fill="#8a8c8e"/><path d="M4.91,12.17v-.1l.32,0s0,.07,0,.09H4.91" fill="#86898b"/><path d="M7.74,13.38l0,0a2.82,2.82,0,0,1,.69,1.82v.07a2.82,2.82,0,0,0-.74-1.87" fill="#86898b"/><path d="M4.91,12.17v-.1H5s0,.08,0,.1h0" fill="#838587"/><path d="M7.9,13.57s0,0,0,0a2.82,2.82,0,0,1,.54,1.63v.07a2.8,2.8,0,0,0-.58-1.68" fill="#838587"/><path d="M8,13.75l0,0a2.75,2.75,0,0,1,.42,1.45v.07A2.84,2.84,0,0,0,8,13.75" fill="#7f8284"/><path d="M8.13,13.93l0,0a2.78,2.78,0,0,1,.32,1.27v.07a2.74,2.74,0,0,0-.35-1.32" fill="#7c7e80"/><path d="M8.22,14.11l0,0a2.79,2.79,0,0,1,.24,1.1v.07a2.58,2.58,0,0,0-.26-1.14" fill="#787a7d"/><path d="M8.29,14.28l0,0a2.59,2.59,0,0,1,.17.92v.07a2.62,2.62,0,0,0-.19-1" fill="#757779"/><path d="M8.36,14.46s0,0,0,0a2.67,2.67,0,0,1,.11.75v.07a2.9,2.9,0,0,0-.12-.79" fill="#727475"/><path d="M8.4,14.63l0,0a2.76,2.76,0,0,1,.06.57v.07a2.57,2.57,0,0,0-.08-.62" fill="#6e7072"/><path d="M8.44,14.82v0a2.34,2.34,0,0,1,0,.38v.07a3,3,0,0,0,0-.43" fill="#6b6d6e"/><path d="M8.47,15v0c0,.07,0,.13,0,.19v.07c0-.08,0-.16,0-.23" fill="#67696b"/><path d="M8.48,15.22h0v0" fill="#646667"/></g></g></g><g style="isolation:isolate"><g clip-path="url(#g)"><g style="isolation:isolate"><path d="M8.48,15.25a3.37,3.37,0,0,1-3.57,3.09c0,3,4.83,5.47,10.87,5.52S26.93,21.48,27,18.43v-.1a3.35,3.35,0,0,1-3.56-3.08.13.13,0,0,1,0,.06C23.4,17.38,20,19,15.85,19s-7.37-1.71-7.37-3.75" fill="#8d9092"/><path d="M23.48,15.25C23.4,17.38,20,19,15.85,19s-7.37-1.71-7.37-3.75a3.37,3.37,0,0,1-3.57,3.09c0,3,4.83,5.47,10.87,5.52S26.93,21.48,27,18.43a3.5,3.5,0,0,1-3.56-3.18" fill="#8d9092"/><path d="M23.48,15.25C23.4,17.38,20,19,15.85,19s-7.37-1.71-7.37-3.75a3.37,3.37,0,0,1-3.57,3.09c0,3,4.83,5.47,10.87,5.52S26.93,21.48,27,18.43a3.5,3.5,0,0,1-3.56-3.18" fill="#8a8c8e"/><path d="M23.48,15.25C23.4,17.38,20,19,15.85,19s-7.37-1.71-7.37-3.75a3.37,3.37,0,0,1-3.57,3.09c0,3,4.83,5.47,10.87,5.52S26.93,21.48,27,18.43a3.5,3.5,0,0,1-3.56-3.18" fill="#86898b"/><path d="M23.48,15.25C23.4,17.38,20,19,15.85,19s-7.37-1.71-7.37-3.75a3.37,3.37,0,0,1-3.57,3.09c0,3,4.83,5.47,10.87,5.52S26.93,21.48,27,18.43a3.5,3.5,0,0,1-3.56-3.18" fill="#838587"/><path d="M15.85,19c-4.1,0-7.37-1.71-7.37-3.75a3.33,3.33,0,0,1-3.37,3.08l.06.44a3.76,3.76,0,0,0,4,2.55A12.51,12.51,0,0,0,11,21l9-2.64a13.43,13.43,0,0,1-4.18.6" fill="#7f8284"/><path d="M23.48,15.25a.13.13,0,0,1,0,.06c0,1.29-1.37,2.41-3.36,3.07l.46-.15a26.28,26.28,0,0,0,3.36-1.47,2.78,2.78,0,0,1-.45-1.51" fill="#7f8284"/><path d="M15.85,19c-4.1,0-7.37-1.71-7.37-3.75l0,.25a3.35,3.35,0,0,1-3.11,2.81l.08.42C6,20.22,7.33,21,9.41,21c.74,0,.81,0,8.88-2.19a14.72,14.72,0,0,1-2.44.19" fill="#7c7e80"/><path d="M23.48,15.25a.13.13,0,0,1,0,.06,3,3,0,0,1-1.71,2.32l.34-.16c.09,0,.22-.09.31-.13s1.4-.75,1.42-.76a2.67,2.67,0,0,1-.35-1.33" fill="#7c7e80"/><path d="M15.85,19c-4.1,0-7.37-1.71-7.37-3.75a3.25,3.25,0,0,1-2.91,3l.1.4c1.32,3.12,4.76,2.17,11.61.26-.47,0-1,.06-1.43.06" fill="#787a7d"/><path d="M23.48,15.25a.13.13,0,0,1,0,.06,2.65,2.65,0,0,1-1.11,1.91l.26-.13a8.7,8.7,0,0,0,1.11-.69,2.83,2.83,0,0,1-.25-1.15" fill="#787a7d"/><path d="M15.85,19c-4.1,0-7.37-1.71-7.37-3.75a3.21,3.21,0,0,1-2.7,3l.11.38c.77,1.55,2.22,1.8,3.53,1.85.57,0,.57,0,7.12-1.48h-.69" fill="#757779"/><path d="M23.48,15.25a.13.13,0,0,1,0,.06,2.32,2.32,0,0,1-.73,1.55l.09-.05a3.63,3.63,0,0,0,.83-.59,2.61,2.61,0,0,1-.18-1" fill="#757779"/><path d="M8.48,15.25A3.17,3.17,0,0,1,6,18.19l.12.35c1.31,2.5,4.28,1.78,9.68.46-4.07-.05-7.31-1.72-7.31-3.75" fill="#727475"/><path d="M23.48,15.25a.13.13,0,0,1,0,.06A2.16,2.16,0,0,1,23,16.54l.16-.11c.36-.31.36-.31.41-.39a3,3,0,0,1-.11-.79" fill="#727475"/><path d="M8.48,15.25a3.15,3.15,0,0,1-2.29,2.88l.12.34c1,2.15,3.46,1.64,8.82.5-3.75-.21-6.65-1.8-6.65-3.72" fill="#6e7072"/><path d="M23.48,15.25a.13.13,0,0,1,0,.06,2.15,2.15,0,0,1-.25.92l.08-.08a1.24,1.24,0,0,0,.25-.29,2.54,2.54,0,0,1-.07-.61" fill="#6e7072"/><path d="M8.48,15.25a3.11,3.11,0,0,1-2.09,2.81l.13.3A3,3,0,0,0,8.85,19.7c.92.07.92.07,5.64-.78-3.44-.34-6-1.86-6-3.67" fill="#6b6d6e"/><path d="M23.48,15.25a.13.13,0,0,1,0,.06,1.81,1.81,0,0,1-.11.6l.07-.09a.8.8,0,0,0,.08-.16,2.73,2.73,0,0,1,0-.41" fill="#6b6d6e"/><path d="M8.48,15.25A3.07,3.07,0,0,1,6.6,18l.12.29c1.24,1.71,3.41,1.35,7.13.58-3.11-.45-5.37-1.9-5.37-3.59" fill="#67696b"/><path d="M23.48,15.25a.13.13,0,0,1,0,.06,2.45,2.45,0,0,1,0,.27l0-.09v-.24" fill="#67696b"/><path d="M8.48,15.25a3,3,0,0,1-1.67,2.61l.13.26c1.08,1.48,2.93,1.17,6.29.62-2.79-.55-4.75-1.91-4.75-3.49" fill="#646667"/><path d="M8.48,15.25A3,3,0,0,1,7,17.73l.07.15c.62.81,1.45,1.43,5.47.71C10.13,18,8.48,16.7,8.48,15.25" fill="#606264"/><path d="M8.48,15.25a2.91,2.91,0,0,1-1.21,2.31l.13.21c.87,1.1,2.86.83,4.46.61-2-.67-3.38-1.82-3.38-3.13" fill="#5d5f60"/><path d="M8.48,15.25a2.9,2.9,0,0,1-.93,2.08l.12.16c.88.87,2.58.65,3.31.55-1.54-.69-2.5-1.68-2.5-2.79" fill="#595b5d"/><path d="M24.07,17s-1.41.58-1.42.58c-.44.22-1.9.77-2.35.91-.83.26-.83.26-6,1.7-1.15.32-2.22.87-3.37,1.2a12.84,12.84,0,0,1-1.85.38,2.51,2.51,0,0,0-.82.15s0,.13,0,.17c1.4,2.07,17,3.31,18.61-2.94a3,3,0,0,0,.1-.77A3.72,3.72,0,0,1,24.07,17" fill="#838587"/><path d="M24.22,17.14l-.85.27-3.8,1.4c-1.72.54-3.5.84-5.2,1.45-2.85,1-4.44,1.86-4.46,2-.16,1.14,9.9,2.95,15-.82,1.82-1.36,1.86-2.64,1.79-3.13a3.78,3.78,0,0,1-2.46-1.18" fill="#86898b"/><path d="M24.45,17.36c-.17-.05-10.68,3.23-10.78,3.27a12.57,12.57,0,0,0-2.62,1.63c-.32,1.52,8.62,2.5,13.46-.7,1.42-.94,2.19-2.32,1.83-3.29a3.73,3.73,0,0,1-1.89-.91" fill="#8a8c8e"/><path d="M24.79,17.64a4.55,4.55,0,0,0-1.53.19l-8.32,2.48c-.33.1-.65.24-1,.36-.94.36-2.24,1.26-2.06,1.82.48,1.44,11.54,1.85,13.9-2.46a1.76,1.76,0,0,0,.07-1.87,3.92,3.92,0,0,1-1.09-.52" fill="#8d9092"/><path d="M24.85,18a4.16,4.16,0,0,0-1.8.11l-7.82,2.25c-1.86.64-2.78,1.28-2.71,1.89.19,1.86,9.68,1.79,12.7-1.67.72-.82.94-2.27-.37-2.58" fill="#909396"/><path d="M24.78,18.3a3.06,3.06,0,0,0-1.57-.05l-7.69,2.08c-2,.69-2.83,1.35-2.47,2,1,1.67,11.52,1.32,12.41-2.82a1,1,0,0,0-.68-1.19" fill="#949799"/><path d="M24.58,18.6a2.61,2.61,0,0,0-1.29-.15c-.82.16-7.41,1.87-7.45,1.88-1.85.55-2.51,1.28-2.49,1.61.11,1.89,8.72,1.57,11.19-1.21,1.22-1.39.34-2,0-2.13" fill="#979a9d"/><path d="M24.08,18.79c-1.2-.42-6.64,1.15-6.69,1.17-2.5.77-3.89,1.2-3.68,2,.4,1.59,9.05,1.52,10.9-1.71a1,1,0,0,0-.53-1.49" fill="#9b9ea0"/><path d="M23.86,19.08c-1.31-.58-7.93,1.39-8,1.41-2.13.64-1.83,1.45-1.79,1.54.42.95,3.68,1.1,5.58.69,4.46-.95,4.75-2.69,4.77-2.89a.82.82,0,0,0-.56-.75" fill="#9ea1a4"/><path d="M23.6,19.36c-1.09-.65-6.22.77-7.76,1.22,0,0-2.08.61-1.5,1.48,1,1.51,8.78.65,9.57-1.74a1,1,0,0,0,0-.64.78.78,0,0,0-.33-.32" fill="#a2a4a7"/><path d="M22.8,19.45c-1.92-.37-8.2,1.09-8.35,2.19-.18,1.43,5.48,1.59,8.11-.22,1.05-.73,1-1.26,1-1.41-.09-.43-.54-.52-.76-.56" fill="#a5a8ab"/><path d="M22.56,19.62c-1-.38-7.88.88-7.92,2-.05,1.55,6.46,1.12,8-.52a5.48,5.48,0,0,0,.52-.83.83.83,0,0,0-.61-.68" fill="#a9abae"/><path d="M22.32,19.76c-.81-.3-7.57.61-7.5,1.9s5.66,1.26,7.5-.5a1.67,1.67,0,0,0,.5-.63.73.73,0,0,0-.09-.48.93.93,0,0,0-.41-.29" fill="#acafb2"/><path d="M22.08,19.91c-1.24-.5-7.2.74-7.07,1.77.05.38,1.12,1.05,4.1.68a5,5,0,0,0,3.33-1.62.78.78,0,0,0,0-.54.79.79,0,0,0-.4-.29" fill="#b6b9bb"/><path d="M21.82,20a6.36,6.36,0,0,0-2.94,0c-2,.51-3.81.94-3.68,1.61s1.85.82,3.19.67C21.29,22,22,21,22.07,20.93l.14-.58c-.05-.14-.25-.25-.39-.31" fill="#babdbf"/><path d="M21.89,20.47c-.48-.45-.48-.45-1-.51a15.92,15.92,0,0,0-2,.17c-1.71.32-3.65.93-3.5,1.56,0,.18.94.82,3,.62,2.58-.26,3.37-1.23,3.38-1.24s.21-.49.13-.6" fill="#bdc0c2"/><path d="M21.46,20.21c-.41-.26-1.82-.27-4,.29,0,0-2,.52-1.85,1.2,0,0,.6.74,2.78.55a5.22,5.22,0,0,0,3.09-1.06,1,1,0,0,0,.29-.61c0-.14-.17-.29-.28-.37" fill="#c0c2c4"/><path d="M21.29,20.28a5.42,5.42,0,0,0-2.38-.05l-1.48.33a5.2,5.2,0,0,0-1.5.7l-.15.44c0,.09.23.38,1.87.55,0,0,1.06-.08,1.73-.19,1-.18,2.16-.87,2.17-1.37a.59.59,0,0,0-.26-.41" fill="#c2c4c7"/><path d="M21.13,20.35a5.7,5.7,0,0,0-2.22-.07l-1.47.33a6.35,6.35,0,0,0-1.35.65.49.49,0,0,0-.12.44s.33.37,1.65.48A13.29,13.29,0,0,0,19.36,22c.83-.15,2-.88,2-1.26a.55.55,0,0,0-.24-.39" fill="#c4c7c9"/><path d="M21,20.42a6.12,6.12,0,0,0-2-.09l-1.48.33a10.2,10.2,0,0,0-1.18.59.47.47,0,0,0-.09.45,4.63,4.63,0,0,0,1.46.42,14.77,14.77,0,0,0,1.71-.18c.58-.1,1.81-.76,1.84-1.12a.54.54,0,0,0-.22-.4" fill="#c6c8ca"/><path d="M20.78,20.48a6.76,6.76,0,0,0-1.85-.09l-1.48.32c-.11,0-1,.54-1,.54a.46.46,0,0,0-.05.45s1.14.36,1.23.36a17.27,17.27,0,0,0,1.72-.17c.44-.08,1.63-.76,1.66-1a.54.54,0,0,0-.2-.41" fill="#c8cacc"/><path d="M20.61,20.55a7.12,7.12,0,0,0-1.67-.11l-1.49.34a1.77,1.77,0,0,0-.85.46.46.46,0,0,0,0,.45c.18.27.71.29,1,.3a16.17,16.17,0,0,0,1.71-.16A5.83,5.83,0,0,0,20.78,21a.5.5,0,0,0-.17-.41" fill="#caccce"/><path d="M19.09,20.48a6.57,6.57,0,0,0-2.34.76.48.48,0,0,0,0,.45c.16.2.58.23.84.24a16.89,16.89,0,0,0,1.69-.17A9.26,9.26,0,0,0,20.57,21a.43.43,0,0,0-.15-.42l-1.33-.13" fill="#cbcdcf"/><path d="M19,20.55c-.17,0-.39.12-.56.16s-.66.12-.93.21-.47.14-.56.31a.48.48,0,0,0,0,.45c.27.33,1.83.1,2.31,0a12.16,12.16,0,0,0,1.08-.59.45.45,0,0,0-.12-.44L19,20.55" fill="#cdcfd1"/><path d="M19,20.63l-1.5.37c-.14,0-.35.1-.41.22a.47.47,0,0,0,.07.44c.24.28,1.91,0,2.1,0s.73-.2.86-.47a.46.46,0,0,0-.08-.44l-1-.1" fill="#cfd0d2"/><path d="M19,20.7l-1.51.37c-.08,0-.21.06-.25.14a.48.48,0,0,0,.1.44,6.44,6.44,0,0,0,1.89-.08.91.91,0,0,0,.63-.33.47.47,0,0,0,0-.46c-.17-.17-.57-.1-.82-.08" fill="#d0d2d3"/><path d="M19,20.77c-.18,0-.4.12-.58.16s-.42.11-.6.14-.39,0-.44.13a.47.47,0,0,0,.13.43,12.76,12.76,0,0,0,1.68-.12.61.61,0,0,0,.4-.21.45.45,0,0,0,0-.46c-.11-.14-.41-.08-.59-.07" fill="#d1d3d5"/><path d="M19,20.85a2.94,2.94,0,0,0-.58.16l-.67.15a2.12,2.12,0,0,0,.66.36s.81,0,.9-.16a.45.45,0,0,0,.05-.47c-.07-.09-.25-.05-.36,0" fill="#d3d4d6"/><path d="M19,20.92a3.6,3.6,0,0,0-.44.12c.16.06.38.29.52.2a.27.27,0,0,0,.06-.31s-.1,0-.14,0" fill="#d4d5d7"/></g></g></g><g style="isolation:isolate"><g clip-path="url(#h)"><g style="isolation:isolate"><path d="M15.81,17.22C11,17.13,8.87,15.6,8.44,15a1.85,1.85,0,0,1,0,.23c0,2,3.27,3.71,7.37,3.75s7.55-1.62,7.62-3.69a.13.13,0,0,0,0-.06,1,1,0,0,1,0-.18c-1.81,1.78-5.68,2.19-7.69,2.15" fill="#8d9092"/><path d="M23.48,15.22a.63.63,0,0,1,0-.19h0v0l-.06.07-.15.16-.16.14-.3.21-.29.18-.43.22-.41.19c-.16.06-.37.15-.53.2l-.53.18-.61.16-.62.14-.67.12-.7.1-.72.06-.74,0h-.77l-.76,0-.58,0-.71-.07-.7-.1-.65-.12-.63-.15-.56-.16-.56-.19-.45-.18L9.74,16l-.32-.17-.37-.23-.18-.14a2.41,2.41,0,0,1-.24-.21l-.08-.07L8.45,15h0v.07s0,.11,0,.16c0,2,3.27,3.71,7.37,3.75s7.55-1.62,7.62-3.69a.28.28,0,0,0,0-.09" fill="#8d9092"/><path d="M23.48,15.22a.63.63,0,0,1,0-.19h0v0l-.06.07-.15.16-.16.14-.3.21-.29.18-.43.22-.41.19c-.16.06-.37.15-.53.2l-.53.18-.61.16-.62.14-.67.12-.7.1-.72.06-.74,0h-.77l-.76,0-.58,0-.71-.07-.7-.1-.65-.12-.63-.15-.56-.16-.56-.19-.45-.18L9.74,16l-.32-.17-.37-.23-.18-.14a2.41,2.41,0,0,1-.24-.21l-.08-.07L8.45,15h0v.07s0,.11,0,.16c0,2,3.27,3.71,7.37,3.75s7.55-1.62,7.62-3.69a.28.28,0,0,0,0-.09" fill="#8a8c8e"/><path d="M23.48,15.22a.63.63,0,0,1,0-.19h0v0l-.06.07-.15.16-.16.14-.3.21-.29.18-.43.22-.41.19c-.16.06-.37.15-.53.2l-.53.18-.61.16-.62.14-.67.12-.7.1-.72.06-.74,0h-.77l-.76,0-.58,0-.71-.07-.7-.1-.65-.12-.63-.15-.56-.16-.56-.19-.45-.18L9.74,16l-.32-.17-.37-.23-.18-.14a2.41,2.41,0,0,1-.24-.21l-.08-.07L8.45,15h0v.07s0,.11,0,.16c0,2,3.27,3.71,7.37,3.75s7.55-1.62,7.62-3.69a.28.28,0,0,0,0-.09" fill="#86898b"/><path d="M23.48,15.22a.63.63,0,0,1,0-.19h0v0l-.06.07-.15.16-.16.14-.3.21-.29.18-.43.22-.41.19c-.16.06-.37.15-.53.2l-.53.18-.61.16-.62.14-.67.12-.7.1-.72.06-.74,0h-.77l-.76,0-.58,0-.71-.07-.7-.1-.65-.12-.63-.15-.56-.16-.56-.19-.45-.18L9.74,16l-.32-.17-.37-.23-.18-.14a2.41,2.41,0,0,1-.24-.21l-.08-.07L8.45,15h0v.07s0,.11,0,.16c0,2,3.27,3.71,7.37,3.75s7.55-1.62,7.62-3.69a.28.28,0,0,0,0-.09" fill="#838587"/><path d="M23.48,15.22a.63.63,0,0,1,0-.19h0v0l-.06.07-.15.16-.16.14-.3.21-.29.18-.43.22-.41.19c-.16.06-.37.15-.53.2l-.53.18-.61.16-.62.14-.67.12-.7.1-.72.06-.74,0h-.77l-.76,0-.58,0-.71-.07-.7-.1-.65-.12-.63-.15-.56-.16-.56-.19-.45-.18L9.74,16l-.32-.17-.37-.23-.18-.14a2.41,2.41,0,0,1-.24-.21l-.08-.07L8.45,15h0v.07s0,.11,0,.16c0,2,3.27,3.71,7.37,3.75A13.43,13.43,0,0,0,20,18.4h.08c2-.66,3.32-1.78,3.36-3.07a.28.28,0,0,0,0-.09" fill="#7f8284"/><path d="M23.48,15.22a.63.63,0,0,1,0-.19h0v0l-.06.07-.15.16-.16.14-.3.21-.29.18-.43.22-.41.19c-.16.06-.37.15-.53.2l-.53.18-.61.16-.62.14-.67.12-.7.1-.72.06-.74,0h-.77l-.76,0-.58,0-.71-.07-.7-.1-.65-.12-.63-.15-.56-.16-.56-.19-.45-.18L9.74,16l-.32-.17-.37-.23-.18-.14a2.41,2.41,0,0,1-.24-.21l-.08-.07L8.45,15h0v.07s0,.11,0,.16c0,2,3.27,3.71,7.37,3.75a14.72,14.72,0,0,0,2.44-.19l.48-.15a25.65,25.65,0,0,0,3-1,3,3,0,0,0,1.71-2.32.28.28,0,0,0,0-.09" fill="#7c7e80"/><path d="M23.48,15.22a.63.63,0,0,1,0-.19h0v0l-.06.07-.15.16-.16.14-.3.21-.29.18-.43.22-.41.19c-.16.06-.37.15-.53.2l-.53.18-.61.16-.62.14-.67.12-.7.1-.72.06-.74,0h-.77l-.76,0-.58,0-.71-.07-.7-.1-.65-.12-.63-.15-.56-.16-.56-.19-.45-.18L9.74,16l-.32-.17-.37-.23-.18-.14a2.41,2.41,0,0,1-.24-.21l-.08-.07L8.45,15h0v.07s0,.11,0,.16c0,2,3.27,3.71,7.37,3.75.48,0,1,0,1.43-.06l.08,0a24.91,24.91,0,0,0,5-1.7,2.65,2.65,0,0,0,1.11-1.91.28.28,0,0,0,0-.09" fill="#787a7d"/><path d="M23.48,15.22a.63.63,0,0,1,0-.19h0v0l-.06.07-.15.16-.16.14-.3.21-.29.18-.43.22-.41.19c-.16.06-.37.15-.53.2l-.53.18-.61.16-.62.14-.67.12-.7.1-.72.06-.74,0h-.77l-.76,0-.58,0-.71-.07-.7-.1-.65-.12-.63-.15-.56-.16-.56-.19-.45-.18L9.74,16l-.32-.17-.37-.23-.18-.14a2.41,2.41,0,0,1-.24-.21l-.08-.07L8.45,15h0v.07s0,.11,0,.16c0,2,3.27,3.71,7.37,3.75h.69l.55-.14c3.28-.89,4.39-1.19,5.65-2a2.32,2.32,0,0,0,.73-1.55.28.28,0,0,0,0-.09" fill="#757779"/><path d="M23.48,15.22a.63.63,0,0,1,0-.19h0v0l-.06.07-.15.16-.16.14-.3.21-.29.18-.43.22-.41.19c-.16.06-.37.15-.53.2l-.53.18-.61.16-.62.14-.67.12-.7.1-.72.06-.74,0h-.77l-.76,0-.58,0-.71-.07-.7-.1-.65-.12-.63-.15-.56-.16-.56-.19-.45-.18L9.74,16l-.32-.17-.37-.23-.18-.14a2.41,2.41,0,0,1-.24-.21l-.08-.07L8.45,15h0v.07s0,.11,0,.16c0,2,3.24,3.7,7.31,3.75l.06,0c4.64-.9,6.28-1.9,7.17-2.44a2.16,2.16,0,0,0,.45-1.23.28.28,0,0,0,0-.09" fill="#727475"/><path d="M23.48,15.22a.63.63,0,0,1,0-.19h0v0l-.06.07-.15.16-.16.14-.3.21-.29.18-.43.22-.41.19c-.16.06-.37.15-.53.2l-.53.18-.61.16-.62.14-.67.12-.7.1-.72.06-.74,0h-.77l-.76,0-.58,0-.71-.07-.7-.1-.65-.12-.63-.15-.56-.16-.56-.19-.45-.18L9.74,16l-.32-.17-.37-.23-.18-.14a2.41,2.41,0,0,1-.24-.21l-.08-.07L8.45,15h0v.07s0,.11,0,.16c0,1.92,2.9,3.51,6.65,3.72l.53-.11c3.45-.76,6.18-1.37,7.56-2.63a2.15,2.15,0,0,0,.25-.92.28.28,0,0,0,0-.09" fill="#6e7072"/><path d="M23.48,15.22a.63.63,0,0,1,0-.19h0v0l-.06.07-.15.16-.16.14-.3.21-.29.18-.43.22-.41.19c-.16.06-.37.15-.53.2l-.53.18-.61.16-.62.14-.67.12-.7.1-.72.06-.74,0h-.77l-.76,0-.58,0-.71-.07-.7-.1-.65-.12-.63-.15-.56-.16-.56-.19-.45-.18L9.74,16l-.32-.17-.37-.23-.18-.14a2.41,2.41,0,0,1-.24-.21l-.08-.07L8.45,15h0v.07s0,.11,0,.16c0,1.81,2.57,3.33,6,3.67l.52-.08c3.19-.61,6.81-1.31,8.35-2.93a1.81,1.81,0,0,0,.11-.6.28.28,0,0,0,0-.09" fill="#6b6d6e"/><path d="M23.48,15.22a.63.63,0,0,1,0-.19h0v0l-.06.07-.15.16-.16.14-.3.21-.29.18-.43.22-.41.19c-.16.06-.37.15-.53.2l-.53.18-.61.16-.62.14-.67.12-.7.1-.72.06-.74,0h-.77l-.76,0-.58,0-.71-.07-.7-.1-.65-.12-.63-.15-.56-.16-.56-.19-.45-.18L9.74,16l-.32-.17-.37-.23-.18-.14a2.41,2.41,0,0,1-.24-.21l-.08-.07L8.45,15h0v.07s0,.11,0,.16c0,1.69,2.26,3.14,5.37,3.59l.47-.08c6.66-1,8.64-2.26,9.13-3.18a2.45,2.45,0,0,0,0-.27.28.28,0,0,0,0-.09" fill="#67696b"/><path d="M23.48,15.22a.63.63,0,0,1,0-.19h0v0l-.06.07-.15.16-.16.14-.3.21-.29.18-.43.22-.41.19c-.16.06-.37.15-.53.2l-.53.18-.61.16-.62.14-.67.12-.7.1-.72.06-.74,0h-.77l-.76,0-.58,0-.71-.07-.7-.1-.65-.12-.63-.15-.56-.16-.56-.19-.45-.18L9.74,16l-.32-.17-.37-.23-.18-.14a2.41,2.41,0,0,1-.24-.21l-.08-.07L8.45,15h0v.07s0,.11,0,.16c0,1.58,2,2.94,4.75,3.49l.45-.07c3.35-.52,9.58-1.49,9.8-3.43v0" fill="#646667"/><path d="M23.51,15h0l-.06.07-.15.16-.16.14-.3.21-.29.18-.43.22-.41.19c-.16.06-.37.15-.53.2l-.53.18-.61.16-.62.14-.67.12-.7.1-.72.06-.74,0h-.77l-.76,0-.58,0-.71-.07-.7-.1-.65-.12-.63-.15-.56-.16-.56-.19-.45-.18L9.74,16l-.32-.17-.37-.23-.18-.14a2.41,2.41,0,0,1-.24-.21l-.08-.07L8.45,15h0v.07s0,.11,0,.16c0,1.45,1.65,2.71,4.08,3.34l.38-.05c2.78-.33,10.17-1.19,10.54-3.4v-.05l0-.06" fill="#606264"/><path d="M23.51,15h0l-.06.07-.15.16-.16.14-.3.21-.29.18-.43.22-.41.19c-.16.06-.37.15-.53.2l-.53.18-.61.16-.62.14-.67.12-.7.1-.72.06-.74,0h-.77l-.76,0-.58,0-.71-.07-.7-.1-.65-.12-.63-.15-.56-.16-.56-.19-.45-.18L9.74,16l-.32-.17-.37-.23-.18-.14a2.41,2.41,0,0,1-.24-.21l-.08-.07L8.45,15h0v.07s0,.11,0,.16c0,1.31,1.34,2.46,3.39,3.13l.38,0c4.34-.42,10.29-1,11.25-3.31h0" fill="#5d5f60"/><path d="M23.5,15a2.09,2.09,0,0,1-.21.23l-.16.14-.3.21-.29.18-.43.22-.41.19c-.16.06-.37.15-.53.2l-.53.18-.61.16-.62.14-.67.12-.7.1-.72.06-.74,0h-.77l-.76,0-.58,0-.71-.07-.7-.1-.65-.12-.63-.15-.56-.16-.56-.19-.45-.18L9.74,16l-.32-.17-.37-.23-.18-.14a2.41,2.41,0,0,1-.24-.21l-.08-.07L8.45,15h0v.07s0,.11,0,.16c0,1.11,1,2.1,2.5,2.79h.34c4.42-.19,10.48-.45,12.19-3h0" fill="#595b5d"/></g></g></g><g style="isolation:isolate"><g clip-path="url(#i)"><g style="isolation:isolate"><path d="M8.48,15.25a1.85,1.85,0,0,0,0-.23c2.34,2.89,12.61,2.91,15.06,0l0,.13a3.35,3.35,0,0,1,3.56-3v.09c-.11,3.06-5.15,5.49-11.26,5.44S4.91,15.18,4.91,12.17a3.36,3.36,0,0,1,3.57,3.08" fill="#8d9092"/><path d="M27,12.17c-.11,3.15-5.15,5.58-11.26,5.53S4.91,15.18,4.91,12.17A3.88,3.88,0,0,1,6,12.32l.24.27a1.4,1.4,0,0,0,1,.31,2.93,2.93,0,0,1,1.27,2.35v-.06l0-.15h0l0,.06.14.14.14.13.28.22.28.17.41.23.4.18.52.21.52.18.6.17.61.14.67.13.69.1.72.07.75.05h1.36l.74,0,.72-.06c.21,0,.49-.06.7-.1l.65-.11.64-.15.57-.15.57-.19.46-.17.48-.22.34-.17c.11-.07.27-.15.38-.23l.2-.14.26-.21.09-.08L23.5,15h0v0l0,.15A3.35,3.35,0,0,1,27,12.17" fill="#8d9092"/><path d="M27,12.17c-.11,3.15-5.15,5.58-11.26,5.53S4.91,15.18,4.91,12.17a4.91,4.91,0,0,1,.67.05l.18.38c.14.23.52.86,1.77.56l.18.18a2.9,2.9,0,0,1,.77,1.91v-.06l0-.15h0l0,.06.14.14.14.13.28.22.28.17.41.23.4.18.52.21.52.18.6.17.61.14.67.13.69.1.72.07.75.05h1.36l.74,0,.72-.06c.21,0,.49-.06.7-.1l.65-.11.64-.15.57-.15.57-.19.46-.17.48-.22.34-.17c.11-.07.27-.15.38-.23l.2-.14.26-.21.09-.08L23.5,15h0v0l0,.15A3.35,3.35,0,0,1,27,12.17" fill="#8a8c8e"/><path d="M27,12.17c-.11,3.15-5.15,5.58-11.26,5.53S4.91,15.18,4.91,12.17h.34l.1.43c.62,1.51,1.56,1.12,2.39.77a2.82,2.82,0,0,1,.74,1.87v-.06l0-.15h0l0,.06.14.14.14.13.28.22.28.17.41.23.4.18.52.21.52.18.6.17.61.14.67.13.69.1.72.07.75.05h1.36l.74,0,.72-.06c.21,0,.49-.06.7-.1l.65-.11.64-.15.57-.15.57-.19.46-.17.48-.22.34-.17c.11-.07.27-.15.38-.23l.2-.14.26-.21.09-.08L23.5,15h0v0l0,.15A3.35,3.35,0,0,1,27,12.17" fill="#86898b"/><path d="M27,12.17c-.11,3.15-5.15,5.58-11.26,5.53S4.91,15.18,4.91,12.17l.1.45c.44,1.63,1.46,1.91,1.47,1.91.67,0,.86-.76,1.42-1a2.8,2.8,0,0,1,.58,1.68v-.06l0-.15h0l0,.06.14.14.14.13.28.22.28.17.41.23.4.18.52.21.52.18.6.17.61.14.67.13.69.1.72.07.75.05h1.36l.74,0,.72-.06c.21,0,.49-.06.7-.1l.65-.11.64-.15.57-.15.57-.19.46-.17.48-.22.34-.17c.11-.07.27-.15.38-.23l.2-.14.26-.21.09-.08L23.5,15h0v0l0,.15A3.35,3.35,0,0,1,27,12.17" fill="#838587"/><path d="M26.84,12.17c.62.63-2,5.62-11,5.46-6.12-.11-9.28-2.47-8.24-3.58,0,0,0,0,.48-.3a2.84,2.84,0,0,1,.45,1.5v-.06a.68.68,0,0,0,0-.15h0l0,.06.14.14.14.13.28.22.28.17.41.23.4.18.52.21.52.18.6.17.61.14.67.13.69.1.72.07.75.05h1.36l.74,0,.72-.06c.21,0,.49-.06.7-.1l.65-.11.64-.15.57-.15.57-.19.46-.17.48-.22.34-.17c.11-.07.27-.15.38-.23l.2-.14.26-.21.09-.08A1.58,1.58,0,0,1,23.5,15h0v0a.68.68,0,0,0,0,.15,3.31,3.31,0,0,1,3.36-3.05" fill="#7f8284"/><path d="M26.6,12.19c.59.54-1.22,5-9.49,5.34-6.47.3-10.15-2.25-9.3-3.35a1.21,1.21,0,0,1,.32-.25,2.74,2.74,0,0,1,.35,1.32v-.06a.68.68,0,0,0,0-.15h0l0,.06.14.14.14.13.28.22.28.17.41.23.4.18.52.21.52.18.6.17.61.14.67.13.69.1.72.07.75.05h1.36l.74,0,.72-.06c.21,0,.49-.06.7-.1l.65-.11.64-.15.57-.15.57-.19.46-.17.48-.22.34-.17c.11-.07.27-.15.38-.23l.2-.14.26-.21.09-.08A1.58,1.58,0,0,1,23.5,15h0v0a.68.68,0,0,0,0,.15,3.28,3.28,0,0,1,3.12-3" fill="#7c7e80"/><path d="M26.38,12.22c.57.47-.88,4.57-8.45,5.19C11.13,18,7.33,15.25,8,14.29a1.68,1.68,0,0,1,.21-.18,2.58,2.58,0,0,1,.26,1.14v-.06a.68.68,0,0,0,0-.15h0l0,.06.14.14.14.13.28.22.28.17.41.23.4.18.52.21.52.18.6.17.61.14.67.13.69.1.72.07.75.05h1.36l.74,0,.72-.06c.21,0,.49-.06.7-.1l.65-.11.64-.15.57-.15.57-.19.46-.17.48-.22.34-.17c.11-.07.27-.15.38-.23l.2-.14.26-.21.09-.08A1.58,1.58,0,0,1,23.5,15h0v0a.68.68,0,0,0,0,.15,3.24,3.24,0,0,1,2.9-3" fill="#787a7d"/><path d="M26.17,12.26c.39.31-.31,4.19-7.86,5-5.75.66-11.08-1.6-10-3a2.62,2.62,0,0,1,.19,1v-.06a.68.68,0,0,0,0-.15h0l0,.06.14.14.14.13.28.22.28.17.41.23.4.18.52.21.52.18.6.17.61.14.67.13.69.1.72.07.75.05h1.36l.74,0,.72-.06c.21,0,.49-.06.7-.1l.65-.11.64-.15.57-.15.57-.19.46-.17.48-.22.34-.17c.11-.07.27-.15.38-.23l.2-.14.26-.21.09-.08A1.58,1.58,0,0,1,23.5,15h0v0a.68.68,0,0,0,0,.15,3.2,3.2,0,0,1,2.69-3" fill="#757779"/><path d="M26,12.31c.47.34-.26,3.59-6.13,4.72-6.62,1.26-12.19-1.31-11.47-2.57a2.9,2.9,0,0,1,.12.79v-.06a.68.68,0,0,0,0-.15h0l0,.06a.93.93,0,0,0,.14.14l.14.13.28.22.28.17.41.23.4.18.52.21.52.18.6.17.61.14.67.13.69.1.72.07.75.05h1.36l.74,0,.72-.06c.21,0,.49-.06.7-.1l.65-.11.64-.15.57-.15.57-.19.46-.17.48-.22.34-.17c.11-.07.27-.15.38-.23l.2-.14.26-.21.09-.08A1.58,1.58,0,0,1,23.5,15h0v0a.68.68,0,0,0,0,.15A3.16,3.16,0,0,1,26,12.31" fill="#727475"/><path d="M25.75,12.37c.19.13.46,3.16-5.61,4.54S8,15.9,8.4,14.63a2.57,2.57,0,0,1,.08.62v-.06a.68.68,0,0,0,0-.15h0l0,.06a.93.93,0,0,0,.14.14l.14.13.28.22.28.17.41.23.4.18.52.21.52.18.6.17.61.14.67.13.69.1.72.07.75.05h1.36l.74,0,.72-.06c.21,0,.49-.06.7-.1l.65-.11.64-.15.57-.15.57-.19.46-.17.48-.22.34-.17c.11-.07.27-.15.38-.23l.2-.14.26-.21.09-.08A1.58,1.58,0,0,1,23.5,15h0v0a.68.68,0,0,0,0,.15,3.13,3.13,0,0,1,2.27-2.85" fill="#6e7072"/><path d="M8.44,15a.28.28,0,0,1,0-.2,3,3,0,0,1,0,.43v-.06a.77.77,0,0,0,0-.15v0" fill="#6b6d6e"/><path d="M25.54,12.45c.31.18.32,2.88-4.77,4.25-3.88,1.05-8.67.66-11.4-.92l.31.17.06,0,.4.18.52.21.52.18.6.17.61.14.67.13.69.1.72.07.75.05h1.36l.74,0,.72-.06c.21,0,.49-.06.7-.1l.65-.11.64-.15.57-.15.57-.19.46-.17.48-.22.34-.17c.11-.07.27-.15.38-.23l.2-.14.26-.21.09-.08A1.58,1.58,0,0,1,23.5,15h0v0a.68.68,0,0,0,0,.15,3.08,3.08,0,0,1,2.06-2.77" fill="#6b6d6e"/><path d="M8.47,15.13a.4.4,0,0,1,0-.11c0,.07,0,.15,0,.23v-.12h0" fill="#67696b"/><path d="M25.34,12.54c.13.06.6,2.07-3.08,3.61a17.67,17.67,0,0,1-11.39.3l.53.16.38.11.61.14.67.13.69.1.72.07.75.05h1.36l.74,0,.72-.06c.21,0,.49-.06.7-.1l.65-.11.64-.15.57-.15.57-.19.46-.17.48-.22.34-.17c.11-.07.27-.15.38-.23l.2-.14.26-.21.09-.08A1.58,1.58,0,0,1,23.5,15h0v0a.68.68,0,0,0,0,.15,3,3,0,0,1,1.86-2.68" fill="#67696b"/><path d="M8.48,15.22v0" fill="#646667"/><path d="M25.12,12.65c.2.08.39,1.95-2.5,3.28A16.91,16.91,0,0,1,13.13,17l.69.1.65.06.75.05h1.36l.74,0,.72-.06c.21,0,.49-.06.7-.1l.65-.11.64-.15.57-.15.57-.19.46-.17.48-.22.34-.17c.11-.07.27-.15.38-.23l.2-.14.26-.21.09-.08A1.58,1.58,0,0,1,23.5,15h0v0a.68.68,0,0,0,0,.15,3,3,0,0,1,1.64-2.57" fill="#646667"/><path d="M24.9,12.79s.64,1.67-2.35,3.11a15.54,15.54,0,0,1-6.78,1.32h.81l.74,0,.72-.06c.21,0,.49-.06.7-.1l.65-.11.64-.15.57-.15.57-.19.46-.17.48-.22.34-.17c.11-.07.27-.15.38-.23l.2-.14.26-.21.09-.08A1.58,1.58,0,0,1,23.5,15h0v0a.77.77,0,0,0,0,.15,2.94,2.94,0,0,1,1.42-2.43" fill="#606264"/><path d="M24.64,13s.61,1.22-1.53,2.57A12.55,12.55,0,0,1,18.78,17l.65-.12.6-.14.57-.15.57-.19.46-.17.48-.22.34-.17c.11-.07.27-.15.38-.23l.2-.14.26-.21.09-.08A1.58,1.58,0,0,1,23.5,15h0v0a.77.77,0,0,0,0,.15A2.89,2.89,0,0,1,24.64,13" fill="#5d5f60"/><path d="M24.35,13.23c.08.17.65,1.69-3,3.12l.44-.17.33-.16.34-.17c.11-.07.27-.15.38-.23l.2-.14.26-.21.09-.08A1.58,1.58,0,0,1,23.5,15h0v0a.77.77,0,0,0,0,.15v0a2.84,2.84,0,0,1,.87-2" fill="#595b5d"/></g></g></g><g style="isolation:isolate"><g clip-path="url(#j)"><g style="isolation:isolate"><path d="M15.75,24.34c-8.57-.16-14.49-4-14.4-9.32a3.33,3.33,0,0,1,3.56-2.95v.1c0,3,4.83,5.48,10.87,5.53S26.93,15.32,27,12.26v-.09c0-3-4.83-5.48-10.87-5.53S5,9,4.91,12.07A3.33,3.33,0,0,0,1.35,15c.77-10.09,20.8-11.71,27.37-4.43,5.3,5.88-.51,14-13,13.75" fill="#8d9092"/><path d="M1.35,15a6.44,6.44,0,0,1,.39-2l.2-.5a8,8,0,0,1,.68-1.18L3,10.88c.24-.27.57-.62.82-.87l.52-.44c.26-.2.6-.46.87-.64l.65-.4.89-.47.76-.34.91-.35.85-.28,1-.26.92-.2,1-.18,1-.13,1-.1,1,0c.31,0,.73,0,1,0l1.05,0,.81,0,1,.1,1,.15.94.18.95.22.88.25.91.3.78.32c.27.12.62.27.87.4l.69.36c.25.16.59.36.84.53l.56.41c.24.2.57.48.8.69l.43.44c.23.28.52.65.73.95l.29.46a7.83,7.83,0,0,1,.55,1.25l.14.49a6.87,6.87,0,0,1,.17,1.5c0,.23,0,.53,0,.75a6.6,6.6,0,0,1-.35,1.47L30,18a8,8,0,0,1-.68,1.18l-.37.48c-.24.27-.57.62-.82.87l-.52.45c-.26.19-.6.45-.87.63l-.65.4-.89.47-.76.34-.91.35-.85.28-.94.26-.93.2-1,.18-1,.13c-.31,0-.71.08-1,.1l-1,0c-.32,0-.74,0-1.06,0l-1.05,0-.81,0-1-.1-1-.15-1-.18L10,23.61l-.87-.25-.91-.3-.79-.31-.87-.41L5.87,22c-.26-.16-.6-.36-.84-.53L4.47,21c-.25-.2-.57-.48-.81-.69l-.42-.44c-.23-.28-.53-.65-.74-.94l-.28-.47a7,7,0,0,1-.55-1.25l-.14-.49a7.62,7.62,0,0,1-.18-1.51V15a3.33,3.33,0,0,1,3.56-2.95c0,3.11,4.83,5.58,10.87,5.63S26.93,15.32,27,12.26,22.21,6.69,16.17,6.64,5,9,4.91,12.07A3.33,3.33,0,0,0,1.35,15" fill="#8d9092"/><path d="M1.35,15a6.44,6.44,0,0,1,.39-2l.2-.5a8,8,0,0,1,.68-1.18L3,10.88c.24-.27.57-.62.82-.87l.52-.44c.26-.2.6-.46.87-.64l.65-.4.89-.47.76-.34.91-.35.85-.28,1-.26.92-.2,1-.18,1-.13,1-.1,1,0c.31,0,.73,0,1,0l1.05,0,.81,0,1,.1,1,.15.94.18.95.22.88.25.91.3.78.32c.27.12.62.27.87.4l.69.36c.25.16.59.36.84.53l.56.41c.24.2.57.48.8.69l.43.44c.23.28.52.65.73.95l.29.46a7.83,7.83,0,0,1,.55,1.25l.14.49a6.87,6.87,0,0,1,.17,1.5c0,.23,0,.53,0,.75a6.6,6.6,0,0,1-.35,1.47L30,18a8,8,0,0,1-.68,1.18l-.37.48c-.24.27-.57.62-.82.87l-.52.45c-.26.19-.6.45-.87.63l-.65.4-.89.47-.76.34-.91.35-.85.28-.94.26-.93.2-1,.18-1,.13c-.31,0-.71.08-1,.1l-1,0c-.32,0-.74,0-1.06,0l-1.05,0-.81,0-1-.1-1-.15-1-.18L10,23.61l-.87-.25-.91-.3-.79-.31-.87-.41L5.87,22c-.26-.16-.6-.36-.84-.53L4.47,21c-.25-.2-.57-.48-.81-.69l-.42-.44c-.23-.28-.53-.65-.74-.94l-.28-.47a7,7,0,0,1-.55-1.25l-.14-.49a7.62,7.62,0,0,1-.18-1.51V15a3.33,3.33,0,0,1,3.56-2.95c0,3.11,4.83,5.58,10.87,5.63S26.93,15.32,27,12.26,22.21,6.69,16.17,6.64,5,9,4.91,12.07A3.33,3.33,0,0,0,1.35,15" fill="#8a8c8e"/><path d="M1.35,15a6.44,6.44,0,0,1,.39-2l.2-.5a8,8,0,0,1,.68-1.18L3,10.88c.24-.27.57-.62.82-.87l.52-.44c.26-.2.6-.46.87-.64l.65-.4.89-.47.76-.34.91-.35.85-.28,1-.26.92-.2,1-.18,1-.13,1-.1,1,0c.31,0,.73,0,1,0l1.05,0,.81,0,1,.1,1,.15.94.18.95.22.88.25.91.3.78.32c.27.12.62.27.87.4l.69.36c.25.16.59.36.84.53l.56.41c.24.2.57.48.8.69l.43.44c.23.28.52.65.73.95l.29.46a7.83,7.83,0,0,1,.55,1.25l.14.49a6.87,6.87,0,0,1,.17,1.5c0,.23,0,.53,0,.75a6.6,6.6,0,0,1-.35,1.47L30,18a8,8,0,0,1-.68,1.18l-.37.48c-.24.27-.57.62-.82.87l-.52.45c-.26.19-.6.45-.87.63l-.65.4-.89.47-.76.34-.91.35-.85.28-.94.26-.93.2-1,.18-1,.13c-.31,0-.71.08-1,.1l-1,0c-.32,0-.74,0-1.06,0l-1.05,0-.81,0-1-.1-1-.15-1-.18L10,23.61l-.87-.25-.91-.3-.79-.31-.87-.41L5.87,22c-.26-.16-.6-.36-.84-.53L4.47,21c-.25-.2-.57-.48-.81-.69l-.42-.44c-.23-.28-.53-.65-.74-.94l-.28-.47a7,7,0,0,1-.55-1.25l-.14-.49a7.62,7.62,0,0,1-.18-1.51V15a3.33,3.33,0,0,1,3.56-2.95c0,3.11,4.83,5.58,10.87,5.63S26.93,15.32,27,12.26,22.21,6.69,16.17,6.64,5,9,4.91,12.07A3.33,3.33,0,0,0,1.35,15" fill="#86898b"/><path d="M1.35,15a6.44,6.44,0,0,1,.39-2l.2-.5a8,8,0,0,1,.68-1.18L3,10.88c.24-.27.57-.62.82-.87l.52-.44c.26-.2.6-.46.87-.64l.65-.4.89-.47.76-.34.91-.35.85-.28,1-.26.92-.2,1-.18,1-.13,1-.1,1,0c.31,0,.73,0,1,0l1.05,0,.81,0,1,.1,1,.15.94.18.95.22.88.25.91.3.78.32c.27.12.62.27.87.4l.69.36c.25.16.59.36.84.53l.56.41c.24.2.57.48.8.69l.43.44c.23.28.52.65.73.95l.29.46a7.83,7.83,0,0,1,.55,1.25l.14.49a6.87,6.87,0,0,1,.17,1.5c0,.23,0,.53,0,.75a6.6,6.6,0,0,1-.35,1.47L30,18a8,8,0,0,1-.68,1.18l-.37.48c-.24.27-.57.62-.82.87l-.52.45c-.26.19-.6.45-.87.63l-.65.4-.89.47-.76.34-.91.35-.85.28-.94.26-.93.2-1,.18-1,.13c-.31,0-.71.08-1,.1l-1,0c-.32,0-.74,0-1.06,0l-1.05,0-.81,0-1-.1-1-.15-1-.18L10,23.61l-.87-.25-.91-.3-.79-.31-.87-.41L5.87,22c-.26-.16-.6-.36-.84-.53L4.47,21c-.25-.2-.57-.48-.81-.69l-.42-.44c-.23-.28-.53-.65-.74-.94l-.28-.47a7,7,0,0,1-.55-1.25l-.14-.49a7.62,7.62,0,0,1-.18-1.51V15a3.33,3.33,0,0,1,3.56-2.95c0,3.11,4.83,5.58,10.87,5.63S26.93,15.32,27,12.26,22.21,6.69,16.17,6.64,5,9,4.91,12.07A3.33,3.33,0,0,0,1.35,15" fill="#838587"/><path d="M1.35,15a6.44,6.44,0,0,1,.39-2l.2-.5a8,8,0,0,1,.68-1.18L3,10.88c.24-.27.57-.62.82-.87l.52-.44c.26-.2.6-.46.87-.64l.65-.4.89-.47.76-.34.91-.35.85-.28,1-.26.92-.2,1-.18,1-.13,1-.1,1,0c.31,0,.73,0,1,0l1.05,0,.81,0,1,.1,1,.15.94.18.95.22.88.25.91.3.78.32c.27.12.62.27.87.4l.69.36c.25.16.59.36.84.53l.56.41c.24.2.57.48.8.69l.43.44c.23.28.52.65.73.95l.29.46a7.83,7.83,0,0,1,.55,1.25l.14.49a6.87,6.87,0,0,1,.17,1.5c0,.23,0,.53,0,.75a6.6,6.6,0,0,1-.35,1.47L30,18a8,8,0,0,1-.68,1.18l-.37.48c-.24.27-.57.62-.82.87l-.52.45c-.26.19-.6.45-.87.63l-.65.4-.89.47-.76.34-.91.35-.85.28-.94.26-.93.2-1,.18-1,.13c-.31,0-.71.08-1,.1l-1,0c-.32,0-.74,0-1.06,0l-1.05,0-.81,0-1-.1-1-.15-1-.18L10,23.61l-.87-.25-.91-.3-.79-.31-.87-.41L5.87,22c-.26-.16-.6-.36-.84-.53L4.47,21c-.25-.2-.57-.48-.81-.69l-.42-.44c-.23-.28-.53-.65-.74-.94l-.28-.47a7,7,0,0,1-.55-1.25l-.14-.49a7.62,7.62,0,0,1-.18-1.51V15a3.31,3.31,0,0,1,3.37-2.95,12.15,12.15,0,0,0,9,9.5c5.36,1.49,11.87.23,14.83-2.87,5.34-5.59-2.22-12.5-13.26-12.12C11.48,6.71,6.54,7.93,5,10.94l-.18.45c0,.2-.1.48-.12.68A3.31,3.31,0,0,0,1.35,15" fill="#7f8284"/><path d="M1.35,15a6.44,6.44,0,0,1,.39-2l.2-.5a8,8,0,0,1,.68-1.18L3,10.88c.24-.27.57-.62.82-.87l.52-.44c.26-.2.6-.46.87-.64l.65-.4.89-.47.76-.34.91-.35.85-.28,1-.26.92-.2,1-.18,1-.13,1-.1,1,0c.31,0,.73,0,1,0l1.05,0,.81,0,1,.1,1,.15.94.18.95.22.88.25.91.3.78.32c.27.12.62.27.87.4l.69.36c.25.16.59.36.84.53l.56.41c.24.2.57.48.8.69l.43.44c.23.28.52.65.73.95l.29.46a7.83,7.83,0,0,1,.55,1.25l.14.49a6.87,6.87,0,0,1,.17,1.5c0,.23,0,.53,0,.75a6.6,6.6,0,0,1-.35,1.47L30,18a8,8,0,0,1-.68,1.18l-.37.48c-.24.27-.57.62-.82.87l-.52.45c-.26.19-.6.45-.87.63l-.65.4-.89.47-.76.34-.91.35-.85.28-.94.26-.93.2-1,.18-1,.13c-.31,0-.71.08-1,.1l-1,0c-.32,0-.74,0-1.06,0l-1.05,0-.81,0-1-.1-1-.15-1-.18L10,23.61l-.87-.25-.91-.3-.79-.31-.87-.41L5.87,22c-.26-.16-.6-.36-.84-.53L4.47,21c-.25-.2-.57-.48-.81-.69l-.42-.44c-.23-.28-.53-.65-.74-.94l-.28-.47a7,7,0,0,1-.55-1.25l-.14-.49a7.62,7.62,0,0,1-.18-1.51V15a3.26,3.26,0,0,1,3.13-2.93c-.42,8,15.14,14.32,23.45,7.31,5.33-4.48,1.55-11.77-9.45-12.8C12.2,6,6.46,7.84,4.83,10.93l-.19.45a5.62,5.62,0,0,0-.16.71A3.26,3.26,0,0,0,1.35,15" fill="#7c7e80"/><path d="M1.35,15a6.44,6.44,0,0,1,.39-2l.2-.5a8,8,0,0,1,.68-1.18L3,10.88c.24-.27.57-.62.82-.87l.52-.44c.26-.2.6-.46.87-.64l.65-.4.89-.47.76-.34.91-.35.85-.28,1-.26.92-.2,1-.18,1-.13,1-.1,1,0c.31,0,.73,0,1,0l1.05,0,.81,0,1,.1,1,.15.94.18.95.22.88.25.91.3.78.32c.27.12.62.27.87.4l.69.36c.25.16.59.36.84.53l.56.41c.24.2.57.48.8.69l.43.44c.23.28.52.65.73.95l.29.46a7.83,7.83,0,0,1,.55,1.25l.14.49a6.87,6.87,0,0,1,.17,1.5c0,.23,0,.53,0,.75a6.6,6.6,0,0,1-.35,1.47L30,18a8,8,0,0,1-.68,1.18l-.37.48c-.24.27-.57.62-.82.87l-.52.45c-.26.19-.6.45-.87.63l-.65.4-.89.47-.76.34-.91.35-.85.28-.94.26-.93.2-1,.18-1,.13c-.31,0-.71.08-1,.1l-1,0c-.32,0-.74,0-1.06,0l-1.05,0-.81,0-1-.1-1-.15-1-.18L10,23.61l-.87-.25-.91-.3-.79-.31-.87-.41L5.87,22c-.26-.16-.6-.36-.84-.53L4.47,21c-.25-.2-.57-.48-.81-.69l-.42-.44c-.23-.28-.53-.65-.74-.94l-.28-.47a7,7,0,0,1-.55-1.25l-.14-.49a7.62,7.62,0,0,1-.18-1.51V15a3.22,3.22,0,0,1,2.92-2.9C3.48,20,19.55,26.59,28,19.52c5.44-4.58,1.7-12-9.44-13C12.15,6,6.31,7.8,4.65,10.93l-.21.46a6.41,6.41,0,0,0-.17.73A3.22,3.22,0,0,0,1.35,15" fill="#787a7d"/><path d="M1.35,15a6.44,6.44,0,0,1,.39-2l.2-.5a8,8,0,0,1,.68-1.18L3,10.88c.24-.27.57-.62.82-.87l.52-.44c.26-.2.6-.46.87-.64l.65-.4.89-.47.76-.34.91-.35.85-.28,1-.26.92-.2,1-.18,1-.13,1-.1,1,0c.31,0,.73,0,1,0l1.05,0,.81,0,1,.1,1,.15.94.18.95.22.88.25.91.3.78.32c.27.12.62.27.87.4l.69.36c.25.16.59.36.84.53l.56.41c.24.2.57.48.8.69l.43.44c.23.28.52.65.73.95l.29.46a7.83,7.83,0,0,1,.55,1.25l.14.49a6.87,6.87,0,0,1,.17,1.5c0,.23,0,.53,0,.75a6.6,6.6,0,0,1-.35,1.47L30,18a8,8,0,0,1-.68,1.18l-.37.48c-.24.27-.57.62-.82.87l-.52.45c-.26.19-.6.45-.87.63l-.65.4-.89.47-.76.34-.91.35-.85.28-.94.26-.93.2-1,.18-1,.13c-.31,0-.71.08-1,.1l-1,0c-.32,0-.74,0-1.06,0l-1.05,0-.81,0-1-.1-1-.15-1-.18L10,23.61l-.87-.25-.91-.3-.79-.31-.87-.41L5.87,22c-.26-.16-.6-.36-.84-.53L4.47,21c-.25-.2-.57-.48-.81-.69l-.42-.44c-.23-.28-.53-.65-.74-.94l-.28-.47a7,7,0,0,1-.55-1.25l-.14-.49a7.62,7.62,0,0,1-.18-1.51V15a3.2,3.2,0,0,1,2.71-2.87C3,21,20,26.31,28,19.66,33.52,15,29.82,7.48,18.56,6.47c-6.41-.58-12.34,1.3-14.1,4.47l-.21.47a6.7,6.7,0,0,0-.19.74A3.2,3.2,0,0,0,1.35,15" fill="#757779"/><path d="M1.35,15a6.44,6.44,0,0,1,.39-2l.2-.5a8,8,0,0,1,.68-1.18L3,10.88c.24-.27.57-.62.82-.87l.52-.44c.26-.2.6-.46.87-.64l.65-.4.89-.47.76-.34.91-.35.85-.28,1-.26.92-.2,1-.18,1-.13,1-.1,1,0c.31,0,.73,0,1,0l1.05,0,.81,0,1,.1,1,.15.94.18.95.22.88.25.91.3.78.32c.27.12.62.27.87.4l.69.36c.25.16.59.36.84.53l.56.41c.24.2.57.48.8.69l.43.44c.23.28.52.65.73.95l.29.46a7.83,7.83,0,0,1,.55,1.25l.14.49a6.87,6.87,0,0,1,.17,1.5c0,.23,0,.53,0,.75a6.6,6.6,0,0,1-.35,1.47L30,18a8,8,0,0,1-.68,1.18l-.37.48c-.24.27-.57.62-.82.87l-.52.45c-.26.19-.6.45-.87.63l-.65.4-.89.47-.76.34-.91.35-.85.28-.94.26-.93.2-1,.18-1,.13c-.31,0-.71.08-1,.1l-1,0c-.32,0-.74,0-1.06,0l-1.05,0-.81,0-1-.1-1-.15-1-.18L10,23.61l-.87-.25-.91-.3-.79-.31-.87-.41L5.87,22c-.26-.16-.6-.36-.84-.53L4.47,21c-.25-.2-.57-.48-.81-.69l-.42-.44c-.23-.28-.53-.65-.74-.94l-.28-.47a7,7,0,0,1-.55-1.25l-.14-.49a7.62,7.62,0,0,1-.18-1.51V15A3.16,3.16,0,0,1,3.86,12.2c-1.21,8,14.53,14.61,23.92,7.71C32.89,16.17,31,8.33,20,6.59c-6.2-1-13.85.51-15.91,4.68L4,11.76l-.09.44A3.17,3.17,0,0,0,1.35,15" fill="#727475"/><path d="M1.35,15a6.44,6.44,0,0,1,.39-2l.2-.5a8,8,0,0,1,.68-1.18L3,10.88c.24-.27.57-.62.82-.87l.52-.44c.26-.2.6-.46.87-.64l.65-.4.89-.47.76-.34.91-.35.85-.28,1-.26.92-.2,1-.18,1-.13,1-.1,1,0c.31,0,.73,0,1,0l1.05,0,.81,0,1,.1,1,.15.94.18.95.22.88.25.91.3.78.32c.27.12.62.27.87.4l.69.36c.25.16.59.36.84.53l.56.41c.24.2.57.48.8.69l.43.44c.23.28.52.65.73.95l.29.46a7.83,7.83,0,0,1,.55,1.25l.14.49a6.87,6.87,0,0,1,.17,1.5c0,.23,0,.53,0,.75a6.6,6.6,0,0,1-.35,1.47L30,18a8,8,0,0,1-.68,1.18l-.37.48c-.24.27-.57.62-.82.87l-.52.45c-.26.19-.6.45-.87.63l-.65.4-.89.47-.76.34-.91.35-.85.28-.94.26-.93.2-1,.18-1,.13c-.31,0-.71.08-1,.1l-1,0c-.32,0-.74,0-1.06,0l-1.05,0-.81,0-1-.1-1-.15-1-.18L10,23.61l-.87-.25-.91-.3-.79-.31-.87-.41L5.87,22c-.26-.16-.6-.36-.84-.53L4.47,21c-.25-.2-.57-.48-.81-.69l-.42-.44c-.23-.28-.53-.65-.74-.94l-.28-.47a7,7,0,0,1-.55-1.25l-.14-.49a7.62,7.62,0,0,1-.18-1.51V15a3.13,3.13,0,0,1,2.3-2.76C2.45,20.3,17.92,27,27.56,20.2c5.4-3.8,3.8-11.82-7.45-13.64-6-1-13.7.41-16,4.43l-.23.48c-.07.23-.17.55-.22.79A3.13,3.13,0,0,0,1.35,15" fill="#6e7072"/><path d="M30.29,13.25a6.49,6.49,0,0,1,.31,2c0,.23,0,.53,0,.75a6.6,6.6,0,0,1-.35,1.47L30,18a8,8,0,0,1-.68,1.18l-.37.48c-.24.27-.57.62-.82.87l-.52.45c-.26.19-.6.45-.87.63l-.65.4-.89.47-.76.34-.91.35-.85.28-.94.26-.93.2-1,.18-1,.13c-.31,0-.71.08-1,.1l-1,0c-.32,0-.74,0-1.06,0l-1.05,0-.81,0-1-.1-1-.15-1-.18L10,23.61l-.87-.25-.91-.3-.79-.31-.87-.41L5.87,22c-.26-.16-.6-.36-.84-.53L4.47,21c-.25-.2-.57-.48-.81-.69l-.42-.44c-.23-.28-.53-.65-.74-.94l-.28-.47a7,7,0,0,1-.55-1.25l-.14-.49a7.62,7.62,0,0,1-.18-1.51V15a3.06,3.06,0,0,1,2.1-2.69c-1.39,8,14.42,14.73,24.09,8,2.08-1.44,3.87-4.16,2.62-7.42l.13.34" fill="#6b6d6e"/><path d="M1.35,15a6.44,6.44,0,0,1,.39-2l.2-.5a8,8,0,0,1,.68-1.18L3,10.88c.24-.27.57-.62.82-.87l.52-.44c.26-.2.6-.46.87-.64l.65-.4.89-.47.76-.34.91-.35.85-.28,1-.26.92-.2,1-.18,1-.13,1-.1,1,0c.31,0,.73,0,1,0l1.05,0,.81,0,1,.1,1,.15.94.18.95.22.88.25.91.3.78.32c.27.12.62.27.87.4l.69.36.11.07-.62-.34c-7.75-3.89-20.08-1.89-22,3.56,0,.16,0,.4-.13.52A3.06,3.06,0,0,0,1.35,15" fill="#6b6d6e"/><path d="M30.6,15.24c0,.23,0,.53,0,.75a6.6,6.6,0,0,1-.35,1.47L30,18a8,8,0,0,1-.68,1.18l-.37.48c-.24.27-.57.62-.82.87l-.52.45c-.26.19-.6.45-.87.63l-.65.4-.89.47-.76.34-.91.35-.85.28-.94.26-.93.2-1,.18-1,.13c-.31,0-.71.08-1,.1l-1,0c-.32,0-.74,0-1.06,0l-1.05,0-.81,0-1-.1-1-.15-1-.18L10,23.61l-.87-.25-.91-.3-.79-.31-.87-.41L5.87,22c-.26-.16-.6-.36-.84-.53L4.47,21c-.25-.2-.57-.48-.81-.69l-.42-.44c-.23-.28-.53-.65-.74-.94l-.28-.47a7,7,0,0,1-.55-1.25l-.14-.49a7.62,7.62,0,0,1-.18-1.51V15a3,3,0,0,1,1.9-2.61C1.78,21.32,18.32,26.82,27.5,20.47a6.39,6.39,0,0,0,3-6.24l.07.52v.49" fill="#67696b"/><path d="M1.35,15a6.44,6.44,0,0,1,.39-2l.2-.5a8,8,0,0,1,.68-1.18L3,10.88c.24-.27.57-.62.82-.87l.52-.44c.26-.2.6-.46.87-.64l.65-.4.89-.47.76-.34.91-.35.85-.28,1-.26.92-.2,1-.18,1-.13,1-.1,1,0c.31,0,.73,0,1,0l1.05,0,.81,0,1,.1,1,.15.94.18.95.22.88.25.56.18-.81-.26C14.9,5,6.27,6.83,3.73,11.07l-.24.5c-.08.25-.19.59-.24.84A3,3,0,0,0,1.35,15" fill="#67696b"/><path d="M30.6,15.47a6.27,6.27,0,0,1-.39,2L30,18a8,8,0,0,1-.68,1.18l-.37.48c-.24.27-.57.62-.82.87l-.52.45c-.26.19-.6.45-.87.63l-.65.4-.89.47-.76.34-.91.35-.85.28-.94.26-.93.2-1,.18-1,.13c-.31,0-.71.08-1,.1l-1,0c-.32,0-.74,0-1.06,0l-1.05,0-.81,0-1-.1-1-.15-1-.18L10,23.61l-.87-.25-.91-.3-.79-.31-.87-.41L5.87,22c-.26-.16-.6-.36-.84-.53L4.47,21c-.25-.2-.57-.48-.81-.69l-.42-.44c-.23-.28-.53-.65-.74-.94l-.28-.47a7,7,0,0,1-.55-1.25l-.14-.49a7.62,7.62,0,0,1-.18-1.51V15A3,3,0,0,1,3,12.51c-1.59,8.75,15.29,14.36,24.42,8.11a6.74,6.74,0,0,0,3.14-5.36v.21" fill="#646667"/><path d="M1.35,15a6.44,6.44,0,0,1,.39-2l.2-.5a8,8,0,0,1,.68-1.18L3,10.88c.24-.27.57-.62.82-.87l.52-.44c.26-.2.6-.46.87-.64l.65-.4.89-.47.76-.34.91-.35.85-.28,1-.26.92-.2,1-.18,1-.13,1-.1,1,0c.31,0,.73,0,1,0l1.05,0,.81,0,1,.1.9.13-.52-.08C11.6,5.42,4.6,7.84,3.16,12c0,.15,0,.37-.12.49A3,3,0,0,0,1.35,15" fill="#646667"/><path d="M30.21,17.46a7.61,7.61,0,0,1-.88,1.68l-.37.48c-.24.27-.57.62-.82.87l-.52.45c-.26.19-.6.45-.87.63l-.65.4-.89.47-.76.34-.91.35-.85.28-.94.26-.93.2-1,.18-1,.13c-.31,0-.71.08-1,.1l-1,0c-.32,0-.74,0-1.06,0l-1.05,0-.81,0-1-.1-1-.15-1-.18L10,23.61l-.87-.25-.91-.3-.79-.31-.87-.41L5.87,22c-.26-.16-.6-.36-.84-.53L4.47,21c-.25-.2-.57-.48-.81-.69l-.42-.44c-.23-.28-.53-.65-.74-.94l-.28-.47a7,7,0,0,1-.55-1.25l-.14-.49a7.62,7.62,0,0,1-.18-1.51V15a3,3,0,0,1,1.47-2.38C1.25,21.51,18,27.07,27.35,20.8a7,7,0,0,0,3.17-4.54l-.1.51c-.06.21-.13.49-.21.69" fill="#606264"/><path d="M1.35,15a6.44,6.44,0,0,1,.39-2l.2-.5a8,8,0,0,1,.68-1.18L3,10.88c.24-.27.57-.62.82-.87l.52-.44c.26-.2.6-.46.87-.64l.65-.4.89-.47.76-.34.91-.35.85-.28,1-.26.92-.2,1-.18,1-.13,1-.1,1,0c.31,0,.73,0,1,0h0c-9,.1-12,3.58-12.88,5.06l-.25.53c-.08.26-.19.62-.25.89A3,3,0,0,0,1.35,15" fill="#606264"/><path d="M30.21,17.46a7,7,0,0,1-.88,1.68l-.37.48c-.24.27-.57.62-.82.87l-.52.45c-.26.19-.6.45-.87.63l-.65.4-.89.47-.76.34-.91.35-.85.28-.94.26-.93.2-1,.18-1,.13c-.31,0-.71.08-1,.1l-1,0c-.32,0-.74,0-1.06,0l-1.05,0-.81,0-1-.1-1-.15-1-.18L10,23.61l-.87-.25-.91-.3-.79-.31-.87-.41L5.87,22c-.26-.16-.6-.36-.84-.53L4.47,21c-.25-.2-.57-.48-.81-.69l-.42-.44c-.23-.28-.53-.65-.74-.94l-.28-.47a7,7,0,0,1-.55-1.25l-.14-.49a7.62,7.62,0,0,1-.18-1.51V15A2.89,2.89,0,0,1,2.58,12.8C1.05,21.69,17.92,27.24,27.31,21a7.4,7.4,0,0,0,3-3.68l-.07.19" fill="#5d5f60"/><path d="M1.35,15a6.44,6.44,0,0,1,.39-2l.2-.5a8,8,0,0,1,.68-1.18L3,10.88c.24-.27.57-.62.82-.87l.52-.44c.26-.2.6-.46.87-.64l.65-.4.89-.47.76-.34.91-.35.85-.28,1-.26.92-.2.92-.17-.88.16C9.57,7,4.68,8.08,2.92,11.69l-.2.54c0,.17-.11.4-.14.57A2.89,2.89,0,0,0,1.35,15" fill="#5d5f60"/><path d="M29.33,19.14a10.27,10.27,0,0,1-1.19,1.35l-.52.45c-.26.19-.6.45-.87.63l-.65.4-.89.47-.76.34-.91.35-.85.28-.94.26-.93.2-1,.18-1,.13c-.31,0-.71.08-1,.1l-1,0c-.32,0-.74,0-1.06,0l-1.05,0-.81,0-1-.1-1-.15-1-.18L10,23.61l-.87-.25-.91-.3-.79-.31-.87-.41L5.87,22c-.26-.16-.6-.36-.84-.53L4.47,21c-.25-.2-.57-.48-.81-.69l-.42-.44c-.23-.28-.53-.65-.74-.94l-.28-.47a7,7,0,0,1-.55-1.25l-.14-.49a7.62,7.62,0,0,1-.18-1.51V15a2.85,2.85,0,0,1,1-2C.77,21.9,17.74,27.44,27.18,21.15a8.19,8.19,0,0,0,2.56-2.66l-.29.47-.12.18" fill="#595b5d"/><path d="M1.35,15a6.44,6.44,0,0,1,.39-2l.2-.5a8,8,0,0,1,.68-1.18L3,10.88c.24-.27.57-.62.82-.87l.52-.44c.26-.2.6-.46.87-.64l.65-.4.89-.47.76-.34.62-.24-.79.31c-1.69.78-4,2.1-4.86,4.53l-.14.58,0,.13a2.85,2.85,0,0,0-1,2" fill="#595b5d"/><path d="M26.92,9.8c3.51,1.49,5.85,8.09-2.51,11.29-9.64,3.7-18.54-3.61-17-4.95.23-.2.71.13,1,.24a21.18,21.18,0,0,0,14.26.19,7.47,7.47,0,0,0,4-3c.46-.87.46-.87-.36-4a5.5,5.5,0,0,1,.58.16" fill="#838587"/><path d="M28,10.8c2.53,1.28,3.86,7.81-4.07,10.34C15.7,23.76,8.52,19.43,8.59,17.42a.46.46,0,0,1,.18-.34c.29-.16.78,0,1.11.09,5.5.71,8.26,1.07,12.22-.28,5.49-1.88,5.35-4.61,5.3-5.5a1.37,1.37,0,0,1,.15-.72c.13-.07.33.07.46.13" fill="#86898b"/><path d="M28.73,11.73c2.41,2.08,1.86,9.38-9.49,10.09-6.48.4-10.44-3.18-9.6-4.05.27-.28.8-.21,2.38,0A26,26,0,0,0,22.18,17a11,11,0,0,0,4.08-2.25,5.23,5.23,0,0,0,1.41-2.24c.08-.33.24-.87.24-.87a.51.51,0,0,1,.37-.15,1.07,1.07,0,0,1,.45.28" fill="#8a8c8e"/><path d="M29.22,12.72c2.69,4.06-3.75,10.36-13.5,8.8C12.34,21,10,19.36,10.39,18.38c.12-.33.27-.34,1.24-.39,2-.09,4,.13,6,0A21.44,21.44,0,0,0,22,17.1c1.47-.44,4.13-1.51,5.44-3.58.86-1.37.86-1.37.94-1.39s.37-.06.8.59" fill="#8d9092"/><path d="M29.19,13.22c2.22,3.29-3.76,9.78-13.47,8.2-2.48-.4-5.58-1.88-4.54-2.86.22-.22.35-.34,2.94-.35a26.93,26.93,0,0,0,8.22-1.09c3.13-1,4.62-2.44,5.31-3.42.07-.1.74-.85.75-.85a.58.58,0,0,1,.43,0,.94.94,0,0,1,.36.38" fill="#909396"/><path d="M29.1,13.72c2,2.59-3.46,9.14-13.38,7.61-1.77-.28-4.47-1.46-4.19-2.28a.72.72,0,0,1,.39-.36,6.89,6.89,0,0,1,2.23-.26A33.18,33.18,0,0,0,22,17.33a13.13,13.13,0,0,0,6-3.6,1.13,1.13,0,0,1,.68-.3c.14,0,.28.18.37.29" fill="#949799"/><path d="M29,14.32c2,4.51-9.07,9.09-15.33,6.35a4.91,4.91,0,0,1-1.59-1.09.56.56,0,0,1,0-.44c.22-.34,1.08-.5,3.7-.67a28.13,28.13,0,0,0,6.35-1,14.61,14.61,0,0,0,5.11-2.58A3.58,3.58,0,0,1,28.49,14s.38.06.48.3" fill="#979a9d"/><path d="M28.86,15.23c.36,1.92-2.44,4.44-5,5.23-7.26,2.26-10.8-.28-10.83-.31l-.54-.51a.55.55,0,0,1,.1-.43,6.48,6.48,0,0,1,.83-.32l2.33-.27a29.88,29.88,0,0,0,6.82-1.22,15.67,15.67,0,0,0,3.47-1.52c2.32-1.37,2.32-1.37,2.6-1.14a.91.91,0,0,1,.21.49" fill="#9b9ea0"/><path d="M28.51,15.69c.79,4-11.56,7.68-15.19,4.49-.58-.51-.23-.86-.19-.9s.34-.25,1.84-.42a44.82,44.82,0,0,0,6.46-1,20.08,20.08,0,0,0,4.44-1.66l1.82-.94a3.55,3.55,0,0,1,.59,0,.66.66,0,0,1,.23.43" fill="#9ea1a4"/><path d="M28.1,16.14c.23,1-1.81,3.51-5.21,4.46-5.94,1.67-9.27-.37-9.29-.39s-.34-.31-.34-.48a.48.48,0,0,1,.28-.41c2.88-.79,5.91-.76,8.79-1.59a21.71,21.71,0,0,0,2.1-.71c3.19-1.33,3.19-1.33,3.4-1.25a.58.58,0,0,1,.27.37" fill="#a2a4a7"/><path d="M27.46,17.27c-.69,1.57-3.37,3.18-6.1,3.67-4.61.83-7.86-.57-7.8-1.19a.58.58,0,0,1,.38-.4c2.5-.63,5.09-.71,7.59-1.3l1.27-.35.8-.24c.65-.2,1.85-.65,1.86-.66,1.46-.6,1.81-.54,1.82-.53a.53.53,0,0,1,.34.3,1.13,1.13,0,0,1-.16.7" fill="#a5a8ab"/><path d="M27.06,17.55c-.46,1.23-3.39,2.94-5.71,3.33-4.62.78-7.6-.51-7.5-1.1,0-.19.32-.36.51-.4,2.09-.45,4.23-.62,6.32-1.07.53-.11,1.23-.26,1.76-.4a22.32,22.32,0,0,0,2.44-.74,17.49,17.49,0,0,1,1.81-.47.63.63,0,0,1,.4.27.83.83,0,0,1,0,.58" fill="#a9abae"/><path d="M26.66,17.8c-.45,1.06-3.34,2.7-5.32,3-4.8.77-7.3-.54-7.19-1,0-.22.41-.35.62-.4,1.81-.38,3.66-.54,5.47-.91,2-.4,3.93-1,5.93-1.45a.59.59,0,0,1,.54.19c.1.14,0,.41-.05.57" fill="#acafb2"/><path d="M26.25,18c-.64,1.36-3.94,2.56-4.91,2.71-5.67.85-6.94-.76-6.9-.93,0,0,.09-.25,1.31-.52,1.95-.43,3.94-.62,5.9-1,1.33-.27,2.62-.68,4-.94.22-.05.58-.05.71.12s0,.4-.06.56" fill="#b6b9bb"/><path d="M25.81,18.27c-.76,1.53-4.45,2.41-4.48,2.42-6.06.86-6.59-.84-6.58-.86.09-.29.09-.29,4.59-1,1.24-.19,2.45-.53,3.68-.77,2.72-.52,2.72-.52,2.87-.33s0,.4-.08.55" fill="#babdbf"/><path d="M25.43,18c0,.14.09.32,0,.44-.21.6-1.95,1.91-5.2,2.35s-5.41-.35-5.22-.93a4.45,4.45,0,0,1,1-.42l.94-.14L23.84,18c.53-.12,1.25-.27,1.56-.06a.07.07,0,0,1,0,0" fill="#bdc0c2"/><path d="M25.2,18.55c-.09.25-1.38,1.71-4.93,2.18-2.95.39-5.12-.26-4.92-.87.08-.26.08-.26,8.78-1.83.3-.06.79-.15,1,0a.52.52,0,0,1,.05.47" fill="#c0c2c4"/><path d="M24.93,18.67c-.21.56-2.46,1.65-3.63,1.86-3.9.71-5.4-.21-5.41-.22s-.28-.31-.23-.45c.1-.31,8.83-1.88,9.15-1.65a.46.46,0,0,1,.12.46" fill="#c2c4c7"/><path d="M24.65,18.79a7.27,7.27,0,0,1-3.36,1.69c-3.88.7-5.11-.16-5.12-.17s-.26-.31-.2-.45a50,50,0,0,1,8.59-1.52.45.45,0,0,1,.09.45" fill="#c4c7c9"/><path d="M24.36,18.9a7.32,7.32,0,0,1-3.08,1.53c-2.57.46-4.47.2-4.83-.12-.11-.1-.23-.32-.17-.45.18-.35,7.63-1.66,8-1.4a.44.44,0,0,1,.11.44" fill="#c6c8ca"/><path d="M24.07,19a7.74,7.74,0,0,1-2.79,1.37,24.19,24.19,0,0,1-2.69.28c-.26,0-1.86-.36-1.86-.36s-.2-.32-.13-.44c.17-.31,7-1.51,7.34-1.29a.47.47,0,0,1,.13.44" fill="#c8cacc"/><path d="M23.77,19.11a9.09,9.09,0,0,1-2.5,1.22,22.47,22.47,0,0,1-2.69.27A2.68,2.68,0,0,1,17,20.3c-.11-.1-.2-.33-.12-.45.24-.41,1-.38,1.51-.46,3.93-.68,5.12-.76,5.2-.7a.44.44,0,0,1,.15.42" fill="#caccce"/><path d="M21.47,20.21a8.74,8.74,0,0,1-4.19.07.46.46,0,0,1-.07-.45c.21-.32.85-.31,1.23-.38.83-.14,1.66-.33,2.49-.44l2.35-.21a.41.41,0,0,1,.18.41,17.18,17.18,0,0,1-2,1" fill="#cbcdcf"/><path d="M21.24,20.21c-.72.2-3.42.36-3.69.05a.41.41,0,0,1,0-.44,28.76,28.76,0,0,1,5.39-.91c.12.07.26.28.22.41a18.92,18.92,0,0,1-1.89.89" fill="#cdcfd1"/><path d="M21.23,20.14c-.49.13-3.18.38-3.41.11a.48.48,0,0,1,0-.45,25.91,25.91,0,0,1,4.7-.78c.13.06.3.26.27.4s-1.42.68-1.56.72" fill="#cfd0d2"/><path d="M21.21,20.07a13.05,13.05,0,0,1-3.12.16.43.43,0,0,1,0-.45,25.7,25.7,0,0,1,4-.65c.14.06.34.24.31.38-.1.39-.84.45-1.23.56" fill="#d0d2d3"/><path d="M21.2,20a20.17,20.17,0,0,1-2.84.22.46.46,0,0,1,.07-.46l.05,0,1-.15c.3,0,.7-.13,1-.2s.89-.3,1.23-.16c.15.06.39.23.35.38s-.6.32-.88.39" fill="#d1d3d5"/><path d="M21.18,19.92s-.87.14-2.16.22a4.84,4.84,0,0,1,.88-.56,6.66,6.66,0,0,1,1.43-.27c.15.06.28.26.4.38a4.28,4.28,0,0,1-.55.23" fill="#d3d4d6"/><path d="M21.17,19.85a6.31,6.31,0,0,1-.76.1c.21-.13.44-.44.68-.42s.19.17.27.24l-.19.08" fill="#d4d5d7"/></g></g></g></g></svg>